<?xml version="1.0" encoding="utf-8"?>
<!-- Generator: Adobe Illustrator 18.1.1, SVG Export Plug-In . SVG Version: 6.00 Build 0)  -->
<!DOCTYPE svg PUBLIC "-//W3C//DTD SVG 1.1//EN" "http://www.w3.org/Graphics/SVG/1.1/DTD/svg11.dtd">
<svg version="1.1" id="Layer_1" xmlns="http://www.w3.org/2000/svg" xmlns:xlink="http://www.w3.org/1999/xlink" x="0px" y="0px"
	 viewBox="192.4 0 584.6 560" enable-background="new 192.4 0 584.6 560" xml:space="preserve">
<circle fill="none" stroke="#E17A7B" stroke-width="38" stroke-linecap="round" stroke-linejoin="round" stroke-miterlimit="10" cx="485.1" cy="279.3" r="261.1"/>
<g>
	<path fill="#E17A7B" d="M320.5,235.5c5,1.1,9.7,2.5,14.4,3.9c4.7,1.5,9.3,3,13.8,4.7c4.6,1.6,9,3.4,13.4,5.1
		c4.4,1.7,8.8,3.6,13.1,5.5c4.3,1.9,8.6,3.9,12.8,5.9c2.1,1,4.2,2,6.3,3.1c2.1,1,4.2,2.1,6.2,3.1c4.1,2.1,8.2,4.3,12.3,6.5
		c4,2.2,8.1,4.5,12,6.8c4,2.3,7.9,4.7,11.8,7c3.9,2.4,7.8,4.8,11.6,7.3c3.8,2.5,7.7,4.9,11.4,7.5l5.6,3.8l5.6,3.9
		c3.7,2.6,7.4,5.3,11,8c3.7,2.6,7.2,5.5,10.8,8.2c3.6,2.7,7.1,5.6,10.7,8.4c3.5,2.8,7,5.7,10.5,8.6l-56.1-0.3l10.7-8.6l10.9-8.4
		c3.7-2.7,7.4-5.5,11.1-8.2c3.8-2.7,7.4-5.4,11.3-8l5.7-3.9c1.9-1.3,3.8-2.6,5.8-3.8c3.8-2.6,7.7-5,11.6-7.5
		c3.9-2.5,7.9-4.9,11.8-7.3c4-2.4,8-4.7,12-7c4-2.3,8.1-4.5,12.2-6.8c4.1-2.2,8.3-4.4,12.5-6.5c2.1-1.1,4.2-2.1,6.3-3.1
		c2.1-1,4.2-2.1,6.4-3c4.3-2,8.6-4,13-5.8c4.4-1.9,8.8-3.7,13.3-5.5c4.5-1.7,9-3.5,13.6-5.1c2.3-0.8,4.6-1.6,7-2.4l7.1-2.2
		c4.8-1.4,9.6-2.8,14.7-3.8l1.1-0.2c1.3-0.3,2.5,0.6,2.7,1.8c0.2,0.9-0.1,1.7-0.8,2.2l-10.4,9l-10.5,8.9l-21,17.8l-42.2,35.3
		l-10.6,8.8l-10.6,8.7l-21.3,17.5l-42.5,35c-1.8,1.5-4.5,1.4-6.2,0l-41.5-35l-20.8-17.5l-10.4-8.8l-10.3-8.8L358.2,275l-20.5-17.8
		l-10.2-8.9l-10.2-9c-1-0.8-1.1-2.3-0.2-3.3c0.6-0.6,1.4-0.9,2.2-0.7L320.5,235.5z"/>
</g>
</svg>
