<?xml version="1.0" encoding="utf-8"?>
<!-- Generator: Adobe Illustrator 18.1.1, SVG Export Plug-In . SVG Version: 6.00 Build 0)  -->
<!DOCTYPE svg PUBLIC "-//W3C//DTD SVG 1.1//EN" "http://www.w3.org/Graphics/SVG/1.1/DTD/svg11.dtd">
<svg version="1.1" id="Layer_1" xmlns="http://www.w3.org/2000/svg" xmlns:xlink="http://www.w3.org/1999/xlink" x="0px" y="0px"
	 viewBox="0 0 351.3 351.3" enable-background="new 0 0 351.3 351.3" xml:space="preserve">
<g>
	<path fill="#763856" d="M126.1,157.8c10.9-0.4,17-6.8,17.3-16.5c0.3-9.7-5.1-16.4-16.4-17.2c-13.4-0.9-26.8-0.2-40.8-0.2
		c0,11.5,0,22.3,0,34C99.9,158,113.1,158.4,126.1,157.8z"/>
	<path fill="#763856" d="M275.8,181.6c-2.7-18.4-15.9-27-33.4-22.7c-10.2,2.5-17.8,13.9-15.1,22.7
		C243.3,181.6,259.2,181.6,275.8,181.6z"/>
	<path fill="#763856" d="M126.8,186.4c-12.9-0.5-25.8-0.1-40.3-0.1c0,14,0,27.6,0,41.7c13.9,0,27.1,0.5,40.2-0.1
		c12.8-0.6,19.8-8.9,19.8-22C146.5,193.9,139.8,186.9,126.8,186.4z"/>
	<path fill="#763856" d="M175.6,0C78.6,0,0,78.6,0,175.6s78.6,175.6,175.6,175.6c97,0,175.6-78.6,175.6-175.6S272.7,0,175.6,0z
		 M218,102.1c21.5,0,42.5,0,64.2,0c0,5.1,0,9.9,0,15.3c-21.2,0-42.4,0-64.2,0C218,112.2,218,107.5,218,102.1z M180.6,214.3
		c-2.8,19.5-13.5,33.3-32.9,39.3c-4.1,1.3-8.4,2.5-12.6,2.5c-28.5,0.2-57.1,0.1-86.4,0.1c0-53.4,0-106.4,0-160.2
		c2.2-0.3,4.5-0.9,6.8-0.9c25.5,0,51-0.3,76.5,0.2c23,0.4,39.3,12.7,42.9,32.9c3,16.9-0.8,31.8-17.6,41.6
		C176.6,179.4,183.3,194.9,180.6,214.3z M298.2,235.1c-15.5,19.7-36.9,23.3-59.8,19.2c-19.7-3.6-36.2-13.7-41.6-34.4
		c-7-26.5-7.4-53,14.9-73.4c18.3-16.8,40.6-17.7,63-9.6c20.2,7.3,29.8,23.5,32.4,44.2c2.7,21.6,2.6,21.6-18.6,21.6
		c-21.1,0-42.3,0-64.5,0c1,13,5.8,21.9,17.2,26.2c11.6,4.3,23.6,1.1,31.9-7.6c1.7-1.8,4.3-3.6,6.6-3.8c6.4-0.5,12.9-0.2,19.3-0.2
		c2.1,0,4.2,0.3,8.6,0.7C304.2,224.3,302,230.3,298.2,235.1z"/>
</g>
</svg>
