<?xml version="1.0" encoding="utf-8"?>
<!-- Generator: Adobe Illustrator 18.1.1, SVG Export Plug-In . SVG Version: 6.00 Build 0)  -->
<!DOCTYPE svg PUBLIC "-//W3C//DTD SVG 1.1//EN" "http://www.w3.org/Graphics/SVG/1.1/DTD/svg11.dtd">
<svg version="1.1" xmlns="http://www.w3.org/2000/svg" xmlns:xlink="http://www.w3.org/1999/xlink" x="0px" y="0px"
	 viewBox="0 0 432.6 432.6" enable-background="new 0 0 432.6 432.6" xml:space="preserve">
<g id="Layer_1">
	<g>
		<path fill="#FED9BA" d="M166.8,198.5c10.9-0.4,17-6.8,17.3-16.5c0.3-9.7-5.1-16.4-16.4-17.2c-13.4-0.9-26.8-0.2-40.8-0.2
			c0,11.5,0,22.3,0,34C140.6,198.6,153.7,199,166.8,198.5z"/>
		<path fill="#FED9BA" d="M316.5,222.3c-2.7-18.4-15.9-27-33.4-22.7c-10.2,2.5-17.8,13.9-15.1,22.7
			C283.9,222.3,299.9,222.3,316.5,222.3z"/>
		<path fill="#FED9BA" d="M167.4,227.1c-12.9-0.5-25.8-0.1-40.3-0.1c0,14,0,27.6,0,41.7c13.9,0,27.1,0.5,40.2-0.1
			c12.8-0.6,19.8-8.9,19.8-22C187.1,234.5,180.5,227.6,167.4,227.1z"/>
		<path fill="#FED9BA" d="M216.3,40.7c-97,0-175.6,78.6-175.6,175.6s78.6,175.6,175.6,175.6c97,0,175.6-78.6,175.6-175.6
			S313.3,40.7,216.3,40.7z M258.7,142.8c21.5,0,42.5,0,64.2,0c0,5.1,0,9.9,0,15.3c-21.2,0-42.4,0-64.2,0
			C258.7,152.9,258.7,148.2,258.7,142.8z M221.3,255c-2.8,19.5-13.5,33.3-32.9,39.3c-4.1,1.3-8.4,2.5-12.6,2.5
			c-28.5,0.2-57.1,0.1-86.4,0.1c0-53.4,0-106.4,0-160.2c2.2-0.3,4.5-0.9,6.8-0.9c25.5,0,51-0.3,76.5,0.2c23,0.4,39.3,12.7,42.9,32.9
			c3,16.9-0.8,31.8-17.6,41.6C217.2,220.1,224,235.6,221.3,255z M338.9,275.8c-15.5,19.7-36.9,23.3-59.8,19.2
			c-19.7-3.6-36.2-13.7-41.6-34.4c-7-26.5-7.4-53,14.9-73.4c18.3-16.8,40.6-17.7,63-9.6c20.2,7.3,29.8,23.5,32.4,44.2
			c2.7,21.6,2.6,21.6-18.6,21.6c-21.1,0-42.3,0-64.5,0c1,13,5.8,21.9,17.2,26.2c11.6,4.3,23.6,1.1,31.9-7.6c1.7-1.8,4.3-3.6,6.6-3.8
			c6.4-0.5,12.9-0.2,19.3-0.2c2.1,0,4.2,0.3,8.6,0.7C344.8,265,342.6,271,338.9,275.8z"/>
	</g>
</g>
<g id="Isolation_Mode">
	<g>
		<path fill="#FED9BA" d="M216.3,11.7c113,0,204.7,91.6,204.7,204.7c0,113-91.6,204.6-204.7,204.6c-113,0-204.7-91.6-204.7-204.6
			C11.7,103.3,103.3,11.7,216.3,11.7 M216.3,0c-29.2,0-57.5,5.7-84.2,17c-25.8,10.9-48.9,26.5-68.8,46.3
			c-19.9,19.9-35.5,43-46.3,68.8c-11.3,26.7-17,55-17,84.2c0,29.2,5.7,57.5,17,84.2c10.9,25.8,26.5,48.9,46.3,68.7
			c19.9,19.9,43,35.5,68.8,46.3c26.7,11.3,55,17,84.2,17c29.2,0,57.5-5.7,84.2-17c25.8-10.9,48.9-26.5,68.8-46.3
			c19.9-19.9,35.5-43,46.4-68.7c11.3-26.7,17-55,17-84.2c0-29.2-5.7-57.5-17-84.2c-10.9-25.8-26.5-48.9-46.4-68.8
			c-19.9-19.9-43-35.5-68.8-46.3C273.8,5.7,245.5,0,216.3,0L216.3,0z"/>
	</g>
</g>
</svg>
