<?xml version="1.0" encoding="utf-8"?>
<!-- Generator: Adobe Illustrator 18.1.1, SVG Export Plug-In . SVG Version: 6.00 Build 0)  -->
<!DOCTYPE svg PUBLIC "-//W3C//DTD SVG 1.1//EN" "http://www.w3.org/Graphics/SVG/1.1/DTD/svg11.dtd">
<svg version="1.1" id="Layer_1" xmlns="http://www.w3.org/2000/svg" xmlns:xlink="http://www.w3.org/1999/xlink" x="0px" y="0px"
	 viewBox="0 0 960 560" enable-background="new 0 0 960 560" xml:space="preserve">
<path fill="#E17A7B" d="M670.5,106.1c-0.5,4.5,0.7,8.8,3.7,14.6c15.8,31.1,25.1,66.4,19.4,101.5c-5.5,34.8-25.9,64.1-52.9,86
	c-37.7,30.6-82.2,44-127.6,58.3c-5.4,1.7-10.9,3.4-15.2,7.1c-8.7,7.4-10,20-12.3,31c-10,47.3-47.7,76.2-86.5,100.6
	c-30.7,19.3-61.2,46.1-98.2,51.7c-12.7,1.8-42.7,1.2-50.9-12.1c-6.2-10,7.6-49.6,20-68.1c23.4-35.1,49.1-68.1,76.8-100.1
	c27.3-31.6,60.8-61.1,85.7-94.3c0,0,57.1-88.8,91.3-195.5c9.8-31,30.9-65.7,61.8-80.4C601.1-1.1,621-2.8,637,5.4
	c15.6,7.9,24.7,25.5,42.5,29.8c11.3,2.8,32.3-4.3,32.3-4.3l-29.1,25.2c0,12.5-1.7,26.9-7.7,38.1C672.4,98.9,670.8,102.5,670.5,106.1
	z"/>
<ellipse transform="matrix(0.3165 0.9486 -0.9486 0.3165 451.6603 -552.6905)" fill="#FFDABA" cx="609.4" cy="37.1" rx="11.2" ry="11.9"/>
<g>
	<path fill="#FFDABA" d="M670.2,160.6c0,0,0.5,0.9,1.3,2.9c0.8,2,2,4.7,3.2,8.4c1.1,3.7,2.4,8.3,3.3,13.7c0.8,5.4,1.6,11.6,1.4,18.4
		c-0.1,6.8-0.7,14.2-2.4,21.8c-0.3,2-0.9,3.8-1.4,5.8c-0.3,0.9-0.5,2-0.8,2.9c-0.3,1.1-0.7,2-0.9,2.9c-0.7,2-1.3,3.9-2.1,5.9
		c-0.8,2-1.7,3.9-2.5,5.9c-3.5,7.7-8,15.6-13.5,22.7l-2,2.8l-1.1,1.3l-1.1,1.3c-1.4,1.7-2.9,3.4-4.5,5.1c-1.4,1.7-3.2,3.3-4.7,5
		l-4.9,4.9c-1.7,1.6-3.4,3-5.1,4.5c-1.7,1.4-3.4,3-5.3,4.3c-1.8,1.3-3.7,2.6-5.4,3.9l-2.8,2l-1.3,0.9l-1.4,0.9
		c-3.7,2.4-7.4,4.9-11.2,7c-3.8,2.1-7.5,4.1-11.3,6c-7.6,3.5-14.8,7.1-22.1,9.7c-1.8,0.7-3.5,1.3-5.3,2c-1.7,0.7-3.4,1.3-5.1,1.8
		c-3.4,1.1-6.7,2.1-9.8,3.2c-1.6,0.5-3.2,0.9-4.6,1.4c-1.6,0.4-3,0.8-4.5,1.2c-2.9,0.8-5.6,1.4-8.3,2.1c-1.3,0.3-2.6,0.7-3.8,0.9
		c-0.7,0.1-1.2,0.3-1.8,0.4c-0.7,0.1-1.2,0.3-1.7,0.3c-2.2,0.4-4.3,0.8-6.3,1.2c-3.8,0.7-6.8,1.2-8.8,1.4c-2.1,0.3-3.2,0.5-3.2,0.5
		s1.1-0.4,2.9-1.2c2-0.8,4.7-2,8.3-3.3c3.5-1.4,7.9-3,12.7-5.3c2.5-1.1,5-2.1,7.7-3.3c1.3-0.5,2.8-1.2,4.2-1.7
		c1.4-0.7,2.9-1.3,4.3-2c3-1.3,6-2.8,9.2-4.2c1.6-0.7,3.2-1.4,4.9-2.2c1.6-0.8,3.3-1.6,4.9-2.5c6.7-3.2,13.4-7.1,20.5-10.9
		c3.4-2.1,6.8-4.2,10.4-6.3c1.7-1.1,3.4-2.4,5.1-3.4c1.7-1.2,3.4-2.4,5.1-3.5l1.3-0.9l1.2-0.9l2.5-2c1.7-1.3,3.3-2.5,5-3.8
		c1.7-1.3,3.2-2.8,4.9-4.1l4.7-4.1c6-5.8,11.9-11.8,16.9-18.3l1.8-2.4l0.9-1.2l0.9-1.3c1.2-1.7,2.2-3.3,3.4-5
		c0.3-0.4,0.5-0.8,0.8-1.2l0.8-1.3c0.5-0.9,1.1-1.7,1.4-2.6c1.1-1.7,2.1-3.4,2.9-5.1c0.9-1.7,1.7-3.4,2.6-5.1
		c0.8-1.7,1.4-3.5,2.2-5.3c0.4-0.9,0.8-1.7,1.1-2.6c0.3-0.9,0.7-1.7,0.9-2.6c0.3-0.9,0.7-1.7,0.9-2.6l0.5-1.3l0.4-1.3
		c0.5-1.7,1.1-3.4,1.4-5.1c0.4-1.7,0.8-3.4,1.2-5c0.4-1.7,0.7-3.3,0.9-5c0.3-1.6,0.7-3.2,0.8-4.7c0.1-1.6,0.4-3.2,0.5-4.6
		c0.1-1.6,0.3-3,0.3-4.5c0.1-1.4,0.1-2.9,0.1-4.2c0-1.4,0.1-2.8,0.1-4.1c0-5.3-0.3-9.8-0.7-13.5
		C671.4,164.8,670.2,160.6,670.2,160.6z"/>
</g>
<g>
	<path fill="#FFDABA" d="M649.4,165.8c0,0,0.4,0.8,1.2,2.4c0.7,1.6,1.7,3.9,2.6,7.1c0.9,3.2,2,7,2.6,11.4c0.7,4.5,1.3,9.7,1.2,15.4
		c-0.1,5.6-0.5,11.8-2,18.3c-0.3,1.6-0.8,3.2-1.2,4.9c-0.4,1.6-0.8,3.3-1.4,4.9c-0.5,1.6-1.1,3.3-1.7,5c-0.7,1.6-1.4,3.3-2.1,4.9
		c-3,6.6-6.7,13-11.3,19l-1.7,2.2l-0.8,1.2l-0.9,1.1c-1.2,1.4-2.5,2.9-3.7,4.3c-1.2,1.4-2.6,2.8-3.9,4.1l-4.1,4.1
		c-2.9,2.5-5.8,5-8.7,7.4c-1.6,1.2-3,2.2-4.5,3.3l-2.2,1.7c-0.8,0.5-1.4,1.1-2.4,1.6c-3.2,2-6.2,4.1-9.3,5.8
		c-3.2,1.7-6.3,3.4-9.5,5.1c-6.3,3-12.5,5.9-18.4,8.1c-1.4,0.5-3,1.2-4.5,1.7c-1.4,0.5-2.9,1.1-4.3,1.6c-2.9,0.9-5.6,1.8-8.3,2.6
		c-1.3,0.4-2.6,0.8-3.9,1.2c-1.3,0.4-2.5,0.7-3.8,0.9c-2.5,0.7-4.7,1.2-7,1.7c-1.1,0.3-2.1,0.5-3.2,0.8c-1.1,0.3-2,0.5-3,0.7
		c-2,0.4-3.7,0.7-5.3,0.9c-3.2,0.7-5.6,0.9-7.4,1.3c-1.7,0.3-2.6,0.4-2.6,0.4s0.8-0.4,2.5-1.1c1.6-0.7,3.9-1.7,7-2.8
		c3-1.2,6.6-2.5,10.6-4.3c2.1-0.9,4.2-1.8,6.6-2.8c1.2-0.5,2.4-0.9,3.5-1.4s2.4-1.1,3.7-1.7c2.5-1.2,5-2.2,7.7-3.5
		c1.3-0.5,2.6-1.2,4.1-2c1.3-0.7,2.8-1.3,4.1-2.1c5.6-2.6,11.2-5.9,17.1-9.1c2.9-1.8,5.8-3.5,8.7-5.3c1.4-0.9,2.9-2,4.3-2.9
		c1.4-0.9,2.9-2,4.3-2.9c2.9-2,5.5-4.2,8.4-6.3c2.8-2.2,5.4-4.6,8-6.8c5-4.9,10-9.8,14.2-15.2c2.2-2.6,4.1-5.5,5.9-8.3
		c0.5-0.7,0.9-1.4,1.3-2.1c0.4-0.7,0.8-1.4,1.3-2.1c0.8-1.4,1.7-2.8,2.4-4.3c0.8-1.4,1.4-2.9,2.2-4.3c0.7-1.4,1.3-2.9,1.8-4.3
		c0.7-1.4,1.2-2.9,1.7-4.3c0.3-0.8,0.5-1.4,0.8-2.1c0.3-0.7,0.5-1.4,0.7-2.1c0.4-1.4,0.8-2.9,1.2-4.3c0.4-1.4,0.7-2.9,0.9-4.2
		c0.4-1.4,0.5-2.8,0.8-4.1c0.3-1.3,0.5-2.6,0.7-4.1c0.1-1.3,0.3-2.6,0.5-3.9c0.1-1.3,0.1-2.5,0.3-3.7c0.1-1.2,0.1-2.4,0.1-3.5
		s0.1-2.2,0-3.4c0-4.3-0.3-8.1-0.7-11.3C650.4,169.5,649.4,165.8,649.4,165.8z"/>
</g>
<path fill="#FFDABA" d="M326.4,506.2c-14.6,15.2-31.5,29.1-50.9,34.7c0,0-24.4,10.9-9.1-16c15.4-26.9,59.7-51.6,59.7-51.6
	s45.4-27.8,48.6-27.8c-2.6,0-21.8,29.7-24.4,33C343.2,487,335.4,496.8,326.4,506.2z"/>
<path fill="#FFDABA" d="M310.8,475.6c-10.4,5.8-21.9,10.2-33.4,10c0,0-15,1.7-2.2-10.1c12.7-11.8,40.8-17.6,40.8-17.6
	s29.1-7.2,30.9-6.8c-1.4-0.4-16.7,12.2-18.6,13.5C323,468.1,317.1,472,310.8,475.6z"/>
<path fill="#FFDABA" d="M351.8,508.9c-5,11.2-11.7,22.1-21.1,28.6c0,0-11.2,10.5-7.9-7.4s22.7-39.7,22.7-39.7s19.4-23.8,21.1-24.4
	c-1.4,0.5-6.3,20.5-7.1,22.8C357.3,495.1,354.8,502.1,351.8,508.9z"/>
<path fill="#FFDABA" d="M349,415.8c-8.1,6.8-17.3,12.9-27.3,14.4c0,0-12.7,4.1-3.4-8.8c9.3-12.7,32.7-22.6,32.7-22.6
	s24.2-11.3,25.7-11.2c-1.3-0.1-12.6,13.8-14.2,15.2C358.5,407.2,354,411.6,349,415.8z"/>
<path fill="#FFDABA" d="M380.7,373c-6.2,5.1-13,9.7-20.5,10.9c0,0-9.6,3-2.6-6.6c7-9.6,24.6-16.9,24.6-16.9s18.1-8.5,19.3-8.4
	c-0.9-0.1-9.5,10.4-10.6,11.4C387.8,366.6,384.3,369.9,380.7,373z"/>
<path fill="#FFDABA" d="M467.9,425.3c-3.2,7.4-7.4,14.4-13.4,18.9c0,0-7.2,7-5.3-4.7c2-11.7,14.3-26.1,14.3-26.1
	s12.3-15.8,13.5-16.2c-0.9,0.4-3.8,13.5-4.3,15C471.3,416.2,469.8,420.8,467.9,425.3z"/>
<path fill="#FFDABA" d="M407.2,386.4c-6.2,5.1-13,9.7-20.5,10.9c0,0-9.6,3-2.6-6.6c7-9.6,24.6-16.9,24.6-16.9s18.1-8.5,19.3-8.4
	c-0.9-0.1-9.5,10.4-10.6,11.4C414.3,379.9,410.9,383.3,407.2,386.4z"/>
<path fill="#FFDABA" d="M439.2,405.3c-5.8,5.5-11,11.9-13,19.3c0,0-3.9,9.2,6.3,3.3c10.2-5.9,19.4-22.6,19.4-22.6
	s10.4-17.1,10.4-18.4c0,0.9-11.3,8.4-12.5,9.3C446.5,398.9,442.8,401.9,439.2,405.3z"/>
<path fill="#FFDABA" d="M420.1,391.5c-6.2,5.1-11.7,11.3-14.2,18.4c0,0-4.6,8.9,6,3.7c10.6-5.3,20.9-21.4,20.9-21.4
	s11.4-16.4,11.4-17.6c0,0.9-11.8,7.6-13.1,8.5C427.7,385.6,423.7,388.4,420.1,391.5z"/>
<path fill="#FFDABA" d="M376.2,430.9c-7.7,7.4-16.5,13.9-26.4,16c0,0-12.5,4.7-3.9-8.5c8.5-13.3,31.2-24.4,31.2-24.4
	s23.4-12.7,24.9-12.6c-1.3-0.1-11.8,14.4-13.1,16C385.1,421.7,380.8,426.5,376.2,430.9z"/>
<path fill="#FFDABA" d="M410.5,450.5c-8.1,7-15.5,15.1-18.6,24.6c0,0-6,11.8,8.1,4.7c14-7.1,27.6-28.6,27.6-28.6
	s15.1-21.9,15.1-23.5c0,1.3-15.6,10.2-17.3,11.4C420.6,442.6,415.3,446.3,410.5,450.5z"/>
<path fill="#FFDABA" d="M390.9,435.3c-8.1,7-15.5,15.1-18.8,24.6c0,0-6,11.8,8,4.9c14-7,27.6-28.6,27.6-28.6s15.1-21.9,15.2-23.5
	c-0.1,1.3-15.6,10.2-17.3,11.4C401,427.4,395.8,431.1,390.9,435.3z"/>
</svg>
