<?xml version="1.0" encoding="utf-8"?>
<!-- Generator: Adobe Illustrator 18.1.1, SVG Export Plug-In . SVG Version: 6.00 Build 0)  -->
<!DOCTYPE svg PUBLIC "-//W3C//DTD SVG 1.1//EN" "http://www.w3.org/Graphics/SVG/1.1/DTD/svg11.dtd">
<svg version="1.1" id="Layer_1" xmlns="http://www.w3.org/2000/svg" xmlns:xlink="http://www.w3.org/1999/xlink" x="0px" y="0px"
	 viewBox="190.3 0 465.6 560" enable-background="new 190.3 0 465.6 560" xml:space="preserve">
<path fill="#753855" d="M614.1,106.6c-0.5,4.5,0.7,8.9,3.7,14.6c15.9,31.3,25.1,66.8,19.6,101.9c-5.5,35-25.9,64.3-53.1,86.4
	c-37.8,30.8-82.5,44.2-128.2,58.6c-5.4,1.7-10.9,3.3-15.2,7.2c-8.7,7.4-10,20.1-12.4,31.1c-10,47.5-47.9,76.5-86.9,100.9
	c-30.8,19.4-61.4,46.4-98.6,51.9c-12.7,1.8-42.8,1.2-51.2-12.1c-6.2-10,7.7-49.9,20.1-68.5c23.4-35.1,49.4-68.5,77.2-100.4
	c27.4-31.8,61.1-61.3,86-94.7c0,0,57.4-89.2,91.7-196.3c9.9-31.1,31-65.9,62.1-80.7c15.9-7.5,35.6-9.2,51.9-1
	c15.7,7.9,24.8,25.6,42.7,30c11.4,2.8,32.5-4.4,32.5-4.4l-29.3,25.3c0,12.6-1.7,27.1-7.7,38.2C616.1,99.2,614.4,102.9,614.1,106.6z"
	/>
<ellipse transform="matrix(0.9486 -0.3165 0.3165 0.9486 16.6189 176.8199)" fill="#E17A7B" cx="552.6" cy="37.3" rx="12.1" ry="11.2"/>
<g>
	<path fill="#E17A7B" d="M613.7,161.3c0,0,0.5,1,1.3,2.8c0.8,2,2,4.7,3.2,8.4c1,3.7,2.3,8.4,3.3,13.7c0.8,5.4,1.5,11.5,1.5,18.4
		c-0.2,6.9-0.7,14.2-2.3,21.9c-0.3,2-1,3.8-1.5,5.9c-0.3,1-0.5,2-0.8,2.8c-0.3,1-0.7,2-1,2.8c-0.7,2-1.3,4-2.2,5.9
		c-0.8,2-1.7,4-2.5,5.9c-3.5,7.7-8,15.7-13.6,22.8l-2,2.8l-1,1.3l-1,1.3c-1.5,1.7-2.8,3.3-4.5,5.2c-1.5,1.7-3.2,3.3-4.7,5l-4.9,4.9
		c-1.7,1.5-3.3,3-5.2,4.5c-1.7,1.5-3.3,3-5.4,4.4c-1.8,1.3-3.7,2.7-5.4,4l-2.8,2l-1.3,1l-1.5,1c-3.7,2.3-7.4,4.9-11.2,7
		c-3.8,2.2-7.5,4-11.4,6c-7.7,3.5-14.9,7.2-22.1,9.7c-1.8,0.7-3.5,1.3-5.4,2c-1.7,0.7-3.3,1.3-5.2,1.8c-3.3,1-6.7,2.2-9.9,3.2
		c-1.5,0.5-3.2,1-4.7,1.5c-1.5,0.3-3,0.8-4.5,1.2c-2.8,0.8-5.7,1.5-8.4,2.2c-1.3,0.3-2.7,0.7-3.8,1c-0.7,0.2-1.2,0.3-1.8,0.3
		c-0.7,0.2-1.2,0.3-1.7,0.3c-2.2,0.3-4.4,0.8-6.4,1.2c-3.8,0.7-6.9,1.2-8.9,1.5c-2.2,0.3-3.2,0.5-3.2,0.5s1-0.3,2.8-1.2
		c2-0.8,4.7-2,8.4-3.3c3.5-1.5,7.9-3,12.7-5.4c2.5-1,5-2.2,7.7-3.3c1.3-0.5,2.8-1.2,4.2-1.7c1.5-0.7,2.8-1.3,4.4-2
		c3-1.3,6-2.8,9.2-4.2c1.5-0.7,3.2-1.5,4.9-2.2c1.5-0.8,3.3-1.5,4.9-2.5c6.7-3.2,13.4-7.2,20.6-10.9c3.3-2.2,6.9-4.2,10.4-6.4
		c1.7-1,3.3-2.3,5.2-3.3c1.7-1.2,3.3-2.3,5.2-3.5l1.3-1l1.2-1l2.5-2c1.7-1.3,3.3-2.5,5-3.8c1.7-1.3,3.2-2.8,4.9-4l4.7-4
		c6-5.9,12.1-11.9,17.1-18.4l1.8-2.3l1-1.2l1-1.3c1.2-1.7,2.2-3.3,3.3-5c0.3-0.3,0.5-0.8,0.8-1.2l0.8-1.3c0.5-1,1-1.7,1.5-2.7
		c1-1.7,2.2-3.3,2.8-5.2c1-1.7,1.7-3.3,2.7-5.2c0.8-1.7,1.5-3.5,2.2-5.4c0.3-1,0.8-1.7,1-2.7c0.3-1,0.7-1.7,1-2.7
		c0.3-1,0.7-1.7,1-2.7l0.5-1.3l0.3-1.3c0.5-1.7,1-3.3,1.5-5.2c0.3-1.7,0.8-3.3,1.2-5c0.3-1.7,0.7-3.3,1-5c0.3-1.5,0.7-3.2,0.8-4.7
		c0.2-1.5,0.3-3.2,0.5-4.7c0.2-1.5,0.3-3,0.3-4.5c0.2-1.5,0.2-2.8,0.2-4.2c0-1.5,0.2-2.8,0.2-4c0-5.4-0.3-9.9-0.7-13.6
		C614.9,165.5,613.7,161.3,613.7,161.3z"/>
</g>
<g>
	<path fill="#E17A7B" d="M593,166.5c0,0,0.3,0.8,1.2,2.3c0.7,1.5,1.7,4,2.7,7.2c1,3.2,2,7,2.7,11.5c0.7,4.5,1.3,9.7,1.2,15.4
		s-0.5,11.9-2,18.4c-0.3,1.5-0.8,3.2-1.2,4.9c-0.3,1.5-0.8,3.3-1.5,4.9c-0.5,1.5-1,3.3-1.7,5c-0.7,1.5-1.5,3.3-2.2,4.9
		c-3,6.5-6.7,13.1-11.4,19.1l-1.7,2.2l-0.8,1.2l-1,1c-1.2,1.5-2.5,2.8-3.7,4.4c-1.2,1.5-2.7,2.8-4,4l-4,4c-2.8,2.5-5.9,5-8.7,7.4
		c-1.5,1.2-3,2.2-4.5,3.3l-2.2,1.7c-0.8,0.5-1.5,1-2.3,1.5c-3.2,2-6.2,4-9.4,5.9c-3.2,1.7-6.4,3.3-9.5,5.2c-6.4,3-12.6,5.9-18.4,8.2
		c-1.5,0.5-3,1.2-4.5,1.7c-1.5,0.5-2.8,1-4.4,1.5c-2.8,1-5.7,1.8-8.4,2.7c-1.3,0.3-2.7,0.8-4,1.2c-1.3,0.3-2.5,0.7-3.8,1
		c-2.5,0.7-4.7,1.2-7,1.7c-1,0.3-2.2,0.5-3.2,0.8c-1,0.3-2,0.5-3,0.7c-2,0.3-3.7,0.7-5.4,1c-3.2,0.7-5.7,1-7.4,1.3
		c-1.7,0.3-2.7,0.3-2.7,0.3s0.8-0.3,2.5-1c1.5-0.7,4-1.7,7-2.8c3-1.2,6.5-2.5,10.7-4.4c2.2-1,4.2-1.8,6.5-2.8c1.2-0.5,2.3-1,3.5-1.5
		s2.3-1,3.7-1.7c2.5-1.2,5-2.2,7.7-3.5c1.3-0.5,2.7-1.2,4-2c1.3-0.7,2.8-1.3,4-2.2c5.7-2.7,11.2-5.9,17.1-9c2.8-1.8,5.9-3.5,8.7-5.4
		c1.5-1,2.8-2,4.4-2.8c1.5-1,2.8-2,4.4-2.8c2.8-2,5.5-4.2,8.4-6.4c2.8-2.2,5.4-4.7,8-6.9c5-4.9,10-9.9,14.2-15.2
		c2.2-2.7,4-5.5,5.9-8.4c0.5-0.7,1-1.5,1.3-2.2c0.3-0.7,0.8-1.5,1.3-2.2c0.8-1.5,1.7-2.8,2.3-4.4c0.8-1.5,1.5-2.8,2.2-4.4
		c0.7-1.5,1.3-2.8,1.8-4.4c0.7-1.5,1.2-2.8,1.7-4.4c0.3-0.8,0.5-1.5,0.8-2.2c0.3-0.7,0.5-1.5,0.7-2.2c0.3-1.5,0.8-2.8,1.2-4.4
		c0.3-1.5,0.7-2.8,1-4.2c0.3-1.5,0.5-2.8,0.8-4c0.3-1.3,0.5-2.7,0.7-4c0.2-1.3,0.3-2.7,0.5-4c0.2-1.3,0.2-2.5,0.3-3.7
		s0.2-2.3,0.2-3.5c0-1.2,0.2-2.2,0-3.3c0-4.4-0.3-8.2-0.7-11.4C593.8,170.2,593,166.5,593,166.5z"/>
</g>
<path fill="#E17A7B" d="M268.6,508.3c-14.6,15.2-31.6,29.3-51.2,34.8c0,0-24.6,10.9-9-16.1s59.9-51.9,59.9-51.9s45.7-27.9,48.7-27.9
	c-2.7,0-21.9,29.8-24.6,33.1C285.5,489,277.5,498.9,268.6,508.3z"/>
<path fill="#E17A7B" d="M252.9,477.7c-10.4,5.9-22.1,10.2-33.5,10c0,0-15.1,1.7-2.2-10.2c12.7-11.9,41-17.7,41-17.7s29.3-7.2,31-6.9
	c-1.5-0.3-16.7,12.2-18.7,13.6C265.1,470.1,259.3,474,252.9,477.7z"/>
<path fill="#E17A7B" d="M294.1,511.1c-5,11.2-11.7,22.1-21.3,28.8c0,0-11.2,10.5-7.9-7.4c3.3-17.9,22.8-39.8,22.8-39.8
	s19.6-23.9,21.3-24.6c-1.5,0.5-6.4,20.6-7.2,22.9C299.6,497.2,297.1,504.3,294.1,511.1z"/>
<path fill="#E17A7B" d="M291.2,417.6c-8.2,6.9-17.4,12.9-27.4,14.6c0,0-12.7,4-3.3-8.9c9.4-12.7,32.8-22.8,32.8-22.8
	s24.3-11.4,25.8-11.2c-1.3-0.2-12.7,13.9-14.2,15.2C300.8,408.9,296.3,413.4,291.2,417.6z"/>
<path fill="#E17A7B" d="M323,374.6c-6.2,5.2-13.1,9.7-20.6,10.9c0,0-9.7,3-2.7-6.5c7-9.5,24.6-17.1,24.6-17.1s18.2-8.5,19.4-8.4
	c-1-0.2-9.5,10.4-10.7,11.5C330.2,368.2,326.7,371.4,323,374.6z"/>
<path fill="#E17A7B" d="M410.6,427.1c-3.2,7.4-7.4,14.6-13.4,18.9c0,0-7.2,7-5.4-4.7c2-11.7,14.4-26.3,14.4-26.3
	s12.4-15.9,13.6-16.2c-1,0.3-3.8,13.6-4.4,15.1C414.1,418.1,412.6,422.6,410.6,427.1z"/>
<path fill="#E17A7B" d="M349.6,388.1c-6.2,5.2-13.1,9.7-20.6,10.9c0,0-9.7,3-2.7-6.5c7-9.7,24.6-17.1,24.6-17.1s18.2-8.5,19.4-8.4
	c-1-0.2-9.5,10.4-10.7,11.5C356.8,381.4,353.3,384.9,349.6,388.1z"/>
<path fill="#E17A7B" d="M381.8,407c-5.9,5.5-11,12.1-13.1,19.4c0,0-4,9.2,6.4,3.3c10.4-5.9,19.6-22.8,19.6-22.8S405,390,405,388.6
	c0,1-11.4,8.4-12.6,9.4C389.1,400.7,385.5,403.7,381.8,407z"/>
<path fill="#E17A7B" d="M362.5,393.1c-6.2,5.2-11.7,11.4-14.2,18.4c0,0-4.7,9,6,3.7c10.7-5.4,20.9-21.4,20.9-21.4
	s11.5-16.4,11.5-17.7c0,1-11.9,7.7-13.2,8.5C370.2,387.3,366.4,390.1,362.5,393.1z"/>
<path fill="#E17A7B" d="M318.5,432.8c-7.7,7.4-16.6,14.1-26.4,16.1c0,0-12.6,4.7-4-8.5c8.5-13.4,31.3-24.6,31.3-24.6
	s23.4-12.7,25.1-12.7c-1.3-0.2-11.9,14.6-13.2,16.1C327.6,423.6,323.2,428.3,318.5,432.8z"/>
<path fill="#E17A7B" d="M353,452.4c-8.2,7-15.6,15.2-18.7,24.6c0,0-6,11.9,8.2,4.7c14.1-7.2,27.6-28.8,27.6-28.8
	s15.2-22.1,15.2-23.6c0,1.3-15.7,10.2-17.4,11.5C363.2,444.5,357.8,448.2,353,452.4z"/>
<path fill="#E17A7B" d="M333.4,437.2c-8.2,7-15.6,15.2-18.9,24.6c0,0-6,11.9,8,4.9s27.6-28.8,27.6-28.8s15.2-22.1,15.2-23.6
	c-0.2,1.3-15.7,10.2-17.4,11.5C343.5,429.3,338.3,433,333.4,437.2z"/>
</svg>
