<?xml version="1.0" encoding="utf-8"?>
<!-- Generator: Adobe Illustrator 18.1.1, SVG Export Plug-In . SVG Version: 6.00 Build 0)  -->
<!DOCTYPE svg PUBLIC "-//W3C//DTD SVG 1.1//EN" "http://www.w3.org/Graphics/SVG/1.1/DTD/svg11.dtd">
<svg version="1.1" id="Layer_1" xmlns="http://www.w3.org/2000/svg" xmlns:xlink="http://www.w3.org/1999/xlink" x="0px" y="0px"
	 viewBox="190.3 0 465.6 560" enable-background="new 190.3 0 465.6 560" xml:space="preserve">
<path fill="#753855" d="M227.3,94.6c-6-11-7.7-25.6-7.7-38.2l-29.3-25.3c0,0,21.1,7.2,32.5,4.4c17.9-4.4,26.9-22.1,42.7-30
	c16.2-8.2,36-6.5,51.9,1c31.1,14.7,52.2,49.5,62.1,80.7c34.3,107.1,91.7,196.3,91.7,196.3c24.9,33.5,58.6,62.9,86,94.7
	c27.8,32,53.7,65.3,77.2,100.4c12.4,18.6,26.3,58.4,20.1,68.5c-8.4,13.2-38.5,13.9-51.2,12.1c-37.2-5.5-67.8-32.5-98.6-51.9
	c-39-24.4-76.8-53.4-86.9-100.9c-2.3-11-3.7-23.8-12.4-31.1c-4.4-3.8-9.9-5.5-15.2-7.2c-45.7-14.4-90.4-27.8-128.2-58.6
	c-27.1-22.1-47.5-51.4-53.1-86.4c-5.5-35.1,3.7-70.6,19.6-101.9c3-5.7,4.2-10,3.7-14.6C231.8,102.9,230.1,99.2,227.3,94.6z"/>
<ellipse transform="matrix(0.3165 -0.9486 0.9486 0.3165 165.3345 303.9597)" fill="#E17A7B" cx="293.6" cy="37.3" rx="11.2" ry="12.1"/>
<g>
	<path fill="#E17A7B" d="M231.1,173.1c-0.3,3.7-0.7,8.2-0.7,13.6c0,1.2,0.2,2.5,0.2,4c0,1.3,0,2.7,0.2,4.2c0,1.5,0.2,3,0.3,4.5
		c0.2,1.5,0.3,3.2,0.5,4.7c0.2,1.5,0.5,3.2,0.8,4.7c0.3,1.7,0.7,3.3,1,5c0.3,1.7,0.8,3.3,1.2,5c0.5,1.8,1,3.5,1.5,5.2l0.3,1.3
		l0.5,1.3c0.3,1,0.7,1.7,1,2.7s0.7,1.7,1,2.7c0.2,1,0.7,1.7,1,2.7c0.7,1.8,1.3,3.7,2.2,5.4c1,1.8,1.7,3.5,2.7,5.2
		c0.7,1.8,1.8,3.5,2.8,5.2c0.5,1,1,1.7,1.5,2.7l0.8,1.3c0.3,0.3,0.5,0.8,0.8,1.2c1.2,1.7,2.2,3.3,3.3,5l1,1.3l1,1.2l1.8,2.3
		c5,6.5,11,12.6,17.1,18.4l4.7,4c1.7,1.2,3.2,2.7,4.9,4c1.7,1.3,3.3,2.5,5,3.8l2.5,2l1.2,1l1.3,1c1.8,1.2,3.5,2.3,5.2,3.5
		c1.8,1,3.5,2.3,5.2,3.3c3.5,2.2,7,4.2,10.4,6.4c7.2,3.7,13.9,7.7,20.6,10.9c1.5,1,3.3,1.7,4.9,2.5c1.7,0.7,3.3,1.5,4.9,2.2
		c3.2,1.3,6.2,2.8,9.2,4.2c1.5,0.7,2.8,1.3,4.4,2c1.3,0.5,2.8,1.2,4.2,1.7c2.7,1.2,5.2,2.3,7.7,3.3c4.9,2.3,9.2,3.8,12.7,5.4
		c3.7,1.3,6.4,2.5,8.4,3.3c1.8,0.8,2.8,1.2,2.8,1.2s-1-0.2-3.2-0.5c-2-0.3-5-0.8-8.9-1.5c-2-0.3-4.2-0.8-6.4-1.2
		c-0.5,0-1-0.2-1.7-0.3c-0.7,0-1.2-0.2-1.8-0.3c-1.2-0.3-2.5-0.7-3.8-1c-2.7-0.7-5.5-1.3-8.4-2.2c-1.5-0.3-3-0.8-4.5-1.2
		c-1.5-0.5-3.2-1-4.7-1.5c-3.2-1-6.5-2.2-9.9-3.2c-1.8-0.5-3.5-1.2-5.2-1.8c-1.8-0.7-3.5-1.3-5.4-2c-7.2-2.5-14.4-6.2-22.1-9.7
		c-3.8-2-7.5-3.8-11.4-6c-3.8-2.2-7.5-4.7-11.2-7l-1.5-1l-1.3-1l-2.8-2c-1.7-1.3-3.5-2.7-5.4-4c-2-1.3-3.7-2.8-5.4-4.4
		c-1.8-1.5-3.5-3-5.2-4.5l-4.9-4.9c-1.5-1.7-3.2-3.3-4.7-5c-1.7-1.8-3-3.5-4.5-5.2l-1-1.3l-1-1.3l-2-2.8c-5.5-7-10-15.1-13.6-22.8
		c-0.8-1.8-1.7-3.8-2.5-5.9c-0.8-1.8-1.5-3.8-2.2-5.9c-0.3-0.8-0.7-1.8-1-2.8c-0.3-0.8-0.5-1.8-0.8-2.8c-0.5-2-1.2-3.8-1.5-5.9
		c-1.7-7.7-2.2-15.1-2.3-21.9c0-6.9,0.7-13.1,1.5-18.4c1-5.4,2.3-10,3.3-13.7c1.2-3.7,2.3-6.4,3.2-8.4c0.8-1.8,1.3-2.8,1.3-2.8
		S231.3,165.5,231.1,173.1z"/>
</g>
<g>
	<path fill="#E17A7B" d="M252.6,176.4c-0.3,3.2-0.7,7-0.7,11.4c-0.2,1.2,0,2.2,0,3.3c0,1.2,0,2.3,0.2,3.5s0.2,2.3,0.3,3.7
		c0.2,1.3,0.3,2.7,0.5,4c0.2,1.3,0.3,2.7,0.7,4c0.3,1.2,0.5,2.5,0.8,4c0.3,1.3,0.7,2.7,1,4.2c0.3,1.5,0.8,2.8,1.2,4.4
		c0.2,0.7,0.3,1.5,0.7,2.2c0.3,0.7,0.5,1.3,0.8,2.2c0.5,1.5,1,2.8,1.7,4.4c0.5,1.5,1.2,2.8,1.8,4.4c0.7,1.5,1.3,2.8,2.2,4.4
		c0.7,1.5,1.5,2.8,2.3,4.4c0.5,0.7,1,1.5,1.3,2.2c0.3,0.7,0.8,1.5,1.3,2.2c1.8,2.8,3.7,5.7,5.9,8.4c4.2,5.4,9.2,10.4,14.2,15.2
		c2.7,2.2,5.2,4.7,8,6.9c2.8,2.2,5.5,4.4,8.4,6.4c1.5,0.8,2.8,1.8,4.4,2.8c1.5,0.8,2.8,1.8,4.4,2.8c2.8,1.8,5.9,3.5,8.7,5.4
		c5.9,3.2,11.4,6.4,17.1,9c1.2,0.8,2.7,1.5,4,2.2c1.3,0.8,2.7,1.5,4,2c2.7,1.3,5.2,2.3,7.7,3.5c1.3,0.7,2.5,1.2,3.7,1.7
		s2.3,1,3.5,1.5c2.3,1,4.4,1.8,6.5,2.8c4.2,1.8,7.7,3.2,10.7,4.4c3,1.2,5.5,2.2,7,2.8c1.7,0.7,2.5,1,2.5,1s-1,0-2.7-0.3
		c-1.7-0.3-4.2-0.7-7.4-1.3c-1.7-0.3-3.3-0.7-5.4-1c-1-0.2-2-0.3-3-0.7c-1-0.3-2.2-0.5-3.2-0.8c-2.3-0.5-4.5-1-7-1.7
		c-1.3-0.3-2.5-0.7-3.8-1s-2.7-0.8-4-1.2c-2.7-0.8-5.5-1.7-8.4-2.7c-1.5-0.5-2.8-1-4.4-1.5c-1.5-0.5-3-1.2-4.5-1.7
		c-5.9-2.3-12.1-5.2-18.4-8.2c-3.2-1.8-6.4-3.5-9.5-5.2c-3.2-1.8-6.2-3.8-9.4-5.9c-0.8-0.5-1.5-1-2.3-1.5l-2.2-1.7
		c-1.5-1.2-3-2.2-4.5-3.3c-2.8-2.3-5.9-4.9-8.7-7.4l-4-4c-1.3-1.2-2.8-2.5-4-4c-1.2-1.5-2.5-2.8-3.7-4.4l-1-1l-0.8-1.2l-1.7-2.2
		c-4.7-6-8.4-12.6-11.4-19.1c-0.7-1.5-1.5-3.3-2.2-4.9c-0.7-1.7-1.2-3.5-1.7-5c-0.7-1.5-1.2-3.3-1.5-4.9c-0.3-1.7-0.8-3.3-1.2-4.9
		c-1.5-6.5-1.8-12.7-2-18.4c-0.2-5.7,0.5-10.9,1.2-15.4c0.7-4.5,1.7-8.4,2.7-11.5c1-3.2,2-5.7,2.7-7.2c0.8-1.5,1.2-2.3,1.2-2.3
		S252.4,170.2,252.6,176.4z"/>
</g>
<path fill="#E17A7B" d="M553.8,480.3c-2.7-3.3-21.9-33.1-24.6-33.1c3,0,48.7,27.9,48.7,27.9s44.4,24.9,59.9,51.9s-9,16.1-9,16.1
	c-19.6-5.5-36.7-19.6-51.2-34.8C568.7,498.9,560.7,489,553.8,480.3z"/>
<path fill="#E17A7B" d="M575.7,466.4c-2-1.3-17.2-13.9-18.7-13.6c1.7-0.3,31,6.9,31,6.9s28.3,5.9,41,17.7
	c12.9,11.9-2.2,10.2-2.2,10.2c-11.4,0.2-23.1-4.2-33.5-10C586.9,474,581.1,470.1,575.7,466.4z"/>
<path fill="#E17A7B" d="M544.4,491c-0.8-2.3-5.7-22.4-7.2-22.9c1.7,0.7,21.3,24.6,21.3,24.6s19.4,21.9,22.8,39.8
	c3.3,17.9-7.9,7.4-7.9,7.4c-9.5-6.7-16.2-17.6-21.3-28.8C549.1,504.3,546.6,497.2,544.4,491z"/>
<path fill="#E17A7B" d="M541.4,404.5c-1.5-1.3-12.9-15.4-14.2-15.2c1.5-0.2,25.8,11.2,25.8,11.2s23.4,10,32.8,22.8
	c9.4,12.9-3.3,8.9-3.3,8.9c-10-1.7-19.2-7.7-27.4-14.6C550,413.4,545.4,408.9,541.4,404.5z"/>
<path fill="#E17A7B" d="M513.1,365c-1.2-1.2-9.7-11.7-10.7-11.5c1.2-0.2,19.4,8.4,19.4,8.4s17.6,7.5,24.6,17.1
	c7,9.5-2.7,6.5-2.7,6.5c-7.5-1.2-14.4-5.7-20.6-10.9C519.5,371.4,516,368.2,513.1,365z"/>
<path fill="#E17A7B" d="M430.8,413.9c-0.5-1.5-3.3-14.7-4.4-15.1c1.2,0.3,13.6,16.2,13.6,16.2s12.4,14.6,14.4,26.3
	c1.8,11.7-5.4,4.7-5.4,4.7c-6-4.4-10.2-11.5-13.4-18.9C433.6,422.6,432.1,418.1,430.8,413.9z"/>
<path fill="#E17A7B" d="M486.5,378.6c-1.2-1.2-9.7-11.7-10.7-11.5c1.2-0.2,19.4,8.4,19.4,8.4s17.6,7.4,24.6,17.1
	c7,9.5-2.7,6.5-2.7,6.5c-7.5-1.2-14.4-5.7-20.6-10.9C492.9,384.9,489.4,381.4,486.5,378.6z"/>
<path fill="#E17A7B" d="M453.7,398c-1.2-1-12.6-8.4-12.6-9.4c0,1.3,10.4,18.4,10.4,18.4s9.2,16.9,19.6,22.8
	c10.4,5.9,6.4-3.3,6.4-3.3c-2-7.4-7.2-13.9-13.1-19.4C460.8,403.7,457.1,400.7,453.7,398z"/>
<path fill="#E17A7B" d="M472.6,384.6c-1.3-0.8-13.2-7.5-13.2-8.5c0,1.3,11.5,17.7,11.5,17.7s10.2,16.1,20.9,21.4
	c10.7,5.4,6-3.7,6-3.7c-2.5-7-8-13.2-14.2-18.4C479.8,390.1,476,387.3,472.6,384.6z"/>
<path fill="#E17A7B" d="M515,419.1c-1.3-1.5-11.9-16.2-13.2-16.1c1.7,0,25.1,12.7,25.1,12.7s22.8,11.2,31.3,24.6
	c8.5,13.2-4,8.5-4,8.5c-9.9-2-18.7-8.7-26.4-16.1C523,428.3,518.7,423.6,515,419.1z"/>
<path fill="#E17A7B" d="M478.3,440.8c-1.7-1.3-17.4-10.2-17.4-11.5c0,1.5,15.2,23.6,15.2,23.6s13.6,21.6,27.6,28.8
	c14.2,7.2,8.2-4.7,8.2-4.7c-3.2-9.4-10.5-17.6-18.7-24.6C488.4,448.2,483,444.5,478.3,440.8z"/>
<path fill="#E17A7B" d="M498.2,425.8c-1.7-1.3-17.2-10.2-17.4-11.5c0,1.5,15.2,23.6,15.2,23.6s13.6,21.8,27.6,28.8
	c14.1,7,8-4.9,8-4.9c-3.3-9.4-10.7-17.6-18.9-24.6C508,433,502.8,429.3,498.2,425.8z"/>
</svg>
