<?xml version="1.0" encoding="utf-8"?>
<!-- Generator: Adobe Illustrator 18.1.1, SVG Export Plug-In . SVG Version: 6.00 Build 0)  -->
<!DOCTYPE svg PUBLIC "-//W3C//DTD SVG 1.1//EN" "http://www.w3.org/Graphics/SVG/1.1/DTD/svg11.dtd">
<svg version="1.1" id="Layer_1" xmlns="http://www.w3.org/2000/svg" xmlns:xlink="http://www.w3.org/1999/xlink" x="0px" y="0px"
	 viewBox="255 111.5 278.1 334.6" enable-background="new 255 111.5 278.1 334.6" xml:space="preserve">
<path fill="#753855" d="M508.3,175.2c-0.3,2.7,0.4,5.3,2.2,8.7c9.5,18.7,15,39.9,11.7,60.9c-3.3,20.9-15.5,38.4-31.7,51.6
	c-22.6,18.4-49.3,26.4-76.6,35c-3.2,1-6.5,2-9.1,4.3c-5.2,4.4-6,12-7.4,18.6c-6,28.4-28.6,45.7-51.9,60.3
	c-18.4,11.6-36.7,27.7-58.9,31c-7.6,1.1-25.6,0.7-30.6-7.2c-3.7-6,4.6-29.8,12-40.9c14-21,29.5-40.9,46.1-60
	c16.4-19,36.5-36.6,51.4-56.6c0,0,34.3-53.3,54.8-117.3c5.9-18.6,18.5-39.4,37.1-48.2c9.5-4.5,21.3-5.5,31-0.6
	c9.4,4.7,14.8,15.3,25.5,17.9c6.8,1.7,19.4-2.6,19.4-2.6l-17.5,15.1c0,7.5-1,16.2-4.6,22.8C509.5,170.8,508.5,173,508.3,175.2z"/>
<ellipse transform="matrix(0.3165 0.9486 -0.9486 0.3165 449.243 -355.9503)" fill="#E17A7B" cx="471.6" cy="133.8" rx="6.7" ry="7.2"/>
<g>
	<path fill="#E17A7B" d="M508.1,207.9c0,0,0.3,0.6,0.8,1.7c0.5,1.2,1.2,2.8,1.9,5c0.6,2.2,1.4,5,2,8.2c0.5,3.2,0.9,6.9,0.9,11
		c-0.1,4.1-0.4,8.5-1.4,13.1c-0.2,1.2-0.6,2.3-0.9,3.5c-0.2,0.6-0.3,1.2-0.5,1.7c-0.2,0.6-0.4,1.2-0.6,1.7c-0.4,1.2-0.8,2.4-1.3,3.5
		c-0.5,1.2-1,2.4-1.5,3.5c-2.1,4.6-4.8,9.4-8.1,13.6l-1.2,1.7l-0.6,0.8l-0.6,0.8c-0.9,1-1.7,2-2.7,3.1c-0.9,1-1.9,2-2.8,3l-2.9,2.9
		c-1,0.9-2,1.8-3.1,2.7c-1,0.9-2,1.8-3.2,2.6c-1.1,0.8-2.2,1.6-3.2,2.4l-1.7,1.2l-0.8,0.6l-0.9,0.6c-2.2,1.4-4.4,2.9-6.7,4.2
		s-4.5,2.4-6.8,3.6c-4.6,2.1-8.9,4.3-13.2,5.8c-1.1,0.4-2.1,0.8-3.2,1.2c-1,0.4-2,0.8-3.1,1.1c-2,0.6-4,1.3-5.9,1.9
		c-0.9,0.3-1.9,0.6-2.8,0.9c-0.9,0.2-1.8,0.5-2.7,0.7c-1.7,0.5-3.4,0.9-5,1.3c-0.8,0.2-1.6,0.4-2.3,0.6c-0.4,0.1-0.7,0.2-1.1,0.2
		c-0.4,0.1-0.7,0.2-1,0.2c-1.3,0.2-2.6,0.5-3.8,0.7c-2.3,0.4-4.1,0.7-5.3,0.9c-1.3,0.2-1.9,0.3-1.9,0.3s0.6-0.2,1.7-0.7
		c1.2-0.5,2.8-1.2,5-2c2.1-0.9,4.7-1.8,7.6-3.2c1.5-0.6,3-1.3,4.6-2c0.8-0.3,1.7-0.7,2.5-1c0.9-0.4,1.7-0.8,2.6-1.2
		c1.8-0.8,3.6-1.7,5.5-2.5c0.9-0.4,1.9-0.9,2.9-1.3c0.9-0.5,2-0.9,2.9-1.5c4-1.9,8-4.3,12.3-6.5c2-1.3,4.1-2.5,6.2-3.8
		c1-0.6,2-1.4,3.1-2c1-0.7,2-1.4,3.1-2.1l0.8-0.6l0.7-0.6l1.5-1.2c1-0.8,2-1.5,3-2.3s1.9-1.7,2.9-2.4l2.8-2.4
		c3.6-3.5,7.2-7.1,10.2-11l1.1-1.4l0.6-0.7l0.6-0.8c0.7-1,1.3-2,2-3c0.2-0.2,0.3-0.5,0.5-0.7l0.5-0.8c0.3-0.6,0.6-1,0.9-1.6
		c0.6-1,1.3-2,1.7-3.1c0.6-1,1-2,1.6-3.1c0.5-1,0.9-2.1,1.3-3.2c0.2-0.6,0.5-1,0.6-1.6c0.2-0.6,0.4-1,0.6-1.6c0.2-0.6,0.4-1,0.6-1.6
		l0.3-0.8l0.2-0.8c0.3-1,0.6-2,0.9-3.1c0.2-1,0.5-2,0.7-3c0.2-1,0.4-2,0.6-3c0.2-0.9,0.4-1.9,0.5-2.8c0.1-0.9,0.2-1.9,0.3-2.8
		c0.1-0.9,0.2-1.8,0.2-2.7c0.1-0.9,0.1-1.7,0.1-2.5c0-0.9,0.1-1.7,0.1-2.4c0-3.2-0.2-5.9-0.4-8.1
		C508.8,210.4,508.1,207.9,508.1,207.9z"/>
</g>
<g>
	<path fill="#E17A7B" d="M495.7,211c0,0,0.2,0.5,0.7,1.4c0.4,0.9,1,2.4,1.6,4.3c0.6,1.9,1.2,4.2,1.6,6.9c0.4,2.7,0.8,5.8,0.7,9.2
		c-0.1,3.4-0.3,7.1-1.2,11c-0.2,0.9-0.5,1.9-0.7,2.9c-0.2,0.9-0.5,2-0.9,2.9c-0.3,0.9-0.6,2-1,3c-0.4,0.9-0.9,2-1.3,2.9
		c-1.8,3.9-4,7.8-6.8,11.4l-1,1.3l-0.5,0.7l-0.6,0.6c-0.7,0.9-1.5,1.7-2.2,2.6c-0.7,0.9-1.6,1.7-2.4,2.4l-2.4,2.4
		c-1.7,1.5-3.5,3-5.2,4.4c-0.9,0.7-1.8,1.3-2.7,2l-1.3,1c-0.5,0.3-0.9,0.6-1.4,0.9c-1.9,1.2-3.7,2.4-5.6,3.5c-1.9,1-3.8,2-5.7,3.1
		c-3.8,1.8-7.5,3.5-11,4.9c-0.9,0.3-1.8,0.7-2.7,1c-0.9,0.3-1.7,0.6-2.6,0.9c-1.7,0.6-3.4,1.1-5,1.6c-0.8,0.2-1.6,0.5-2.4,0.7
		c-0.8,0.2-1.5,0.4-2.3,0.6c-1.5,0.4-2.8,0.7-4.2,1c-0.6,0.2-1.3,0.3-1.9,0.5c-0.6,0.2-1.2,0.3-1.8,0.4c-1.2,0.2-2.2,0.4-3.2,0.6
		c-1.9,0.4-3.4,0.6-4.4,0.8c-1,0.2-1.6,0.2-1.6,0.2s0.5-0.2,1.5-0.6c0.9-0.4,2.4-1,4.2-1.7c1.8-0.7,3.9-1.5,6.4-2.6
		c1.3-0.6,2.5-1.1,3.9-1.7c0.7-0.3,1.4-0.6,2.1-0.9s1.4-0.6,2.2-1c1.5-0.7,3-1.3,4.6-2.1c0.8-0.3,1.6-0.7,2.4-1.2
		c0.8-0.4,1.7-0.8,2.4-1.3c3.4-1.6,6.7-3.5,10.2-5.4c1.7-1.1,3.5-2.1,5.2-3.2c0.9-0.6,1.7-1.2,2.6-1.7c0.9-0.6,1.7-1.2,2.6-1.7
		c1.7-1.2,3.3-2.5,5-3.8c1.7-1.3,3.2-2.8,4.8-4.1c3-2.9,6-5.9,8.5-9.1c1.3-1.6,2.4-3.3,3.5-5c0.3-0.4,0.6-0.9,0.8-1.3
		c0.2-0.4,0.5-0.9,0.8-1.3c0.5-0.9,1-1.7,1.4-2.6c0.5-0.9,0.9-1.7,1.3-2.6c0.4-0.9,0.8-1.7,1.1-2.6c0.4-0.9,0.7-1.7,1-2.6
		c0.2-0.5,0.3-0.9,0.5-1.3s0.3-0.9,0.4-1.3c0.2-0.9,0.5-1.7,0.7-2.6s0.4-1.7,0.6-2.5c0.2-0.9,0.3-1.7,0.5-2.4
		c0.2-0.8,0.3-1.6,0.4-2.4c0.1-0.8,0.2-1.6,0.3-2.4c0.1-0.8,0.1-1.5,0.2-2.2s0.1-1.4,0.1-2.1c0-0.7,0.1-1.3,0-2
		c0-2.6-0.2-4.9-0.4-6.8C496.2,213.2,495.7,211,495.7,211z"/>
</g>
<path fill="#E17A7B" d="M301.9,415.2c-8.7,9.1-18.9,17.5-30.6,20.8c0,0-14.7,6.5-5.4-9.6s35.8-31,35.8-31s27.3-16.7,29.1-16.7
	c-1.6,0-13.1,17.8-14.7,19.8C312,403.7,307.2,409.6,301.9,415.2z"/>
<path fill="#E17A7B" d="M292.5,396.9c-6.2,3.5-13.2,6.1-20,6c0,0-9,1-1.3-6.1c7.6-7.1,24.5-10.6,24.5-10.6s17.5-4.3,18.5-4.1
	c-0.9-0.2-10,7.3-11.2,8.1C299.8,392.4,296.3,394.7,292.5,396.9z"/>
<path fill="#E17A7B" d="M317.1,416.9c-3,6.7-7,13.2-12.7,17.2c0,0-6.7,6.3-4.7-4.4c2-10.7,13.6-23.8,13.6-23.8s11.7-14.3,12.7-14.7
	c-0.9,0.3-3.8,12.3-4.3,13.7C320.4,408.6,318.9,412.8,317.1,416.9z"/>
<path fill="#E17A7B" d="M315.4,361c-4.9,4.1-10.4,7.7-16.4,8.7c0,0-7.6,2.4-2-5.3c5.6-7.6,19.6-13.6,19.6-13.6s14.5-6.8,15.4-6.7
	c-0.8-0.1-7.6,8.3-8.5,9.1C321.1,355.8,318.4,358.5,315.4,361z"/>
<path fill="#E17A7B" d="M334.4,335.3c-3.7,3.1-7.8,5.8-12.3,6.5c0,0-5.8,1.8-1.6-3.9s14.7-10.2,14.7-10.2s10.9-5.1,11.6-5
	c-0.6-0.1-5.7,6.2-6.4,6.9C338.7,331.5,336.6,333.4,334.4,335.3z"/>
<path fill="#E17A7B" d="M386.7,366.7c-1.9,4.4-4.4,8.7-8,11.3c0,0-4.3,4.2-3.2-2.8c1.2-7,8.6-15.7,8.6-15.7s7.4-9.5,8.1-9.7
	c-0.6,0.2-2.3,8.1-2.6,9C388.8,361.3,387.9,364,386.7,366.7z"/>
<path fill="#E17A7B" d="M350.3,343.4c-3.7,3.1-7.8,5.8-12.3,6.5c0,0-5.8,1.8-1.6-3.9c4.2-5.8,14.7-10.2,14.7-10.2s10.9-5.1,11.6-5
	c-0.6-0.1-5.7,6.2-6.4,6.9C354.6,339.4,352.5,341.5,350.3,343.4z"/>
<path fill="#E17A7B" d="M369.5,354.7c-3.5,3.3-6.6,7.2-7.8,11.6c0,0-2.4,5.5,3.8,2s11.7-13.6,11.7-13.6s6.2-10.2,6.2-11
	c0,0.6-6.8,5-7.5,5.6C373.9,350.9,371.7,352.7,369.5,354.7z"/>
<path fill="#E17A7B" d="M358,346.4c-3.7,3.1-7,6.8-8.5,11c0,0-2.8,5.4,3.6,2.2c6.4-3.2,12.5-12.8,12.5-12.8s6.9-9.8,6.9-10.6
	c0,0.6-7.1,4.6-7.9,5.1C362.6,342.9,360.3,344.6,358,346.4z"/>
<path fill="#E17A7B" d="M331.7,370.1c-4.6,4.4-9.9,8.4-15.8,9.6c0,0-7.5,2.8-2.4-5.1c5.1-8,18.7-14.7,18.7-14.7s14-7.6,15-7.6
	c-0.8-0.1-7.1,8.7-7.9,9.6C337.1,364.6,334.5,367.4,331.7,370.1z"/>
<path fill="#E17A7B" d="M352.3,381.8c-4.9,4.2-9.3,9.1-11.2,14.7c0,0-3.6,7.1,4.9,2.8c8.4-4.3,16.5-17.2,16.5-17.2
	s9.1-13.2,9.1-14.1c0,0.8-9.4,6.1-10.4,6.9C358.4,377.1,355.2,379.3,352.3,381.8z"/>
<path fill="#E17A7B" d="M340.6,372.7c-4.9,4.2-9.3,9.1-11.3,14.7c0,0-3.6,7.1,4.8,2.9c8.4-4.2,16.5-17.2,16.5-17.2
	s9.1-13.2,9.1-14.1c-0.1,0.8-9.4,6.1-10.4,6.9C346.6,368,343.5,370.2,340.6,372.7z"/>
</svg>
