<?xml version="1.0" encoding="utf-8"?>
<!-- Generator: Adobe Illustrator 18.1.1, SVG Export Plug-In . SVG Version: 6.00 Build 0)  -->
<!DOCTYPE svg PUBLIC "-//W3C//DTD SVG 1.1//EN" "http://www.w3.org/Graphics/SVG/1.1/DTD/svg11.dtd">
<svg version="1.1" xmlns="http://www.w3.org/2000/svg" xmlns:xlink="http://www.w3.org/1999/xlink" x="0px" y="0px"
	 viewBox="0 0 432.6 432.6" enable-background="new 0 0 432.6 432.6" xml:space="preserve">
<g id="Layer_1">
	<g>
		<path fill="#FED9BA" d="M182.7,185.1c-4.2,4.9-7.8,10.1-10.7,15.6c-2.9,5.5-5.1,11.3-6.6,17.1c-1.5,5.8-2.3,11.6-2.3,17.3
			c0,4.5,0.6,8.8,1.7,12.7c1.1,3.7,2.7,7,4.8,9.6c2,2.5,4.4,4.5,7.5,6c3,1.5,6.8,2.3,11.2,2.3c4.1,0,8.4-0.7,12.9-2.2
			c4.2-1.3,8.4-3.9,12.5-7.5c4.2-3.8,8.3-9.2,12.1-16c3.9-7,7.4-16.2,10.3-27.3l13.1-50.5c-0.8-0.2-1.6-0.3-2.3-0.4
			c-2.9-0.5-6.7-0.8-11.4-0.8c-7.4,0-14.5,1-20.9,3.1c-6.5,2.1-12.5,4.9-17.8,8.4C191.6,176.2,186.9,180.4,182.7,185.1z"/>
		<path fill="#FED9BA" d="M216.3,40.7c-97,0-175.6,78.6-175.6,175.6s78.6,175.6,175.6,175.6s175.6-78.6,175.6-175.6
			S313.3,40.7,216.3,40.7z M335.5,230.1c-3.6,11.5-8.7,21.5-15,29.7c-6.4,8.4-14.1,15-22.6,19.6c-8.8,4.7-18.2,7.1-28,7.1
			c-13.2,0-23.1-3.8-29.4-11.3c-2.9-3.4-5.1-7.4-6.6-11.9c-3.7,4.4-7.6,8.1-11.9,11.1c-10.3,7.3-21.9,11-34.3,11
			c-7.6,0-14.2-1.4-19.9-4.1c-5.6-2.7-10.3-6.5-14.1-11.2c-3.7-4.6-6.5-10-8.2-16.2c-1.6-5.8-2.5-12.1-2.5-18.6
			c0-7.4,1-14.9,2.9-22.4c1.9-7.5,4.7-14.8,8.4-21.6c3.6-6.8,8.2-13.3,13.5-19.3c5.4-6,11.6-11.3,18.4-15.7
			c6.8-4.4,14.5-7.9,22.7-10.5c8.3-2.6,17.3-3.9,26.9-3.9c5.4,0,10.9,0.5,16.4,1.5c5.8,1,11,2.6,15.2,4.8c3.3,1.7,5.1,5.5,4.1,9.1
			l-15.9,60.6c-1.6,6-2.8,11.3-3.4,15.9c-0.7,4.5-1,8.6-1,12.2c0,5,0.6,8.9,1.7,11.8c1,2.5,2.3,4.4,3.7,5.7c1.6,1.3,3.4,2.2,5.4,2.7
			c2.6,0.6,5.4,1,8.2,1c6.4,0,12.5-1.6,18.4-4.7c6-3.2,11.5-8,16.2-14.2c4.8-6.4,8.8-14.4,11.7-23.8c3-9.5,4.5-20.3,4.5-32.3
			c0-17.6-2.9-33.1-8.8-46c-5.8-12.8-13.7-23.6-23.4-32c-9.8-8.4-21.2-14.8-34-18.9c-13-4.2-26.9-6.3-41.3-6.3
			c-10.4,0-20.7,1.4-30.6,4.1c-9.9,2.7-19.4,6.8-28.2,12c-8.8,5.2-17,11.7-24.3,19.2c-7.4,7.5-13.8,16.1-19.2,25.5
			c-5.4,9.4-9.6,19.9-12.6,31.1c-3,11.2-4.5,23.4-4.5,36.1c0,20.7,3.4,39.2,10,54.9c6.6,15.7,15.7,29,26.9,39.5
			c11.2,10.6,24.5,18.6,39.5,24c15.2,5.4,31.4,8.2,48.4,8.2c16.6,0,32.4-2.1,47-6.1c14.4-4,28.2-10.3,41-18.8
			c1.8-1.3,3.9-1.9,6.1-1.9c3.8,0,7.1,2,8.8,5.3l1,1.9c2,3.6,0.9,8.1-2.5,10.4c-14.4,9.7-30.2,17-46.9,21.8
			c-16.6,4.8-35,7.3-54.5,7.3c-19.7,0-38.5-3.2-55.9-9.5c-17.5-6.4-33.1-15.9-46.2-28.3c-13.1-12.4-23.6-27.9-31.2-46.1
			c-7.5-18.1-11.3-39.1-11.3-62.5c0-21.4,3.7-41.3,11-59.3c7.3-18,17.4-33.7,30-46.7c12.6-13,27.5-23.3,44.3-30.5
			c16.8-7.2,34.9-10.9,53.8-10.9c10.8,0,21.6,1.1,32.1,3.3c10.5,2.2,20.6,5.6,29.9,10c9.4,4.4,18.2,10.1,26.2,16.8
			c8,6.8,15,14.9,20.8,24.1c5.7,9.1,10.2,19.5,13.4,30.9c3.2,11.4,4.8,24,4.8,37.5C340.9,205.9,339.1,218.8,335.5,230.1z"/>
	</g>
</g>
<g id="Isolation_Mode">
	<g>
		<path fill="#FED9BA" d="M216.3,11.7c113,0,204.7,91.6,204.7,204.7c0,113-91.6,204.6-204.7,204.6c-113,0-204.7-91.6-204.7-204.6
			C11.7,103.3,103.3,11.7,216.3,11.7 M216.3,0c-29.2,0-57.5,5.7-84.2,17c-25.8,10.9-48.9,26.5-68.8,46.3
			c-19.9,19.9-35.5,43-46.3,68.8c-11.3,26.7-17,55-17,84.2c0,29.2,5.7,57.5,17,84.2c10.9,25.8,26.5,48.9,46.3,68.7
			c19.9,19.9,43,35.5,68.8,46.3c26.7,11.3,55,17,84.2,17c29.2,0,57.5-5.7,84.2-17c25.8-10.9,48.9-26.5,68.8-46.3
			c19.9-19.9,35.5-43,46.4-68.7c11.3-26.7,17-55,17-84.2c0-29.2-5.7-57.5-17-84.2c-10.9-25.8-26.5-48.9-46.4-68.8
			c-19.9-19.9-43-35.5-68.8-46.3C273.8,5.7,245.5,0,216.3,0L216.3,0z"/>
	</g>
</g>
</svg>
