<?xml version="1.0" encoding="utf-8"?>
<!-- Generator: Adobe Illustrator 18.1.1, SVG Export Plug-In . SVG Version: 6.00 Build 0)  -->
<!DOCTYPE svg PUBLIC "-//W3C//DTD SVG 1.1//EN" "http://www.w3.org/Graphics/SVG/1.1/DTD/svg11.dtd">
<svg version="1.1" id="Layer_1" xmlns="http://www.w3.org/2000/svg" xmlns:xlink="http://www.w3.org/1999/xlink" x="0px" y="0px"
	 viewBox="0 0 288 288" enable-background="new 0 0 288 288" xml:space="preserve">
<g>
	<g>
		<path fill="#FFDABA" d="M223.9,143.9C308,125,295.5,78.3,213.3,104c63.4-58.5,29.2-92.6-29.2-29.2c25.6-82.2-21-94.7-40-10.6
			c-19-84.1-65.6-71.6-40,10.8c-58.5-63.4-92.6-29.2-29.2,29.2c-82.4-25.6-94.9,21-10.6,39.9C-19.8,163-7.3,209.7,74.9,184
			c-63.4,58.5-29.2,92.6,29.2,29.2c-25.6,82.2,21,94.7,40,10.6c18.9,84.1,65.6,71.6,39.9-10.8c58.5,63.4,92.6,29.2,29.2-29.2
			C295.5,209.6,308,162.8,223.9,143.9z"/>
	</g>
</g>
</svg>
