<?xml version="1.0" encoding="utf-8"?>
<!-- Generator: Adobe Illustrator 18.1.1, SVG Export Plug-In . SVG Version: 6.00 Build 0)  -->
<!DOCTYPE svg PUBLIC "-//W3C//DTD SVG 1.1//EN" "http://www.w3.org/Graphics/SVG/1.1/DTD/svg11.dtd">
<svg version="1.1" id="Layer_1" xmlns="http://www.w3.org/2000/svg" xmlns:xlink="http://www.w3.org/1999/xlink" x="0px" y="0px"
	 viewBox="0 0 265.6 331.7" enable-background="new 0 0 265.6 331.7" xml:space="preserve">
<g>
	<text transform="matrix(1 0 0 1 90.2287 248.8463)" fill="#B5B5B5" font-family="'TradeGothicLTStd'" font-size="34.9309">IZZE </text>
</g>
<text transform="matrix(1 0 0 1 22.4832 210.0377)" fill="#656565" font-family="'SnellRoundhand'" font-size="58.0916" letter-spacing="2">Sincerely,</text>
<g>
	<g>
		<g>
			<g opacity="0.8">
				<g opacity="0.8">
					<path fill="#DDDDDD" d="M167.2,107.9c-1-1.8-2.3-3.5-3.6-5.1l-2.1-2.4l-2.3-2.3c-3.2-2.9-6.7-5.4-10.5-7.2l-1.4-0.7
						c-0.5-0.2-1-0.4-1.5-0.6c-1-0.3-2-0.7-3-1c-1-0.2-2-0.5-3-0.7c-1-0.2-2-0.3-3-0.4c-4-0.3-7.8,0.2-11.2,1.3
						c-0.7,0.3-1.5,0.6-2.2,0.9l-1.1,0.4l-1,0.6l1.1-0.4l1.2-0.2c4.4-1,9-1.1,13.5-0.3c4.5,0.7,9,2.3,13,4.6
						c4.1,2.3,7.8,5.3,10.9,8.7l1.2,1.3l1,1.3c0.7,0.9,1.3,1.8,1.9,2.8c1.1,1.9,2.1,3.9,2.8,6c0.9,2.6,1.6,5.3,2,8.2
						c0.3,2.8,0.3,5.8,0,8.8c-0.4,3-1.1,5.9-2.3,8.7c-0.6,1.4-1.4,2.7-2.2,3.9c-0.9,1.2-1.9,2.2-2.9,2.8c-0.4,0.2-0.6,0.5-0.7,0.8
						c-0.1,0.3,0,0.6,0,0.8c1.1,0.2,2.3,0,3.5-0.3c2-1.9,3.4-4.4,4.5-6.9c1.1-2.6,1.9-5.3,2.3-8c1-5.5,0.9-11.2-0.3-16.6
						c-0.4-1.8-1.2-3.6-2.1-5.1C168.7,110.1,167.7,108.9,167.2,107.9z"/>
					<path fill="#CBCBCB" d="M164.7,148.5c0.1,0,0.2,0,0.2,0c0.4-0.4,0.8-0.8,1.2-1.2C165.7,147.7,165.2,148.1,164.7,148.5z"/>
					<path fill="#C7C7C7" d="M172.4,123.3c-0.2-1.8-0.4-3.6-0.8-5.4c-0.3-1.8-0.8-3.5-1.3-5.1c-1.1-2.1-2.5-3.7-3.1-4.9
						c-1-1.8-2.3-3.5-3.6-5.1l-2.1-2.4l-2.3-2.3c-3.2-2.9-6.7-5.4-10.5-7.2l-1.4-0.7c-0.5-0.2-1-0.4-1.5-0.6c-1-0.3-2-0.7-3-1
						c-1-0.2-2-0.5-3-0.7c-1-0.2-2-0.3-3-0.4c-4-0.3-7.8,0.2-11.2,1.3c-0.7,0.3-1.5,0.6-2.2,0.9l-1.1,0.4l-1,0.6
						c0.4-0.1,0.8-0.3,1.2-0.4l1.3-0.3c3-0.7,6.2-0.9,9.4-0.7c0.8,0.1,1.6,0.1,2.4,0.2c0.8,0.1,1.6,0.3,2.4,0.4l1.2,0.2l1.2,0.3
						c0.8,0.2,1.6,0.4,2.3,0.6c0.3,0.1,0.7,0.1,1,0.2c0.4,0.1,0.9,0.2,1.3,0.3c0.4,0.1,0.9,0.2,1.3,0.4c0.8,0.3,1.6,0.7,2.4,1.1
						c0.8,0.4,1.5,0.9,2.2,1.4c0.4,0.2,0.7,0.4,1.1,0.7c0.3,0.3,0.7,0.5,1.1,0.8c4.3,2.5,7.6,5.8,10.4,9.3c2.6,3.5,4.5,7.5,5.7,12.2
						c0.4,1.7,0.9,3.4,1.2,5.3c0.3,1.9,0.5,3.9,0.2,6c-0.1,1.5-0.4,2.8-0.8,4.2c-0.5,2.7-1.2,5.5-2.5,8c-0.6,1.3-1.3,2.5-2.2,3.5
						c-0.8,1.1-1.8,2-2.7,2.5c-0.2,0.1-0.4,0.2-0.5,0.4c-0.1,0.1-0.2,0.2-0.2,0.4c-0.1,0.3-0.1,0.6,0,0.8c0.3,0,0.6,0.1,0.9,0.1
						c0.3,0,0.6,0,0.9,0c1-0.6,1.9-1.4,2.8-2.3c0.8-0.9,1.6-2,2.2-3.1c1.3-2.2,2.3-4.6,3.1-7.1c1.1-4.4,1.5-9,1.2-13.6
						C172.5,122.8,172.5,123,172.4,123.3z"/>
					<path fill="#CBCBCB" d="M173.6,122.8c0-0.7-0.6-1.4-1-0.2c0.3,4.6-0.1,9.2-1.2,13.6C172.7,132,173.4,127.5,173.6,122.8z"/>
					<path fill="#E0E0E0" d="M176.3,123.5c0-2.4-0.2-4.9-0.7-7.2c-0.5-2.3-1.3-4.6-2.2-6.7c-0.9-2.1-2-4.1-3.2-5.9
						c-0.6-0.9-1.2-1.8-1.8-2.6c-0.6-0.9-1.2-1.7-1.8-2.4l-1-1.2c-0.3-0.4-0.6-0.8-1-1.2c-0.7-0.8-1.3-1.6-2-2.4
						c-0.7-0.8-1.4-1.5-2-2.2c-0.3-0.4-0.7-0.7-1-1.1c-0.3-0.4-0.7-0.7-1-1c-0.6-0.4-1.2-0.7-1.7-1.1l-0.9-0.6l-0.9-0.5l-2.8-1.4
						l-3-1.2c-1-0.4-2-0.7-3-1l-1.5-0.5c-0.5-0.1-1-0.2-1.6-0.4c-4.1-1-8.5-1.3-12.7-1c-2.1,0.1-4.2,0.5-6.3,0.9l-3.1,0.9l-0.8,0.2
						l-0.7,0.3l-1.5,0.6l-1.5,0.6c-0.5,0.2-1,0.5-1.4,0.7c-0.9,0.5-1.9,0.9-2.8,1.5c-1.8,1.2-3.6,2.2-5.2,3.6
						c-3.3,2.7-6.1,6-8.4,9.5c-2.3,3.5-4,7.4-5.3,11.3c-2.5,7.9-3.2,16.4-1.8,24.8c0.6,3.4,1.7,6.6,3.2,9.7c1.5,3.1,3.5,5.9,5.9,8.3
						c2.4,2.4,5.2,4.5,8.2,6l2.3,1c0.8,0.4,1.6,0.6,2.4,0.8c0.4,0.1,0.8,0.3,1.2,0.4l1.2,0.3l0.6,0.1l0.2,0c0.2,0,0.3,0,0.5,0
						l1.1,0.1c0.2,0,0.4,0,0.6,0.2c0.1,0.1,0.2,0.3,0.2,0.5c0,0.7-0.3,1.4-0.7,2.2c-0.1,0.1-0.2,0.3-0.3,0.4
						c-0.1,0.1-0.2,0.2-0.3,0.4c-0.3,0.4-0.7,0.7-1,1c-0.7,0.6-1.5,1.1-2,1.2l-11.5,2.9l11.9,1.2c0.8,0.1,1.4,0.1,2.1,0.1
						c0.7,0,1.3,0,2-0.1c1.3-0.1,2.6-0.3,3.9-0.8c0.6-0.2,1.3-0.5,1.9-0.7c0.6-0.3,1.2-0.6,1.8-0.9l0.9-0.6c0.1-0.1,0.3-0.2,0.4-0.3
						l0.2-0.2l0.5-0.3c0.1-0.1,0.2-0.2,0.3-0.2c0.4-0.3,0.6-0.7,0.8-0.9c0,0.1,0.1,0.2,0.1,0.4c0.1,0.5,0.3,0.8,0.4,1.2
						c0.1,0.2,0.1,0.3,0.2,0.4c-0.1,0,0.3,0.4,0.5,0.6c0.2,0.3,0.5,0.5,0.8,0.8c0.5,0.5,1.1,1,1.7,1.4c0.6,0.4,1.2,0.8,1.9,1.2
						c2.6,1.4,5.6,1.9,8.4,1.8l0.9-7.2l0.1,0l0,0l0,0c0-0.1-0.2,0.6-0.1,0.3l0,0l0.1-0.2c0-0.1,0,0,0-0.1c0,0-0.1,0-0.1,0
						c-0.1,0-0.1-0.1-0.2-0.1c-0.2-0.1-0.3-0.2-0.5-0.3c-0.3-0.2-0.6-0.5-0.8-0.8c-0.5-0.6-0.8-1.4-1-2.5c-0.4-2,0.1-4.7,0.9-7.2
						c-1.7-0.1-3.5-0.2-5.2-0.3c0.2,0.7,0.4,1.1,0.7,1.6c0.2,0.5,0.5,0.9,0.8,1.4c0.3,0.4,0.6,0.9,0.9,1.3c0.3,0.4,0.7,0.8,1,1.2
						c1.4,1.5,3.2,2.8,5.2,3.5c0.5,0.2,1,0.3,1.5,0.5l0.7,0.2c0.3,0,0.5,0.1,0.8,0.1c0.5,0.1,1,0.1,1.5,0.2l1.5,0c0.5,0,1,0,1.5-0.1
						l1.5-0.2c0.9-0.2,1.9-0.5,2.8-0.7l5.2-1.3l-5.2-0.8c-1.3-0.2-2.9-0.8-4-1.5c-0.6-0.4-1.1-0.9-1.4-1.5c-0.3-0.6-0.4-1.4-0.2-2.1
						c0.4-1.3,1-2.3,1.4-3.3c0.4-0.9,0.6-1.7,0.7-2.2c0.1-1.1-0.6-1.6-1.2-1.1l-0.8,0.8l-0.8,0.8l-0.7,0.9c-0.3,0.4-0.5,0.7-0.8,1.1
						c-1,1.7-1.6,3.7-1,5.6c0.5,1.9,2,3.3,3.6,4.3c1.5,0.9,2.7,1.3,4.3,1.7c0-1.6,0-3.2-0.1-4.8c-3.2,0.9-6.4,0.9-9-0.2
						c-1.3-0.6-2.5-1.5-3.4-2.6c-0.2-0.3-0.4-0.6-0.7-0.9c-0.2-0.3-0.4-0.6-0.6-1c-0.2-0.3-0.4-0.7-0.5-1c-0.1-0.3-0.3-0.7-0.4-0.9
						l-2-6.4l-2.3,6.1c-1.1,2.9-2.1,6.1-1.8,9.6c0.1,1.7,0.6,3.6,1.7,5.2c0.5,0.8,1.2,1.5,1.9,2.1c0.4,0.3,0.8,0.6,1.2,0.8
						c0.2,0.1,0.4,0.2,0.7,0.3c0.1,0.1,0.2,0.1,0.4,0.2c0.1,0.1,0.2,0.1,0.5,0.2l0.6-4.5c-2,0-3.8-0.3-5.5-1.2
						c-0.8-0.5-1.6-1-2.3-1.6c-0.2-0.2-0.4-0.3-0.5-0.5l-0.6-0.7c-0.3-0.3-0.5-0.7-0.7-1.1c-0.2-0.4-0.5-0.7-0.7-1.2
						c-1.8-0.7-2.7-1.4-3.2-2.1c-0.7,0.7-1.4,1.4-3.4,1.9l-0.4,0.6c-0.1,0.2-0.2,0.5-0.4,0.6l-0.8,0.8c-0.6,0.7-0.9,0.8-1.3,1.1
						c-0.4,0.3-0.8,0.5-1.2,0.7c-0.5,0.2-0.9,0.4-1.3,0.6c-0.9,0.4-1.9,0.6-2.9,0.7c-0.5,0.1-1,0.1-1.5,0.1c-0.2,0-0.5,0-0.7,0
						c-0.2,0-0.5,0-0.7,0c0.2,1.5,0.3,3.1,0.5,4.6c1.9-0.6,3.1-1.7,4.2-2.7c0.9-0.9,2.4-2.7,3.2-4.3c0.8-1.7,1.3-3.4,1-5
						c-0.1-0.4-0.3-0.8-0.6-1.1c-0.1-0.1-0.3-0.2-0.4-0.3c-0.2-0.1-0.4-0.2-0.6-0.2l-2.4-0.9c-0.5-0.1-1-0.2-1.6-0.3
						c-0.3,0-0.5-0.1-0.8-0.2l-0.6-0.2c-0.6-0.2-1.3-0.3-1.9-0.6l-1.9-0.7l-1.8-0.9c-3.1-1.6-5.9-3.8-8.1-6.5
						c-2.2-2.7-3.9-5.8-5.1-9.1c-2.4-6.6-2.8-13.9-1.6-20.7c1.2-6.8,3.9-13.3,8.1-18.5c2.1-2.6,4.5-4.8,7.3-6.6
						c0.7-0.4,1.4-0.8,2.1-1.2l1.1-0.6c0.4-0.2,0.7-0.3,1.1-0.5l2.2-1c0.8-0.3,1.5-0.5,2.3-0.7l1-0.6l1.1-0.4
						c0.7-0.3,1.5-0.6,2.2-0.9c3.4-1.1,7.2-1.6,11.2-1.3c1,0.1,2,0.2,3,0.4c1,0.2,2,0.5,3,0.7c1,0.3,2,0.7,3,1
						c0.5,0.2,1,0.4,1.5,0.6l1.4,0.7c3.8,1.8,7.4,4.3,10.5,7.2l2.3,2.3l2.1,2.4c1.4,1.6,2.6,3.3,3.6,5.1c0.5,0.9,1.5,2.2,2.4,3.6
						c0.9,1.5,1.8,3.3,2.1,5.1c1.2,5.5,1.2,11.2,0.3,16.6c-0.5,2.7-1.3,5.4-2.3,8c-1.1,2.5-2.5,5-4.5,6.9c2.4-0.6,4.6-1.7,6.6-3.5
						c1.7-3.4,2.7-7,3.4-10.6C175.8,130.6,176.2,127.1,176.3,123.5z"/>
					<path fill="#B2B2B2" d="M176.3,123.5c-0.1,3.6-0.4,7.1-1.1,10.7c-0.7,3.6-1.7,7.1-3.4,10.6c1-0.9,1.9-2,2.8-3.5
						c2.2-4.2,3.5-8.9,4-13.8c0.4-4.9,0-10.1-1.5-15c-1.5-4.9-4.1-9.6-7.4-13.4c-3.3-3.7-7-7-11-9.6c0.3,0.3,0.7,0.7,1,1
						c0.3,0.4,0.7,0.7,1,1.1c0.7,0.7,1.4,1.4,2,2.2c0.7,0.8,1.3,1.6,2,2.4c0.4,0.4,0.7,0.8,1,1.2l1,1.2c0.6,0.8,1.2,1.6,1.8,2.4
						c0.6,0.8,1.2,1.7,1.8,2.6c1.1,1.8,2.3,3.8,3.2,5.9c0.9,2.1,1.7,4.3,2.2,6.7C176,118.6,176.3,121,176.3,123.5z"/>
					<path fill="#C7C7C7" d="M176.3,123.5c-0.1,3.4-0.4,6.8-1,10.2c-0.3,1.7-0.7,3.4-1.2,5.1c-0.5,1.7-1.1,3.4-1.9,5
						c1.3-2.1,2.3-4.3,3-6.7c1.9-6,2.4-12.3,1.6-18.6c-0.8-6.3-3-12.4-6.5-17.7c4.1,5.5,6.5,12.3,7.2,19c0.4,3.4,0.3,6.8,0,10.1
						c-0.4,3.4-1.1,6.7-2.3,9.9c3.8-8.3,4.6-18.7,1.4-28.2c-0.8-2.4-1.8-4.7-3.1-6.9c-1.3-2.2-2.7-4.2-4.3-6.1
						c-3.2-3.6-6.8-6.7-10.7-9.3c0.7,0.6,1.3,1.4,2,2.1c0.7,0.7,1.4,1.4,2,2.2c0.7,0.8,1.3,1.6,2,2.4c0.4,0.4,0.7,0.8,1,1.2l1,1.2
						c0.6,0.8,1.2,1.6,1.8,2.4c0.6,0.8,1.2,1.7,1.8,2.6c1.1,1.8,2.3,3.8,3.2,5.9c0.9,2.1,1.7,4.3,2.2,6.7
						C176,118.6,176.3,121,176.3,123.5z"/>
					<path fill="#ACACAC" d="M170.5,104.7c3.6,6.4,5.2,13.8,4.9,21c-0.1,1.8-0.2,3.6-0.5,5.4c-0.3,1.8-0.7,3.6-1.1,5.3
						c-1,3.5-2.4,7-4.5,10.2c0.6-0.4,1.2-0.8,1.8-1.2c0.4-0.5,0.8-1.1,1.1-1.6c0.8-1.7,1.4-3.3,1.9-5c0.5-1.7,0.9-3.4,1.2-5.1
						c0.6-3.4,1-6.8,1-10.2c0-2.4-0.2-4.9-0.7-7.2c-0.5-2.3-1.3-4.6-2.2-6.7c-0.9-2.1-2-4.1-3.2-5.9c-0.6-0.9-1.2-1.8-1.8-2.6
						c-0.6-0.9-1.2-1.7-1.8-2.4l-1-1.2c-0.3-0.4-0.6-0.8-1-1.2c-0.7-0.8-1.3-1.6-2-2.4c-0.7-0.8-1.4-1.5-2-2.2
						c-0.7-0.7-1.3-1.5-2-2.1c-0.5-0.4-1.1-0.7-1.6-1c-0.5-0.4-1.1-0.7-1.7-1l-2.9-1.5c-1-0.4-2-0.8-3-1.2c-1-0.4-2.1-0.7-3.1-1
						l-1.6-0.5c-0.5-0.2-1.1-0.2-1.6-0.4c-1.1-0.2-2.1-0.5-3.2-0.6l-3.2-0.4c-2.2-0.1-4.4-0.2-6.5,0c-4.3,0.3-8.7,1.3-12.6,3
						c-1,0.4-2,0.9-2.9,1.4c-1,0.5-2,0.9-2.8,1.6l-2.7,1.8c-0.9,0.6-1.7,1.3-2.6,2c-5.5,5.3-9.5,12.1-12,19.4
						c-2.5,7.3-3.5,15.2-2.7,23c-1-7.3-0.5-14.7,1.6-21.8c-2.4,7.8-3.1,16.1-1.8,24.2c1.3,7,4.5,13.8,9.7,18.8
						c1.5,0.6,3.5,1.8,6.8,3.7l1.3,0.7c0.4,0.2,0.9,0.4,1.3,0.6c0.9,0.4,1.7,0.8,2.6,1.1c1.7,0.7,3.9,1.2,4.7,1.3
						c0.6,0.1,1.3,0.1,2,0.2c0.4,0.1,0.5,0.5,0.5,0.8c0,0.3,0,0.6,0,1c-0.2,0.5-0.9,0.5-1.4,1.3c0.3-0.4,0.5-0.8,0.6-1.2
						c0.1-0.4,0.2-0.8,0.1-1.2c-0.1-0.2-0.2-0.3-0.4-0.4c-0.2,0-0.4,0-0.6-0.1c-0.4,0-0.8,0-1.1,0c-0.3,0-0.6,0-0.8,0
						c0,0-0.4,0-0.6-0.1c-0.3,0-0.5-0.1-0.8-0.1l0.8,0.2c0.2,0.1,0.6,0.1,0.6,0.1c0.2,0,0.4,0.1,0.7,0.1c0.4,0,0.7,0,1.1,0.1
						c0.2,0,0.4,0,0.6,0.1c0.1,0.1,0.2,0.3,0.2,0.5c0.1,0.7-0.2,1.4-0.6,2.1c-0.2,0.3-0.4,0.6-0.6,0.8c-0.3,0.4-0.7,0.8-1,1.1
						c-0.7,0.6-1.5,1.2-2.1,1.3l-11.8,2.9l12.2,1.2c0.8,0.1,1.3,0.1,2,0.1c0.6,0,1.3,0,1.9-0.1c1.2-0.1,2.5-0.3,3.7-0.7
						c1.2-0.3,2.5-0.8,3.6-1.5c0.6-0.3,1.2-0.7,1.7-1.1c0.3-0.2,0.6-0.4,0.8-0.6l0.1-0.2c0.1-0.2,0.3-0.4,0.4-0.6
						c0.2-0.3,0.3-0.8,0.5-1.2c0.2,0.4,0.5,0.9,1,1.4c0.2,0.2,0.4,0.4,0.7,0.6c0,0,0.2,0.2,0.3,0.3c0.1,0.1,0.3,0.3,0.4,0.4l0.9,0.7
						l-0.8-0.7c-0.1-0.1-0.2-0.3-0.4-0.4l-0.3-0.3c-0.2-0.3-0.4-0.6-0.6-0.9l-0.3-0.4c0.1,0.1,0.2,0.2,0.3,0.3
						c0.2,0.2,0.5,0.5,0.7,0.7l0.6,0.6l0.8,0.7c0.5,0.5,1.1,0.8,1.6,1.2c0.5,0.4,1.1,0.7,1.6,1c-0.6-0.2-1.1-0.5-1.7-0.8
						c-0.5-0.3-1.1-0.6-1.6-1c1.4,1.3,3.1,2.3,5,3c1.8,0.7,3.8,0.9,5.7,0.9l0.6-4.4c0,0-0.2-0.1-0.4-0.2c0.1,0.1,0.4,0.2,0.4,0.2
						l-0.6,4.4c-2.5,0.1-5.1-0.3-7.4-1.3c-1.2-0.5-2.2-1.1-3.2-1.8c-0.5-0.4-0.9-0.7-1.4-1.1c-0.2-0.2-0.4-0.4-0.6-0.6
						c-0.1-0.1-0.2-0.1-0.2-0.2c0.1,0.1,0.1,0.1,0.2,0.3c0.2,0.2,0.4,0.5,0.7,0.7c0.5,0.4,0.9,0.9,1.4,1.3c0.5,0.4,1,0.8,1.6,1.1
						l0.8,0.5c0.3,0.2,0.6,0.3,0.9,0.4c2.3,1,4.8,1.4,7.2,1.3l0.7-5.3c0.1,0-0.1-0.1-0.2-0.1c-0.1-0.1-0.3-0.1-0.4-0.2
						c-0.3-0.2-0.5-0.4-0.7-0.6c-0.2-0.2-0.4-0.5-0.6-0.8c-0.1-0.3-0.3-0.6-0.4-0.9c-0.4-1.3-0.4-2.9,0-4.6c0,0.2,0,0.4,0,0.5
						c0-1.6,0.5-3.3,1-5c-1.7-0.1-3.4-0.2-5.2-0.3c0.2,0.7,0.4,1.1,0.7,1.6c0.2,0.5,0.5,0.9,0.8,1.4c0.3,0.4,0.6,0.9,0.9,1.3
						c0.3,0.4,0.7,0.8,1,1.2c1.4,1.5,3.2,2.8,5.2,3.5c0.5,0.2,1,0.3,1.5,0.5l0.7,0.2c0.3,0,0.5,0.1,0.8,0.1c0.5,0.1,1,0.1,1.5,0.2
						l1.5,0c0.2,0,0.5,0,0.7,0l0.7-0.1l1.5-0.2c0.9-0.2,1.9-0.5,2.8-0.7l5.1-1.3l-5.1-0.8c-1.3-0.2-2.9-0.7-3.9-1.4
						c-0.6-0.4-1.1-0.8-1.4-1.4c-0.3-0.6-0.4-1.3-0.3-2c0.3-1.3,0.9-2.4,1.3-3.3c0.4-0.9,0.6-1.7,0.7-2.3c0.1-0.6-0.1-1-0.3-1.2
						c-0.2-0.2-0.5-0.2-0.9,0.1c-0.5,0.5-1,1-1.5,1.6c-0.5,0.6-1,1.2-1.5,2.1c-1,1.7-1.4,3.7-0.8,5.5c0.6,1.8,2,3.2,3.7,4.2
						c1.5,0.8,2.7,1.2,4.3,1.6c0-1.6,0-3.2-0.1-4.8c-3.2,0.9-6.4,0.9-9-0.2c-1.3-0.6-2.5-1.5-3.4-2.6c-0.2-0.3-0.4-0.6-0.7-0.9
						c-0.2-0.3-0.4-0.6-0.6-1c-0.2-0.3-0.4-0.7-0.5-1c-0.1-0.3-0.3-0.7-0.4-0.9l-2-6.4l-2.3,6.1c-1.1,2.9-2.1,6.1-1.8,9.6
						c0.1,1.7,0.6,3.6,1.7,5.2c0.5,0.8,1.2,1.5,1.9,2.1c0.4,0.3,0.8,0.6,1.2,0.8c0.2,0.1,0.4,0.2,0.7,0.3c0.1,0.1,0.2,0.1,0.4,0.2
						c0.1,0.1,0.2,0.1,0.5,0.2l0.6-4.5c-2,0-3.8-0.3-5.5-1.2c-0.8-0.5-1.6-1-2.3-1.6c-0.2-0.2-0.4-0.3-0.5-0.5l-0.6-0.7
						c-0.3-0.3-0.5-0.7-0.7-1.1c-0.2-0.4-0.5-0.7-0.7-1.2c-1.8-0.7-2.7-1.4-3.2-2.1c-0.7,0.7-1.4,1.4-3.4,1.9l-0.4,0.6
						c-0.1,0.2-0.2,0.5-0.4,0.6l-0.8,0.8l-0.4,0.4l-0.1,0.1l-0.1,0.1l-0.1,0.1l-0.6,0.4l0.6-0.3c0.1-0.1,0.2-0.1,0.3-0.2l0.4-0.4
						l0.8-0.7c0.1-0.1,0.3-0.3,0.4-0.5l0.4-0.5c1.8-0.4,2.5-1.1,3.1-2.1c0.1,0.2,0.3,0.5,0.4,0.8c0.5,0.9,1.2,1.8,2,2.8
						c0.1,0.2,0.1,0.3,0.2,0.5c-0.1-0.1-0.1-0.3-0.2-0.4c-0.8-1-1.5-1.9-2-2.8c-0.1-0.3-0.3-0.5-0.4-0.8c-0.6,1-1.3,1.9-2.9,2.6
						l-0.6,0.8l-0.6,0.6l-0.6,0.6c-0.2,0.2-0.4,0.3-0.6,0.4c-0.4,0.2-0.7,0.5-1.1,0.6l-0.6,0.3c-0.2,0.1-0.4,0.1-0.6,0.2
						c-0.2,0-0.4,0.1-0.7,0.2c-0.3,0.1-0.6,0.2-0.9,0.3c-0.7,0.2-1.3,0.5-1.7,0.9c-0.6,0.1-1.2,0.1-1.8,0.1c-0.6,0-1.3,0-1.8-0.1
						c0.1,1,0.2,2.1,0.3,3.1c1.4-0.4,2.4-1.2,3.4-2c0.5-0.4,0.9-0.8,1.3-1.3c0.2-0.2,0.4-0.5,0.7-0.8c0.2-0.3,0.5-0.6,0.7-0.9
						c0.8-1.2,1.5-2.5,1.9-3.7c0.2-0.6,0.3-1.3,0.3-1.9c0-0.6-0.3-1.3-0.7-1.7c-0.2-0.2-0.7-0.5-1.3-0.9c-0.5-0.2-1.1-0.4-1.6-0.6
						c-0.5-0.1-1.1-0.2-1.6-0.3c-0.3-0.1-0.5-0.1-0.8-0.2l-0.5-0.2c-0.7-0.2-1.3-0.3-2-0.6c-0.6-0.2-1.3-0.5-1.9-0.7l-1.8-0.9
						c-1.9-1.1-3.8-2.3-5.4-3.8c-0.8-0.7-1.6-1.5-2.3-2.3c-0.4-0.4-0.7-0.9-1-1.3c-0.3-0.4-0.7-0.9-1-1.3c-2.4-3.6-4.1-7.8-4.9-12.1
						c-0.5-2.1-0.6-4.3-0.8-6.5c0-2.2,0-4.4,0.3-6.5c0.5-4.3,1.6-8.5,3.4-12.4c-1.9,3.6-3.3,7.5-4.3,11.2c-0.8,2.5-1.1,6.6-0.4,11.1
						c0.2,1.1,0.4,2.3,0.7,3.4c0.2,1.2,0.6,2.3,1,3.4c0.8,2.2,1.7,4.5,2.9,6.4c1.2,1.9,1.5,3.4,2.8,5.2c-3.2-2.6-5.6-6.9-6.9-11.7
						c-0.7-2.4-1-4.8-1.3-7.2c-0.2-2.4-0.2-4.9-0.1-7.2c0.2-6.3,2.3-13.7,6.2-20.2c2-3.2,4.4-6.2,7-8.8c0.7-0.6,1.3-1.3,2.1-1.8
						c0.7-0.6,1.4-1.2,2.1-1.6c0.7-0.5,1.4-1,2.2-1.5c0.7-0.5,1.5-0.9,2.2-1.3c0.6-0.4,1.2-0.8,1.8-1c0.6-0.3,1.3-0.5,1.9-0.8
						c1.2-0.5,2.6-0.8,3.8-1c1.3-0.3,2.5-0.3,3.7-0.4c1.2-0.1,2.4,0.1,3.5,0.1c-0.4,0.1-0.9,0.2-1.4,0.3c-0.3,0-0.5,0.1-0.8,0.1
						c-0.3,0.1-0.6,0.1-0.8,0.2c-1.1,0.2-2.2,0.3-3,0.5c-6.6,1.4-12.9,4.6-17.8,9.3c-4.9,4.8-8.3,11-10.1,17.7
						c2.3-6.7,5.9-12.9,10.9-17.6c2.5-2.3,5.4-4.2,8.5-5.7c3.1-1.5,6.4-2.4,9.8-2.8c-3.9,0.8-7.7,2-11.2,3.8c-1.7,1-3.4,2-4.8,3.3
						c-0.7,0.6-1.4,1.3-2.1,2c-0.6,0.7-1.2,1.5-1.8,2.2c0.5-0.4,1.1-0.7,1.6-1.1c0.4-0.5,1-0.9,1.4-1.3c0.5-0.4,1-0.9,1.5-1.2
						l1.6-1.1l1.7-1c0.6-0.3,1.1-0.7,1.7-0.9l1.8-0.8c0.6-0.2,1.1-0.6,1.8-0.7l1.8-0.6l1-0.6l1.1-0.4c0.7-0.3,1.5-0.6,2.2-0.9
						c3.4-1.1,7.2-1.6,11.2-1.3c1,0.1,2,0.2,3,0.4c1,0.2,2,0.5,3,0.7c1,0.3,2,0.7,3,1c0.5,0.2,1,0.4,1.5,0.6l1.4,0.7
						c3.8,1.8,7.4,4.3,10.5,7.2l2.3,2.3l2.1,2.4c1.4,1.6,2.6,3.3,3.6,5.1c0.6,1.2,2,2.8,3.1,4.9c-0.9-2.6-2-5.1-3.5-7.5
						c-1.4-2.3-3.3-4.5-5.3-6.5l0.6,0.6c0.2,0.2,0.3,0.4,0.5,0.7c0.3,0.4,0.6,0.9,0.9,1.3c0.3,0.4,0.6,0.9,0.9,1.3
						c0.2,0.5,0.5,0.9,0.7,1.3c-3.3-3.9-5.8-7.5-10.3-10.4c0.6,0.4,1.3,0.7,1.8,1.1c0.6,0.4,1.1,0.8,1.7,1.2
						c1.2,0.8,2.1,1.8,3.2,2.8c-0.6-0.6-1.2-1.3-1.8-1.9c-0.6-0.6-1.3-1.2-2-1.8c-1.3-1.2-2.8-2.2-4.3-3.3c0.8,0.4,1.5,0.8,2.3,1.3
						c0.4,0.2,0.7,0.5,1.1,0.7l1,0.8c0.7,0.5,1.3,1.1,1.9,1.7l1.7,1.8l0.9,0.9l0.8,1c0.5,0.6,1.1,1.3,1.7,1.9c0.5,0.6,1.1,1.3,1.6,2
						c0.5,0.7,1.1,1.3,1.7,2c-0.8-1.3-1.6-2.5-2.5-3.7c0.9,1.2,1.8,2.4,2.5,3.8c0,0,0,0-0.1-0.1c2.4,3.9,4.2,8.1,5.2,12.2
						c-0.3-2-0.8-3.9-1.3-5.7c-0.6-1.8-1.2-3.6-2-5.4c-0.8-1.7-1.8-3.4-2.9-5c-0.3-0.4-0.6-0.8-0.9-1.2l-1-1.1
						c-0.7-0.7-1.3-1.5-2-2.2c-1-0.9-1.9-1.8-3-2.6c1.1,0.8,2,1.7,3,2.6c1.6,1.6,3.2,3.3,4.6,5.1c1.3,1.9,2.5,3.9,3.5,6
						c1.9,4.2,2.9,8.8,3,13.3c0.1,4.6-0.5,9.1-1.8,13.4c-1.3,4.3-3.3,8.4-6.4,11.7c-0.4,0.4-0.7,0.8-1.2,1.2
						c0.6-0.1,1.1-0.3,1.6-0.5c2.7-2.8,4.5-6.2,5.8-9.8c1.3-3.6,2.2-7.3,2.5-11.1C175.6,119.4,174.2,111.5,170.5,104.7z"/>
				</g>
			</g>
		</g>
		<g>
			<path fill="none" d="M110.7,54.2c-0.9,1.6-1.4,3.1-1.5,4.8c-0.1,2.4,0.7,4.5,1.9,5.9c0.6,0.7,1.3,1.2,2.1,1.5
				c0.7,0.3,1.8,0.6,2.7,0.7c1.2,0.2,2.7,0.3,4,0.2c1.4-0.1,2.8-0.6,3.9-1c0.6-0.2,1.9-0.8,3.1-1.5c1.2-0.8,2.3-1.8,2.7-2.3
				c1.8-2,3.3-4.3,4.6-6.8c-0.3-0.3-0.6-0.6-1-0.9c-0.3-0.2,0,0-1.3-0.8c-0.7-0.4-1.7-1.1-3.5-2.1c-0.5-0.2-1-0.5-1.5-0.8
				c-0.6-0.3-1.2-0.6-1.9-0.8c-1.4-0.5-3-1.1-4.9-1.3c-2-0.2-3.9,0.2-5.4,1C113.2,50.9,111.8,52.2,110.7,54.2z"/>
			<path fill="#919191" d="M142.1,34.5c0,0.3,0,0.7,0,1.1c0,0.1,0,0.1,0,0.2c0,0.2,0,0.4,0.1,0.7C142.1,35.9,142.1,35.2,142.1,34.5z
				"/>
			<path fill="#919191" d="M132.4,17.3c0.8,1.2,1.7,2.6,2.6,4.4c0.2,0.4,0.4,0.8,0.6,1.3c-0.2-0.4-0.4-0.9-0.6-1.3
				C134.3,20.2,133.4,18.6,132.4,17.3z"/>
			<path fill="#919191" d="M137.6,20.7C137.6,20.7,137.6,20.7,137.6,20.7C137.6,20.7,137.6,20.7,137.6,20.7
				C137.6,20.7,137.6,20.7,137.6,20.7z"/>
			<polygon fill="#919191" points="139.7,24.9 139.7,24.9 139.7,24.9 			"/>
			<path fill="#919191" d="M138.4,80.3c0.1,0,0.1-0.1,0.2-0.1c0.3-0.2,0.5-0.4,0.8-0.7C139.1,79.8,138.8,80,138.4,80.3z"/>
			<path fill="#919191" d="M140.1,36.8c0.2,1.3,0.4,2.7,0.5,4.1c0,0,0,0.1,0.1,0.2c0-0.1,0-0.2,0-0.3
				C140.6,39.6,140.4,38.2,140.1,36.8z"/>
			<path fill="#919191" d="M112.2,48c-0.3,0.1-0.5,0.3-0.7,0.5c-0.2,0.2-0.5,0.4-0.8,0.6c-1,0.9-1.9,1.9-2.6,2.9
				c-0.8,1-1.2,2.1-1.6,2.8c-0.9,2.3-1.5,4.6-0.9,7.9c0.1,0.4,0.2,0.7,0.3,1c0.1,0.3,0.3,0.6,0.5,1c0.2,0.4,0.9,2.3,3,4
				c0.5,0.4,1.1,0.8,1.7,1.1c0.3,0.1,0.7,0.3,1,0.4c0.4,0.1,0.7,0.2,1,0.3c1.3,0.4,2.8,0.7,4.3,0.8c1.5,0.1,3.1-0.1,4.5-0.4
				c0.7-0.2,1.4-0.4,2-0.7c0.3-0.1,0.6-0.2,0.9-0.4c0.3-0.1,0.6-0.3,0.8-0.4c2.1-1.2,3.4-2.4,3.9-2.8c0.6-0.4,1.2-1,1.6-1.3
				c0.4-0.4,0.7-0.6,0.6-0.4c0,0.3,0.5-0.1,1-0.5c0.5-0.5,1.2-1.1,1.6-1.4c0.2-0.1-0.1,0.5,0,0.4c0.6-0.5,1.7-1.6,2.7-3.1
				c0.5-0.7,0.9-1.4,1.3-2.2c0-0.1-0.1-0.1-0.1-0.2c-0.3-0.3-0.6-0.6-0.8-0.9c-0.7,1.1-1.4,2.2-2.2,3.3c-1.3,1.7-2.6,3.1-3.4,3.8
				c-0.8,0.7-1,0.6-0.2-0.5c0,0,0.2-0.3,0.5-0.9c0.4-0.5,0.8-1.4,1.4-2.4c0.7-1.3,1.5-2.9,2.2-4.8c-1.2-1.2-2.5-2.3-4-3.3
				c-1.6-1.1-3.2-2-4.7-2.7c-1.5-0.7-2.9-1.2-4.4-1.7c0.3,0.1-0.1,0-0.9-0.2c-0.5-0.1-1.1-0.2-1.7-0.3c-0.3-0.1-0.7,0-1.1-0.1
				c-0.4,0-0.7-0.1-1.1,0c-0.4,0-0.7,0-1.1,0.1c-0.4,0-0.7,0.1-1,0.2c-0.7,0.1-1.2,0.4-1.7,0.5c-0.4,0.1-0.7,0.3-0.8,0.4
				c-0.1,0,0,0,0.3-0.2c-0.2,0.2-1,0.5-1.2,0.5c0-0.1-0.2-0.1,0.1-0.2c0.5-0.3,0.8-0.6,1.1-0.8c0.3-0.2,0.5-0.3,0.6-0.4
				c0.3-0.2,0.4-0.4,0.8-0.7c-0.1,0-0.6,0.2-1.5,0.5C113.2,47.4,112.7,47.7,112.2,48z M114.7,50c1.6-0.9,3.4-1.2,5.4-1
				c1.9,0.2,3.5,0.7,4.9,1.3c0.7,0.3,1.3,0.5,1.9,0.8c0.6,0.2,1.1,0.5,1.5,0.8c1.8,1,2.9,1.7,3.5,2.1c1.3,0.9,1,0.6,1.3,0.8
				c0.4,0.3,0.7,0.6,1,0.9c-1.3,2.5-2.8,4.8-4.6,6.8c-0.4,0.5-1.5,1.5-2.7,2.3c-1.2,0.8-2.5,1.4-3.1,1.5c-1.1,0.4-2.5,0.9-3.9,1
				c-1.4,0.2-2.8,0-4-0.2c-0.9-0.1-2-0.5-2.7-0.7c-0.8-0.3-1.5-0.8-2.1-1.5c-1.2-1.4-2-3.5-1.9-5.9c0.1-1.7,0.6-3.2,1.5-4.8
				C111.8,52.2,113.2,50.9,114.7,50z"/>
			<path fill="#919191" d="M142,33.8c0.1,0.3,0.2,0.9,0.3,1.5c0.1,0.6,0.2,1.4,0.3,2.2c0.1,0.9,0.1,1.8,0.1,2.8c0,2-0.2,4.3-0.6,6.4
				c-0.4,2.1-1.2,4.1-2,5.7c0,0-0.5,1.2-1.4,2.7c-0.2,0.4-0.4,0.7-0.6,1.1c0.3,0.3,0.7,0.6,1,1c0.2-0.3,0.3-0.6,0.5-0.9
				c0.4-0.7,0.7-1.4,1-2c0.3-0.7,0.6-1.4,0.8-2c0,0,0.2-0.5,0.4-1.3c0.3-0.8,0.6-1.8,0.8-2.8c0.1-0.5,0.2-0.9,0.3-1.3
				c0.3-1.7,0.4-3.3,0.4-4.8c0-2.8-0.2-3.2-0.2-4.4c-0.1-0.5-0.4-1.9-1.2-5.2c0,0,0,0.1,0,0.3C142,33,142,33.4,142,33.8z"/>
			<path fill="#919191" d="M139.7,79.2c-0.1,0.1-0.2,0.2-0.2,0.3C139.5,79.4,139.6,79.3,139.7,79.2z"/>
			<path fill="#919191" d="M142.3,75.3c0.2-0.4,0.4-0.8,0.5-1.2c0.8-2.2,0.9-5.3,0.1-8c-0.3-1.1-0.6-2-1-3.1
				c-0.5-1.3-1.6-2.9-2.8-4.4c-0.3,0.5-0.6,1-0.8,1.4c1.1,1.3,1.9,2.5,2.5,3.4c1.4,2.2,2.4,5.1,2.1,8.3c-0.1,1.6-0.5,3.2-1.2,4.7
				c-0.1,0.2-0.2,0.4-0.3,0.6c0.1-0.2,0.2-0.4,0.4-0.6C141.9,76,142.2,75.7,142.3,75.3z"/>
			<path fill="#919191" d="M139.8,27.6c-0.3-0.8-0.6-1.6-0.9-2.4c-1-2.2-2.2-4.5-3.6-6.7c-0.7-1.1-1.5-2.1-2.3-3.1
				c0.8,1.1,1.6,2.2,2.3,3.3C137.3,21.7,138.7,24.8,139.8,27.6z"/>
			<path opacity="0.9" d="M137.7,20.7c0.9,1.7,1.6,3.2,2,4.2C139.2,23.9,138.6,22.4,137.7,20.7z"/>
			<path opacity="0.9" d="M128,8.5c0.6,0.6,1.3,1.2,2,1.9c1.4,1.4,2.9,3.1,4.2,4.9c1.3,1.8,2.5,3.7,3.4,5.3c-0.9-1.7-2-3.5-3.3-5.2
				c-2.2-3-4.8-5.6-6.6-7.3c0,0,0,0,0,0C127.7,8.2,127.9,8.3,128,8.5z"/>
			<path opacity="0.9" d="M142,32.5C142,32.5,142,32.5,142,32.5c-0.5-2.4-1.3-5.5-2.2-7.5c0,0,0-0.1-0.1-0.1c1,2,1.7,5.1,2.3,7.4
				C142,32.4,142,32.4,142,32.5z"/>
			<path fill="#919191" d="M130,10.4c-0.7-0.7-1.4-1.3-2-1.9c-0.2-0.1-0.3-0.3-0.4-0.4c-0.7-0.2-1.5-0.5-2.4-0.8
				c2.9,2.4,5.6,5.2,7.8,8.1c0.8,1,1.6,2,2.3,3.1c1.4,2.2,2.6,4.5,3.6,6.7c0.3,0.8,0.6,1.6,0.9,2.4c0.7,1.9,1.3,3.6,1.8,5.1
				c0,0,0.1,0.3,0.2,0.8c0.1,0.5,0.2,1.2,0.3,2.1c0,0,0,0.1,0,0.2c0-0.1,0-0.1,0-0.2c0-0.4,0-0.8,0-1.1c0-0.4-0.1-0.8-0.1-1.2
				c0,0,0,0.2,0.1,0.5c0-0.5,0-0.8,0-1c0-0.2,0-0.3,0-0.3c0-0.1,0-0.1,0-0.1c-0.5-2.4-1.3-5.5-2.3-7.4l0,0c-0.4-1-1.1-2.5-2-4.2
				c0,0,0,0,0-0.1c-0.9-1.7-2.1-3.6-3.4-5.3C132.9,13.5,131.4,11.8,130,10.4z"/>
			<path opacity="0.9" d="M130,10.4c-0.7-0.7-1.4-1.3-2-1.9c-0.2-0.1-0.3-0.3-0.4-0.4c-0.7-0.2-1.5-0.5-2.4-0.8
				c2.9,2.4,5.6,5.2,7.8,8.1c0.8,1,1.6,2,2.3,3.1c1.4,2.2,2.6,4.5,3.6,6.7c0.3,0.8,0.6,1.6,0.9,2.4c0.7,1.9,1.3,3.6,1.8,5.1
				c0,0,0.1,0.3,0.2,0.8c0.1,0.5,0.2,1.2,0.3,2.1c0,0,0,0.1,0,0.2c0-0.1,0-0.1,0-0.2c0-0.4,0-0.8,0-1.1c0-0.4-0.1-0.8-0.1-1.2
				c0,0,0,0.2,0.1,0.5c0-0.5,0-0.8,0-1c0-0.2,0-0.3,0-0.3c0-0.1,0-0.1,0-0.1c-0.5-2.4-1.3-5.5-2.3-7.4l0,0c-0.4-1-1.1-2.5-2-4.2
				c0,0,0,0,0-0.1c-0.9-1.7-2.1-3.6-3.4-5.3C132.9,13.5,131.4,11.8,130,10.4z"/>
			<path fill="#232323" d="M128.6,12c0.8,1,1.4,1.7,1.7,2.1c0,0,0.1,0.2,0.4,0.5c0.2,0.3,0.6,0.8,1.1,1.5c0.2,0.3,0.5,0.7,0.8,1.1
				c0.9,1.3,1.9,2.9,2.6,4.3c0.2,0.5,0.5,0.9,0.6,1.3c1.8,3.7,3.6,8.6,4.4,13.9c0.2,1.4,0.4,2.8,0.5,4.1c0,0.1,0,0.2,0,0.3
				c0.1,0.3,0.3,0.8,0.6,0.6c0.2-0.2,0.4-0.7,0.7-2c0.1-0.8,0.2-1.9,0.2-3.3c0-0.2,0-0.4-0.1-0.7c0,0,0-0.1,0-0.2
				c-0.1-0.9-0.3-1.6-0.3-2.1c-0.1-0.5-0.2-0.8-0.2-0.8c-0.4-1.5-1-3.2-1.8-5.1c-1.1-2.8-2.5-5.9-4.5-9c-0.7-1.1-1.5-2.2-2.3-3.3
				c-2.3-3-5-5.7-7.8-8.1c-0.4-0.1-0.8-0.3-1.2-0.5c-0.8-0.3-1.6-0.6-2.4-0.9c1.4,1,2.6,2,3.7,2.9C126.6,10,127.7,11.1,128.6,12z"/>
			<path fill="#5C5C5C" d="M133.8,60.4c-0.6,1.1-1.1,1.9-1.4,2.4c-0.4,0.6-0.5,0.9-0.5,0.9c-0.8,1.2-0.6,1.2,0.2,0.5
				c0.8-0.7,2.2-2.1,3.4-3.8c0.8-1,1.5-2.2,2.2-3.3c-0.5-0.5-1.1-1.1-1.6-1.6C135.3,57.5,134.5,59.1,133.8,60.4z"/>
			<path fill="#5C5C5C" d="M138.1,56.3c0.2-0.4,0.4-0.8,0.6-1.1c0.9-1.5,1.4-2.7,1.4-2.7c0.8-1.5,1.6-3.5,2-5.7
				c0.4-2.1,0.7-4.4,0.6-6.4c0-1-0.1-2-0.1-2.8c-0.1-0.9-0.2-1.6-0.3-2.2c-0.1-0.7-0.2-1.2-0.3-1.5c-0.1-0.3-0.1-0.5-0.1-0.5
				c0,0.4,0.1,0.8,0.1,1.2c0.1,0.7,0.1,1.4,0.1,2c0,1.4-0.1,2.5-0.2,3.3c-0.2,1.3-0.5,1.8-0.7,2c-0.3,0.2-0.5-0.3-0.6-0.6
				c0-0.1-0.1-0.2-0.1-0.2c-0.1-1.4-0.2-2.8-0.5-4.1c-0.8-5.3-2.6-10.2-4.4-13.9c-0.2-0.4-0.4-0.9-0.6-1.3c-0.9-1.8-1.9-3.2-2.6-4.4
				c-0.3-0.4-0.5-0.8-0.8-1.1c-0.4-0.7-0.8-1.1-1.1-1.5c-0.2-0.3-0.4-0.5-0.4-0.5c-0.2-0.4-0.9-1.1-1.7-2.1
				c-0.8-0.9-1.9-2.1-3.3-3.2c-1.1-1-2.3-2-3.7-2.9c-1-0.4-1.9-0.7-2.9-1c-0.2-0.1-0.6-0.2-1-0.4c0.7,0.5,1.4,1,2,1.4
				c0.7,0.5,1.3,1,1.8,1.4c0.5,0.4,0.9,0.8,1.2,1c0.3,0.2,0.4,0.4,0.4,0.4c1.6,1.6,4.2,4.1,6.2,6.5c0.5,0.6,1,1.2,1.4,1.7
				c0.4,0.5,0.8,1,1.1,1.4c0.6,0.8,0.9,1.4,0.9,1.4c1.1,1.5,1.9,2.8,2.3,3.6c0.5,0.9,0.7,1.3,0.7,1.3c1.9,4.3,3.1,9.1,3.4,13.8
				c0.4,4.7-0.2,9.2-1.4,13c-0.4,1.2-0.8,2.3-1.2,3.3c0.4,0.4,0.9,0.8,1.3,1.1C137.8,56,138,56.2,138.1,56.3z"/>
			<path fill="#BDBDBD" d="M139.4,79.8c0.7-0.5,1.3-1.2,1.8-2c0.5-0.8,0.9-1.5,1.3-2.2c0.7-1.5,1.1-2.8,1.3-4.7
				c0.1-1.3,0.1-2.4-0.2-3.7c-0.9-4.7-3.7-8.6-7.1-11.7c-1.5-1.1-3.5-2.9-5.3-4.1c-0.5-0.3-1-0.7-1.7-1.1c-1.7-1-3.6-1.8-4.8-2.4
				c-0.6-0.3-1.2-0.6-1.9-0.8l-1-0.4c-0.3-0.1-0.7-0.2-1.1-0.3c-0.7-0.2-1.5-0.3-2.3-0.4c-0.8,0-1.7-0.1-2.6,0.1
				c-0.4,0.1-0.9,0.1-1.5,0.3c-0.6,0.2-1.3,0.4-2.1,0.8c-0.8,0.3-1.5,0.9-2.2,1.5c-0.4,0.3-0.7,0.7-1,1c-0.3,0.3-0.7,0.7-0.9,1.1
				c-0.3,0.4-0.6,0.8-0.8,1.2c-0.3,0.4-0.5,0.8-0.7,1.3c-0.2,0.4-0.4,0.9-0.6,1.3c-0.2,0.4-0.3,0.8-0.4,1.3c-0.5,1.6-0.6,3-0.6,3.9
				c-0.1,2.2,0.4,4.5,1.5,6.5c1.1,2.1,3,3.7,5.1,4.7c0.1,0,0,0-0.4-0.1c0.1,0,0.1,0.1,0.2,0.1l0.6,0.3l0.6,0.2
				c0.3,0.1,1.4,0.4,1.7,0.4c1,0.3,1.8,0.5,2.8,0.7c1.5,0.3,3.6,0.4,5.7-0.1c2.1-0.4,4.3-1.4,6.2-2.7c3.9-2.6,6.6-6.2,8.5-9
				c0.2-0.2,0.3-0.5,0.5-0.8c0.3-0.4,0.6-0.9,0.8-1.4c1.3,1.5,2.4,3.1,2.8,4.4c0.4,1,0.7,1.9,1,3.1c0.8,2.8,0.7,5.9-0.1,8
				c-0.1,0.4-0.3,0.8-0.5,1.2c-0.2,0.4-0.4,0.7-0.6,1.1c-0.1,0.2-0.2,0.4-0.4,0.6c-0.4,0.6-0.9,1.3-1.5,2c0,0-0.1,0.1-0.1,0.1
				c-0.1,0.1-0.2,0.2-0.2,0.3c0,0,0,0,0,0c-0.2,0.2-0.5,0.5-0.8,0.7c-0.5,0.4-0.9,0.6-1,0.7c0.3-0.1,0.6-0.3,0.9-0.4
				C138.7,80.3,139.1,80.1,139.4,79.8z M115.1,46.7c-0.4,0.3-0.5,0.5-0.8,0.7c-0.1,0.1-0.3,0.3-0.6,0.4c-0.3,0.2-0.6,0.5-1.1,0.8
				c-0.2,0.2,0,0.1-0.1,0.2c0.2,0,1-0.4,1.2-0.5c-0.3,0.2-0.4,0.3-0.3,0.2c0.1,0,0.4-0.2,0.8-0.4c0.4-0.1,1-0.4,1.7-0.5
				c0.3-0.1,0.7-0.1,1-0.2c0.4,0,0.7,0,1.1-0.1c0.4,0,0.7,0,1.1,0c0.4,0,0.7,0,1.1,0.1c0.7,0.1,1.3,0.2,1.7,0.3
				c0.8,0.2,1.2,0.3,0.9,0.2c1.5,0.5,2.9,1,4.4,1.7c1.6,0.7,3.1,1.5,4.7,2.7c1.4,1,2.7,2.1,4,3.3c0.6,0.5,1.1,1.1,1.6,1.6
				c0.3,0.3,0.6,0.6,0.8,0.9c0,0.1,0.1,0.1,0.1,0.2c-0.4,0.8-0.9,1.5-1.3,2.2c-0.9,1.5-2,2.6-2.7,3.1c-0.2,0.1,0.1-0.5,0-0.4
				c-0.4,0.3-1,0.9-1.6,1.4c-0.6,0.5-1,0.8-1,0.5c0.1-0.2-0.2,0-0.6,0.4c-0.5,0.4-1.1,0.9-1.6,1.3c-0.5,0.4-1.8,1.6-3.9,2.8
				c-0.3,0.1-0.5,0.3-0.8,0.4c-0.3,0.1-0.6,0.3-0.9,0.4c-0.6,0.3-1.3,0.5-2,0.7c-1.4,0.4-3,0.5-4.5,0.4c-1.5-0.1-3-0.4-4.3-0.8
				c-0.3-0.1-0.6-0.2-1-0.3c-0.3-0.1-0.7-0.3-1-0.4c-0.6-0.4-1.3-0.7-1.7-1.1c-2.1-1.7-2.8-3.5-3-4c-0.2-0.4-0.3-0.7-0.5-1
				c-0.1-0.3-0.2-0.6-0.3-1c-0.6-3.3,0-5.6,0.9-7.9c0.3-0.7,0.8-1.8,1.6-2.8c0.7-1,1.6-2.1,2.6-2.9c0.3-0.2,0.5-0.4,0.8-0.6
				c0.2-0.2,0.5-0.4,0.7-0.5c0.5-0.3,1-0.6,1.4-0.7C114.5,46.9,115,46.7,115.1,46.7z"/>
			<path fill="#BDBDBD" d="M141.8,51c-0.3,0.8-0.4,1.3-0.4,1.3c-0.2,0.6-0.5,1.3-0.8,2c-0.3,0.7-0.6,1.4-1,2
				c-0.2,0.3-0.3,0.6-0.5,0.9c0.2,0.2,0.3,0.3,0.5,0.5c0.3-0.6,0.7-1.3,1-1.9c0.6-1.4,1.5-3.4,1.9-4.7c0.7-2.5,0.9-4.9,1.1-7.2
				c0,0,0,0.1,0,0.4c0,0.2-0.1,0.6-0.2,1c-0.1,0.5-0.2,1-0.3,1.6c-0.1,0.4-0.2,0.9-0.3,1.3C142.4,49.2,142.1,50.3,141.8,51z"/>
			<path fill="#E9E9E9" d="M139.1,57.3c-0.3-0.3-0.6-0.6-1-1c-0.2-0.2-0.3-0.3-0.5-0.5c-0.4-0.4-0.8-0.7-1.3-1.1
				c-0.4-0.3-0.8-0.7-1.2-1c-1.5-1.2-3.2-2.5-4.8-3.3c-0.3-0.2-0.9-0.5-1.3-0.7c-1.9-1.3-3.9-2.3-6.1-3.1c-2.2-0.7-4.7-1.2-7.3-0.8
				c-0.2,0-0.5,0.1-0.7,0.1c-0.3,0.1-0.6,0.2-0.9,0.3c-0.3,0.1-0.7,0.2-1,0.4c-0.3,0.2-0.7,0.4-1.1,0.6c-0.2,0.1-0.4,0.2-0.6,0.3
				c-0.2,0.1-0.4,0.3-0.5,0.4c-0.4,0.3-0.7,0.6-1.1,0.9c-0.3,0.3-0.7,0.7-1,1c-0.2,0.2-0.3,0.3-0.5,0.5l-0.4,0.6
				c-0.3,0.4-0.5,0.8-0.8,1.1c-0.3,0.4-0.5,0.8-0.7,1.2c-0.2,0.4-0.4,0.8-0.5,1.2c-0.2,0.4-0.3,0.8-0.4,1.2
				c-0.4,1.5-0.6,2.8-0.6,3.5c-0.2,2.7,0.4,5,1.3,6.8c0.9,1.8,2,3,3,3.7c0.5,0.4,0.9,0.6,1.3,0.8c0.4,0.2,0.6,0.3,0.9,0.4
				c0.1,0,0.1,0,0.2,0.1c0.3,0.1,0.4,0.1,0.4,0.1c-2.1-1-4-2.7-5.1-4.7c-1.1-2-1.6-4.3-1.5-6.5c0-0.8,0.1-2.3,0.6-3.9
				c0.1-0.4,0.3-0.8,0.4-1.3c0.2-0.4,0.4-0.9,0.6-1.3c0.2-0.4,0.5-0.9,0.7-1.3c0.3-0.4,0.6-0.8,0.8-1.2c0.3-0.4,0.6-0.7,0.9-1.1
				c0.3-0.3,0.6-0.7,1-1c0.8-0.6,1.5-1.1,2.2-1.5c0.7-0.4,1.5-0.6,2.1-0.8c0.6-0.2,1.1-0.2,1.5-0.3c0.9-0.2,1.8-0.1,2.6-0.1
				c0.8,0.1,1.6,0.2,2.3,0.4c0.4,0.1,0.7,0.2,1.1,0.3l1,0.4c0.7,0.2,1.3,0.5,1.9,0.8c1.2,0.6,3.1,1.3,4.8,2.4
				c0.7,0.4,1.1,0.8,1.7,1.1c1.8,1.2,3.9,3,5.3,4.1c3.4,3.1,6.2,7,7.1,11.7c0.3,1.3,0.3,2.4,0.2,3.7c-0.2,1.9-0.6,3.2-1.3,4.7
				c-0.3,0.7-0.8,1.5-1.3,2.2c-0.5,0.7-1.1,1.5-1.8,2c-0.3,0.3-0.7,0.5-1,0.7c-0.3,0.2-0.6,0.3-0.9,0.4c-0.1,0.1-0.3,0.2-0.4,0.2
				c-0.2,0.1-0.3,0.1-0.5,0.2c-0.3,0.1-0.5,0.2-0.5,0.2c-0.1,0.1,0.7-0.1,1.1-0.2c2.2-0.8,3.9-2.3,5.2-4.5c1.5-2.6,2.2-5.8,1.8-9.1
				c-0.4-3.3-1.9-6.5-4.1-9.2c-0.2-0.3-0.4-0.5-0.6-0.7C139.4,57.6,139.3,57.4,139.1,57.3z"/>
			<path fill="#919191" d="M133.8,6.1c0.3,0.1,0.5,0.2,0.8,0.2c-1.9-0.7-4-1.4-6.1-2.1c-0.1,0-0.3-0.1-0.4-0.1h-0.2
				c0.2,0.1,0.4,0.2,0.6,0.2C130.4,5,132.2,5.6,133.8,6.1z"/>
			<path fill="#919191" d="M139.5,10c0.9,0.3,1.9,0.5,2.8,0.8c0,0,0.1,0,0.2,0c-0.1,0-0.1,0-0.2,0C141.5,10.6,140.5,10.3,139.5,10z"
				/>
			<path fill="#919191" d="M129.4,6.5c0.2,0.1,0.5,0.2,0.7,0.3c-1.1-0.4-2.5-1-3.7-1.5C127.3,5.7,128.3,6.1,129.4,6.5z"/>
			<path fill="#919191" d="M201.6,49.3c-0.6-0.5-1-1-1.5-1.5c-0.7-0.8-1.9-1.6-3-2.6c-1.4-1.1-2.8-2.5-4.3-3.6c-2-1.6-3.9-2.6-5.5-4
				c1.4,1.2-6.4-4.5-4.7-3.4c-0.2-0.1-0.5-0.5-0.6-0.6c0.1,0,0-0.1,0.2-0.1c1.2,0.7,1.3,0.4,1.9,0.4c0-0.1-1.1-0.8-2.3-1.7
				c-1.2-0.9-2.6-2-3.4-2.6c-1.1-1-2.1-1.8-3.6-2.9c-0.4-0.3-0.7-0.3-1.1-0.5c-0.2-0.2-1.1-0.7-2.4-1.4c-1.3-0.7-2.9-1.5-4.5-2.4
				c-1.6-0.9-3.3-1.7-4.6-2.4c-1.3-0.7-2.3-1.2-2.7-1.4c-0.8-0.5-1.7-1.2-1.4-1.2c0.4-0.2-1-1.1-1.3-1.7c-0.1-0.1,0.3,0,0.3-0.1
				c-0.3-0.4-1-1.1-2-1.7c-1.5-1-3.5-2-5-2.7l-3.1-1.6c-1-0.4-1.9-0.8-2.8-1.1c-1.6-0.6-1.9-0.6-2.6-0.9c-0.3-0.1-1.2-0.1-3.3-0.8
				c0,0,0,0,0,0c0,0,0.2,0.2,0.7,0.5c0.6,0.2,2.2,0.7,4,1.4c1.2,0.4,2.5,1,3.7,1.6c1.2,0.6,2.3,1.3,3.2,2c0,0,0.7,0.4,1.7,1
				c0.5,0.3,1,0.7,1.6,1c0.6,0.4,1.2,0.8,1.7,1.2c2.2,1.6,4,3,2.2,2.4c0,0-0.9-0.3-2.4-0.9c-0.8-0.3-1.7-0.6-2.7-1
				c-1.1-0.4-2.2-0.8-3.5-1.2c-5-1.9-11.5-4.3-17.6-6.8c0,0-1.3-0.5-3.9-1.2c0,0-1.7-0.6-3.7-1.4c-1.2-0.4-2.4-0.9-3.5-1.3h-5
				c2.1,1.3,4,2.6,6.1,4.2c0.5,0.4,2.4,2.1,3.1,2.7c1.9,1.7,3.8,3.8,5.4,5.8c1.6,2,2.8,4,3.9,5.5c1.4,2.5,2.1,4.5,2.7,6.4
				c0.6,1.9,1,3.7,1.5,5.9c1.1,5.6,1.1,11.8-1.7,18.1c-0.1,0.3-0.3,0.6-0.4,0.9c0.4,0.3,0.8,0.7,1.2,1c0.4-1,0.8-2.2,1.2-3.3
				c1.2-3.8,1.8-8.3,1.4-13c-0.3-4.7-1.5-9.5-3.4-13.8c0,0-0.2-0.5-0.7-1.3c-0.5-0.9-1.2-2.1-2.3-3.6c0,0-0.4-0.5-0.9-1.4
				c-0.3-0.4-0.7-0.9-1.1-1.4c-0.4-0.5-0.9-1.1-1.4-1.7c-1.9-2.4-4.6-4.9-6.2-6.5c0,0-0.1-0.1-0.4-0.4c-0.3-0.2-0.6-0.6-1.2-1
				c-0.5-0.4-1.1-0.9-1.8-1.4c-0.6-0.4-1.3-0.9-2-1.4c0.4,0.2,0.8,0.3,1,0.4c0.9,0.3,1.9,0.7,2.9,1c0.8,0.3,1.6,0.6,2.4,0.9
				c0.4,0.2,0.8,0.3,1.2,0.5c0.9,0.3,1.7,0.6,2.4,0.8c0,0,0,0,0,0c0.3,0.1,0.6,0.2,0.9,0.2c1.9,0.7,3.3,1.3,4.6,1.8
				c1.3,0.6,2.5,1.1,4,1.6c1.9,0.7,3.9,1.3,5.9,2c2,0.8,4,1.7,6.2,2.7c2.5,1.1,4.7,2.4,6.9,3.7c0.8,0.5,3.5,2.4,4.3,3.1
				c1.5,1.2,3.9,2.5,5.6,3.3c2.7,1.2,5.4,2.6,8.5,4.5c1.1,0.7,2,1.4,3.2,2.2c2.8,1.9,4.9,3.1,7.4,4.6c1.1,0.8,2.1,1.5,2.9,2.1
				c0.8,0.6,1.5,1.1,2.1,1.5c1.1,0.8,1.9,1.3,2.3,1.6c0.9,0.6,0.7,0.4,0.9,0.5c0.9,0.7,1.1,1.1,2.1,2.1c1.4,1.2,2.9,2.3,3.9,3
				c2.4,1.5,5,3.5,7.6,5.8c-0.5-0.6-0.9-1.1-1.3-1.6C204.5,51.8,203,50.5,201.6,49.3z"/>
			<path fill="#919191" d="M139.4,7.7c0.2,0.1,0.4,0.2,0.6,0.4c0.1,0,0.2,0.1,0.4,0.1C140.1,8,139.8,7.8,139.4,7.7z"/>
			<path fill="#919191" d="M209.1,56.6c0-0.1-0.1-0.1-0.1-0.1c-0.2-0.2-0.4-0.4-0.6-0.5C208.6,56.1,208.9,56.4,209.1,56.6z"/>
			<path opacity="0.9" d="M133.5,5.1c1.4,0.3,3.2,1.3,4.6,1.8c0,0,0.1,0,0.1,0C136.7,6.4,134.9,5.4,133.5,5.1
				c-0.6-0.2-1.5-0.5-2.7-0.9h0C131.9,4.5,132.9,4.9,133.5,5.1z"/>
			<path fill="#919191" d="M133.5,5.1c-0.6-0.2-1.6-0.5-2.7-0.9H128c0.1,0,0.3,0.1,0.4,0.1c2.1,0.7,4.3,1.4,6.1,2.1
				c1.3,0.4,2.5,0.8,3.6,1c0,0,0.8,0.3,1.9,0.7c-0.2-0.1-0.4-0.3-0.6-0.4c-0.2-0.1-0.5-0.3-0.8-0.4c0,0,0.1,0,0.3,0.1
				c-0.5-0.3-0.7-0.5-0.7-0.5c0,0,0,0,0,0c0,0-0.1,0-0.1,0C136.7,6.3,134.9,5.4,133.5,5.1z"/>
			<path opacity="0.9" d="M133.5,5.1c-0.6-0.2-1.6-0.5-2.7-0.9H128c0.1,0,0.3,0.1,0.4,0.1c2.1,0.7,4.3,1.4,6.1,2.1
				c1.3,0.4,2.5,0.8,3.6,1c0,0,0.8,0.3,1.9,0.7c-0.2-0.1-0.4-0.3-0.6-0.4c-0.2-0.1-0.5-0.3-0.8-0.4c0,0,0.1,0,0.3,0.1
				c-0.5-0.3-0.7-0.5-0.7-0.5c0,0,0,0,0,0c0,0-0.1,0-0.1,0C136.7,6.3,134.9,5.4,133.5,5.1z"/>
			<path fill="#232323" d="M126.4,5.3c1.2,0.5,2.6,1.1,3.7,1.5c2.6,1,5.9,2.2,9.4,3.3c1,0.3,1.9,0.5,2.8,0.7c0.1,0,0.1,0,0.2,0
				c0.5-0.1,1.7-0.4-2.2-2.6c-0.1-0.1-0.3-0.1-0.4-0.1c-1.1-0.4-1.9-0.7-1.9-0.7c-1-0.2-2.2-0.6-3.6-1c-0.3-0.1-0.5-0.2-0.8-0.2
				c-1.6-0.5-3.4-1.1-5.3-1.7c-0.2-0.1-0.4-0.2-0.6-0.2h-4c0,0,0.6,0.3,1.5,0.7C125.7,5,126,5.1,126.4,5.3z"/>
			<path fill="#5C5C5C" d="M139.4,7.7c0.4,0.2,0.7,0.4,1,0.5c3.9,2.2,2.7,2.6,2.2,2.6c-0.1,0-0.2,0-0.2,0c-1-0.2-1.9-0.5-2.8-0.8
				c-3.5-1.1-6.7-2.3-9.4-3.3c-0.2-0.1-0.5-0.2-0.7-0.3c-1.2-0.4-2.2-0.9-3-1.2c-0.4-0.2-0.8-0.3-1.1-0.5c-0.9-0.4-1.5-0.7-1.5-0.7
				h-4c1.1,0.5,2.4,0.9,3.5,1.3c2,0.8,3.7,1.4,3.7,1.4c2.6,0.6,3.9,1.2,3.9,1.2c6.1,2.5,12.6,4.9,17.6,6.8c1.2,0.4,2.4,0.9,3.5,1.2
				c1,0.4,1.9,0.7,2.7,1c1.5,0.5,2.4,0.9,2.4,0.9c1.8,0.6,0-0.8-2.2-2.4c-0.6-0.4-1.1-0.8-1.7-1.2c-0.6-0.4-1.1-0.7-1.6-1
				c-1-0.6-1.7-1-1.7-1c-0.9-0.7-2-1.3-3.2-2c-1.2-0.6-2.5-1.2-3.7-1.6c-1.8-0.7-3.4-1.2-4-1.4c-0.2-0.1-0.3-0.1-0.3-0.1
				C138.9,7.4,139.2,7.5,139.4,7.7z"/>
			<path fill="#BDBDBD" d="M206.3,53.4c-0.7-0.8-1.3-1.5-2.1-2.4c-0.6-0.6-1.1-1.1-1.7-1.6c-2.2-2-4.4-3.9-6.7-5.8
				c-1-0.6-2.4-1.8-3.5-2.7c-0.3-0.3-0.6-0.5-1-0.9c-1-0.8-2.1-1.5-2.7-2.2c-1.1-1.3-2.4-2.5-4-3.9c-0.6-0.6-2.3-2-4-3.4
				c-1.7-1.4-3.6-2.7-4.3-3.3c-1-0.7-2-1.4-3.1-2.1c-1-0.7-2-1.3-3.1-2c0,0,0,0,0.2,0.1c-0.2-0.1-0.5-0.3-0.7-0.4
				c-0.2-0.1-0.7-0.4-0.9-0.5c-0.5-0.3-0.9-0.6-1.4-1c-0.7-0.6-1.6-1.2-2.6-1.9c-1-0.7-2.1-1.4-3.2-2.1c-2.2-1.4-4.6-2.8-6.3-4
				c-0.8-0.5-1.9-1.2-3.1-1.8c-0.9-0.4-2-1-2.8-1.3c-1.5-0.6-2.8-1-4.2-1.5l1.6,0.8l3.1,1.6c1.5,0.7,3.5,1.7,5,2.7
				c0.9,0.6,1.6,1.2,2,1.7c0.1,0.1-0.3,0-0.3,0.1c0.4,0.5,1.7,1.5,1.3,1.7c-0.3,0,0.6,0.7,1.4,1.2c0.3,0.2,1.3,0.7,2.7,1.4
				c1.3,0.7,2.9,1.6,4.6,2.4c1.6,0.9,3.3,1.7,4.5,2.4c1.2,0.7,2.2,1.2,2.4,1.4c0.4,0.3,0.7,0.3,1.1,0.5c1.6,1.1,2.5,2,3.6,2.9
				c0.8,0.6,2.1,1.7,3.4,2.6c1.2,0.9,2.3,1.7,2.3,1.7c-0.5-0.1-0.6,0.2-1.9-0.4c-0.2-0.1-0.1,0-0.2,0.1c0,0.1,0.4,0.5,0.6,0.6
				c-1.6-1.1,6.1,4.6,4.7,3.4c1.6,1.4,3.5,2.5,5.5,4c1.5,1.2,2.9,2.5,4.3,3.6c1.1,0.9,2.4,1.8,3,2.6c0.5,0.5,0.9,1,1.5,1.5
				c1.4,1.2,2.9,2.5,3.9,3.6c0.5,0.5,0.8,1,1.3,1.6c0.3,0.4,0.8,0.8,1.3,1.3c0.1,0.1,0.1,0.1,0.2,0.2c0.2,0.2,0.4,0.4,0.6,0.5
				c0.3,0.3,0.6,0.5,0.7,0.6c-0.3-0.3-0.5-0.6-0.9-1.1C208,55.1,207,54.2,206.3,53.4z"/>
			<path fill="#E9E9E9" d="M210.1,57c-1-1.2-1.8-2.2-2.9-3.4c-1.3-1.4-2.6-2.9-4-4.3c-1.5-1.4-3-2.8-4.7-4.3
				c-0.6-0.6-1.2-0.9-1.8-1.4c-1.4-1.1-3.1-2.5-4.7-3.5c-0.2-0.1-0.5-0.4-0.8-0.6c-1.1-1-2.1-2.1-3.1-3.1c-1.1-1-2.1-1.9-3.2-2.9
				c-0.7-0.6-2.4-2-4-3.4c-1.7-1.3-3.4-2.5-4-3c-2.4-1.7-4.1-2.7-5.2-3.3c-0.6-0.3-1-0.5-1.2-0.6c-0.2-0.1-0.2-0.1-0.2-0.1
				c1,0.6,2,1.3,3.1,2c1,0.7,2,1.3,3.1,2.1c0.8,0.6,2.6,1.9,4.3,3.3c1.7,1.4,3.4,2.8,4,3.4c1.5,1.4,2.8,2.6,4,3.9
				c0.6,0.6,1.7,1.4,2.7,2.2c0.4,0.3,0.7,0.6,1,0.9c1.1,0.9,2.4,2.1,3.5,2.7c2.3,1.9,4.5,3.8,6.7,5.8c0.6,0.5,1.2,1,1.7,1.6
				c0.8,0.9,1.4,1.6,2.1,2.4c0.6,0.7,1.6,1.7,2.4,2.5c0.4,0.4,0.6,0.7,0.9,1.1c0.3,0.2,0.8,0.7,0.8,0.7
				C210.5,57.6,210.2,57.3,210.1,57z"/>
			<polygon points="119.8,4.1 123.8,4.1 127.9,4.1 128,4.1 130.8,4.1 130.8,4.1 114.8,4.1 			"/>
		</g>
	</g>
	<g>
		<g>
			<path fill-rule="evenodd" clip-rule="evenodd" fill="#989898" d="M177.1,47.9c-0.1-0.1-0.2-0.2-0.3-0.4c-0.1-0.2-0.2-0.4-0.2-0.5
				c-0.1-0.3-0.2-0.6-0.4-0.9c-0.2-0.4-0.3-0.8-0.4-1.2c-0.2-0.8-0.3-1.7-0.3-2.5c0-1.6,0.3-3.1,0.7-4.2c0.4-1.2,0.9-2.1,1.3-2.7
				c0.4-0.6,0.6-0.9,0.6-0.9s-0.3,0.3-0.6,1c-0.3,0.6-0.7,1.6-0.8,2.8c-0.2,1.2-0.2,2.6,0.1,4c0.2,0.7,0.3,1.4,0.6,2.1
				c0.1,0.4,0.3,0.7,0.4,1c0.1,0.2,0,0.2,0,0.2c0,0,0,0,0,0.1c0,0.1,0,0.2,0.1,0.3c0,0.1,0.1,0,0.2,0c0.1,0,0.1-0.1,0.2-0.2
				c0,0,0,0,0.1-0.1l0.1-0.2l0.2-0.4c0.5-1.1,0.9-2.1,1.1-3.1c0.4-2.1,0.2-4.5-1.7-7.4c2.3,2.5,3.1,5.1,3,7.5c0,1.2-0.3,2.4-0.7,3.7
				c-0.1,0.2-0.1,0.3-0.2,0.5l-0.1,0.2c0,0.1-0.2,0.2-0.2,0.3c-0.3,0.5-0.5,1-0.9,1.4c-0.2,0.2-0.3,0.4-0.5,0.7l-0.3,0.3
				c0,0-0.1,0.2-0.1,0.1l-0.1-0.2C177.8,48.8,177.5,48.4,177.1,47.9z"/>
		</g>
	</g>
	<g>
		<g>
			<path fill-rule="evenodd" clip-rule="evenodd" fill="#989898" d="M185.3,53c-0.1-0.1-0.2-0.2-0.3-0.4c-0.1-0.2-0.2-0.4-0.2-0.5
				c-0.1-0.3-0.2-0.6-0.4-0.9c-0.2-0.4-0.3-0.8-0.4-1.2c-0.2-0.8-0.3-1.7-0.3-2.5c0-1.6,0.3-3.1,0.7-4.2c0.4-1.2,0.9-2.1,1.3-2.7
				c0.4-0.6,0.6-0.9,0.6-0.9s-0.3,0.3-0.6,1c-0.3,0.6-0.7,1.6-0.8,2.8c-0.2,1.2-0.2,2.6,0.1,4c0.2,0.7,0.3,1.4,0.6,2.1
				c0.1,0.4,0.3,0.7,0.4,1c0.1,0.2,0,0.2,0,0.2c0,0,0,0,0,0.1c0,0.1,0,0.2,0.1,0.3c0,0.1,0.1,0,0.2,0c0.1,0,0.1-0.1,0.2-0.2
				c0,0,0,0,0.1-0.1l0.1-0.2l0.2-0.4c0.5-1.1,0.9-2.1,1.1-3.1c0.4-2.1,0.2-4.5-1.7-7.4c2.3,2.5,3.1,5.1,3,7.5c0,1.2-0.3,2.4-0.7,3.7
				c-0.1,0.2-0.1,0.3-0.2,0.5l-0.1,0.2c0,0.1-0.2,0.2-0.2,0.3c-0.3,0.5-0.5,1-0.9,1.4c-0.2,0.2-0.3,0.4-0.5,0.7l-0.3,0.3
				c0,0-0.1,0.2-0.1,0.1l-0.1-0.2C186,53.9,185.7,53.4,185.3,53z"/>
		</g>
	</g>
	<g>
		<g>
			<path fill-rule="evenodd" clip-rule="evenodd" fill="#989898" d="M198.3,76.6c-0.1-0.1-0.2-0.2-0.2-0.4c-0.1-0.2-0.1-0.4-0.2-0.6
				c-0.1-0.3-0.2-0.7-0.2-1c-0.1-0.4-0.2-0.8-0.2-1.3c-0.1-0.8-0.1-1.7,0-2.5c0.2-1.6,0.7-3,1.2-4.1c0.6-1.1,1.2-1.9,1.6-2.5
				c0.5-0.5,0.8-0.8,0.8-0.8s-0.3,0.3-0.7,0.9c-0.4,0.6-0.9,1.5-1.2,2.6c-0.3,1.1-0.5,2.5-0.4,3.9c0.1,0.7,0.2,1.4,0.4,2.2
				c0.1,0.4,0.2,0.7,0.3,1.1c0.1,0.2,0,0.2,0,0.2c0,0,0,0,0,0.1c0,0.1,0,0.2,0,0.3c0,0.1,0.1,0,0.2,0c0.1,0,0.1-0.1,0.2-0.1
				c0,0,0,0,0.1-0.1l0.1-0.2l0.3-0.4c0.6-1,1.1-2,1.4-3c0.6-2,0.8-4.4-0.8-7.6c2,2.8,2.4,5.4,2.1,7.9c-0.2,1.2-0.6,2.4-1.2,3.6
				c-0.1,0.2-0.2,0.3-0.3,0.4l-0.1,0.2c0,0.1-0.2,0.2-0.2,0.3c-0.3,0.4-0.7,0.9-1,1.3c-0.2,0.2-0.4,0.4-0.6,0.6l-0.3,0.3
				c0,0-0.1,0.2-0.1,0.1l-0.1-0.2C198.9,77.6,198.6,77.1,198.3,76.6z"/>
		</g>
	</g>
	<g>
		<g>
			<path fill-rule="evenodd" clip-rule="evenodd" fill="#989898" d="M185.6,32.6c0.1-0.1,0.2-0.2,0.3-0.4l0.5-0.4
				c0.3-0.2,0.5-0.4,0.8-0.6c0.3-0.3,0.7-0.5,1.1-0.7c0.7-0.4,1.5-0.7,2.3-0.9c1.5-0.5,3-0.5,4.3-0.4c1.2,0.1,2.2,0.4,2.9,0.6
				c0.7,0.2,1,0.4,1,0.4s-0.4-0.2-1.1-0.3c-0.7-0.1-1.7-0.2-2.9-0.1c-1.2,0.1-2.5,0.5-3.8,1.1c-0.6,0.3-1.3,0.7-1.9,1.1
				c-0.3,0.2-0.6,0.4-0.9,0.7c-0.2,0.2-0.1,0.1-0.2,0.1c0,0,0,0-0.1,0c-0.1,0-0.2,0.1-0.3,0.1c-0.1,0.1,0,0.1,0,0.1
				c0.1,0.1,0.1,0.1,0.2,0.2c0,0,0,0,0.1,0l0.2,0l0.4,0.1c1.2,0.2,2.2,0.3,3.3,0.2c2.1-0.2,4.4-0.9,6.7-3.5
				c-1.8,2.9-4.1,4.3-6.5,4.9c-1.2,0.3-2.4,0.4-3.8,0.3c-0.2,0-0.3,0-0.5-0.1l-0.3,0c-0.1,0-0.2-0.1-0.4-0.1
				c-0.5-0.1-1.1-0.3-1.6-0.5c-0.3-0.1-0.5-0.2-0.8-0.3l-0.4-0.2c0,0-0.2,0-0.2-0.1l0.1-0.2C184.9,33.6,185.2,33.1,185.6,32.6z"/>
		</g>
	</g>
	<g>
		<g>
			<path fill-rule="evenodd" clip-rule="evenodd" fill="#989898" d="M192.1,38.8c0.1-0.1,0.2-0.2,0.4-0.3c0.2-0.1,0.4-0.2,0.5-0.3
				c0.3-0.1,0.6-0.3,0.9-0.4c0.4-0.2,0.8-0.3,1.2-0.4c0.8-0.3,1.6-0.4,2.4-0.5c1.6-0.2,3.1,0.1,4.3,0.4c1.2,0.3,2.1,0.8,2.7,1.1
				c0.6,0.3,1,0.6,1,0.6s-0.3-0.2-1-0.5c-0.7-0.3-1.6-0.6-2.8-0.6c-1.2-0.1-2.6,0-3.9,0.4c-0.7,0.2-1.4,0.4-2.1,0.8
				c-0.3,0.1-0.7,0.3-1,0.5c-0.2,0.1-0.2,0-0.2,0.1c0,0,0,0-0.1,0c-0.1,0-0.2,0-0.3,0.1c-0.1,0,0,0.1,0,0.2c0,0.1,0.1,0.1,0.2,0.2
				c0,0,0,0,0.1,0.1l0.2,0.1l0.4,0.2c1.1,0.4,2.1,0.7,3.2,0.8c2.1,0.2,4.5-0.1,7.3-2.2c-2.4,2.5-4.9,3.4-7.3,3.5
				c-1.2,0.1-2.5-0.1-3.8-0.5c-0.2,0-0.3-0.1-0.5-0.2l-0.3-0.1c-0.1,0-0.2-0.1-0.3-0.2c-0.5-0.2-1-0.5-1.5-0.8
				c-0.3-0.1-0.5-0.3-0.7-0.4l-0.4-0.2c0,0-0.2-0.1-0.1-0.1l0.1-0.1C191.2,39.5,191.6,39.2,192.1,38.8z"/>
		</g>
	</g>
</g>
<g>
	<g>
		<path fill="#656565" d="M107.7,123.3c0-0.3,0.1-0.6,0.1-0.9c0.1-1.2,0.2-2.3,0.5-3.5c0.4-1.8,1-3.5,1.7-5.2c0.6-1.4,1.4-2.7,2.3-4
			c0.6-0.9,1.3-1.7,2-2.5c0.5-0.5,0.9-1,1.4-1.4c1.2-1.1,2.4-2,3.8-2.8c0.7-0.4,1.5-0.8,2.2-1.2c2-1,4.1-1.7,6.2-2.1
			c1.1-0.2,2.1-0.3,3.2-0.4c0.6,0,1.2-0.1,1.9-0.1c1.1,0.1,2.2,0.2,3.3,0.3c1.6,0.2,3.1,0.6,4.5,1.1c1.7,0.6,3.4,1.4,4.9,2.3
			c1,0.6,2,1.3,2.9,2.1c0.8,0.7,1.6,1.5,2.4,2.2c1.3,1.4,2.4,2.9,3.4,4.6c1.3,2.4,2.2,4.9,2.7,7.6c0.2,1.1,0.3,2.1,0.4,3.2
			c0.1,2.1-0.1,4.2-0.5,6.3c-0.4,1.7-0.9,3.3-1.6,4.9c-0.8,1.8-1.8,3.4-3,5c-0.5,0.7-1.1,1.3-1.7,2c-1.2,1.3-2.5,2.4-4,3.3
			c-1.1,0.7-2.2,1.4-3.4,1.9c-1.4,0.7-2.9,1.2-4.5,1.6c-1.2,0.3-2.5,0.6-3.7,0.7c-1.1,0.1-2.2,0.1-3.3,0.1c-1.8,0-3.7-0.3-5.5-0.8
			c-1.6-0.4-3.1-0.9-4.5-1.6c-1.7-0.8-3.3-1.8-4.8-3c-1-0.8-1.9-1.6-2.8-2.5c-1.2-1.3-2.3-2.8-3.3-4.4c-1.1-1.9-1.9-3.8-2.5-5.9
			c-0.4-1.4-0.6-2.8-0.8-4.2c0-0.5-0.1-0.9-0.1-1.4c0-0.1,0-0.1,0-0.2C107.7,124.2,107.7,123.8,107.7,123.3z M132.6,145
			c0.3,0,0.6,0,0.9,0c0.9-0.1,1.8-0.1,2.6-0.3c2-0.3,3.9-0.9,5.8-1.8c1.2-0.6,2.4-1.3,3.4-2.1c0.8-0.6,1.5-1.2,2.2-1.9
			c0.6-0.6,1.2-1.3,1.7-1.9c0.8-1,1.5-2.1,2.1-3.2c0.9-1.6,1.5-3.4,1.9-5.2c0.3-1.3,0.5-2.7,0.5-4c0-0.7,0-1.4-0.1-2
			c-0.1-1.1-0.3-2.3-0.5-3.4c-0.5-1.9-1.2-3.7-2.1-5.3c-0.9-1.6-2-3.1-3.4-4.4c-0.6-0.5-1.1-1.1-1.7-1.6c-1-0.9-2.2-1.6-3.3-2.2
			c-1.7-0.9-3.4-1.6-5.3-2c-1-0.2-2-0.4-3.1-0.5c-0.7-0.1-1.5-0.1-2.2,0c-0.8,0-1.5,0.1-2.3,0.2c-1.5,0.2-3,0.6-4.5,1.1
			c-1.5,0.5-2.9,1.2-4.2,2.1c-1.6,1-3,2.2-4.2,3.6c-0.7,0.8-1.4,1.7-2,2.6c-0.9,1.4-1.7,2.9-2.2,4.5c-0.7,2-1.1,4-1.2,6
			c0,1,0,2,0.1,3.1c0.1,1.4,0.4,2.7,0.8,4c0.6,2,1.6,4,2.8,5.7c1,1.4,2.2,2.7,3.5,3.9c0.8,0.7,1.6,1.3,2.5,1.9
			c1.6,1,3.3,1.8,5.1,2.4C128.3,144.7,130.4,145,132.6,145z"/>
		<path fill="#656565" d="M146.6,124c0-0.6-0.2-1.2-0.5-1.7c-0.8-1.1-2.3-1.5-3.4-1.2c-1.5,0.4-3,0.8-4.5,1.2
			c-1.4,0.4-2.8,0.7-4.2,1.1c-0.1,0-0.2,0-0.3-0.1c0-0.1,0-0.2,0.1-0.2c0.4-0.4,0.9-0.8,1.3-1.2c0.6-0.6,1.3-1.1,1.9-1.7
			c0.5-0.5,1.1-1,1.6-1.4c0.7-0.6,1.4-1.3,2.1-2c0.4-0.4,0.7-0.9,0.7-1.4c0.1-1.2-0.4-2.1-1.4-2.8c-0.7-0.5-1.5-0.7-2.4-0.6
			c-0.7,0.1-1.3,0.4-1.7,0.9c-0.4,0.5-0.7,1-0.9,1.6c-0.4,1.6-0.8,3.2-1.2,4.8c-0.3,1.1-0.6,2.2-0.8,3.4c0,0.1-0.1,0.1-0.2,0.1
			c-0.1,0-0.1-0.1-0.2-0.2c-0.5-2.3-1.1-4.5-1.6-6.8c-0.2-0.8-0.4-1.6-0.8-2.4c-0.6-1-1.5-1.5-2.6-1.5c-1.3,0-2.4,0.6-3,1.8
			c-0.6,1.2-0.4,2.5,0.6,3.4c0.4,0.4,0.8,0.8,1.2,1.1c0.4,0.4,0.8,0.7,1.2,1.1c0.5,0.5,1.1,1,1.6,1.5c0.3,0.3,0.6,0.5,0.9,0.8
			c0.5,0.5,1.1,0.9,1.6,1.4c0,0,0.1,0.1,0.1,0.2c-0.1,0.1-0.1,0.1-0.2,0.1c-0.1,0-0.1,0-0.2,0c-1.1-0.3-2.2-0.6-3.3-0.9
			c-1.5-0.4-3-0.8-4.5-1.2c-0.5-0.1-1-0.3-1.6-0.3c-1.1,0-2,0.4-2.6,1.2c-0.9,1.2-0.8,2.8,0.3,3.8c0.6,0.6,1.5,0.9,2.3,1
			c0.7,0,1.3-0.1,2-0.3c2.3-0.7,4.5-1.3,6.8-2c0.2-0.1,0.5-0.2,0.7-0.2c0.1,0,0.2,0.1,0.3,0.1c0,0.1,0,0.1-0.1,0.2
			c-0.1,0.1-0.1,0.2-0.2,0.2c-0.5,0.4-0.9,0.8-1.4,1.2c-0.4,0.3-0.8,0.7-1.1,1c-0.6,0.5-1.2,1-1.7,1.5c-0.7,0.6-1.4,1.2-2,1.8
			c-0.6,0.5-1,1.1-1,1.9c-0.1,1.4,0.7,2.6,2,3.2c0.6,0.3,1.3,0.3,1.9,0.2c0.6-0.1,1.2-0.4,1.6-0.8c0.3-0.4,0.6-0.8,0.7-1.3
			c0.4-1.2,0.7-2.5,1-3.7c0.4-1.5,0.8-3,1.2-4.6c0-0.1,0-0.2,0.2-0.2c0.2,0,0.2,0.1,0.2,0.2c0.1,0.5,0.3,0.9,0.4,1.4
			c0.4,1.5,0.8,3,1.2,4.5c0.2,0.8,0.5,1.7,0.7,2.5c0.3,0.8,0.7,1.4,1.5,1.8c1.3,0.6,3,0.3,4-0.7c0.7-0.8,1-1.7,0.7-2.8
			c-0.2-0.7-0.7-1.2-1.3-1.7c-0.4-0.4-0.9-0.7-1.3-1.1c-0.4-0.4-0.9-0.8-1.3-1.1c-0.6-0.5-1.2-1.1-1.9-1.6c-0.6-0.6-1.3-1.1-1.9-1.7
			c-0.1-0.1-0.1-0.2,0-0.2c0.1,0,0.2-0.1,0.2-0.1c1.1,0.3,2.2,0.7,3.3,1c1.5,0.5,3,0.9,4.5,1.4c0.6,0.2,1.3,0.4,2,0.3
			c0.7-0.1,1.3-0.4,1.9-0.9C146.2,125.7,146.6,125,146.6,124z"/>
		<path fill="#656565" d="M146.6,124c0,0.9-0.3,1.7-1,2.3c-0.5,0.5-1.1,0.8-1.9,0.9c-0.7,0.1-1.3-0.1-2-0.3c-1.5-0.5-3-0.9-4.5-1.4
			c-1.1-0.3-2.2-0.7-3.3-1c-0.1,0-0.2,0-0.2,0.1c-0.1,0.1-0.1,0.1,0,0.2c0.6,0.5,1.3,1.1,1.9,1.7c0.6,0.5,1.2,1.1,1.9,1.6
			c0.4,0.4,0.9,0.8,1.3,1.1c0.4,0.4,0.9,0.7,1.3,1.1c0.6,0.5,1.1,1,1.3,1.7c0.3,1,0.1,2-0.7,2.8c-1,1.1-2.7,1.3-4,0.7
			c-0.8-0.3-1.3-1-1.5-1.8c-0.3-0.8-0.5-1.7-0.7-2.5c-0.4-1.5-0.8-3-1.2-4.5c-0.1-0.5-0.3-0.9-0.4-1.4c0-0.1,0-0.2-0.2-0.2
			c-0.2,0-0.1,0.1-0.2,0.2c-0.4,1.5-0.8,3-1.2,4.6c-0.3,1.3-0.7,2.5-1,3.7c-0.1,0.5-0.4,0.9-0.7,1.3c-0.4,0.5-1,0.7-1.6,0.8
			c-0.7,0.1-1.3,0.1-1.9-0.2c-1.3-0.5-2.1-1.8-2-3.2c0-0.8,0.5-1.4,1-1.9c0.7-0.6,1.4-1.2,2-1.8c0.6-0.5,1.2-1,1.7-1.5
			c0.4-0.3,0.8-0.7,1.1-1c0.5-0.4,0.9-0.8,1.4-1.2c0.1-0.1,0.2-0.1,0.2-0.2c0-0.1,0.1-0.1,0.1-0.2c-0.1,0-0.2-0.1-0.3-0.1
			c-0.2,0-0.5,0.1-0.7,0.2c-2.3,0.7-4.5,1.3-6.8,2c-0.6,0.2-1.3,0.4-2,0.3c-0.9-0.1-1.7-0.4-2.3-1c-1.1-1-1.2-2.7-0.3-3.8
			c0.7-0.8,1.5-1.3,2.6-1.2c0.5,0,1,0.2,1.6,0.3c1.5,0.4,3,0.8,4.5,1.2c1.1,0.3,2.2,0.6,3.3,0.9c0.1,0,0.1,0.1,0.2,0
			c0.1,0,0.2-0.1,0.2-0.1c0,0,0-0.1-0.1-0.2c-0.5-0.5-1-0.9-1.6-1.4c-0.3-0.3-0.6-0.5-0.9-0.8c-0.5-0.5-1.1-1-1.6-1.5
			c-0.4-0.3-0.8-0.7-1.2-1.1c-0.4-0.4-0.8-0.8-1.2-1.1c-1-0.9-1.3-2.2-0.6-3.4c0.6-1.2,1.6-1.8,3-1.8c1.1,0,2,0.5,2.6,1.5
			c0.4,0.7,0.7,1.5,0.8,2.4c0.5,2.3,1.1,4.5,1.6,6.8c0,0.1,0,0.2,0.2,0.2c0.1,0,0.1-0.1,0.2-0.1c0.3-1.1,0.6-2.2,0.8-3.4
			c0.4-1.6,0.8-3.2,1.2-4.8c0.2-0.6,0.5-1.2,0.9-1.6c0.5-0.5,1.1-0.8,1.7-0.9c0.9-0.1,1.7,0,2.4,0.6c0.9,0.7,1.4,1.6,1.4,2.8
			c0,0.6-0.3,1-0.7,1.4c-0.7,0.7-1.4,1.3-2.1,2c-0.5,0.5-1.1,1-1.6,1.4c-0.6,0.6-1.3,1.1-1.9,1.7c-0.4,0.4-0.9,0.8-1.3,1.2
			c-0.1,0-0.1,0.2-0.1,0.2c0,0.1,0.1,0.1,0.3,0.1c1.4-0.4,2.8-0.7,4.2-1.1c1.5-0.4,3-0.8,4.5-1.2c1.1-0.3,2.6,0.1,3.4,1.2
			C146.4,122.8,146.6,123.4,146.6,124z"/>
	</g>
</g>
<g>
	<path fill="#656565" d="M225,282.1c0-0.2,0-0.4,0.1-0.5c0-0.7,0.1-1.5,0.3-2.2c0.2-1.1,0.6-2.2,1.1-3.2c0.4-0.9,0.9-1.7,1.4-2.5
		c0.4-0.5,0.8-1.1,1.3-1.5c0.3-0.3,0.6-0.6,0.9-0.9c0.7-0.7,1.5-1.3,2.3-1.8c0.5-0.3,0.9-0.5,1.4-0.8c1.2-0.6,2.5-1,3.9-1.3
		c0.7-0.1,1.3-0.2,2-0.2c0.4,0,0.8-0.1,1.2,0c0.7,0,1.4,0.1,2.1,0.2c1,0.1,1.9,0.4,2.8,0.7c1.1,0.4,2.1,0.9,3.1,1.5
		c0.6,0.4,1.3,0.8,1.8,1.3c0.5,0.4,1,0.9,1.5,1.4c0.8,0.9,1.5,1.8,2.1,2.9c0.8,1.5,1.4,3,1.7,4.7c0.1,0.7,0.2,1.3,0.2,2
		c0.1,1.3,0,2.6-0.3,3.9c-0.2,1-0.6,2.1-1,3c-0.5,1.1-1.1,2.1-1.9,3.1c-0.3,0.4-0.7,0.8-1.1,1.2c-0.7,0.8-1.6,1.5-2.5,2.1
		c-0.7,0.5-1.4,0.9-2.1,1.2c-0.9,0.4-1.8,0.7-2.8,1c-0.8,0.2-1.5,0.3-2.3,0.4c-0.7,0.1-1.4,0.1-2,0.1c-1.1,0-2.3-0.2-3.4-0.5
		c-1-0.2-1.9-0.6-2.8-1c-1.1-0.5-2.1-1.1-3-1.8c-0.6-0.5-1.2-1-1.7-1.6c-0.8-0.8-1.5-1.7-2-2.7c-0.7-1.2-1.2-2.4-1.6-3.7
		c-0.2-0.8-0.4-1.7-0.5-2.6c0-0.3,0-0.6-0.1-0.9c0,0,0-0.1,0-0.1C225,282.6,225,282.4,225,282.1z M240.5,295.6c0.2,0,0.4,0,0.6,0
		c0.5-0.1,1.1-0.1,1.6-0.2c1.3-0.2,2.4-0.6,3.6-1.1c0.8-0.4,1.5-0.8,2.1-1.3c0.5-0.4,1-0.7,1.4-1.2c0.4-0.4,0.7-0.8,1.1-1.2
		c0.5-0.6,1-1.3,1.3-2c0.5-1,0.9-2.1,1.2-3.2c0.2-0.8,0.3-1.7,0.3-2.5c0-0.4,0-0.8,0-1.3c0-0.7-0.2-1.4-0.3-2.1
		c-0.3-1.2-0.7-2.3-1.3-3.3c-0.6-1-1.3-1.9-2.1-2.8c-0.3-0.3-0.7-0.7-1.1-1c-0.6-0.5-1.3-1-2.1-1.4c-1-0.6-2.1-1-3.3-1.2
		c-0.6-0.1-1.3-0.2-1.9-0.3c-0.5,0-0.9,0-1.4,0c-0.5,0-1,0-1.4,0.1c-1,0.1-1.9,0.3-2.8,0.7c-0.9,0.3-1.8,0.8-2.6,1.3
		c-1,0.6-1.8,1.4-2.6,2.2c-0.5,0.5-0.9,1-1.3,1.6c-0.6,0.9-1,1.8-1.4,2.8c-0.4,1.2-0.7,2.5-0.7,3.8c0,0.6,0,1.3,0.1,1.9
		c0.1,0.9,0.3,1.7,0.5,2.5c0.4,1.3,1,2.5,1.8,3.6c0.6,0.9,1.4,1.7,2.2,2.4c0.5,0.4,1,0.8,1.5,1.2c1,0.6,2.1,1.1,3.2,1.5
		C237.8,295.3,239.2,295.5,240.5,295.6z"/>
	<path fill="#656565" d="M249.1,307.8c0-2,0-4,0-6c0-0.2,0-0.2,0.2-0.2c1.8,0,3.6,0,5.4,0c0.2,0,0.2,0,0.2,0.2c0,0.5,0,1.1,0,1.6
		c0,0.1,0,0.1-0.1,0.1c-1.1,0-2.1,0-3.2,0c-0.2,0-0.2,0-0.2,0.2c0,0.9,0,1.8,0,2.8c0,0.2,0,0.2,0.2,0.2c0.8,0,1.6,0,2.4,0
		c0.1,0,0.2,0,0.2,0.1c0,0.5,0,1.1,0,1.6c0,0.1,0,0.2-0.1,0.2c-0.8,0-1.6,0-2.4,0c-0.1,0-0.1,0-0.1,0.1c0,1.1,0,2.2,0,3.2
		c0,0.1,0,0.1,0.1,0.1c1.1,0,2.3,0,3.4,0c0.2,0,0.2,0,0.2,0.2c0,0.5,0,1.1,0,1.6c0,0.1,0,0.1-0.1,0.1c-1.9,0-3.8,0-5.7,0
		c-0.1,0-0.1,0-0.1-0.1C249.1,311.8,249.1,309.8,249.1,307.8z"/>
	<path fill="#656565" d="M243.9,303.5c-0.1,0-0.1,0-0.2,0c-1,0-2,0-3.1,0c-0.1,0-0.1,0-0.1-0.1c0-0.5,0-1.1,0-1.6
		c0-0.1,0-0.1,0.1-0.1c1.8,0,3.6,0,5.3,0c0.1,0,0.1,0,0.1,0.1c0,0.6,0,1.2,0,1.8c0,0.1,0,0.2,0,0.2c-0.6,1.2-1.1,2.4-1.7,3.6
		c-0.4,0.9-0.8,1.7-1.2,2.6c-0.3,0.6-0.6,1.3-0.9,1.9c0,0,0,0.1,0,0.1c0.1,0,0.1,0,0.2,0c1.2,0,2.3,0,3.5,0c0.2,0,0.2,0,0.2,0.2
		c0,0.5,0,1.1,0,1.6c0,0.1,0,0.1-0.1,0.1c-2,0-3.9,0-5.9,0c-0.1,0-0.1,0-0.1-0.1c0-0.5,0-1.1,0-1.6c0-0.2,0-0.4,0.1-0.6
		c0.5-1,0.9-2,1.4-3c0.5-1,1-2.1,1.5-3.1c0.3-0.6,0.6-1.2,0.8-1.8C243.9,303.6,243.9,303.6,243.9,303.5z"/>
	<path fill="#656565" d="M235,303.5c-0.1,0-0.1,0-0.2,0c-1,0-2.1,0-3.1,0c-0.1,0-0.1,0-0.1-0.2c0-0.5,0-1.1,0-1.6
		c0-0.1,0-0.1,0.1-0.1c1.8,0,3.6,0,5.4,0c0.1,0,0.1,0,0.1,0.1c0,0.6,0,1.2,0,1.9c0,0.1,0,0.2-0.1,0.3c-0.3,0.7-0.7,1.4-1,2.2
		c-0.4,0.9-0.8,1.8-1.3,2.8c-0.3,0.7-0.7,1.5-1,2.2c-0.1,0.3-0.3,0.6-0.4,0.9c0,0,0,0.1,0,0.1c0.1,0,0.1,0,0.2,0c1.2,0,2.3,0,3.5,0
		c0.2,0,0.2,0,0.2,0.2c0,0.5,0,1.1,0,1.6c0,0.1,0,0.1-0.1,0.1c-2,0-3.9,0-5.9,0c-0.1,0-0.1,0-0.1-0.1c0-0.6,0-1.2,0-1.9
		c0-0.1,0-0.2,0.1-0.3c0.3-0.7,0.7-1.5,1-2.2c0.5-1.2,1.1-2.3,1.6-3.5c0.4-0.8,0.7-1.5,1.1-2.3C235,303.7,235,303.6,235,303.5z"/>
	<path fill="#656565" d="M226.2,307.8c0-2,0-4,0-6c0-0.2,0-0.2,0.2-0.2c0.6,0,1.3,0,1.9,0c0.1,0,0.2,0,0.2,0.1c0,4,0,8,0,12
		c0,0.1,0,0.1-0.1,0.1c-0.6,0-1.3,0-1.9,0c-0.1,0-0.1,0-0.1-0.1C226.2,311.8,226.2,309.8,226.2,307.8z"/>
	<path fill="#656565" d="M241,317.5c0,0,0,0.1,0,0.1c0,0.5,0,0.9,0,1.4c0,0.1,0,0.1-0.1,0.1c-0.3,0-0.3,0-0.3-0.3c0-0.8,0-1.5,0-2.3
		c0-0.1,0-0.1,0.1-0.1c0.3,0,0.3,0,0.4,0.3c0.1,0.4,0.3,0.8,0.4,1.1c0,0,0,0.1,0.1,0.1c0,0,0-0.1,0-0.1c0-0.4,0-0.8,0-1.2
		c0-0.1,0-0.2,0.1-0.1c0.2,0,0.2,0,0.2,0.2c0,0.8,0,1.5,0,2.3c0,0.1,0,0.1-0.1,0.1c-0.3,0-0.3,0-0.3-0.2
		C241.4,318.4,241.3,318,241,317.5C241.1,317.5,241.1,317.5,241,317.5C241.1,317.5,241,317.5,241,317.5z"/>
	<path fill="#656565" d="M233.8,319.1c-0.1,0-0.3,0-0.4,0c0,0-0.1-0.1-0.1-0.1c-0.1-0.3-0.2-0.6-0.3-0.9c0-0.1-0.2-0.1-0.3-0.1
		c0,0,0,0.1,0,0.1c0,0.3,0,0.6,0,0.9c0,0.1,0,0.1-0.1,0.1c-0.3,0-0.3,0-0.3-0.3c0-0.7,0-1.5,0-2.2c0-0.1,0-0.1,0.1-0.1
		c0.2,0,0.5,0,0.7,0c0.3,0,0.4,0.2,0.5,0.5c0.1,0.3,0.1,0.6-0.1,0.8c0,0,0,0,0,0c-0.2,0.1-0.1,0.2-0.1,0.4c0.1,0.3,0.2,0.5,0.3,0.8
		C233.8,319,233.8,319.1,233.8,319.1z M232.8,316.8c0,0.2,0,0.4,0,0.7c0,0.2,0,0.2,0.2,0.2c0.2,0,0.3-0.1,0.3-0.3c0-0.1,0-0.2,0-0.3
		c0-0.1-0.1-0.2-0.2-0.2C233,316.8,232.9,316.8,232.8,316.8z"/>
	<path fill="#656565" d="M249.9,317.6c0,0.3,0,0.6,0,0.9c0,0.4-0.3,0.6-0.6,0.6c-0.1,0-0.2,0-0.4,0c-0.3-0.1-0.4-0.3-0.4-0.6
		c0-0.6,0-1.3,0-1.9c0-0.1,0-0.1,0.1-0.1c0.3,0,0.3,0,0.3,0.3c0,0.5,0,1.1,0,1.6c0,0.1,0,0.1,0,0.2c0,0.1,0.1,0.2,0.3,0.2
		c0.1,0,0.2-0.1,0.2-0.2c0,0,0-0.1,0-0.1c0-0.6,0-1.2,0-1.9c0-0.1,0-0.1,0.1-0.1c0.1,0,0.1,0,0.2,0c0.1,0,0.1,0,0.1,0.1
		C249.9,316.9,249.9,317.2,249.9,317.6C249.9,317.6,249.9,317.6,249.9,317.6z"/>
	<path fill="#656565" d="M244.4,319.1c-0.2,0.1-0.2,0-0.3-0.2c-0.1,0-0.1,0.1-0.1,0.1c-0.3,0.2-0.7,0.1-0.9-0.2
		c0-0.1-0.1-0.2-0.1-0.3c0-0.5,0-1,0-1.4c0-0.3,0.1-0.5,0.4-0.6c0.3-0.1,0.6-0.1,0.8,0.1c0.2,0.2,0.2,0.4,0.2,0.6c0,0,0,0-0.1,0.1
		c0,0,0,0-0.1,0c-0.1,0-0.2,0-0.3,0c0,0,0-0.1-0.1-0.2c0-0.2-0.1-0.3-0.3-0.3c-0.1,0-0.1,0.1-0.2,0.1c0,0.1,0,0.1,0,0.2
		c0,0.5,0,0.9,0,1.4c0,0,0,0.1,0,0.1c0,0.1,0.1,0.2,0.2,0.2c0.2,0,0.3,0,0.3-0.2c0-0.1,0-0.3,0-0.4c0,0-0.1-0.1-0.1-0.1
		c-0.2,0-0.2-0.1-0.2-0.3c0,0,0-0.1,0.1-0.1c0.2,0,0.4,0,0.6,0c0,0,0.1,0,0.1,0.1C244.4,318.3,244.4,318.7,244.4,319.1z"/>
	<path fill="#656565" d="M235.2,317.4c0,0,0-0.1,0.1-0.1c0.1-0.3,0.3-0.5,0.4-0.8c0-0.1,0.1-0.1,0.1-0.1c0.1,0,0.2,0,0.3,0
		c-0.1,0.2-0.2,0.3-0.2,0.5c-0.1,0.1-0.2,0.3-0.2,0.4c0,0.1,0,0.1,0,0.2c0.2,0.5,0.3,0.9,0.5,1.4c0,0,0,0.1,0.1,0.2
		c-0.1,0-0.3,0-0.4,0c0,0-0.1-0.1-0.1-0.1c-0.1-0.3-0.2-0.7-0.3-1c0,0,0-0.1,0-0.1c0,0-0.1,0-0.1,0.1c-0.1,0.1-0.1,0.2-0.1,0.4
		c0,0.2,0,0.4,0,0.7c0,0.1,0,0.1-0.1,0.1c-0.3,0-0.3,0-0.3-0.3c0-0.7,0-1.5,0-2.2c0-0.1,0-0.2,0.1-0.1c0.3,0,0.3,0,0.3,0.3
		c0,0.2,0,0.4,0,0.5C235.2,317.3,235.2,317.4,235.2,317.4C235.2,317.4,235.2,317.4,235.2,317.4z"/>
	<path fill="#656565" d="M231.5,319.1c-0.1,0-0.2,0-0.3,0c0,0-0.1-0.1-0.1-0.1c0-0.1,0-0.3-0.1-0.4c0-0.1,0-0.1-0.1-0.1
		c-0.1,0-0.2,0-0.4,0c-0.1,0-0.1,0-0.1,0.1c0,0.1,0,0.3-0.1,0.4c0,0.1,0,0.1-0.1,0.1c-0.1,0-0.2,0-0.3,0c0.1-0.3,0.1-0.5,0.1-0.8
		c0.1-0.6,0.2-1.2,0.3-1.8c0-0.1,0-0.1,0.1-0.1c0.1,0,0.2,0,0.3,0c0.1,0,0.1,0,0.2,0.1c0.1,0.6,0.2,1.3,0.4,1.9
		C231.4,318.7,231.4,318.9,231.5,319.1z M230.7,317C230.7,317,230.7,317,230.7,317c-0.1,0.4-0.2,0.7-0.2,1.1c0.1,0,0.3,0,0.4,0
		C230.8,317.8,230.8,317.4,230.7,317z"/>
	<path fill="#656565" d="M227.7,317.8c0-0.4,0-0.8,0-1.2c0-0.1,0-0.1,0.1-0.1c0.3,0,0.5,0,0.8,0c0.4,0,0.5,0.2,0.5,0.6
		c0,0.2,0,0.4-0.1,0.5c0,0.2-0.2,0.3-0.4,0.3c-0.1,0-0.3,0-0.4,0c-0.1,0-0.1,0-0.1,0.1c0,0.3,0,0.6,0,0.9c0,0.1,0,0.1-0.1,0.1
		c-0.3,0-0.3,0-0.3-0.3C227.7,318.5,227.7,318.1,227.7,317.8z M228.1,316.8c0,0.2,0,0.4,0,0.6c0,0.3,0,0.4,0.4,0.3
		c0.1,0,0.2-0.1,0.2-0.2c0-0.1,0-0.2,0-0.3c0-0.1-0.1-0.2-0.2-0.2C228.4,316.8,228.2,316.8,228.1,316.8z"/>
	<path fill="#656565" d="M253,317.8c0,0.3,0,0.5,0,0.8c0,0.1,0.1,0.2,0.2,0.2c0.2,0,0.2,0,0.2-0.2c0-0.1,0-0.2,0-0.3
		c0-0.1,0-0.1,0.1-0.1c0.1,0,0.2,0,0.2,0c0.1,0,0.1,0,0.1,0.1c0,0.1,0,0.2,0,0.3c0,0.3-0.3,0.5-0.6,0.5c-0.1,0-0.2,0-0.3,0
		c-0.3-0.1-0.5-0.3-0.5-0.6c0-0.5,0-1,0-1.5c0-0.4,0.4-0.7,0.9-0.6c0.3,0.1,0.6,0.5,0.5,0.8c0,0,0,0-0.1,0c0,0,0,0-0.1,0
		c-0.1,0-0.2,0-0.3,0c-0.1,0,0-0.2-0.1-0.3c0-0.1,0-0.2-0.2-0.2c-0.1,0-0.2,0-0.3,0.1c0,0.1-0.1,0.2-0.1,0.2
		C253,317.3,253,317.6,253,317.8C253,317.8,253,317.8,253,317.8z"/>
	<path fill="#656565" d="M255,317.8c0-0.4,0-0.8,0-1.2c0-0.1,0-0.1,0.1-0.1c0.3,0,0.7,0,1,0c0.1,0,0.1,0,0.1,0.1
		c0,0.3,0,0.3-0.2,0.3c-0.1,0-0.3,0-0.4,0c-0.1,0-0.1,0-0.1,0.1c0,0.2,0,0.3,0,0.5c0,0.1,0,0.1,0.1,0.1c0.1,0,0.3,0,0.4,0
		c0.1,0,0.1,0,0.1,0.1c0,0.3,0,0.3-0.3,0.3c-0.1,0-0.2,0-0.2,0c-0.1,0-0.1,0-0.1,0.1c0,0.2,0,0.4,0,0.6c0,0.1,0,0.1,0.1,0.1
		c0.2,0,0.4,0,0.6,0c0.1,0,0.1,0,0.1,0.1c0,0.3,0,0.3-0.3,0.3c-0.3,0-0.6,0-0.9,0c-0.1,0-0.1,0-0.1-0.1
		C255,318.6,255,318.2,255,317.8z"/>
	<path fill="#656565" d="M225.3,318.4c0.1,0,0.3,0,0.4-0.1c0,0.1,0,0.1,0,0.2c0.1,0.2,0.2,0.3,0.4,0.2c0.1,0,0.2-0.2,0.2-0.4
		c0-0.2-0.2-0.3-0.3-0.4c-0.2-0.2-0.4-0.3-0.5-0.5c-0.2-0.3-0.2-0.7,0-0.9c0.2-0.2,0.4-0.2,0.7-0.2c0.2,0.1,0.4,0.2,0.4,0.5
		c0,0.1,0,0.1-0.1,0.1c0,0-0.1,0-0.1,0c-0.1,0-0.2,0-0.2-0.1c0-0.1-0.2-0.2-0.3-0.1c-0.1,0-0.2,0.1-0.2,0.2c0,0.2,0.1,0.3,0.2,0.5
		c0.2,0.2,0.4,0.4,0.6,0.6c0.3,0.4,0,0.9-0.4,1C225.7,319.2,225.4,319,225.3,318.4z"/>
	<path fill="#656565" d="M237,317.8c0-0.4,0-0.8,0-1.2c0-0.1,0-0.1,0.1-0.1c0.3,0,0.3,0,0.3,0.3c0,0.6,0,1.2,0,1.8
		c0,0.1,0,0.1,0.1,0.1c0.2,0,0.3,0,0.5,0c0.1,0,0.1,0,0.1,0.1c0,0.3,0,0.3-0.3,0.3c-0.3,0-0.5,0-0.8,0c-0.1,0-0.1,0-0.1-0.1
		C237,318.6,237,318.2,237,317.8z"/>
	<path fill="#656565" d="M247.5,317.6c0,0.3,0,0.6,0,0.9c0,0.5-0.3,0.7-0.7,0.6c0,0-0.1,0-0.1,0c0-0.1,0-0.2,0-0.3c0,0,0.1,0,0.1,0
		c0.2,0,0.3-0.1,0.3-0.3c0-0.6,0-1.3,0-1.9c0-0.1,0-0.1,0.1-0.1c0.3,0,0.3,0,0.3,0.3C247.5,317,247.5,317.3,247.5,317.6z"/>
	<path fill="#656565" d="M251,317.8c0-0.4,0-0.8,0-1.2c0-0.1,0-0.1,0.1-0.1c0.3,0,0.3,0,0.3,0.3c0,0.7,0,1.5,0,2.2
		c0,0.2,0,0.2-0.2,0.2c-0.3,0-0.3,0-0.3-0.3C251,318.5,251,318.1,251,317.8z"/>
	<path fill="#656565" d="M239.5,317.8c0,0.4,0,0.8,0,1.2c0,0.1,0,0.1-0.1,0.1c-0.3,0-0.3,0-0.3-0.3c0-0.7,0-1.5,0-2.2
		c0-0.1,0-0.1,0.1-0.1c0.3,0,0.3,0,0.3,0.3C239.5,317.1,239.5,317.5,239.5,317.8z"/>
	<path fill="#656565" d="M249.2,282.5c0,0.6-0.2,1.1-0.6,1.4c-0.3,0.3-0.7,0.5-1.2,0.5c-0.4,0.1-0.8-0.1-1.2-0.2
		c-0.9-0.3-1.9-0.6-2.8-0.8c-0.7-0.2-1.4-0.4-2.1-0.6c0,0-0.1,0-0.2,0c-0.1,0-0.1,0.1,0,0.1c0.4,0.3,0.8,0.7,1.2,1
		c0.4,0.3,0.8,0.7,1.2,1c0.3,0.2,0.5,0.5,0.8,0.7c0.3,0.2,0.5,0.5,0.8,0.7c0.3,0.3,0.7,0.6,0.8,1.1c0.2,0.6,0,1.2-0.4,1.7
		c-0.6,0.7-1.7,0.8-2.5,0.5c-0.5-0.2-0.8-0.6-0.9-1.1c-0.2-0.5-0.3-1-0.4-1.6c-0.3-0.9-0.5-1.9-0.8-2.8c-0.1-0.3-0.2-0.6-0.2-0.9
		c0-0.1,0-0.1-0.1-0.1c-0.1,0-0.1,0.1-0.1,0.1c-0.2,0.9-0.5,1.9-0.7,2.8c-0.2,0.8-0.4,1.6-0.6,2.3c-0.1,0.3-0.2,0.6-0.4,0.8
		c-0.3,0.3-0.6,0.5-1,0.5c-0.4,0.1-0.8,0-1.2-0.1c-0.8-0.3-1.3-1.1-1.3-2c0-0.5,0.3-0.9,0.6-1.2c0.4-0.4,0.8-0.7,1.3-1.1
		c0.4-0.3,0.7-0.6,1.1-0.9c0.2-0.2,0.5-0.4,0.7-0.6c0.3-0.3,0.6-0.5,0.9-0.7c0,0,0.1-0.1,0.1-0.1c0,0,0-0.1,0.1-0.1
		c-0.1,0-0.1-0.1-0.2-0.1c-0.1,0-0.3,0.1-0.4,0.1c-1.4,0.4-2.8,0.8-4.2,1.2c-0.4,0.1-0.8,0.2-1.2,0.2c-0.6,0-1.1-0.2-1.5-0.6
		c-0.7-0.6-0.7-1.7-0.2-2.4c0.4-0.5,1-0.8,1.6-0.8c0.3,0,0.7,0.1,1,0.2c0.9,0.3,1.9,0.5,2.8,0.8c0.7,0.2,1.4,0.4,2,0.6
		c0,0,0.1,0,0.1,0c0.1,0,0.1,0,0.1-0.1c0,0,0-0.1,0-0.1c-0.3-0.3-0.7-0.6-1-0.9c-0.2-0.2-0.4-0.3-0.6-0.5c-0.3-0.3-0.7-0.6-1-0.9
		c-0.2-0.2-0.5-0.4-0.7-0.7c-0.3-0.2-0.5-0.5-0.8-0.7c-0.6-0.6-0.8-1.4-0.4-2.1c0.4-0.7,1-1.1,1.9-1.1c0.7,0,1.3,0.3,1.6,0.9
		c0.3,0.5,0.4,1,0.5,1.5c0.3,1.4,0.7,2.8,1,4.2c0,0.1,0,0.1,0.1,0.1c0,0,0.1-0.1,0.1-0.1c0.2-0.7,0.3-1.4,0.5-2.1c0.3-1,0.5-2,0.8-3
		c0.1-0.4,0.3-0.7,0.6-1c0.3-0.3,0.7-0.5,1.1-0.5c0.5-0.1,1,0,1.5,0.4c0.6,0.4,0.9,1,0.8,1.7c0,0.3-0.2,0.6-0.4,0.9
		c-0.4,0.4-0.9,0.8-1.3,1.2c-0.3,0.3-0.7,0.6-1,0.9c-0.4,0.4-0.8,0.7-1.2,1.1c-0.3,0.2-0.5,0.5-0.8,0.7c0,0-0.1,0.1,0,0.1
		c0,0.1,0.1,0.1,0.2,0.1c0.9-0.2,1.8-0.5,2.6-0.7c0.9-0.2,1.9-0.5,2.8-0.8c0.7-0.2,1.6,0.1,2.1,0.7
		C249.1,281.8,249.2,282.1,249.2,282.5z"/>
</g>
<g>
	<text transform="matrix(1 0 0 1 12.7195 282.4078)"><tspan x="0" y="0" fill="#656565" font-family="'TradeGothicLTStd-Bold'" font-size="8.9612">Pure and simple, all natural fruit soda. </tspan><tspan x="0" y="10.8" fill="#656565" font-family="'TradeGothicLTStd-Bold'" font-size="8.9612">Made of 70% real fruit juice and 30% sparkling water, </tspan><tspan x="0" y="21.5" fill="#656565" font-family="'TradeGothicLTStd-Bold'" font-size="8.9612">IZZE is sophisticated and fun for the whole family.</tspan><tspan x="0" y="32.3" fill="#656565" font-family="'TradeGothicLTStd-Bold'" font-size="8.9612">One 12oz bottle delivers 2 servings of fruit!</tspan></text>
</g>
<g>
	<g>
		<g>
			<g opacity="0.8">
				<g opacity="0.8">
					<path fill="#DDDDDD" d="M262.2,144.6c-0.2-34.2-0.1-69.3-0.1-103.1c0-8.5,0-16.8,0-25.1c0-3.9,0-7.8,0-11.6l0-0.4l0-0.2l0-0.1
						c0,0,0,0-0.1,0l-0.1,0L261,4c-0.9,0-1.7,0-2.6,0c-2,0-4,0-6,0c-16,0.1-31.4,0.3-46,0.6c-6.5,0.1-13.1,0.3-19.7,0.4
						c3.3,0,6.7,0,10,0.1c19,0.1,38.3,0.2,57.9,0.3l3.7,0l1.8,0l0.3,0c0.1,0,0.1,0.1,0.1,0.2l0,3.3c0,4.9,0,9.9,0,14.8
						c0,9.9,0,19.8,0.1,29.8c0.1,39.8,0.4,79.8,0.8,118.5c0.3,24,0.6,48.1,0.9,72.9c0.2,24.8,0.5,50.3,0.7,76.8
						c0.1,5.5,0.1,6.4,0.1,7.1c0-5.3,0-9.8,0-13.9c-0.2-43.2-0.3-86.2-0.5-130.7C262.8,169.5,262.2,153.4,262.2,144.6z"/>
					<path fill="#CBCBCB" d="M263.3,316.7c0-0.3,0-0.5,0-0.8c0-2.2,0-4.4,0-6.5C263.3,311.8,263.3,314.2,263.3,316.7z"/>
					<path fill="#C7C7C7" d="M262.8,210.8c-0.1-14.4-0.1-28.6-0.2-42.8c-0.2-9.3-0.4-17.8-0.4-23.4c-0.2-34.2-0.1-69.3-0.1-103.1
						c0-8.5,0-16.8,0-25.1c0-3.9,0-7.8,0-11.6l0-0.4l0-0.2l0-0.1c0,0,0,0-0.1,0l-0.1,0L261,4c-0.9,0-1.7,0-2.6,0c-2,0-4,0-6,0
						c-16,0.1-31.4,0.3-46,0.6C200,4.8,193.5,4.9,187,5.1c3.6,0,7.2,0.1,10.8,0.1c13.1,0.1,26.5,0.1,39.9,0.2c6.7,0,13.5,0,20.3,0.1
						l2.4,0c0.1,0,0.1,0,0.2,0c0,0,0,0.1,0,0.2c0,0,0,0,0,0.1l0,0.6l0,1.3c0,3.4,0,6.8,0,10.2c0,1.5,0.1,3,0.1,4.4
						c0.4,15.3,0.1,29.5,0.1,44.2c0.4,41.8,0.4,76.8,0.9,118.7c0.2,14.9,0.6,30.7,0.7,48.3c0,6,0.1,11.9,0.1,17.5
						c0.2,23.2,0.4,47,0.7,71.7c0.1,5.5,0.1,6.4,0.1,7.1c0-2.7,0-5.3,0-7.7c0-20-0.1-40.1-0.1-60.5c-0.1-17.8-0.2-35.6-0.2-53.7
						C262.9,208.7,262.8,209.6,262.8,210.8z"/>
					<path fill="#CBCBCB" d="M263.2,209c0-2.5-0.2-5.6-0.3-1.1c0.1,18,0.2,35.9,0.2,53.7C263.1,244.4,263.1,226.9,263.2,209z"/>
					<path fill="#E0E0E0" d="M264,211.8c0.3-35.2,0-68.8,0.4-97.6c0.2-15.2,0.6-30,1-43.1c0-4.8,0-9.7,0.1-14.4
						c0-14.9,0-29.8,0.1-44.6l0-5.6l0-4.4l0-1.2c0-0.1,0-0.2,0-0.3l-0.3,0l-0.6,0l-2.5,0l-11.9,0c-7.4,0-14.9,0-22.3,0
						c-29.7,0-59.4-0.1-89-0.1c-29.6-0.1-59.2-0.1-88.7-0.2C35.4,0.1,20.6,0.1,5.8,0l-5,0L0.2,0c0,0.2,0,0.4,0,0.6l0,1.2l0,2.5
						l0,6.4l0,11c0,7.3-0.1,14.7-0.1,22c-0.2,58.9,0.9,113.6,1.6,173.7c0.2,35.8-0.3,64.4-0.5,99.4c0,2.7,0,5.4,0,8.1
						c0,1.8,0,3.5,0,5.3l0,0.9l0,0.4c0,0.1,0.1,0.1,0.1,0.1l0.2,0l1.7,0l3,0c5.4,0,10.7,0,16,0c10.6-0.1,21-0.1,31.4-0.2
						c20.7-0.2,41.1-0.4,61.5-0.7c40.9-0.5,81.9-0.9,126.4-1c24-0.1,27.1,0,21.3,0c-37.3-0.3-74.1-0.5-110.6-0.7
						c-36.5-0.1-72.7-0.3-109-0.4c-9.1,0-18.1-0.1-27.2-0.1l-6.8,0l-3.4,0l-1,0c-0.3,0-0.7,0.1-0.6-0.3l0-12.6
						c0.1-18.1,0.1-36.3,0.2-54.5c0.1-36.5,0.1-73.2,0-110.4c0-28.9-0.1-57.3-0.1-85.4c0-14.1,0-28,0-41.9c0-3.5,0-6.9,0-10.4l0-5.2
						l0-2.2l0-0.8l0-0.4l0-0.2l0,0l0,0l0.1,0c6.5,0,13,0,19.4,0.1C79,4.4,133.1,4.7,186.8,5.1c6.6-0.1,13.1-0.3,19.7-0.4
						c14.5-0.3,29.9-0.5,46-0.6c2,0,4,0,6,0c0.9,0,1.7,0,2.6,0l0.9,0l0.1,0c0,0,0,0,0.1,0l0,0.1l0,0.2l0,0.4c0,3.8,0,7.7,0,11.6
						c0,8.3,0,16.6,0,25.1c0,33.8-0.1,68.9,0.1,103.1c0,8.8,0.6,25,0.6,39.7c0.2,44.5,0.3,87.5,0.5,130.7c0-8.7,0.2-15.7,0.4-24.6
						C263.8,263.9,263.8,237.4,264,211.8z"/>
					<path fill="#B2B2B2" d="M264,211.8c-0.2,25.6-0.2,52.1-0.4,78.5c0.1-4.4,0.2-9.2,0.3-14.9c0.5-32.2,0.9-66.6,1.2-101.2
						c0.3-34.6,0.3-69.6,0.4-103.2c-0.5,13.1-0.8,28-1,43.1C264,143,264.3,176.6,264,211.8z"/>
					<path fill="#C7C7C7" d="M264,211.8c-0.2,24.5-0.2,49.7-0.4,74.9c0.1-8.5,0.2-17.1,0.2-25.8c0.4-44.2,0.6-88.8,1.2-132.4
						c-0.4,47.1-0.7,94.1-1.1,141.4c0.5-31.6,0.9-64.9,1.1-98.6c0.2-33.6,0.3-67.5,0.4-100.1c-0.5,13-0.8,27.9-1,43
						C264,143,264.3,176.6,264,211.8z"/>
					<path fill="#ACACAC" d="M264.1,140.3c-0.4,53-0.5,106.1-0.7,160.2c0-2.3,0.1-4.6,0.1-7c0-2.2,0-4.5,0.1-6.7
						c0.1-25.2,0.1-50.4,0.4-74.9c0.3-35.2,0-68.8,0.4-97.6c0.2-15.1,0.5-30,1-43c0-4.5,0-9.1,0.1-13.6c0-15.2,0-30.4,0.1-45.6
						l0-5.7l0-2l0-2.5l0-1.3c-0.4,0-0.8,0-1.3,0l-2.5,0l-12,0c-7.6,0-15.2,0-22.8,0c-30.3,0-60.6-0.1-90.9-0.1
						c-26.3,0.3-53.7,0.4-81.5,0.4c-13.9,0-27.9-0.1-41.8-0.1l-5.2,0l-3.5,0l-2.2,0l-1.1,0c0,0-0.1,0-0.1,0l0,0.1l0,0.3l0,0.5
						c0,4.1,0,8.2-0.1,12.3c-0.1,6.9-0.1,13.9-0.2,20.8c0-6.5,0-13,0-19.5l0-10.4l0-4.2l0-0.1l0-0.1c0,0,0,0,0.1,0l0.3,0l0.5,0l1,0
						l2.1,0l5.7,0c13,0,26-0.1,39.1-0.1c-14.5,0-29-0.1-43.5-0.1L0.9,0L0.3,0C0.2,0,0.2,0.1,0.2,0.2l0,0.3l0,1.2l0,2.4l0,6.3l0,10.8
						c0,7.2-0.1,14.4-0.1,21.5c-0.1,25,0.1,49.2,0.3,73.3c0.5,5,1,12.8,1.1,26.3c0.2,21,0.2,41.6,0.7,63.1c0,2.9-0.4,2.4-0.4,8.2
						c0-16.5-0.2-30-0.7-41.7c0.2,14.6,0.4,29.4,0.6,44.5c0.2,28.1-0.1,51.8-0.3,77.7c0,2.8,0,5.6,0.1,8.4
						c0.1,6.9,0.2,13.9,0.2,20.9c0,2,0.1,4,0.1,6l0,1c0,0.3-0.2,0.8,0.3,0.7l2,0l3.2,0c3.5-0.1,7.1-0.1,10.6-0.2c-2.9,0-5.7,0-8.6,0
						c-1.6,0-3.2,0-4.8,0l-1.6,0l-0.8,0c0,0-0.1,0-0.1,0l0-0.1l0-0.2l0-0.4c0-1,0-2.1,0-3.1c0,0.8,0,1.6,0,2.4c0,0.4,0,0.8,0,1.2
						c0,0,0,0.1,0,0.1l0.2,0l0.3,0l0.6,0c1.4,0,2.9,0,4.4,0c2.5,0,5.2,0,7.8-0.1c5.2,0,10.4,0,14.8,0c-4.1,0.1-8.2,0.1-12.3,0.2
						c13.7,0,26.8,0,41.4,0c-17.7,0-35.8,0.2-50.9,0.5c32.6-0.2,62.5-0.4,94.5-0.3c-0.8,0-1.6,0-2.4,0.1
						c45.4-0.6,90.7-1.1,140.2-1.2c24-0.1,27.2,0,21.3-0.1c-52.1-0.5-103.2-0.6-153.9-0.8c-25.4-0.1-50.6-0.2-75.9-0.3l-19-0.1
						l-8.4,0l-0.1,0l-0.1,0c0,0,0,0,0-0.1l0-0.3l0-0.6l0-2.1l0-4.7c0-12.7,0.1-25.3,0.1-38c-0.3,11.4-0.5,22.9-0.8,34.6
						c0,2.5-0.1,5-0.1,7.4c0,1.1,0,2.3-0.1,3.4l0,0.7c0,0.2-0.1,0.6,0.2,0.5c0.5,0,1,0,1.4,0l-1.5,0c0,0-0.2,0-0.1,0l0-0.2l0-0.4
						l0-0.8c0-1.2,0-2.3,0.1-3.5c0-2.4,0.1-4.8,0.1-7.2c0.2-13.7,0.2-28.9,0.4-43.7c0.1-2.8,0.2-11.6-0.2-15.1
						c0.3-20.2,0.1-44.4,0.4-64.6c0-1.2,0.1-3.2,0.3-5.6c0-12.8-0.1-25.7-0.1-38.6c0-36.1-0.1-71.5-0.1-106.5c0-8.7,0-17.4,0-26.1
						c0-4.1,0-8.1,0-12.2l0-0.5c0-0.1-0.1-0.4,0.2-0.3l1,0l2.6,0l6.5,0C31.8,4.2,49,4.3,66,4.4c-16.4-0.3-32.3-0.6-47-0.9
						c-2.5-0.1-5.3-0.1-8.4-0.2c-1.5,0-3.1,0-4.8-0.1c-0.8,0-1.5,0-2.3,0l-0.1,0c0,0,0,0.1,0,0.1l0,0.3l0,0.6c0,0.4,0,0.8,0,1.2
						c0,3.6,0,7.5,0,11.5c0,4.1,0,8.3,0,12.7c0.1,17.5,0.2,37,0.3,54.9c0.1,9-0.3,14.3-0.4,23.2C2.8,92,2.7,74.2,2.7,55.7
						c0-9.2,0.1-18.6,0.1-27.9c0-4.6,0-9.3,0-13.9c0-2.3,0-4.6,0-6.8c0-1.2,0-2.3,0-3.5l0-0.9C2.8,2.6,3,2.7,3.1,2.7l0.4,0l1.7,0
						c47.6-0.1,114.1,0.9,165.6,0.1c21.2-0.3,41.3,0.1,58.4,0.5c-6.3,0.2-18.1,0.2-24,0.2c-53-0.1-106.1-0.3-159.5-0.2
						c55.4,0.6,109,0.3,164.2,0.9c-32.6,0.1-64.2-0.5-94.7,0.1c2.5,0.1,5.1,0.2,7.8,0.3c21.4,0.1,42.7,0.3,63.9,0.4
						c6.5-0.1,13-0.3,19.5-0.4c14.5-0.3,29.9-0.5,46-0.6c2,0,4,0,6,0c0.9,0,1.7,0,2.6,0l0.9,0l0.1,0c0,0,0,0,0.1,0l0,0.1l0,0.2
						l0,0.4c0,3.8,0,7.7,0,11.6c0,8.3,0,16.6,0,25.1c0,33.8-0.1,68.9,0.1,103.1c0,5.6,0.3,14.2,0.4,23.4c0-22.1,0-44,0-66.1
						c-0.1,8.9-0.2,17.3-0.3,25.2c-0.1-20.8,0.2-37.7,0.2-58.5c0.1,11.2,0.2,22.3,0.2,33.3c0.1-13.3,0.2-27.3,0.2-41.4
						c0.3,27.2-0.4,52,0.1,79.6c0-5.8,0-11.6,0-17.3c0,5.9,0,11.8,0,17.7c0-0.1,0-0.2,0-0.3c0,17.7,0.2,35.4,0.3,51.4
						c0-30.6,0.3-58.1,0.4-88.1c0-5,0-9.9,0-14.9c0,5,0,10,0,14.9c-0.1,68.7-0.2,137.4-0.4,205.9c0,2.2,0,4.3,0,6.5
						c0-1.9,0-3.9,0-5.7C263.4,253.4,263.6,195.8,264.1,140.3z"/>
				</g>
			</g>
		</g>
	</g>
</g>
</svg>
