<?xml version="1.0" encoding="utf-8"?>
<!-- Generator: Adobe Illustrator 18.1.1, SVG Export Plug-In . SVG Version: 6.00 Build 0)  -->
<!DOCTYPE svg PUBLIC "-//W3C//DTD SVG 1.1//EN" "http://www.w3.org/Graphics/SVG/1.1/DTD/svg11.dtd">
<svg version="1.1" id="Layer_1" xmlns="http://www.w3.org/2000/svg" xmlns:xlink="http://www.w3.org/1999/xlink" x="0px" y="0px"
	 viewBox="0 0 423.8 208.1" enable-background="new 0 0 423.8 208.1" xml:space="preserve">
<text transform="matrix(1 0 0 1 14.9522 79.2087)" fill="#389CD6" font-family="'SnellRoundhand'" font-size="60" letter-spacing="2">Sincerely,</text>
<text transform="matrix(1 0 0 1 76.2473 119.3069)" fill="#AECFED" font-family="'TradeGothicLTStd'" font-size="38.98">IZZE</text>
<g>
	<path fill="#389CD6" d="M377.5,157c0-0.2,0-0.4,0.1-0.6c0.1-0.9,0.2-1.8,0.4-2.6c0.3-1.4,0.7-2.7,1.3-3.9c0.5-1.1,1.1-2.1,1.8-3
		c0.5-0.7,1-1.3,1.6-1.9c0.4-0.4,0.7-0.7,1.1-1.1c0.9-0.8,1.8-1.5,2.8-2.1c0.6-0.3,1.1-0.6,1.7-0.9c1.5-0.7,3.1-1.3,4.7-1.6
		c0.8-0.1,1.6-0.3,2.4-0.3c0.5,0,0.9-0.1,1.4,0c0.8,0,1.7,0.1,2.5,0.2c1.2,0.1,2.3,0.4,3.5,0.8c1.3,0.5,2.6,1,3.7,1.8
		c0.8,0.5,1.5,1,2.2,1.6c0.6,0.5,1.2,1.1,1.8,1.7c1,1.1,1.8,2.2,2.6,3.5c1,1.8,1.7,3.7,2.1,5.7c0.1,0.8,0.2,1.6,0.3,2.4
		c0.1,1.6-0.1,3.2-0.4,4.8c-0.3,1.3-0.7,2.5-1.2,3.7c-0.6,1.3-1.4,2.6-2.3,3.8c-0.4,0.5-0.9,1-1.3,1.5c-0.9,1-1.9,1.8-3,2.5
		c-0.8,0.6-1.7,1-2.6,1.5c-1.1,0.5-2.2,0.9-3.4,1.2c-0.9,0.2-1.9,0.4-2.8,0.5c-0.8,0.1-1.7,0.1-2.5,0.1c-1.4,0-2.8-0.2-4.1-0.6
		c-1.2-0.3-2.3-0.7-3.4-1.2c-1.3-0.6-2.5-1.4-3.6-2.3c-0.7-0.6-1.4-1.2-2.1-1.9c-0.9-1-1.8-2.1-2.5-3.3c-0.8-1.4-1.5-2.9-1.9-4.5
		c-0.3-1-0.5-2.1-0.6-3.2c0-0.4,0-0.7-0.1-1.1c0-0.1,0-0.1,0-0.1C377.5,157.7,377.5,157.3,377.5,157z M396.4,173.4
		c0.2,0,0.5,0,0.7,0c0.7-0.1,1.3-0.1,2-0.2c1.5-0.2,3-0.7,4.4-1.4c0.9-0.4,1.8-1,2.6-1.6c0.6-0.4,1.2-0.9,1.7-1.4
		c0.5-0.5,0.9-1,1.3-1.5c0.6-0.8,1.2-1.6,1.6-2.4c0.7-1.3,1.2-2.6,1.5-4c0.2-1,0.4-2,0.4-3.1c0-0.5,0-1,0-1.5c0-0.9-0.2-1.7-0.4-2.6
		c-0.3-1.4-0.9-2.8-1.6-4c-0.7-1.2-1.6-2.4-2.6-3.4c-0.4-0.4-0.9-0.8-1.3-1.2c-0.8-0.7-1.6-1.2-2.5-1.7c-1.3-0.7-2.6-1.2-4-1.5
		c-0.8-0.2-1.5-0.3-2.3-0.3c-0.6-0.1-1.1-0.1-1.7,0c-0.6,0-1.2,0.1-1.7,0.1c-1.2,0.1-2.3,0.4-3.4,0.8c-1.1,0.4-2.2,0.9-3.2,1.6
		c-1.2,0.8-2.2,1.7-3.2,2.7c-0.6,0.6-1.1,1.3-1.5,2c-0.7,1.1-1.3,2.2-1.7,3.4c-0.5,1.5-0.8,3-0.9,4.6c0,0.8,0,1.5,0.1,2.3
		c0.1,1,0.3,2.1,0.6,3.1c0.5,1.6,1.2,3,2.1,4.3c0.8,1.1,1.7,2.1,2.7,2.9c0.6,0.5,1.2,1,1.9,1.4c1.2,0.8,2.5,1.4,3.9,1.8
		C393.1,173.2,394.8,173.4,396.4,173.4z"/>
	<path fill="#389CD6" d="M406.9,188.4c0-2.4,0-4.9,0-7.3c0-0.2,0-0.2,0.2-0.2c2.2,0,4.4,0,6.5,0c0.2,0,0.2,0,0.2,0.2
		c0,0.7,0,1.3,0,2c0,0.1,0,0.2-0.2,0.2c-1.3,0-2.6,0-3.9,0c-0.2,0-0.2,0-0.2,0.2c0,1.1,0,2.2,0,3.4c0,0.2,0,0.2,0.2,0.2
		c1,0,2,0,2.9,0c0.1,0,0.2,0,0.2,0.2c0,0.7,0,1.3,0,2c0,0.1,0,0.2-0.2,0.2c-1,0-2,0-3,0c-0.1,0-0.2,0-0.2,0.2c0,1.3,0,2.6,0,3.9
		c0,0.1,0,0.2,0.2,0.2c1.4,0,2.8,0,4.2,0c0.2,0,0.2,0,0.2,0.2c0,0.7,0,1.3,0,2c0,0.1,0,0.2-0.2,0.2c-2.3,0-4.6,0-6.9,0
		c-0.1,0-0.2,0-0.2-0.2C406.9,193.3,406.9,190.8,406.9,188.4z"/>
	<path fill="#389CD6" d="M400.5,183.2c-0.1,0-0.2,0-0.2,0c-1.2,0-2.5,0-3.7,0c-0.1,0-0.2,0-0.2-0.2c0-0.7,0-1.3,0-2
		c0-0.1,0-0.2,0.2-0.2c2.2,0,4.3,0,6.5,0c0.1,0,0.2,0,0.2,0.2c0,0.7,0,1.5,0,2.2c0,0.1,0,0.2-0.1,0.3c-0.7,1.5-1.4,3-2,4.4
		c-0.5,1-1,2.1-1.4,3.1c-0.4,0.8-0.7,1.5-1.1,2.3c0,0,0,0.1-0.1,0.1c0.1,0,0.2,0,0.2,0c1.4,0,2.8,0,4.2,0c0.2,0,0.2,0,0.2,0.2
		c0,0.7,0,1.3,0,2c0,0.1,0,0.2-0.2,0.2c-2.4,0-4.8,0-7.2,0c-0.1,0-0.2,0-0.1-0.2c0-0.6,0-1.3,0-1.9c0-0.3,0.1-0.5,0.2-0.8
		c0.6-1.2,1.1-2.4,1.7-3.6c0.6-1.3,1.2-2.5,1.8-3.8c0.3-0.7,0.7-1.5,1-2.2C400.5,183.3,400.5,183.3,400.5,183.2z"/>
	<path fill="#389CD6" d="M389.7,183.2c-0.1,0-0.2,0-0.2,0c-1.3,0-2.5,0-3.8,0c-0.1,0-0.2,0-0.2-0.2c0-0.7,0-1.3,0-2
		c0-0.1,0-0.2,0.2-0.2c2.2,0,4.4,0,6.6,0c0.1,0,0.2,0,0.1,0.1c0,0.8,0,1.5,0,2.3c0,0.1-0.1,0.2-0.1,0.3c-0.4,0.9-0.8,1.8-1.2,2.6
		c-0.5,1.1-1,2.3-1.5,3.4c-0.4,0.9-0.8,1.8-1.2,2.7c-0.2,0.4-0.3,0.7-0.5,1.1c0,0,0,0.1,0,0.1c0.1,0,0.1,0,0.2,0c1.4,0,2.8,0,4.3,0
		c0.2,0,0.2,0,0.2,0.2c0,0.7,0,1.3,0,2c0,0.1,0,0.2-0.2,0.2c-2.4,0-4.8,0-7.2,0c-0.1,0-0.2,0-0.2-0.2c0-0.8,0-1.5,0-2.3
		c0-0.1,0.1-0.2,0.1-0.3c0.4-0.9,0.8-1.8,1.2-2.7c0.7-1.4,1.3-2.8,2-4.3c0.4-0.9,0.9-1.9,1.3-2.8
		C389.7,183.4,389.7,183.3,389.7,183.2z"/>
	<path fill="#389CD6" d="M379,188.4c0-2.4,0-4.9,0-7.3c0-0.2,0-0.2,0.2-0.2c0.8,0,1.5,0,2.3,0c0.1,0,0.2,0,0.2,0.2
		c0,4.9,0,9.8,0,14.7c0,0.1,0,0.2-0.2,0.2c-0.8,0-1.5,0-2.3,0c-0.1,0-0.2,0-0.2-0.2C379,193.3,379,190.8,379,188.4z"/>
	<path fill="#389CD6" d="M397,200.2c0,0.1,0,0.1,0,0.2c0,0.6,0,1.1,0,1.7c0,0.1,0,0.2-0.2,0.2c-0.3,0-0.3,0-0.3-0.3
		c0-0.9,0-1.8,0-2.8c0-0.1,0-0.2,0.2-0.2c0.3,0,0.3,0,0.5,0.3c0.2,0.5,0.3,0.9,0.5,1.4c0,0,0,0.1,0.1,0.1c0-0.1,0-0.1,0-0.2
		c0-0.5,0-1,0-1.5c0-0.1,0-0.2,0.2-0.2c0.3,0,0.3,0,0.3,0.3c0,0.9,0,1.9,0,2.8c0,0.1,0,0.2-0.2,0.2c-0.3,0-0.3,0-0.4-0.3
		c-0.2-0.5-0.4-1.1-0.6-1.6C397.1,200.3,397.1,200.2,397,200.2C397.1,200.2,397,200.2,397,200.2z"/>
	<path fill="#389CD6" d="M388.2,202.2c-0.2,0-0.3,0-0.5,0c0,0-0.1-0.1-0.1-0.1c-0.1-0.4-0.2-0.7-0.3-1.1c0-0.1-0.3-0.2-0.3-0.1
		c0,0,0,0.1,0,0.1c0,0.4,0,0.7,0,1.1c0,0.1,0,0.1-0.1,0.1c-0.4,0-0.4,0-0.4-0.4c0-0.9,0-1.8,0-2.7c0-0.1,0-0.2,0.2-0.2
		c0.3,0,0.6,0,0.9,0c0.3,0,0.5,0.2,0.6,0.6c0.1,0.4,0.1,0.7-0.2,1c0,0,0,0,0,0c-0.2,0.1-0.1,0.3-0.1,0.4c0.1,0.3,0.2,0.7,0.3,1
		C388.2,202.1,388.2,202.1,388.2,202.2z M386.9,199.4c0,0.3,0,0.5,0,0.8c0,0.3,0,0.3,0.3,0.2c0.3,0,0.4-0.1,0.4-0.4
		c0-0.1,0-0.3,0-0.4c0-0.2-0.1-0.3-0.3-0.3C387.2,199.4,387.1,199.4,386.9,199.4z"/>
	<path fill="#389CD6" d="M407.9,200.3c0,0.4,0,0.8,0,1.2c0,0.4-0.3,0.8-0.8,0.7c-0.1,0-0.3,0-0.4-0.1c-0.3-0.1-0.5-0.4-0.5-0.7
		c0-0.8,0-1.6,0-2.4c0-0.1,0-0.1,0.1-0.1c0.4,0,0.4,0,0.4,0.4c0,0.7,0,1.3,0,2c0,0.1,0,0.1,0,0.2c0,0.2,0.1,0.2,0.4,0.2
		c0.2,0,0.2-0.1,0.3-0.2c0-0.1,0-0.1,0-0.2c0-0.8,0-1.5,0-2.3c0-0.1,0-0.2,0.1-0.2c0.1,0,0.2,0,0.2,0c0.1,0,0.1,0,0.1,0.1
		C407.9,199.5,407.9,199.9,407.9,200.3C407.9,200.3,407.9,200.3,407.9,200.3z"/>
	<path fill="#389CD6" d="M401.2,202.2c-0.2,0.1-0.3,0-0.3-0.2c-0.1,0-0.1,0.1-0.2,0.1c-0.3,0.3-0.9,0.2-1.1-0.3
		c0-0.1-0.1-0.2-0.1-0.4c0-0.6,0-1.2,0-1.8c0-0.3,0.2-0.6,0.5-0.7c0.3-0.1,0.7-0.1,1,0.2c0.2,0.2,0.3,0.5,0.2,0.7c0,0,0,0.1-0.1,0.1
		c0,0,0,0-0.1,0c-0.1,0-0.2,0-0.3,0c-0.1,0,0-0.2-0.1-0.3c0-0.3-0.1-0.3-0.4-0.3c-0.1,0-0.2,0.1-0.2,0.1c0,0.1,0,0.2,0,0.2
		c0,0.6,0,1.1,0,1.7c0,0,0,0.1,0,0.1c0,0.2,0.1,0.2,0.2,0.2c0.2,0,0.3,0,0.3-0.2c0-0.2,0-0.3,0-0.5c0,0-0.1-0.1-0.1-0.1
		c-0.3,0-0.3-0.1-0.2-0.3c0,0,0.1-0.1,0.1-0.1c0.2,0,0.5,0,0.7,0c0,0,0.1,0,0.1,0.1C401.2,201.2,401.2,201.7,401.2,202.2z"/>
	<path fill="#389CD6" d="M389.9,200.1c0,0,0.1-0.1,0.1-0.1c0.2-0.3,0.3-0.6,0.5-0.9c0-0.1,0.1-0.1,0.2-0.1c0.1,0,0.2,0,0.4,0
		c-0.1,0.2-0.2,0.4-0.3,0.6c-0.1,0.2-0.2,0.3-0.3,0.5c0,0.1,0,0.2,0,0.2c0.2,0.6,0.4,1.1,0.6,1.7c0,0.1,0,0.1,0.1,0.2
		c-0.2,0-0.3,0-0.5,0c0,0-0.1-0.1-0.1-0.1c-0.1-0.4-0.3-0.9-0.4-1.3c0,0,0-0.1-0.1-0.1c0,0-0.1,0-0.1,0.1c-0.1,0.1-0.2,0.3-0.2,0.5
		c0,0.3,0,0.5,0,0.8c0,0.1,0,0.1-0.1,0.1c-0.4,0-0.4,0-0.4-0.4c0-0.9,0-1.8,0-2.7c0-0.1,0-0.2,0.2-0.2c0.4,0,0.4,0,0.4,0.4
		c0,0.2,0,0.4,0,0.7C389.9,200,389.9,200.1,389.9,200.1C389.9,200.1,389.9,200.1,389.9,200.1z"/>
	<path fill="#389CD6" d="M385.3,202.2c-0.2,0-0.3,0-0.4,0c0,0-0.1-0.1-0.1-0.1c0-0.2,0-0.3-0.1-0.5c0-0.1,0-0.1-0.1-0.1
		c-0.1,0-0.3,0-0.4,0c-0.1,0-0.1,0-0.1,0.1c0,0.2,0,0.3-0.1,0.5c0,0.1,0,0.1-0.1,0.1c-0.1,0-0.2,0-0.4,0c0.1-0.3,0.1-0.7,0.2-1
		c0.1-0.7,0.3-1.4,0.4-2.1c0-0.1,0.1-0.1,0.2-0.1c0.1,0,0.3,0,0.4,0c0.1,0,0.2,0,0.2,0.2c0.1,0.8,0.3,1.5,0.4,2.3
		C385.2,201.7,385.3,201.9,385.3,202.2z M384.4,199.6C384.4,199.6,384.4,199.6,384.4,199.6c-0.1,0.5-0.2,0.9-0.3,1.4
		c0.2,0,0.3,0,0.5,0C384.6,200.5,384.5,200.1,384.4,199.6z"/>
	<path fill="#389CD6" d="M380.7,200.6c0-0.5,0-1,0-1.5c0-0.1,0-0.1,0.1-0.1c0.3,0,0.6,0,1,0c0.4,0.1,0.7,0.3,0.7,0.7
		c0,0.2,0,0.4-0.1,0.7c-0.1,0.2-0.3,0.4-0.5,0.4c-0.2,0-0.4,0.1-0.5,0.1c-0.1,0-0.2,0-0.2,0.2c0,0.3,0,0.7,0,1c0,0.1,0,0.1-0.1,0.1
		c-0.4,0-0.4,0-0.4-0.4C380.7,201.4,380.7,201,380.7,200.6z M381.2,199.4c0,0.3,0,0.5,0,0.7c0,0.4,0,0.4,0.4,0.4
		c0.2,0,0.3-0.1,0.3-0.3c0-0.1,0-0.3,0-0.4c0-0.1-0.1-0.2-0.2-0.3C381.6,199.4,381.4,199.4,381.2,199.4z"/>
	<path fill="#389CD6" d="M411.7,200.6c0,0.3,0,0.6,0,1c0,0.2,0.1,0.2,0.3,0.2c0.2,0,0.3,0,0.3-0.2c0-0.1,0-0.2,0-0.4
		c0-0.1,0-0.1,0.1-0.1c0.1,0,0.2,0,0.3,0c0.1,0,0.1,0,0.1,0.1c0,0.1,0,0.3,0,0.4c-0.1,0.4-0.4,0.6-0.7,0.6c-0.1,0-0.2,0-0.3,0
		c-0.3-0.1-0.6-0.3-0.6-0.7c0-0.6,0-1.2,0-1.9c0-0.5,0.5-0.8,1.1-0.7c0.4,0.1,0.7,0.6,0.6,1c0,0,0,0-0.1,0.1c0,0,0,0-0.1,0
		c-0.1,0-0.3,0-0.3,0c-0.1,0,0-0.2-0.1-0.3c0-0.1,0-0.3-0.2-0.3c-0.1,0-0.3,0-0.3,0.1c0,0.1-0.1,0.2-0.1,0.3
		C411.6,200,411.7,200.3,411.7,200.6C411.7,200.6,411.7,200.6,411.7,200.6z"/>
	<path fill="#389CD6" d="M414.1,200.6c0-0.5,0-1,0-1.5c0-0.1,0-0.2,0.1-0.2c0.4,0,0.8,0,1.2,0c0.1,0,0.1,0,0.1,0.1
		c0,0.4,0,0.3-0.3,0.3c-0.2,0-0.3,0-0.5,0c-0.1,0-0.1,0-0.1,0.1c0,0.2,0,0.4,0,0.6c0,0.1,0,0.1,0.1,0.1c0.2,0,0.3,0,0.5,0
		c0.1,0,0.1,0,0.1,0.1c0,0.3,0,0.3-0.3,0.3c-0.1,0-0.2,0-0.3,0c-0.1,0-0.1,0-0.1,0.1c0,0.2,0,0.5,0,0.7c0,0.1,0,0.2,0.2,0.2
		c0.3,0,0.5,0,0.8,0c0.1,0,0.1,0,0.1,0.1c0,0.3,0,0.3-0.3,0.3c-0.4,0-0.7,0-1.1,0c-0.1,0-0.1,0-0.1-0.1
		C414.1,201.6,414.1,201.1,414.1,200.6z"/>
	<path fill="#389CD6" d="M377.8,201.4c0.2,0,0.3,0,0.5-0.1c0,0.1,0,0.1,0.1,0.2c0.1,0.2,0.2,0.3,0.5,0.3c0.2,0,0.2-0.2,0.2-0.4
		c-0.1-0.2-0.2-0.4-0.4-0.5c-0.2-0.2-0.4-0.4-0.6-0.6c-0.3-0.4-0.2-0.9,0-1.1c0.2-0.2,0.5-0.3,0.8-0.2c0.3,0.1,0.4,0.3,0.5,0.6
		c0,0.1,0,0.2-0.1,0.2c0,0-0.1,0-0.1,0c-0.1,0-0.2,0-0.3-0.1c0-0.2-0.2-0.2-0.4-0.2c-0.1,0-0.2,0.1-0.2,0.3c0,0.3,0.1,0.4,0.3,0.6
		c0.3,0.2,0.5,0.5,0.7,0.8c0.3,0.5,0,1.2-0.5,1.2C378.3,202.3,377.9,202,377.8,201.4z"/>
	<path fill="#389CD6" d="M392.1,200.6c0-0.5,0-1,0-1.5c0-0.1,0-0.1,0.1-0.1c0.4,0,0.4,0,0.4,0.4c0,0.8,0,1.5,0,2.3
		c0,0.1,0,0.2,0.2,0.2c0.2,0,0.4,0,0.6,0c0.1,0,0.1,0,0.1,0.1c0,0.3,0,0.3-0.3,0.3c-0.3,0-0.6,0-1,0c-0.1,0-0.1,0-0.1-0.1
		C392.1,201.6,392.1,201.1,392.1,200.6z"/>
	<path fill="#389CD6" d="M404.9,200.3c0,0.4,0,0.8,0,1.2c0,0.6-0.3,0.8-0.9,0.7c0,0-0.1,0-0.1-0.1c0-0.1,0-0.2,0-0.3
		c0,0,0.1-0.1,0.1-0.1c0.2,0,0.3-0.1,0.3-0.3c0-0.8,0-1.6,0-2.3c0-0.1,0-0.2,0.1-0.2c0.4,0,0.4,0,0.4,0.4
		C404.9,199.7,404.9,200,404.9,200.3z"/>
	<path fill="#389CD6" d="M409.2,200.6c0-0.5,0-1,0-1.5c0-0.1,0-0.2,0.2-0.2c0.4,0,0.4,0,0.4,0.4c0,0.9,0,1.8,0,2.7
		c0,0.2,0,0.2-0.2,0.2c-0.3,0-0.3,0-0.3-0.3C409.2,201.4,409.2,201,409.2,200.6z"/>
	<path fill="#389CD6" d="M395.2,200.6c0,0.5,0,1,0,1.5c0,0.1,0,0.2-0.2,0.2c-0.4,0-0.4,0-0.4-0.4c0-0.9,0-1.8,0-2.7
		c0-0.1,0-0.2,0.2-0.2c0.4,0,0.4,0,0.4,0.4C395.2,199.7,395.2,200.2,395.2,200.6z"/>
	<path fill="#389CD6" d="M407,157.5c0,0.7-0.2,1.3-0.7,1.8c-0.4,0.4-0.9,0.6-1.4,0.7c-0.5,0.1-1-0.1-1.5-0.2c-1.1-0.3-2.3-0.7-3.5-1
		c-0.8-0.2-1.7-0.5-2.5-0.7c-0.1,0-0.1,0-0.2,0c-0.1,0.1-0.1,0.1,0,0.2c0.5,0.4,1,0.8,1.4,1.3c0.5,0.4,0.9,0.8,1.4,1.2
		c0.3,0.3,0.6,0.6,1,0.9c0.3,0.3,0.7,0.6,1,0.8c0.4,0.4,0.8,0.7,1,1.3c0.2,0.8,0,1.5-0.5,2.1c-0.8,0.8-2,1-3,0.6
		c-0.6-0.3-1-0.7-1.1-1.3c-0.2-0.6-0.4-1.3-0.5-1.9c-0.3-1.1-0.6-2.3-0.9-3.4c-0.1-0.4-0.2-0.7-0.3-1.1c0-0.1,0-0.2-0.1-0.2
		c-0.1,0-0.1,0.1-0.1,0.2c-0.3,1.2-0.6,2.3-0.9,3.5c-0.2,0.9-0.5,1.9-0.8,2.8c-0.1,0.4-0.3,0.7-0.5,1c-0.3,0.4-0.7,0.6-1.2,0.6
		c-0.5,0.1-1,0-1.5-0.1c-1-0.4-1.6-1.3-1.5-2.4c0-0.6,0.3-1.1,0.8-1.4c0.5-0.4,1-0.9,1.5-1.3c0.4-0.4,0.9-0.8,1.3-1.1
		c0.3-0.3,0.6-0.5,0.9-0.8c0.3-0.3,0.7-0.6,1.1-0.9c0.1-0.1,0.1-0.1,0.2-0.2c0,0,0-0.1,0.1-0.1c-0.1,0-0.1-0.1-0.2-0.1
		c-0.2,0-0.4,0.1-0.5,0.2c-1.7,0.5-3.4,1-5.2,1.5c-0.5,0.1-1,0.3-1.5,0.2c-0.7,0-1.3-0.3-1.8-0.7c-0.8-0.8-0.9-2-0.2-2.9
		c0.5-0.6,1.2-1,2-0.9c0.4,0,0.8,0.1,1.2,0.2c1.1,0.3,2.3,0.6,3.4,0.9c0.8,0.2,1.7,0.5,2.5,0.7c0,0,0.1,0,0.1,0
		c0.1,0,0.1-0.1,0.2-0.1c0,0,0-0.1-0.1-0.1c-0.4-0.4-0.8-0.7-1.2-1.1c-0.2-0.2-0.5-0.4-0.7-0.6c-0.4-0.4-0.8-0.7-1.3-1.1
		c-0.3-0.3-0.6-0.5-0.9-0.8c-0.3-0.3-0.6-0.6-0.9-0.9c-0.8-0.7-1-1.7-0.5-2.6c0.5-0.9,1.2-1.4,2.3-1.4c0.9,0,1.5,0.4,2,1.1
		c0.3,0.6,0.5,1.2,0.6,1.8c0.4,1.7,0.8,3.4,1.2,5.1c0,0.1,0,0.1,0.1,0.1c0,0,0.1-0.1,0.1-0.1c0.2-0.8,0.4-1.7,0.6-2.6
		c0.3-1.2,0.6-2.4,0.9-3.6c0.1-0.5,0.4-0.9,0.7-1.2c0.4-0.4,0.8-0.6,1.3-0.7c0.7-0.1,1.3,0,1.8,0.4c0.7,0.5,1.1,1.2,1,2.1
		c0,0.4-0.2,0.8-0.5,1.1c-0.5,0.5-1,1-1.6,1.5c-0.4,0.4-0.8,0.7-1.2,1.1c-0.5,0.4-1,0.9-1.5,1.3c-0.3,0.3-0.7,0.6-1,0.9
		c0,0-0.1,0.1-0.1,0.2c0,0.1,0.1,0.1,0.2,0.1c1.1-0.3,2.1-0.6,3.2-0.8c1.1-0.3,2.3-0.6,3.4-0.9c0.9-0.2,2,0.1,2.6,0.9
		C406.9,156.6,407,157.1,407,157.5z"/>
</g>
<g>
	<g>
		<text transform="matrix(1 0 0 1 14.9521 155.5069)"><tspan x="0" y="0" fill="#00578A" font-family="'TradeGothicLTStd-Bold'" font-size="10">Pure and simple, all natural fruit soda. </tspan><tspan x="0" y="12" fill="#00578A" font-family="'TradeGothicLTStd-Bold'" font-size="10">Made of 70% real fruit juice and 30% sparkling water, </tspan><tspan x="0" y="24" fill="#00578A" font-family="'TradeGothicLTStd-Bold'" font-size="10">IZZE is sophisticated and fun for the whole family.</tspan><tspan x="0" y="36" fill="#00578A" font-family="'TradeGothicLTStd-Bold'" font-size="10">One 12oz bottle delivers 2 servings of fruit!</tspan></text>
	</g>
</g>
<g>
	<g>
		<g>
			<g>
				<g opacity="0.8">
					<g opacity="0.8">
						<path fill="#C6E3F3" d="M420.3,9.6c0-2,0-4.1,0-6.1c-17.2,0-34.5-0.1-51.8-0.1c-17.7-0.1-35.4-0.1-52.7-0.2
							c-34.6-0.1-67.9-0.1-97.7,0.4c-6.9,0.1-13.9,0.2-20.9,0.3c3.6,0,7.1,0,10.6,0.1c34.4,0.2,70,0.4,105.9,0.5
							c35.2,0,70.6,0.1,105.4,0.1c0,11.6,0,23,0.1,34.3c0.3,50.9,0.9,102.6,0.8,159c0,6.3,0.4,7.1,0.6,7.5
							c0.2-5.6,0.5-10.4,0.8-14.7c-0.2-45.9-0.5-91.5-0.6-138.8C420.9,36.1,420.3,19,420.3,9.6z"/>
						<path fill="#ADD6EE" d="M421.4,192.4c0-0.3,0-0.6,0.1-0.9c0-2.3,0-4.6,0-6.9C421.4,187.2,421.4,189.8,421.4,192.4z"/>
						<path fill="#BEDFF2" d="M420.8,79.9c-0.1-15.3-0.1-30.4-0.1-45.4c-0.2-9.8-0.4-18.9-0.4-24.9c0-2,0-4.1,0-6.1
							c-17.2,0-34.5-0.1-51.8-0.1c-17.7-0.1-35.4-0.1-52.7-0.2c-34.6-0.1-67.9-0.1-97.7,0.4c-6.9,0.1-13.7,0.2-20.7,0.3
							c3.8,0,7.6,0.1,11.4,0.1c27.9,0.1,56.6,0.3,85.6,0.4c1.6,0,3.2,0,4.7-0.1c16.3-0.3,31.3,0.1,46.9,0.1c13.4,0,26-0.1,38.5-0.1
							c11.7,0,23.2,0,34.8,0c0,15.6,0,31.4,0.1,48.4c0.1,15.8,0.5,32.6,0.5,51.3c0,6.4,0,12.6,0,18.6c0.2,24.6,0.3,49.9,0.2,76.1
							c0,6.3,0.4,7.1,0.6,7.5c0.1-2.9,0.3-5.6,0.4-8.1c0-21.3,0.1-42.6,0.1-64.3c-0.1-18.9-0.2-37.8-0.2-57
							C420.9,77.7,420.8,78.7,420.8,79.9z"/>
						<path fill="#ADD6EE" d="M421.4,78c0-2.7-0.3-6-0.5-1.1c0.1,19.1,0.2,38.1,0.2,57C421.1,115.6,421.2,97.1,421.4,78z"/>
						<path fill="#D9ECF7" d="M422.7,81c0.1-13.8,0-27.4,0-40.6c0-13.6-0.1-26.7-0.1-39.3c-4.7,0-9.2,0-13.7,0
							c-4.1,0-8.2-0.1-12.2-0.1c-16.1-0.2-31.9-0.4-45.8-0.8c-5.1,0-10.3,0-15.3,0c-55.9,0.1-111.7,0.2-167.3,0.3
							C112.1,0.4,56,0.4,0.1,0.3c0,15.2-0.1,30.3-0.1,45.4C0,73.1,0.1,99.5,0.2,126c0.2,26.9,0.4,53.7,0.6,81.5
							c8.3-0.1,16.6-0.1,25-0.2c38-0.1,68.4,0.3,105.5,0.6c92.6,0.8,172.6-0.8,267-1.4c25.4-0.1,28.8-1.6,22.6-1.7
							c-71.4,0.3-140.8,0.3-210.1,0.3c-68.9,0-137.6,0-207.7,0C3.1,190,3,174.7,3,159.3c0-26.8-0.1-53.3-0.1-79.4
							c0-25.9,0-51.4,0-76.7c32.8,0.1,65.3,0.2,97.5,0.3c32.5,0.2,64.7,0.3,96.8,0.5c7-0.1,13.9-0.2,20.9-0.3
							c29.8-0.4,63.1-0.5,97.7-0.4c17.3,0.1,34.9,0.1,52.7,0.2c17.3,0,34.6,0.1,51.8,0.1c0,2.1,0,4.1,0,6.1c0,9.4,0.6,26.5,0.6,42.1
							c0,47.2,0.3,92.9,0.6,138.8c0.6-9.2,1.1-16.7,1.5-26.1C422.7,136.3,422.5,108.2,422.7,81z"/>
						<path fill="#A7D3ED" d="M422.7,81c-0.2,27.2,0,55.3,0.2,83.4c0.2-4.6,0.4-9.8,0.5-15.8c0.3-23.2,0.4-47.3,0.4-71.9
							c0-25.3-0.1-51.1-0.1-76.7c-24.6,0.1-49,0.1-72.8,0.2c13.9,0.4,29.7,0.6,45.8,0.8c4,0,8,0.1,12.2,0.1c4.5,0,9.1,0,13.7,0
							c0,12.6,0.1,25.7,0.1,39.3C422.7,53.6,422.8,67.2,422.7,81z"/>
						<path fill="#BEDFF2" d="M422.7,81c-0.2,26,0,52.7,0.2,79.5c0.1-9,0.1-18.2,0.2-27.4c0-21.8,0.1-43.8,0.1-65.7
							c0-10.9,0-21.9,0.1-32.8c0.1-11.5,0.1-23,0.2-34.4c-3.8,0-7.6,0-11.4-0.1c3.8,0,7.7,0,11.5,0c0,47.4,0,94.8,0,142.4
							c0.2-22.4,0.3-45.6,0.4-69.1c0-24.3-0.1-49-0.1-73.5c-24.5,0.1-48.9,0.1-72.7,0.2c13.8,0.4,29.6,0.6,45.6,0.8
							c4,0,8,0.1,12.2,0.1c4.5,0,9.1,0,13.7,0c0,12.6,0.1,25.7,0.1,39.3C422.7,53.6,422.8,67.2,422.7,81z"/>
						<path fill="#A1D0EC" d="M422.5,5.1c-0.2,56.2-0.3,112.7,0,170.1c0.1-2.4,0.3-4.9,0.4-7.5c0-2.4,0-4.7,0.1-7.1
							c-0.2-26.8-0.4-53.5-0.2-79.5c0.1-13.8,0-27.4,0-40.6c0-13.6-0.1-26.7-0.1-39.3c-4.7,0-9.2,0-13.7,0c-4.1,0-8.2-0.1-12.2-0.1
							c-16-0.2-31.8-0.4-45.6-0.8c-4.8,0-9.6,0-14.4,0c-64.6,0.1-129,0.2-193.2,0.3c-22.6,0.2-46,0.3-69.7,0.3
							c-11.9,0-23.8,0-35.8,0c-12.5,0-25-0.1-37.4-0.1C0.4,12.5,0.4,24.2,0.3,35.9c0-11.8,0-23.6,0-35.4c16.9,0,33.8,0,50.8-0.1
							c-17,0-34-0.1-51-0.1c0,14.8-0.1,29.6-0.1,44.3C0,71.2,0,96.9,0.2,122.5c0.4,5.3,0.7,13.6,0.7,27.9C1,169.4,1.1,188,1.2,207.1
							c3.9,0,7.9-0.1,11.8-0.1c3.1,0,2.5,0.3,8.8,0.3c-3.6,0-7,0-10.3,0c-3.7,0-7.2,0-10.5,0.1c0-2.6,0-5.1-0.1-7.6
							c0-2.1-0.1-4.2-0.1-6.3c-0.1-4.1-0.2-7.9-0.2-11.6c0.1,8.4,0.1,16.9,0.2,25.7c7.8-0.1,15.8-0.1,24-0.2
							c29.8-0.1,55.1,0.2,82.5,0.4c3,0,5.9,0,8.9,0c14.7,0,29.7-0.2,44.7-0.4c-6.1,0-12.2,0-18.6,0c9.8-0.2,22.3-0.1,31.7-0.1
							c-4.4,0.1-8.7,0.1-13.1,0.2c14.6,0,28.5,0.1,44,0.1c-18.8,0-38,0.1-54,0.3c34.6,0,66.3-0.1,100.3,0.1c-0.9,0-1.7,0-2.6,0.1
							c48.3-0.4,96.3-1,148.8-1.3c25.5-0.1,28.9-1.6,22.6-1.7c-110.7,0.4-216.9,0.2-324.7,0.2c12.1,0.2,24.3,0.4,36.7,0.6
							c5.4,0,10.5,0.1,15.4,0.2c-5.2-0.1-10.3-0.2-15.4-0.2c-14.6-0.1-30.7-0.2-46.4-0.3c-2.9-0.1-12.3-0.1-16.1,0.2
							c-10.6-0.1-22.1-0.1-33.7-0.1c-5.8,0-11.6,0-17.2,0c-2.8,0-5.6,0-8.4,0c-2.4,0-4.9,0-7.2-0.1c0-0.2,0-0.5,0-0.7
							c0-0.5,0-1.2,0.1-2c0-1,0.1-2.2,0.1-3.4c0-13.6-0.1-27.3-0.1-41c0-26.6-0.1-52.9-0.1-78.9c0-25.7,0-51.1,0-76.2
							c22.2,0,44.2,0.1,66.1,0.1C51.5,3.1,34.7,2.9,19.1,2.6c-2.3,0-4.9-0.1-7.8-0.1c-2.8,0-5.8,0-9.1-0.1c0,5.8,0,12.2,0,19
							c0,6.9,0,14.3,0.1,21.8C2.4,58.3,2.4,74.2,2.5,89c0.1,9.6-0.2,15.2-0.2,24.6C1.9,97.3,1.8,78.8,1.8,59.7
							c0-19.1,0.1-38.9,0.1-57.6c0.9,0,1.7,0,2.6,0C55,2,125.7,2.7,180.3,2.2c22.6-0.2,43.8,0.1,62,0.4c-6.7,0.2-19.2,0.2-25.5,0.1
							C160.5,2.6,104.2,2.5,47.5,2.6C106.3,3,163.2,2.8,221.8,3.3c-34.6,0-68.2-0.4-100.5,0c2.7,0.1,5.5,0.1,8.3,0.2
							c22.7,0.1,45.3,0.3,67.9,0.4c6.9-0.1,13.8-0.2,20.7-0.3c29.8-0.4,63.1-0.5,97.7-0.4c17.3,0.1,34.9,0.1,52.7,0.2
							c17.3,0,34.6,0.1,51.8,0.1c0,2.1,0,4.1,0,6.1c0,6,0.2,15.1,0.4,24.9c0-10.5,0.1-21,0.1-31.5c-12.3,0-24.7,0-37.1-0.1
							c9.4,0.1,18.4,0.2,26.8,0.4c-22.1,0-40.1-0.4-62.2-0.3c11.9-0.1,23.7-0.1,35.4-0.1c-14.1-0.1-29-0.2-43.9-0.3
							c14-0.2,27.4,0,40.8,0.1c6.7,0,13.4,0.1,20.2,0.1c3.4,0,6.8,0,10.3,0c3.3,0,6.6-0.1,10-0.1c0,0.7,0,1.5,0,2.3l0-2.3
							c-5.1,0-10.2,0-15.3,0l15.3,0l0,2.7c0-0.1,0-0.3,0-0.4c0,18.8,0.2,37.6,0.4,54.6c0-9.9,0.1-19.6,0.1-29.1
							c0.1-9.6,0.1-19,0.2-28.5c-12,0-24-0.1-36.4-0.1c-5.3,0-10.5,0-15.8,0c5.3,0,10.6,0,15.8,0l36.6,0
							c-0.1,30.6-0.1,61.1-0.2,91.7c-0.1,30.4-0.2,60.8-0.3,91.1c0,2.3,0,4.6,0,6.9c0.1-2.1,0.3-4.1,0.4-6
							C421.9,125.2,422.1,64,422.5,5.1z"/>
					</g>
				</g>
			</g>
		</g>
	</g>
</g>
<g>
	<g>
		<g>
			<g>
				<path fill-rule="evenodd" clip-rule="evenodd" fill="#5EB05E" d="M359.6,13.2l-1.5,0.9c-0.5,0.3-1.1,0.6-1.3,0.8l-1.7,1.1
					c-1.1,0.7-2.2,1.4-3.3,2.2c-2.2,1.5-4.2,3.1-6.3,4.7c-4,3.3-7.8,6.8-11.1,10.5c-6.7,7.4-11.7,15.3-15,22.6l-0.3,0.7
					c-0.1,0.4-0.3,0.8-0.3,1.3c-0.1,0.8,0,1.4,0,1.9c0.1,1.1,0.4,2,0.6,2.9c0.2,0.8,0.4,1.7,0.6,2.5c0.2,0.8,0.4,1.5,0.4,2.1
					c0,0.2,0,0.6,0,0.9c0,0.4,0,0.7-0.1,1.1c-0.1,0.7-0.1,1.4-0.2,2c-0.2,1.3-0.5,2.4-0.8,3.5c-1.2,4.2-2.6,6.5-2.1,6.7
					c0.3,0.2,2.4-1.5,4.5-5.8c0.5-1.1,1-2.3,1.4-3.7c0.2-0.7,0.4-1.4,0.5-2.2c0.1-0.4,0.1-0.8,0.2-1.2c0.1-0.4,0.1-0.8,0.1-1.4
					c0-1-0.1-1.9-0.3-2.8c-0.1-0.8-0.3-1.7-0.4-2.6c-0.1-0.8-0.3-1.7-0.3-2.5c0-0.4,0-0.8,0-0.9c0,0,0-0.1,0.1-0.1l0.3-0.6
					c3.5-6.7,8.5-14.1,14.9-21c3.2-3.5,6.7-6.9,10.5-10.1c1.9-1.6,3.9-3.2,5.9-4.7c1-0.8,2-1.5,3.1-2.2l1.5-1.1
					c0.4-0.3,0.3-0.2,0.3-0.2l0.1-0.1l0.2-0.2l0.1-0.1c0.1-0.1,0,0,0.1,0.1c0,0.1,0.1,0.3,0.1,0.6c0,0.5,0,1.1,0,1.6
					c0,0.6,0,1.2,0,1.7c0,1.1,0,2.3-0.1,3.4c-0.1,2.2-0.3,4.3-0.5,6.4c-0.3,2.1-0.5,4.1-0.9,6c-1.4,7.8-3.4,14.7-6.2,21.3
					c-2.8,6.6-6.3,13-11.1,19.5c-1.2,1.5-2.5,3.1-3.8,4.7l-0.2,0.3c-0.1,0.1-0.1,0.3-0.3,0.1l-0.6-0.3c-0.4-0.2-0.8-0.4-1.4-0.6
					c-1-0.4-2.1-0.8-3.2-1.2c-2.2-0.7-4.6-1.1-7.1-1.1c-2.5,0-5,0.3-7.7,0.8l0,0c0.1-0.1,0.2-0.2,0.2-0.3c0,0,0.1,0,0-0.1
					c0,0,0,0.1,0,0.1c0,0.1-0.1,0.1-0.1,0.2c-0.1,0.1-0.2,0.2-0.3,0.4c0,0,0,0,0,0c0,0,0,0,0,0l0.1-0.1l0.1-0.2l-0.1,0.2l-0.1,0.1
					c0,0,0,0,0,0.1c0,0,0,0,0.1,0c0.1-0.1,0.2-0.2,0.3-0.4c0-0.1,0.1-0.1,0.1-0.2c0,0,0-0.1,0.1-0.1c-0.1-0.1-0.1,0-0.1,0
					c-0.1,0.1-0.2,0.2-0.3,0.2l-0.1,0.1l0.1,0c2.6-0.4,5.2-0.7,7.6-0.6c2.5,0.1,4.8,0.6,7,1.3c1.1,0.4,2.1,0.8,3.1,1.2
					c0.5,0.2,1.1,0.5,1.6,0.8l0.8,0.4c0.2,0.2,0.2-0.1,0.3-0.2l0.3-0.3c1.5-1.7,2.9-3.3,4.2-4.9c5.1-6.4,9-12.7,12.2-19.2
					c3.2-6.6,5.6-13.6,7.5-21.5c0.5-2,0.8-4,1.2-6.2c0.3-2.1,0.7-4.3,0.9-6.6c0.1-1.1,0.2-2.3,0.3-3.5c0-0.6,0.1-1.2,0.1-1.8
					c0-0.7,0-1.3,0.1-2c0-1.1,0-2.2-0.1-3.3c0-1.1-0.1-2.2-0.2-3.3l-0.1-0.8l0-0.4c0,0,0-0.1,0-0.1l-0.1,0.1l-0.2,0.1
					c-0.5,0.3-1,0.6-1.4,0.8C361.6,12,360.6,12.6,359.6,13.2z"/>
			</g>
		</g>
	</g>
	<g>
		<g>
			<g>
				<g>
					<g opacity="0.8">
						<g opacity="0.8">
							<path fill="#C6E3F3" d="M311.8,61.3c-0.8-2-1.9-3.9-3.1-5.8l-1-1.3c-0.2-0.2-0.3-0.5-0.5-0.7l-0.6-0.6
								c-0.4-0.4-0.7-0.8-1.1-1.2c-0.4-0.4-0.8-0.7-1.2-1.1c-3.3-2.9-7.7-4.5-11.4-3.9c-0.8,0.1-1.7,0.3-2.5,0.5l1.2,0.3
								c4.5,1,8.6,3.3,12,6.4c1.6,1.6,3,3.4,4.2,5.3c1.2,1.9,2,4,2.6,6.1c0.9,2.6,1.6,5.5,1.5,8.5c-0.1,3-0.9,6.2-2.9,8.9
								c-0.4,0.6,0.3,1.2,0.6,1.5c0.8-0.2,1.7-0.4,2.6-0.6c2.7-5.5,3.2-11.7,2.2-17.6c-0.2-1-0.7-1.9-1.3-2.7
								C312.5,62.4,312,61.8,311.8,61.3z"/>
							<path fill="#ADD6EE" d="M312,83.6l0.2,0c0.1-0.3,0.3-0.5,0.4-0.8C312.4,83.1,312.2,83.4,312,83.6z"/>
							<path fill="#BEDFF2" d="M314.6,69.5c-0.1-0.5-0.1-1-0.2-1.4c-0.1-0.5-0.2-0.9-0.2-1.4c-0.1-0.9-0.4-1.8-0.5-2.8
								c-0.3-0.6-0.8-1-1.1-1.5c-0.4-0.4-0.6-0.8-0.7-1.1c-0.8-2-1.9-3.9-3.1-5.8l-1-1.3c-0.2-0.2-0.3-0.5-0.5-0.7l-0.6-0.6
								c-0.4-0.4-0.7-0.8-1.1-1.2c-0.4-0.4-0.8-0.7-1.2-1.1c-3.3-2.9-7.7-4.5-11.4-3.9c-0.8,0.1-1.7,0.3-2.5,0.5l1.3,0.3
								c3.1,0.8,6.1,2,8.7,3.8c0.2,0.1,0.3,0.1,0.5,0.2c0.9,0.2,1.6,0.7,2.2,1.4l0.9,1c0.2,0.4,0.5,0.7,0.8,1
								c1.8,1.6,3.2,3.4,4.1,5.4c0.9,2,1.6,4.1,2.2,6.5c0.1,0.9,0.6,1.7,0.9,2.7c0.1,0.5,0.3,1,0.4,1.5c0,0.5,0.1,1,0,1.6
								c0,0.7-0.3,1.4-0.4,2.1c-0.2,2.8-1.1,5.8-2.9,8.3c-0.4,0.6,0.3,1.2,0.6,1.5c0.4-0.1,0.9-0.2,1.3-0.3c0.4-0.6,0.9-1.1,1.2-1.7
								l1-1.8c0.3-0.6,0.5-1.3,0.8-1.9c0.3-0.6,0.4-1.3,0.7-2c0.4-2.4,0.5-4.9,0.3-7.3C314.7,69.2,314.6,69.3,314.6,69.5z"/>
							<path fill="#ADD6EE" d="M316,69.2c0-0.4-0.7-0.8-1.1-0.1c0.2,2.4,0.1,4.9-0.3,7.3l0.3-0.9l0.2-0.9c0.1-0.6,0.3-1.2,0.4-1.8
								C315.5,71.7,315.8,70.5,316,69.2z"/>
							<path fill="#D9ECF7" d="M319.1,69.6c0.2-2.8-0.4-5.5-1.3-7.9c-0.2-0.6-0.4-1.2-0.7-1.8c-0.2-0.6-0.5-1.1-0.7-1.7
								c-0.4-1.1-1-2.2-1.3-3.3c-0.4-1.1-0.9-2.3-1.3-3.4c-0.5-1.1-0.9-2.3-1.4-3.4c-0.6-0.6-1.2-1.1-1.8-1.7
								c-3.8-3.2-8.4-5.5-13.2-6.6c-4.8-1.2-9.8-1.1-14.6-0.1c-1.2,0.2-2.4,0.6-3.5,1c-1.2,0.4-2.3,0.9-3.4,1.4
								c-2.2,1.1-4.3,2.3-6.2,3.9c-3.8,3.1-7,6.9-9.2,11.4c-2.1,4.5-2.6,9.5-1.9,14.2c0.7,4.7,2.7,9,5.5,12.9
								c1.5,2.3,2.9,4.5,4.5,6.4c1.5,2,3.4,3.9,5.7,5.6c2.9,2.2,6.3,3.4,9.7,3.9c3.4,0.5,6.9,0.2,10-0.8c3.2-1,6.1-2.5,8.7-4.4
								c2.6-1.9,4.9-4.2,6.9-6.9c1-1.4,0.8-2.8,0.3-3.7c-0.5-0.9-1.3-1.4-1.6-1c-1.3,2-2.8,3.8-4.6,5.3c-1.8,1.5-3.9,2.6-6.1,3.5
								c-2.2,0.8-4.5,1.3-6.9,1.5c-2.3,0.1-4.7-0.1-7-0.6c-2.3-0.6-4.4-1.5-6.4-2.6c-2-1.2-3.8-2.6-5.5-4.4c-1.6-1.7-3-3.6-4.1-5.7
								c-1.1-2.1-1.9-4.4-2.5-6.7c-0.8-3.7-0.6-7.5,0.4-11.1c1-3.6,2.9-6.8,5.5-9.4c5-5.2,12.5-7.4,19-6.3c0.8-0.2,1.6-0.4,2.5-0.5
								c3.8-0.5,8.1,1,11.4,3.9c0.4,0.4,0.8,0.7,1.2,1.1c0.4,0.4,0.7,0.8,1.1,1.2l0.6,0.6c0.2,0.2,0.3,0.4,0.5,0.7l1,1.3
								c1.2,1.9,2.2,3.8,3.1,5.8c0.2,0.5,0.7,1.2,1.4,1.9c0.6,0.8,1.1,1.7,1.3,2.7c1,5.9,0.5,12-2.2,17.6c0.9-0.2,1.7-0.4,2.6-0.6
								c0.8-0.2,1.7-0.5,2.4-1C318.4,77.7,318.7,73.6,319.1,69.6z"/>
							<path fill="#A7D3ED" d="M319.1,69.6c-0.4,4-0.7,8.2-1.9,12.3c0.7-0.5,1.4-1.1,1.9-1.9c1.3-2.4,2.3-5.2,2.6-8.1l0.1-1.1
								c0-0.4,0-0.7,0-1.1c0-0.7,0-1.5,0-2.2c-0.2-1.5-0.3-3-0.7-4.4c-0.3-1.5-0.8-2.9-1.3-4.3c-0.3-0.7-0.6-1.4-0.9-2l-0.5-1
								l-0.6-1c-1.5-2.6-3.4-4.8-5.3-6.8c0.5,1.1,0.9,2.3,1.4,3.4c0.4,1.2,0.9,2.3,1.3,3.4c0.4,1.1,0.9,2.2,1.3,3.3
								c0.2,0.6,0.5,1.1,0.7,1.7c0.2,0.6,0.4,1.2,0.7,1.8C318.7,64.1,319.4,66.8,319.1,69.6z"/>
							<path fill="#BEDFF2" d="M319.1,69.6c-0.4,3.8-0.7,7.8-1.8,11.7c0.3-0.6,0.7-1.2,1-1.8c0.3-0.6,0.5-1.3,0.7-2
								c1-3.5,1.3-7.1,1-10.7c-0.3-3.6-1.1-7.2-2.2-10.7c3.4,7.1,4,15.5,1.8,23.1c0.6-1.2,1.1-2.5,1.5-3.8c0.4-1.3,0.6-2.7,0.7-4.2
								c0.2-2.8,0-5.8-0.8-8.6l-0.3-1.1l-0.4-1c-0.2-0.7-0.5-1.4-0.8-2c-0.6-1.3-1.2-2.6-2-3.8c-1.4-2.5-3.3-4.6-5.2-6.6
								c0.5,1.1,0.9,2.3,1.4,3.4c0.4,1.2,0.9,2.3,1.3,3.4c0.4,1.1,0.9,2.2,1.3,3.3c0.2,0.6,0.5,1.1,0.7,1.7c0.2,0.6,0.4,1.2,0.7,1.8
								C318.7,64.1,319.4,66.8,319.1,69.6z"/>
							<path fill="#A1D0EC" d="M316.4,58.8c1.3,3.9,1.9,8,1.7,12.1c-0.2,4.1-1.1,8.1-2.7,12c0.5-0.2,0.9-0.3,1.4-0.6
								c0.2-0.3,0.4-0.6,0.6-0.9c1.1-4,1.4-7.9,1.8-11.7c0.2-2.8-0.4-5.5-1.3-7.9c-0.2-0.6-0.4-1.2-0.7-1.8
								c-0.2-0.6-0.5-1.1-0.7-1.7c-0.4-1.1-1-2.2-1.3-3.3c-0.4-1.1-0.9-2.2-1.3-3.4c-0.5-1.1-0.9-2.3-1.4-3.4
								c-0.6-0.5-1.1-1.1-1.7-1.6c-3.9-3.3-8.6-5.6-13.5-6.8c-4.9-1.2-10-1.1-14.9,0c-1,0.3-2,0.9-3,1.3c-1,0.4-2,1-3,1.5
								c-0.9,0.6-1.9,1.1-2.8,1.7l-1.4,1c-0.5,0.3-0.9,0.6-1.3,1c-3.5,2.8-6.6,6.2-9,10.1c1.9-3.8,4.5-7.3,7.7-10.2
								c-3.7,3-6.8,6.8-9,11.1c-1.8,3.8-2.5,8-2.2,12c0.9,0.8,1.5,2.1,2,4.1c0.7,3.2,1.6,6.4,3.7,9c0.2,0.4-0.5,0.6,0,1.4
								c-0.3-0.6-0.6-1.1-0.9-1.6c-0.3-0.5-0.6-1-0.9-1.5c-0.6-0.9-1.1-1.8-1.8-2.6c0.5,1.1,1,2.2,1.6,3.2c0.3,0.5,0.6,1,0.9,1.5
								c0.3,0.5,0.7,1,1,1.5c2.4,3.7,4.4,6.8,7.4,9.8c0.4,0.3,0.8,0.5,1.1,0.7c1,0.6,2,1.1,3.1,1.4c0.5,0.2,1.1,0.4,1.6,0.5
								c0.6,0.1,1.1,0.2,1.7,0.3c-0.8-0.3-1.7-0.7-2.5-1.2c0.4,0.1,0.7,0.2,1.1,0.3c0.4,0.1,0.8,0.2,1.2,0.4
								c0.8,0.3,1.5,0.6,2.1,0.8c-0.7,0-1.3-0.2-1.9-0.3c0.5,0.2,1,0.4,1.5,0.6c0.5,0.2,1,0.3,1.5,0.5c1,0.4,2.1,0.5,3.2,0.8
								c-2.7-0.5-5.5-1-7.9-1.6c0.6,0.2,1.2,0.5,1.8,0.7l0.9,0.3l0.9,0.2c0.6,0.2,1.2,0.3,1.8,0.5c0.6,0.1,1.2,0.2,1.8,0.3
								c1.2,0.3,2.5,0.3,3.7,0.5c0.6,0.1,1.3,0.1,1.9,0.1c0.6,0,1.3,0.1,1.9,0.1c-0.1,0.1-0.3,0.1-0.4,0.2c3.7-0.7,7.1-2.2,10.1-4.3
								c3-2,5.6-4.6,7.8-7.5c2.1-2.9-0.8-5.3-1.2-4.8c-1.7,2.8-4.1,5.2-6.9,6.9c-2.8,1.7-6,2.8-9.2,3.2c-6.5,0.8-13.2-1.4-18.1-5.6
								c0.4,0.6,0.8,1.4,1.3,1.9c0.5,0.6,1,1.3,1.6,1.8c0.6,0.4,1.1,0.9,1.5,1.4c-0.5-0.5-1-0.9-1.5-1.4c-0.7-0.6-1.5-1.2-2.3-1.8
								c-0.7-0.7-1.5-1.3-2.1-2.2c-0.1-0.4-0.9-1.3-1.7-1.1c-0.3-0.6-0.7-1.2-1.2-1.8c-0.4-0.6-0.8-1.2-1.2-1.8
								c-0.4-0.6-0.7-1.3-1.1-1.9c-0.3-0.6-0.5-1.3-0.7-2c-0.1-0.1,0-0.5,0.1-0.8c-0.3-0.8-0.6-1.6-0.9-2.3
								c-0.2-0.8-0.4-1.6-0.7-2.4c-0.4-2.3-0.6-4.7-0.4-7c0.3-2.3,0.8-4.6,1.8-6.7c1-2.1,2.1-4.1,3.7-5.8c0.7-0.9,1.6-1.6,2.4-2.4
								c0.4-0.3,0.9-0.7,1.3-1l0.7-0.5l0.7-0.4l-0.8,0.3c-0.2,0.1-0.5,0.2-0.7,0.4c-0.5,0.2-1,0.5-1.5,0.7c-0.9,0.6-1.9,1.1-2.7,1.6
								c-0.6,0.4-1.3,1-1.9,1.8c-0.6,0.8-1.3,1.8-1.7,2.9c-1.1,2.2-1.6,4.9-2,7.3c0,0.6-0.2,1.1-0.5,1.5c-0.2,0.5-0.4,0.9-0.5,1.6
								c-0.2-0.6-0.3-1.2-0.4-1.8c0-0.6,0-1.2,0-1.9c0-0.6,0.2-1.3,0.3-1.9c0.2-0.6,0.3-1.3,0.6-1.9c0.9-2.5,2.6-4.8,3.9-6.9
								c1.9-2.9,5.3-5.5,9-7.2c3.7-1.8,7.7-2.7,11.4-3.5c0.8-0.2,1.5-0.2,2.3-0.2c0.7,0.1,1.5,0.2,2.1,0.4c0.7,0.2,1.3,0.5,1.9,0.8
								c0.6,0.3,1.2,0.6,1.7,1c-0.9,0.1-2.5-0.2-3.3-0.4c-7.1-1.3-15,0.7-20.4,5.8c3.2-2.1,6.6-3.8,10.1-4.6
								c3.5-0.9,7.3-0.8,10.7,0.3l-0.8-0.1l-0.8-0.1c-0.5-0.1-1-0.1-1.6-0.2c-0.5,0-1-0.1-1.6-0.1l-0.8-0.1l-0.8,0
								c-0.5,0-1,0.1-1.5,0.1c-0.5,0.1-1,0.2-1.5,0.3c-1,0.2-1.9,0.7-2.8,1.2c0.4,0.1,0.7,0.1,1.1,0.1c2.7-0.6,5.4-0.6,7.9-0.2
								c0.8-0.2,1.6-0.4,2.5-0.5c3.8-0.5,8.1,1,11.4,3.9c0.4,0.4,0.8,0.7,1.2,1.1c0.4,0.4,0.7,0.8,1.1,1.2l0.6,0.6
								c0.2,0.2,0.3,0.4,0.5,0.7l1,1.3c1.2,1.9,2.2,3.8,3.1,5.8c0.1,0.3,0.4,0.7,0.7,1.1c0.3,0.4,0.8,0.9,1.1,1.5
								c-0.6-2.8-1.6-5.7-3.2-8.2c0.5,1.1,0.7,2.3,0.8,3.4c-0.3-0.6-0.6-1.2-0.8-1.7c-0.3-0.6-0.5-1.1-0.8-1.7
								c-0.2-0.6-0.6-1.1-0.9-1.7c-0.4-0.5-0.7-1.1-1.3-1.5c0.6,0.4,1.1,1,1.6,1.5c0.2,0.3,0.5,0.5,0.7,0.8l0.6,0.9
								c-0.2-0.4-0.4-0.8-0.6-1.2c-0.3-0.4-0.5-0.8-0.8-1.2c-0.5-0.8-1.2-1.5-1.8-2.3c0.8,0.5,1.5,1.1,2,1.9c0.5,0.7,1,1.5,1.4,2.3
								c0.2,0.4,0.4,0.8,0.6,1.2c0.2,0.4,0.4,0.8,0.6,1.2c0.2,0.4,0.5,0.8,0.7,1.2c0.2,0.4,0.5,0.8,0.8,1.2
								c-0.3-0.7-0.6-1.5-0.9-2.2c0.4,0.7,0.7,1.5,0.9,2.3l0,0l0.4,0.8l0.3,0.9c0.2,0.6,0.5,1.1,0.7,1.7c0.4,1.1,0.9,2.3,1.2,3.4
								c-0.2-2.2-0.6-4.2-1-6.3c-0.6-2-1.2-4.1-2.5-5.9c-0.5-0.6-0.8-1.2-1.4-1.7c0.6,0.5,0.9,1.1,1.4,1.7c0.8,1,1.3,2.1,2,3.3
								c0.5,1.2,1,2.3,1.3,3.6c0.8,2.4,1,5,1,7.5c0,2.5-0.5,5-1.2,7.3c-0.7,2.4-1.8,4.6-3.1,6.6c-0.1,0.3-0.3,0.5-0.4,0.8
								c0.4-0.1,0.8-0.2,1.2-0.2C317.7,76.3,319,67.1,316.4,58.8z"/>
						</g>
					</g>
				</g>
			</g>
		</g>
	</g>
	<g>
		<g>
			<g>
				<g>
					<g opacity="0.8">
						<g opacity="0.8">
							<path fill="#C6E3F3" d="M344.7,103.2c-0.8-2-1.9-3.9-3.1-5.8l-1-1.3c-0.2-0.2-0.3-0.5-0.5-0.7l-0.6-0.6
								c-0.4-0.4-0.7-0.8-1.1-1.2c-0.4-0.4-0.8-0.7-1.2-1.1c-3.3-2.9-7.7-4.5-11.4-3.9c-0.8,0.1-1.7,0.3-2.5,0.5l1.2,0.3
								c4.5,1,8.6,3.3,12,6.4c1.6,1.6,3,3.4,4.2,5.3c1.2,1.9,2,4,2.6,6.1c0.9,2.6,1.6,5.5,1.5,8.5c-0.1,3-0.9,6.2-2.9,8.9
								c-0.4,0.6,0.3,1.2,0.6,1.5c0.8-0.2,1.7-0.4,2.6-0.6c2.7-5.5,3.2-11.7,2.2-17.6c-0.2-1-0.7-1.9-1.3-2.7
								C345.4,104.4,344.9,103.7,344.7,103.2z"/>
							<path fill="#ADD6EE" d="M344.9,125.6l0.2,0c0.1-0.3,0.3-0.5,0.4-0.8C345.3,125,345.1,125.3,344.9,125.6z"/>
							<path fill="#BEDFF2" d="M347.5,111.4c-0.1-0.5-0.1-1-0.2-1.4c-0.1-0.5-0.2-0.9-0.2-1.4c-0.1-0.9-0.4-1.8-0.5-2.8
								c-0.3-0.6-0.8-1-1.1-1.5c-0.4-0.4-0.6-0.8-0.7-1.1c-0.8-2-1.9-3.9-3.1-5.8l-1-1.3c-0.2-0.2-0.3-0.5-0.5-0.7l-0.6-0.6
								c-0.4-0.4-0.7-0.8-1.1-1.2c-0.4-0.4-0.8-0.7-1.2-1.1c-3.3-2.9-7.7-4.5-11.4-3.9c-0.8,0.1-1.7,0.3-2.5,0.5l1.3,0.3
								c3.1,0.8,6.1,2,8.7,3.8c0.2,0.1,0.3,0.1,0.5,0.2c0.9,0.2,1.6,0.7,2.2,1.4l0.9,1c0.2,0.4,0.5,0.7,0.8,1
								c1.8,1.6,3.2,3.4,4.1,5.4c0.9,2,1.6,4.1,2.2,6.5c0.1,0.9,0.6,1.7,0.9,2.7c0.1,0.5,0.3,1,0.4,1.5c0,0.5,0.1,1,0,1.6
								c0,0.7-0.3,1.4-0.4,2.1c-0.2,2.8-1.1,5.8-2.9,8.3c-0.4,0.6,0.3,1.2,0.6,1.5c0.4-0.1,0.9-0.2,1.3-0.3c0.4-0.6,0.9-1.1,1.2-1.7
								l1-1.8c0.3-0.6,0.5-1.3,0.8-1.9c0.3-0.6,0.4-1.3,0.7-2c0.4-2.4,0.5-4.9,0.3-7.3C347.6,111.1,347.6,111.2,347.5,111.4z"/>
							<path fill="#ADD6EE" d="M348.9,111.1c0-0.4-0.7-0.8-1.1-0.1c0.2,2.4,0.1,4.9-0.3,7.3l0.3-0.9l0.2-0.9
								c0.1-0.6,0.3-1.2,0.4-1.8C348.5,113.6,348.7,112.4,348.9,111.1z"/>
							<path fill="#D9ECF7" d="M352,111.5c0.2-2.8-0.4-5.5-1.3-7.9c-0.2-0.6-0.4-1.2-0.7-1.8c-0.2-0.6-0.5-1.1-0.7-1.7
								c-0.4-1.1-1-2.2-1.3-3.3c-0.4-1.1-0.9-2.3-1.3-3.4c-0.5-1.1-0.9-2.3-1.4-3.4c-0.6-0.6-1.2-1.1-1.8-1.7
								c-3.8-3.2-8.4-5.5-13.2-6.6c-4.8-1.2-9.8-1.1-14.6-0.1c-1.2,0.2-2.4,0.6-3.5,1c-1.2,0.4-2.3,0.9-3.4,1.4
								c-2.2,1.1-4.3,2.3-6.2,3.9c-3.8,3.1-7,6.9-9.2,11.4c-2.1,4.5-2.6,9.5-1.9,14.2c0.7,4.7,2.7,9,5.5,12.9
								c1.5,2.3,2.9,4.5,4.5,6.4c1.5,2,3.4,3.9,5.7,5.6c2.9,2.2,6.3,3.4,9.7,3.9c3.4,0.5,6.9,0.2,10-0.8c3.2-1,6.1-2.5,8.7-4.4
								c2.6-1.9,4.9-4.2,6.9-6.9c1-1.4,0.8-2.8,0.3-3.7c-0.5-0.9-1.3-1.4-1.6-1c-1.3,2-2.8,3.8-4.6,5.3c-1.8,1.5-3.9,2.6-6.1,3.5
								c-2.2,0.8-4.5,1.3-6.9,1.5c-2.3,0.1-4.7-0.1-7-0.6c-2.3-0.6-4.4-1.5-6.4-2.6c-2-1.2-3.8-2.6-5.5-4.4c-1.6-1.7-3-3.6-4.1-5.7
								c-1.1-2.1-1.9-4.4-2.5-6.7c-0.8-3.7-0.6-7.5,0.4-11.1c1-3.6,2.9-6.8,5.5-9.4c5-5.2,12.5-7.4,19-6.3c0.8-0.2,1.6-0.4,2.5-0.5
								c3.8-0.5,8.1,1,11.4,3.9c0.4,0.4,0.8,0.7,1.2,1.1c0.4,0.4,0.7,0.8,1.1,1.2l0.6,0.6c0.2,0.2,0.3,0.4,0.5,0.7l1,1.3
								c1.2,1.9,2.2,3.8,3.1,5.8c0.2,0.5,0.7,1.2,1.4,1.9c0.6,0.8,1.1,1.7,1.3,2.7c1,5.9,0.5,12-2.2,17.6c0.9-0.2,1.7-0.4,2.6-0.6
								c0.8-0.2,1.7-0.5,2.4-1C351.3,119.7,351.7,115.5,352,111.5z"/>
							<path fill="#A7D3ED" d="M352,111.5c-0.4,4-0.7,8.2-1.9,12.3c0.7-0.5,1.4-1.1,1.9-1.9c1.3-2.4,2.3-5.2,2.6-8.1l0.1-1.1
								c0-0.4,0-0.7,0-1.1c0-0.7,0-1.5,0-2.2c-0.2-1.5-0.3-3-0.7-4.4c-0.3-1.5-0.8-2.9-1.3-4.3c-0.3-0.7-0.6-1.4-0.9-2l-0.5-1
								l-0.6-1c-1.5-2.6-3.4-4.8-5.3-6.8c0.5,1.1,0.9,2.3,1.4,3.4c0.4,1.2,0.9,2.3,1.3,3.4c0.4,1.1,0.9,2.2,1.3,3.3
								c0.2,0.6,0.5,1.1,0.7,1.7c0.2,0.6,0.4,1.2,0.7,1.8C351.6,106,352.3,108.7,352,111.5z"/>
							<path fill="#BEDFF2" d="M352,111.5c-0.4,3.8-0.7,7.8-1.8,11.7c0.3-0.6,0.7-1.2,1-1.8c0.3-0.6,0.5-1.3,0.7-2
								c1-3.5,1.3-7.1,1-10.7c-0.3-3.6-1.1-7.2-2.2-10.7c3.4,7.1,4,15.5,1.8,23.1c0.6-1.2,1.1-2.5,1.5-3.8c0.4-1.3,0.6-2.7,0.7-4.2
								c0.2-2.8,0-5.8-0.8-8.6l-0.3-1.1l-0.4-1c-0.2-0.7-0.5-1.4-0.8-2c-0.6-1.3-1.2-2.6-2-3.8c-1.4-2.5-3.3-4.6-5.2-6.6
								c0.5,1.1,0.9,2.3,1.4,3.4c0.4,1.2,0.9,2.3,1.3,3.4c0.4,1.1,0.9,2.2,1.3,3.3c0.2,0.6,0.5,1.1,0.7,1.7c0.2,0.6,0.4,1.2,0.7,1.8
								C351.6,106,352.3,108.7,352,111.5z"/>
							<path fill="#A1D0EC" d="M349.4,100.7c1.3,3.9,1.9,8,1.7,12.1c-0.2,4.1-1.1,8.1-2.7,12c0.5-0.2,0.9-0.3,1.4-0.6
								c0.2-0.3,0.4-0.6,0.6-0.9c1.1-4,1.4-7.9,1.8-11.7c0.2-2.8-0.4-5.5-1.3-7.9c-0.2-0.6-0.4-1.2-0.7-1.8
								c-0.2-0.6-0.5-1.1-0.7-1.7c-0.4-1.1-1-2.2-1.3-3.3c-0.4-1.1-0.9-2.2-1.3-3.4c-0.5-1.1-0.9-2.3-1.4-3.4
								c-0.6-0.5-1.1-1.1-1.7-1.6c-3.9-3.3-8.6-5.6-13.5-6.8c-4.9-1.2-10-1.1-14.9,0.1c-1,0.3-2,0.9-3,1.3c-1,0.4-2,1-3,1.5
								c-0.9,0.6-1.9,1.1-2.8,1.7l-1.4,1c-0.5,0.3-0.9,0.6-1.3,1c-3.5,2.8-6.6,6.2-9,10.1c1.9-3.8,4.5-7.3,7.7-10.2
								c-3.7,3-6.8,6.8-9,11.1c-1.8,3.8-2.5,8-2.2,12c0.9,0.8,1.5,2.1,2,4.1c0.7,3.2,1.6,6.4,3.7,9c0.2,0.4-0.5,0.6,0,1.4
								c-0.3-0.6-0.6-1.1-0.9-1.6c-0.3-0.5-0.6-1-0.9-1.5c-0.6-0.9-1.1-1.8-1.8-2.6c0.5,1.1,1,2.2,1.6,3.2c0.3,0.5,0.6,1,0.9,1.5
								c0.3,0.5,0.7,1,1,1.5c2.4,3.7,4.4,6.8,7.4,9.8c0.4,0.3,0.8,0.5,1.1,0.7c1,0.6,2,1.1,3.1,1.4c0.5,0.2,1.1,0.4,1.6,0.5
								c0.6,0.1,1.1,0.2,1.7,0.3c-0.8-0.3-1.7-0.7-2.5-1.2c0.4,0.1,0.7,0.2,1.1,0.3c0.4,0.1,0.8,0.2,1.2,0.4
								c0.8,0.3,1.5,0.6,2.1,0.8c-0.7,0-1.3-0.2-1.9-0.3c0.5,0.2,1,0.4,1.5,0.6c0.5,0.2,1,0.3,1.5,0.5c1,0.4,2.1,0.5,3.2,0.8
								c-2.7-0.5-5.5-1-7.9-1.6c0.6,0.2,1.2,0.5,1.8,0.7l0.9,0.3l0.9,0.2c0.6,0.2,1.2,0.3,1.8,0.5c0.6,0.1,1.2,0.2,1.8,0.3
								c1.2,0.3,2.5,0.3,3.7,0.5c0.6,0.1,1.3,0.1,1.9,0.1c0.6,0,1.3,0.1,1.9,0.1c-0.1,0.1-0.3,0.1-0.4,0.2c3.7-0.7,7.1-2.2,10.1-4.3
								c3-2,5.6-4.6,7.8-7.5c2.1-2.9-0.8-5.3-1.2-4.8c-1.7,2.8-4.1,5.2-6.9,6.9c-2.8,1.7-6,2.8-9.2,3.2c-6.5,0.8-13.2-1.4-18.1-5.6
								c0.4,0.6,0.8,1.4,1.3,1.9c0.5,0.6,1,1.3,1.6,1.8c0.6,0.4,1.1,0.9,1.5,1.4c-0.5-0.5-1-0.9-1.5-1.4c-0.7-0.6-1.5-1.2-2.3-1.8
								c-0.7-0.7-1.5-1.3-2.1-2.2c-0.1-0.4-0.9-1.3-1.7-1.1c-0.3-0.6-0.7-1.2-1.2-1.8c-0.4-0.6-0.8-1.2-1.2-1.8
								c-0.4-0.6-0.7-1.3-1.1-1.9c-0.3-0.6-0.5-1.3-0.7-2c-0.1-0.1,0-0.5,0.1-0.8c-0.3-0.8-0.6-1.6-0.9-2.3
								c-0.2-0.8-0.4-1.6-0.7-2.4c-0.4-2.3-0.6-4.7-0.4-7c0.3-2.3,0.8-4.6,1.8-6.7c1-2.1,2.1-4.1,3.7-5.8c0.7-0.9,1.6-1.6,2.4-2.4
								c0.4-0.3,0.9-0.7,1.3-1l0.7-0.5l0.7-0.4l-0.8,0.3c-0.2,0.1-0.5,0.2-0.7,0.4c-0.5,0.2-1,0.5-1.5,0.7c-0.9,0.6-1.9,1.1-2.8,1.6
								c-0.6,0.4-1.3,1-1.9,1.8c-0.6,0.8-1.3,1.8-1.7,2.9c-1.1,2.2-1.6,4.9-2,7.3c0,0.6-0.2,1.1-0.5,1.5c-0.2,0.5-0.4,0.9-0.5,1.6
								c-0.2-0.6-0.3-1.2-0.4-1.8c0-0.6,0-1.2,0-1.9c0-0.6,0.2-1.3,0.3-1.9c0.2-0.6,0.3-1.3,0.6-1.9c0.9-2.5,2.6-4.8,3.9-6.9
								c1.9-2.9,5.3-5.5,9-7.2c3.7-1.8,7.7-2.7,11.4-3.5c0.8-0.2,1.5-0.2,2.3-0.2c0.7,0.1,1.5,0.2,2.1,0.4c0.7,0.2,1.3,0.5,1.9,0.8
								c0.6,0.3,1.2,0.6,1.7,1c-0.9,0.1-2.5-0.2-3.3-0.4c-7.1-1.3-15,0.7-20.4,5.8c3.2-2.1,6.6-3.8,10.1-4.6
								c3.5-0.9,7.3-0.8,10.7,0.3l-0.8-0.1l-0.8-0.1c-0.5-0.1-1-0.1-1.6-0.2c-0.5,0-1-0.1-1.6-0.1l-0.8-0.1l-0.8,0
								c-0.5,0-1,0.1-1.5,0.1c-0.5,0.1-1,0.2-1.5,0.3c-1,0.2-1.9,0.7-2.8,1.2c0.4,0.1,0.7,0.1,1.1,0.1c2.7-0.6,5.4-0.6,7.9-0.2
								c0.8-0.2,1.6-0.4,2.5-0.5c3.8-0.5,8.1,1,11.4,3.9c0.4,0.4,0.8,0.7,1.2,1.1c0.4,0.4,0.7,0.8,1.1,1.2l0.6,0.6
								c0.2,0.2,0.3,0.4,0.5,0.7l1,1.3c1.2,1.9,2.2,3.8,3.1,5.8c0.1,0.3,0.4,0.7,0.7,1.1c0.3,0.4,0.8,0.9,1.1,1.5
								c-0.6-2.8-1.6-5.7-3.2-8.2c0.5,1.1,0.7,2.3,0.8,3.4c-0.3-0.6-0.6-1.2-0.8-1.7c-0.3-0.6-0.5-1.1-0.8-1.7
								c-0.2-0.6-0.6-1.1-0.9-1.7c-0.4-0.5-0.7-1.1-1.3-1.5c0.6,0.4,1.1,1,1.6,1.5c0.2,0.3,0.5,0.5,0.7,0.8l0.6,0.9
								c-0.2-0.4-0.4-0.8-0.6-1.2c-0.3-0.4-0.5-0.8-0.8-1.2c-0.5-0.8-1.2-1.5-1.8-2.3c0.8,0.5,1.5,1.1,2,1.9c0.5,0.7,1,1.5,1.4,2.3
								c0.2,0.4,0.4,0.8,0.6,1.2c0.2,0.4,0.4,0.8,0.6,1.2c0.2,0.4,0.5,0.8,0.7,1.2c0.2,0.4,0.5,0.8,0.8,1.2
								c-0.3-0.7-0.6-1.5-0.9-2.2c0.4,0.7,0.7,1.5,0.9,2.3l0,0l0.4,0.8l0.3,0.9c0.2,0.6,0.5,1.1,0.7,1.7c0.4,1.1,0.9,2.3,1.2,3.4
								c-0.2-2.2-0.6-4.2-1-6.3c-0.6-2-1.2-4.1-2.5-5.9c-0.5-0.6-0.8-1.2-1.4-1.7c0.6,0.5,0.9,1.1,1.4,1.7c0.8,1,1.3,2.1,2,3.3
								c0.5,1.2,1,2.3,1.3,3.6c0.8,2.4,1,5,1,7.5c0,2.5-0.5,5-1.2,7.3c-0.7,2.4-1.8,4.6-3.1,6.6c-0.1,0.3-0.3,0.5-0.4,0.8
								c0.4-0.1,0.8-0.2,1.2-0.2C350.6,118.2,352,109,349.4,100.7z"/>
						</g>
					</g>
				</g>
			</g>
		</g>
	</g>
	<g>
		<g>
			<g>
				<g>
					<g opacity="0.8">
						<g opacity="0.8">
							<path fill="#C6E3F3" d="M243.6,135.9c0,0,0,0.1,0,0.1c0,0,0,0,0,0c-0.1,0-0.4,0-0.6,0l-0.2,0l0,0l0.8,0l0,0l0,0l0,0l0,0l0,0
								L243.6,135.9L243.6,135.9l-5.9,1.2c-0.6-1.5-0.9-3.2-0.8-5c0.1-0.9,0.2-1.7,0.5-2.6l0.2-0.6l0.1-0.3l0.1-0.1l0,0
								c0.1-0.1,0.1-0.3,0.2-0.4c0.4-0.6,1-1.2,1.7-1.7c-0.7-0.1-1.4-0.3-2.1-0.8l-0.2-0.2l-0.1-0.1c0,0-0.1,0-0.2-0.1
								c-0.3-0.3-0.6-0.6-0.9-0.9c-0.6-0.6-1.1-1.3-1.5-1.9c-0.4-0.7-0.8-1.4-1.1-2.1c-0.1-0.4-0.3-0.7-0.4-1.1
								c-0.1-0.4-0.2-0.7-0.4-1.2l-3.4-13.6l7.6,11.6c0.1,0.1,0.4,0.4,0.7,0.6c0.4,0.2,0.8,0.4,1.2,0.6c0.4,0.2,0.9,0.3,1.3,0.3
								c0.4,0.1,0.9,0.1,1,0c0,0,0,0,0,0l0,0c0,0,0,0,0,0.1c0.1,0.2,0.1,0.4,0.1,0.6c0.1,0.4,0.2,0.7,0.4,0.8
								c0.1,0.1,0.2,0.2,0.1,0.2c0,0-0.1,0-0.2,0.1c-0.1,0-0.1-0.1-0.2-0.1l-0.1,0l0,0l0,0c-2.9,0.7-0.8,0.2-1.4,0.4l0,0l0,0
								c-0.1-0.6-0.3-1.3-0.4-1.9c-0.2-1.3-0.5-2.5-0.6-3.8c0-0.4-0.1-0.8-0.1-1.2l0-1.2c0-0.8,0-1.6,0.1-2.4
								c-0.3,0.8-0.5,1.5-0.6,2.3l-0.3,1.2l-0.1,1.2l-0.1,1.2l0,1.2l0,1.2l0.1,1.2l0.1,1.2l0,0.1l0,0l0,0c-0.8,0.2,6.6-1.4,3.5-0.7
								l0,0l0,0l0.2,0.1c0.1,0.1,0.1,0,0.1,0c0,0,0.1,0,0.1,0c0.1,0-0.1,0-0.2-0.2c-0.3-0.4-0.6-1.5-0.6-2.7c0-0.3,0-0.6,0-0.9
								c0-0.2,0-0.2,0-0.2l0,0c0,0-0.1,0-0.1,0c-0.2-0.1-0.6-0.2-0.9-0.4c-0.3-0.2-0.7-0.3-0.9-0.5c-0.1-0.1-0.2-0.1-0.2-0.2
								c0,0,0,0,0,0l-0.2,0.2c-0.1,0.2-0.3,0.3-0.4,0.5c-0.1,0.1-0.3,0.3-0.4,0.4c-0.1,0.1-0.3,0.2-0.4,0.3l-7.6,3l0.1,0.5l0.1,0.4
								c0.1,0.2,0.1,0.5,0.2,0.7c0.1,0.5,0.3,0.9,0.5,1.3c0.4,0.8,0.8,1.7,1.3,2.5c0.5,0.8,1.1,1.6,1.8,2.3c0.4,0.4,0.7,0.7,1.1,1.1
								c0.1,0.1,0.1,0.1,0.1,0.1l0,0l0,0c0,0,0,0.1-0.1,0.1c0,0,0,0,0,0l0,0l-0.4,1.2c-0.3,1-0.5,2.1-0.5,3.1c-0.1,2.1,0.3,4.2,1,6
								l10.8-2.1l0,0.2l0,0l0,0c-1.5,0,3.3,0.1-3.4-0.1l0,0l0,0l0.2,0c0.2,0,0.5,0,0.7,0l0.8,0.1l0.4,0.1l0.2,0l0.2,0l0.1,0l0,0
								c0,0,0.1,0.1,0.1,0.1c0.2,0.1,0.4,0.4,0.3,0.3c0,0,0.1,0,0.1-0.1c0.1,0,0.1-0.1,0.2-0.1c0.5-0.4,1.9-0.7,3.3-0.8l-3-8.7
								c-0.5,0.5-0.7,0.8-1,1.2c-0.3,0.3-0.5,0.7-0.7,1.1c-0.5,0.7-0.8,1.5-1.2,2.4c-0.7,1.7-1,3.8-0.6,5.7c0.3,2,1.2,3.7,2.3,5
								c0.5,0.7,1.1,1.2,1.7,1.8c0.6,0.5,1.2,0.9,1.8,1.4l5.5-4.8c0.1,0.1,0,0-0.1-0.1c0-0.1-0.1-0.2-0.1-0.3
								c-0.1-0.2-0.1-0.3-0.2-0.5c-0.1-0.3,0-0.4,0-0.5c0-0.1,0.2-0.3,0.5-0.5l0.7-0.3l0.9-0.3c0.9-0.2,0.9-1.1,0.8-1.5
								c-0.5-0.2-1-0.4-1.5-0.6c-0.5-0.2-1-0.3-1.5-0.5l-0.9,0.5c-0.3,0.2-0.5,0.4-0.8,0.6c-0.4,0.5-0.8,1-1,1.7
								c-0.3,1.2,0.1,2.6,0.8,3.6l2.8,4.3l-4.1-3.2l-1.5-1.1c-0.4-0.5-0.9-0.9-1.3-1.4c-0.8-1-1.5-2.3-1.7-3.6
								c-0.3-1.4-0.1-2.9,0.5-4.2c0.3-0.6,0.6-1.3,1-1.8c0.4-0.6,0.8-1.1,1.4-1.6l0.9,2.8c-0.5,0-1,0-1.5,0c-0.5,0-1,0.1-1.5,0.1
								c-1.3,0.1-2.4,0.9-2.8,1.7C243.5,135,243.7,135.6,243.6,135.9z"/>
							<path fill="#ADD6EE" d="M254.1,135.8l-0.2-0.1c-0.4,0.2-0.7,0.4-1.1,0.6C253.2,136.2,253.6,135.9,254.1,135.8z"/>
							<path fill="#BEDFF2" d="M247.1,131.3c0.2-0.3,0.4-0.7,0.7-1c0.2-0.3,0.5-0.6,0.8-1l1.2,3.3c-2,0-3.9,0.2-5.3,0.9
								c-0.5,0.5-0.7,1-0.7,1.5c-0.1,0.4,0,0.7-0.1,0.9c0,0,0,0.1,0,0.1c0,0,0,0,0,0c-0.1,0-0.4,0-0.6,0l-0.2,0l0,0l0.8,0l0,0l0,0
								l0,0l0,0l0,0l0,0l0-0.1l-5.9,1.1c-0.6-1.5-0.9-3.2-0.8-5c0.1-0.9,0.2-1.7,0.5-2.6l0.2-0.6l0.1-0.3l0.1-0.1l0,0
								c0.1-0.1,0.1-0.3,0.2-0.4c0.4-0.6,1-1.2,1.7-1.7c-0.7-0.1-1.4-0.3-2.1-0.8l-0.2-0.2l-0.1-0.1c0,0-0.1,0-0.2-0.1
								c-0.3-0.3-0.6-0.6-0.9-0.9c-0.6-0.6-1.1-1.3-1.5-1.9c-0.4-0.7-0.8-1.4-1.1-2.1c-0.1-0.4-0.3-0.7-0.4-1.1
								c-0.1-0.4-0.2-0.7-0.4-1.2l-3.4-13.6l7.6,11.6c0.1,0.1,0.4,0.4,0.7,0.6c0.4,0.2,0.8,0.4,1.2,0.6c0.4,0.2,0.9,0.3,1.3,0.3
								c0.4,0.1,0.9,0.1,1,0c0,0,0,0,0,0l0,0c0,0,0,0,0,0.1c0.1,0.2,0.1,0.4,0.1,0.6c0.1,0.4,0.2,0.7,0.4,0.8
								c0.1,0.1,0.2,0.2,0.1,0.2c0,0-0.1,0-0.2,0.1c-0.1,0-0.1-0.1-0.2-0.1l-0.1,0l0,0l0,0c-2.9,0.7-0.8,0.2-1.4,0.4l0,0l0,0
								c-0.1-0.6-0.3-1.3-0.4-1.9c-0.2-1.3-0.5-2.5-0.6-3.8l-0.1-1.1l0-1.2c0-0.8,0-1.6,0.1-2.4l-0.4,1.2l-0.3,1.3
								c-0.2,0.8-0.3,1.5-0.4,2.3c-0.1,0.8-0.1,1.6-0.1,2.4c0,0.8,0,1.6,0.1,2.4l0,0.6l0,0.3l0,0.1l0,0.1l0,0l0,0
								c1.5-0.3-3.5,0.7,3.5-0.7l0,0l0,0c0.1,0.1,0.3,0.2,0.4,0.1c0.1,0,0.1,0,0.1,0c0,0-0.2-0.1-0.3-0.4c-0.3-0.6-0.5-1.7-0.6-2.9
								l0-0.7c0,0,0,0,0,0l-0.1,0c-0.2-0.1-0.6-0.2-0.9-0.4c-0.3-0.2-0.7-0.3-0.8-0.5c-0.1-0.1-0.2-0.1-0.2-0.2l0,0l0,0l-0.1,0.1
								l-0.2,0.2c-0.1,0.2-0.3,0.3-0.4,0.5c-0.3,0.3-0.6,0.5-0.9,0.7l-7.6,3c0,0.2,0.1,0.4,0.1,0.6c0.2,0.4,0.4,0.8,0.6,1.2
								c0.8,1.4,1.6,2.7,2.5,4c0.5,0.7,1,1.3,1.5,1.9l0.8,0.8c0,0,0,0.1,0,0.1c0,0.1,0,0.1,0,0.2c0.1,0,0.2,0,0.3,0
								c0,0-0.1,0.1-0.1,0.2l0,0.1l-0.4,1.2c-0.3,1-0.5,2-0.5,3c-0.1,2.1,0.2,4.1,0.9,5.9l10.1-2l0,0.1l0,0.1l0,0l0,0l0,0
								c0.6,0-5.7-0.1-3-0.1l0.5,0l0.5,0l0.4,0c0.2,0,0.5,0,0.7,0.1c0.1,0,0.2,0,0.3,0l0.2,0c0.1,0,0.1,0,0.1,0c0,0,0.3,0.3,0.2,0.2
								c0-0.1,0.6-0.4,1.6-0.6c0.3,0,0.7-0.1,1-0.2c0.4-0.1,0.8-0.1,1.2-0.2l-2.8-8.1c-0.5,0.5-0.6,0.7-0.9,1.1
								c-0.2,0.3-0.4,0.6-0.6,1c-0.4,0.7-0.7,1.4-1,2.2c-0.6,1.5-1,3.3-0.9,5.3c0,1,0.3,1.9,0.5,2.9c0.3,0.8,0.7,1.7,1.1,2.4
								c0.6,0.8,1.2,1.4,1.8,2c0.6,0.6,1.3,1.1,2,1.6l5.5-4.8c0.1,0.1,0,0-0.1-0.1c0-0.1-0.1-0.2-0.1-0.3c-0.1-0.2-0.1-0.4-0.2-0.5
								c-0.1-0.3-0.1-0.4,0-0.5c0-0.1,0.2-0.3,0.5-0.5c0.2-0.1,0.4-0.2,0.7-0.3c0.3-0.1,0.6-0.2,0.9-0.3c0.9-0.2,0.9-1.1,0.9-1.5
								c-0.5-0.2-1-0.4-1.5-0.6c-1.5,0.3-2.9,1-3.6,2.1c-0.3,0.5-0.4,1.2-0.4,1.9c0,0.7,0.3,1.5,0.6,2l2.8,5.2l-4.3-3.9
								c-0.5-0.4-1-0.9-1.4-1.3c-1.4-1.3-2.7-3-3-5.2c-0.3-2.2,0.5-4.4,1.7-6C247.5,131,247.3,131.1,247.1,131.3z"/>
							<path fill="#ADD6EE" d="M248.4,131.8c0.3-0.4,0.3-1.4-0.8-0.9c-1.2,1.7-2,3.9-1.7,6c0.3,2.2,1.6,4,3,5.2
								c-1.3-1.3-2.4-3.1-2.5-5.1c-0.1-1,0.1-2,0.4-2.9C247.3,133.3,247.8,132.5,248.4,131.8z"/>
							<path fill="#D9ECF7" d="M250.8,134c0.2-0.2,0.3-0.4,0.5-0.6c0.1-0.1,0.2-0.2,0.3-0.3l0.1-0.1c0,0,0.1-0.1,0.1-0.1l-1.7-5
								c-2.3-0.2-4.8,0-7.3,1.2c-1.2,0.6-2.4,1.5-3.3,2.7c-0.4,0.6-0.7,1.3-1,1.9c-0.1,0.3-0.2,0.7-0.3,1.1c0,0.2-0.1,0.4-0.1,0.6
								c0,0.1,0,0.2,0,0.3c0,0.1,0,0.2,0,0.4l4.9-1c-0.5-1.3-0.5-2.7,0-3.7c0.1-0.2,0.3-0.5,0.4-0.7c0.1-0.2,0.4-0.5,0.5-0.7
								c0.2-0.3,0.4-0.5,0.7-0.8c0.1-2.5,0.5-3.8,0.8-4.5c-0.1-0.1-0.1-0.2-0.2-0.4c0-0.1,0-0.1-0.1-0.2l-0.1-0.3l-0.3-0.5
								c-0.1-0.2-0.2-0.5-0.3-0.8c-0.2-0.4-0.5-1.3-0.8-2l-0.2-0.4l-0.9-0.3l-0.5-0.2c-0.2-0.1-0.4-0.1-0.3-0.1l-0.4-0.3
								c-0.2-0.2-0.5-0.5-0.7-0.8c-0.2-0.3-0.4-0.7-0.6-1c-0.1-0.2-0.2-0.4-0.3-0.6c0-0.1-0.1-0.2-0.1-0.3l0-0.1c0,0,0-0.1,0,0
								l-8,3.6c1,1.3,1.9,1.9,2.8,2.4c0.9,0.5,1.7,0.9,2.6,1.2c0.9,0.3,1.7,0.5,2.7,0.7c0.5,0.1,1,0.1,1.7,0.1c0.7,0,1.4,0,2.7-0.6
								c0.3-0.1,0.7-0.4,1-0.6c0.4-0.3,0.8-0.7,1.1-1.2c0.3-0.5,0.6-1.1,0.7-1.7c0.1-0.4,0.1-0.7,0.1-1.1l0-0.3l0-0.1l0-0.1
								l-0.1-0.6l0-0.2l-0.1-0.4c-0.1-0.5-0.2-1.1-0.2-1.6c0-0.5-0.1-1.1,0-1.6c0-0.5,0-1,0.1-1.6c0.5-4.1,2.7-7.9,6.2-10.6
								c6.9-5.5,17.7-6.8,25.3-3.1c4.2,1.9,8,5,10.7,9c2.8,3.9,4.5,9,4.3,14.5c-0.3,3.2-1.5,6-3.2,8.3c-1.7,2.2-3.9,4.5-6.3,6.4
								c-1.5,1.1-3,2.2-4.4,2.8c-1.4,0.7-2.8,1.1-4.1,1.2c-1.4,0.1-2.8,0-4.3-0.4c-0.4-0.1-0.8-0.2-1.1-0.4l-1.2-0.5l-1.2-0.6
								l-0.3-0.1c-0.1,0-0.1-0.1-0.2-0.1c-0.1-0.1-0.2-0.1-0.4-0.2c-0.8-0.5-1.5-1.4-1.5-2.8c-0.1-1.3,0.5-2.8,1.7-3.9
								c0.6-0.5,1.3-0.9,2.1-1.1c0.8-0.2,1.7-0.3,2.7-0.1c1.8,0.3,3.8,1.3,4.9,2.9c0.6,0.8,0.9,1.8,0.8,2.4c0,0.6,0,1.1,0.3,1.5
								c0.4,0.4,0.9,0.7,1.2,0.8c0.2,0.1,0.3,0.1,0.5,0c0.1,0,0.2,0,0.3-0.2c0.2-0.3,0.4-0.6,0.5-0.8c0.1-0.3,0.3-0.6,0.4-1
								c0-0.4,0.2-0.7,0.2-1.1c0-0.4,0-0.7,0-1.1c-0.1-0.4-0.1-0.7-0.3-1.1c-0.1-0.4-0.3-0.8-0.5-1.1c-0.2-0.3-0.4-0.7-0.6-0.9
								l-0.6-0.8c-1.8-1.9-3.9-3.1-6.3-3.6c-0.6-0.2-1.2-0.2-1.8-0.3c-0.6,0-1.2-0.1-1.9,0.1c-0.6,0.1-1.3,0.2-1.9,0.4
								c-0.6,0.2-1.2,0.5-1.8,0.8c-2.3,1.2-3.9,3.4-4.7,5.7c-0.7,2.3-0.7,5.1,0.6,7.4l0.5,0.8c0.2,0.3,0.4,0.5,0.6,0.8
								c0.4,0.5,0.9,0.9,1.4,1.3c0.3,0.2,0.5,0.4,0.7,0.5l0.6,0.4c0.4,0.3,0.8,0.6,1.3,0.8c1.7,1,3.7,1.8,5.8,2.3
								c1,0.2,2.1,0.3,3.2,0.4l1.6-0.1c0.5,0,1.1-0.2,1.6-0.3c2.1-0.5,4.1-1.3,5.9-2.4c0.5-0.3,0.9-0.6,1.3-0.9
								c0.4-0.3,0.8-0.6,1.2-0.9c0.7-0.7,1.5-1.3,2.2-2l1-1c0.3-0.4,0.6-0.7,1-1.1l0.9-1.1l0.9-1.1c0.3-0.4,0.6-0.8,0.9-1.2l0.8-1.3
								c0.3-0.4,0.6-0.8,0.8-1.3l0.7-1.3c3.7-7.2,4.1-16,1-23.5c-2.4-5.8-6.5-10.8-11.6-14c-5.2-3.3-11.3-4.6-17.2-4.5
								c-5.9,0.1-11.7,1.6-16.9,4.6c-2.6,1.5-5,3.4-7.1,5.8c-2.1,2.3-3.7,5.2-4.8,8.3c-0.1,0.8-0.1,1.6-0.1,2.4l0,1.2
								c0,0.4,0.1,0.8,0.1,1.2c0.1,1.3,0.4,2.5,0.6,3.8c0.1,0.6,0.3,1.2,0.4,1.9l0,0l0,0c0.6-0.2-1.4,0.4,1.4-0.4l0,0l0,0l0.1,0
								c0.1,0,0.1,0.1,0.2,0.1c0-0.1,0.2-0.1,0.2-0.1c0.1,0-0.1,0-0.1-0.2c-0.1-0.2-0.3-0.4-0.4-0.8c-0.1-0.2-0.1-0.4-0.1-0.6
								c0-0.1,0-0.1,0-0.1l0,0c0,0,0,0,0,0c-0.1,0.1-0.6,0.1-1,0c-0.4-0.1-0.9-0.2-1.3-0.3c-0.4-0.2-0.9-0.4-1.2-0.6
								c-0.4-0.2-0.6-0.5-0.7-0.6l-7.6-11.6l3.4,13.6c0.1,0.5,0.2,0.8,0.4,1.2c0.1,0.4,0.3,0.7,0.4,1.1c0.3,0.7,0.7,1.4,1.1,2.1
								c0.4,0.7,0.9,1.3,1.5,1.9c0.3,0.3,0.6,0.6,0.9,0.9c0.1,0.1,0.1,0.1,0.2,0.1l0.1,0.1l0.2,0.2c0.7,0.5,1.4,0.8,2.1,0.8
								c-0.7,0.5-1.3,1.1-1.7,1.7c-0.1,0.1-0.1,0.3-0.2,0.4l0,0l-0.1,0.1l-0.1,0.3l-0.2,0.6c-0.2,0.8-0.4,1.7-0.5,2.6
								c-0.1,1.7,0.2,3.5,0.8,5l5.9-1.1l0,0.1l0,0l0,0l0,0l0,0l0,0l0,0l-0.8,0l0,0l0.2,0c0.2,0,0.5,0,0.6,0c0,0,0,0,0,0
								c0,0,0-0.1,0-0.1c0.1-0.3-0.1-0.9,0.3-1.7c0.4-0.8,1.5-1.6,2.8-1.7c0.5-0.1,1-0.1,1.5-0.1c0.5,0,1,0,1.5,0l-0.9-2.8
								c-0.6,0.6-1,1.1-1.4,1.6c-0.4,0.6-0.7,1.2-1,1.8c-0.5,1.3-0.7,2.8-0.5,4.2c0.3,1.4,0.9,2.6,1.7,3.6c0.4,0.5,0.9,0.9,1.3,1.4
								l1.5,1.1l4.1,3.2l-2.8-4.3c-0.7-1-1.1-2.4-0.8-3.6c0.1-0.6,0.5-1.2,1-1.7c0.3-0.2,0.5-0.4,0.8-0.6l0.9-0.5
								c-0.5-0.1-1-0.2-1.6-0.3c-0.5,0-1.1,0-1.7,0.1c-1.2,0.2-2.5,1.2-3.3,2.6c-0.2,1.2,0,2.3,0.2,3.2c0.1,0.5,0.3,0.9,0.5,1.4
								c0.1,0.2,0.2,0.4,0.3,0.6l0.2,0.3l0.2,0.4l4.4-3.9c-1.4-0.9-2.5-2-2.9-3.1C249.7,136.2,249.9,135,250.8,134z"/>
							<path fill="#A7D3ED" d="M250.8,134c-0.9,1.1-1.1,2.3-0.7,3.3c0.4,1.1,1.5,2.2,2.9,3.1l-4.4,3.9l-0.2-0.4l-0.2-0.3
								c-0.1-0.2-0.2-0.4-0.3-0.6c-0.2-0.4-0.4-0.9-0.5-1.4c-0.3-1-0.4-2.1-0.2-3.2c-0.8,1.5-1,3.3-0.6,5.2c0.1,0.2,0.1,0.5,0.2,0.8
								c0,0.1,0.1,0.2,0.1,0.4c0.1,0.1,0.1,0.2,0.2,0.5l6.8-6c-0.2-0.3-0.5-0.6-0.7-0.9c-0.1-0.3-0.3-0.6-0.5-0.8
								c-0.2-0.5-0.2-0.8-0.2-0.9c0-0.1,0.1-0.2,0.3-0.5c0.1-0.2,0.2-0.3,0.4-0.5c0.1-0.1,0.2-0.2,0.2-0.3c0-0.1,0.1-0.1,0.1-0.1
								c0,0,0,0,0,0c0,0,0,0,0,0l-0.4-0.4l0-0.1l0,0c0.2,0.2-0.5-0.6,0.5,0.5l0,0l0,0l0,0l-3.3-9.7l-1.9,0c-0.6,0-1.3,0.1-2,0.1
								c-0.7,0.1-1.4,0.2-2.1,0.4c-0.8,0.2-1.5,0.4-2.3,0.8c-1.5,0.7-3.2,1.8-4.5,3.5c-0.6,0.8-1.1,1.8-1.5,2.7
								c-0.2,0.5-0.3,1-0.4,1.5c0,0.3-0.1,0.5-0.1,0.8c0,0.1,0,0.3,0,0.5c0,0.2,0,0.3,0,0.7l10.2-2c-0.2-0.6-0.4-1.1-0.4-1.6
								c0-0.3,0-0.5,0.1-0.8l0.1-0.2l0-0.1c0,0,0,0,0-0.1l0.1-0.2l0.5-0.8c0.2-0.3,0.3-0.5,0.6-0.8c-0.8-3-1-4.2-1.1-4.9l-0.2-0.3
								l-0.1-0.2c0-0.1-0.1-0.2-0.1-0.3l0.1,0.3c0,0.1,0,0.1,0.1,0.2c0,0.1,0.1,0.2,0.2,0.4c-0.2,0.7-0.7,2-0.8,4.5
								c-0.3,0.2-0.5,0.5-0.7,0.8c-0.2,0.2-0.4,0.5-0.5,0.7c-0.1,0.2-0.3,0.5-0.4,0.7c-0.5,1-0.5,2.4,0,3.7l-4.9,1
								c0-0.2,0-0.3,0-0.4c0-0.1,0-0.2,0-0.3c0-0.2,0-0.4,0.1-0.6c0.1-0.4,0.2-0.7,0.3-1.1c0.2-0.7,0.6-1.4,1-1.9
								c0.8-1.2,2-2.1,3.3-2.7c2.5-1.2,5-1.4,7.3-1.2l1.7,5c0,0,0,0-0.1,0.1l-0.1,0.1c-0.1,0.1-0.2,0.2-0.3,0.3
								C251.1,133.6,250.9,133.8,250.8,134z"/>
							<path fill="#BEDFF2" d="M250.8,134c-0.9,1.1-1.1,2.3-0.7,3.3c0.4,1.1,1.5,2.2,2.9,3.1l-4.4,3.9c-0.3-0.5-0.4-0.7-0.6-1.1
								c-0.2-0.3-0.3-0.7-0.4-1.1c-0.2-0.8-0.4-1.6-0.4-2.5c-0.1,0.9,0,1.7,0.1,2.6c0.1,0.4,0.2,0.8,0.3,1.2
								c0.1,0.2,0.1,0.4,0.2,0.6c0,0.1,0.1,0.2,0.1,0.3c0,0.1,0.1,0.2,0.2,0.4l5.3-4.6c-0.3-0.4-0.7-0.7-1-1c-0.4-0.5-0.8-1-1-1.5
								c0-0.1-0.1-0.2-0.1-0.3c0-0.1,0-0.2-0.1-0.3c0-0.1,0-0.2,0-0.3c0-0.1,0-0.2,0-0.3c0-0.4,0.2-0.8,0.4-1.3
								c0.1-0.2,0.3-0.5,0.5-0.7c0.1-0.1,0.2-0.2,0.3-0.3c0.1-0.1,0.2-0.3,0.2-0.2l-2.3-6.7c-2.3-0.1-4.8-0.2-7.7,1
								c-1.4,0.6-2.9,1.5-4,2.9c-0.6,0.7-1.1,1.5-1.4,2.3c-0.2,0.4-0.3,0.9-0.4,1.3c-0.1,0.2-0.1,0.5-0.1,0.7c0,0.1,0,0.2-0.1,0.4
								c0,0.2,0,0.3,0,0.6l8.4-1.6c0-0.2-0.1-0.5-0.1-0.7l0-0.6c0,0.2,0.1,0.4,0.1,0.6c0.1,0.2,0.1,0.4,0.2,0.7l-8.8,1.7
								c0-0.4,0-0.4,0-0.6c0-0.2,0-0.3,0-0.4c0-0.3,0.1-0.5,0.1-0.8c0.1-0.5,0.2-0.9,0.4-1.4c0.3-0.9,0.8-1.7,1.4-2.5
								c1.2-1.5,2.7-2.5,4.2-3.1c3-1.2,5.6-1.2,7.9-1.1l2.7,7.9c0.1-0.1-0.1,0.1-0.2,0.2c-0.1,0.1-0.2,0.2-0.3,0.4
								c-0.2,0.2-0.3,0.5-0.4,0.7c-0.2,0.5-0.2,0.8-0.2,1c0,0.1,0,0.1,0.1,0.2c0,0.1,0,0.1,0.1,0.2c0.1,0.1,0.1,0.2,0.1,0.3
								c0.1,0.1,0.2,0.2,0.2,0.3c0,0.1,0.1,0.1,0.1,0.2l0.2,0.2l0.3,0.4c0.3,0.2,0.6,0.5,0.9,0.7c-0.2-0.3-0.5-0.6-0.7-0.9
								c-0.1-0.1-0.2-0.3-0.2-0.4c-0.1-0.1-0.2-0.3-0.2-0.4c-0.2-0.5-0.2-0.8-0.1-0.9c0-0.1,0.1-0.2,0.3-0.5
								c0.1-0.2,0.2-0.3,0.4-0.5c0.1-0.1,0.1-0.2,0.2-0.3c0,0,0.1-0.1,0.1-0.1c0,0,0,0,0,0c0,0,0,0,0,0l-0.4-0.4l0-0.1l0,0
								c-0.5-0.5,0.6,0.6,0.5,0.5l0,0l0,0l0,0l-3.3-9.7l-1.9,0c-0.6,0-1.3,0.1-2,0.1c-0.7,0.1-1.4,0.2-2.1,0.4
								c-0.8,0.2-1.5,0.4-2.3,0.8c-1.5,0.7-3.2,1.8-4.5,3.5c-0.6,0.8-1.1,1.8-1.5,2.7c-0.2,0.5-0.3,1-0.4,1.5c0,0.3-0.1,0.5-0.1,0.8
								c0,0.1,0,0.3,0,0.5c0,0.2,0,0.3,0,0.7l10.2-2c-0.2-0.6-0.4-1.1-0.4-1.6c0-0.3,0-0.5,0.1-0.8l0.1-0.2l0-0.1c0,0,0,0,0-0.1
								l0.1-0.2l0.5-0.8c0.2-0.3,0.3-0.5,0.6-0.8c-0.8-3-1-4.2-1-4.9l-0.2-0.3c-0.1-0.1-0.1-0.2-0.2-0.4c0.1,0.2,0.1,0.3,0.1,0.5
								c0,0.1,0.1,0.2,0.2,0.3c-0.2,0.7-0.7,2-0.8,4.5c-0.3,0.2-0.5,0.5-0.7,0.8c-0.2,0.2-0.4,0.5-0.5,0.7c-0.1,0.2-0.3,0.5-0.4,0.7
								c-0.5,1-0.5,2.4,0,3.7l-4.9,1c0-0.2,0-0.3,0-0.4c0-0.1,0-0.2,0-0.3c0-0.2,0-0.4,0.1-0.6c0.1-0.4,0.2-0.7,0.3-1.1
								c0.2-0.7,0.6-1.4,1-1.9c0.8-1.2,2-2.1,3.3-2.7c2.5-1.2,5-1.4,7.3-1.2l1.7,5c0,0,0,0-0.1,0.1l-0.1,0.1
								c-0.1,0.1-0.2,0.2-0.3,0.3C251.1,133.6,250.9,133.8,250.8,134z"/>
							<path fill="#A1D0EC" d="M242.7,135.2l0,0.1l-4.3,0.8c0-0.2,0-0.3,0-0.4c0-0.1,0-0.2,0-0.3c0-0.2,0.1-0.4,0.1-0.6
								c0.1-0.4,0.2-0.7,0.3-1c0.3-0.7,0.6-1.3,1.1-1.8c0.9-1.1,2.1-1.8,3.2-2.3c2.4-0.9,4.6-0.9,6.8-0.8l4.4,0.3l-3.3,2.9
								c-0.2,0.2-0.6,0.6-0.9,1c-0.3,0.4-0.5,0.8-0.7,1.2c-0.4,0.8-0.5,1.7-0.4,2.5c0.2,1.6,1.5,3.2,3.2,4.4l-2.8,2.4
								c-0.4-0.7-0.6-1.2-0.8-1.8c-0.2-0.6-0.3-1.3-0.4-2c-0.1-1.4,0.4-3,1.3-4.2c-0.4,0.1-0.7,0.4-1,0.6c-0.4,0.2-0.7,0.6-0.9,0.9
								c-0.2,0.4-0.3,0.7-0.4,1.1c-0.1,0.4-0.2,0.8-0.2,1.2c0,0.9,0.2,1.7,0.4,2.5c0.1,0.4,0.3,0.7,0.4,1.1c0.2,0.4,0.3,0.6,0.6,1.1
								l4.4-3.9c-1.4-0.9-2.5-2-2.9-3.1c-0.4-1.1-0.1-2.2,0.7-3.3c0.2-0.2,0.3-0.4,0.5-0.6c0.1-0.1,0.2-0.2,0.3-0.3l0.1-0.1
								c0,0,0.1-0.1,0.1-0.1l-1.7-5c-2.3-0.2-4.8,0-7.3,1.2c-1.2,0.6-2.4,1.5-3.3,2.7c-0.4,0.6-0.7,1.3-1,1.9
								c-0.1,0.3-0.2,0.7-0.3,1.1c0,0.2-0.1,0.4-0.1,0.6c0,0.1,0,0.2,0,0.3c0,0.1,0,0.2,0,0.4l4.9-1c-0.5-1.3-0.5-2.7,0-3.7
								c0.1-0.2,0.3-0.5,0.4-0.7c0.1-0.2,0.4-0.5,0.5-0.7c0.2-0.3,0.4-0.5,0.7-0.8c0.1-2.5,0.5-3.8,0.8-4.5
								c-0.1-0.1-0.1-0.2-0.2-0.3c0-0.1-0.1-0.2-0.1-0.5c-0.2-0.3-0.3-0.6-0.5-1.2l-0.3-0.8l-0.4-1.1l-0.3-0.7l-0.9-0.3l-0.5-0.2
								c-0.2-0.1-0.4-0.1-0.3-0.1l-0.4-0.3c-0.2-0.2-0.5-0.5-0.7-0.8c-0.2-0.3-0.4-0.7-0.6-1c-0.1-0.2-0.2-0.4-0.3-0.6
								c0-0.1-0.1-0.2-0.1-0.3l0-0.1c0,0,0-0.1,0,0l-8,3.6c0.9,1.1,1.7,1.7,2.5,2.2c0.8,0.5,1.5,0.8,2.3,1.2
								c0.8,0.3,1.5,0.5,2.4,0.7c0.8,0.2,1.7,0.3,2.9,0.3c0.6-0.1,1.3-0.1,2.5-0.6c0.2-0.1,0.6-0.3,0.9-0.6c0.4-0.3,0.7-0.6,1-1
								c0.3-0.4,0.6-0.9,0.7-1.5c0.1-0.2,0.2-0.5,0.2-0.9c0-0.3,0-0.7,0-1l-0.1-0.8l-0.1-0.4l-0.1-0.7c-0.1-0.5-0.1-0.9-0.1-1.4
								c-0.1-0.5,0-0.9,0-1.4c0.1-3.7,1.6-7.2,4.3-10.1c2.5-3.5,7-6.3,11.8-7.4c4.8-1.1,10.1-0.7,14.4,1.1
								c-4.2-1.4-8.9-1.5-13.3-0.4c4.9-0.9,10.1-0.4,14.3,1.6c0.5,0.2,0.9,0.4,1.4,0.6l1.3,0.7l1.2,0.8c0.4,0.3,0.8,0.6,1.2,0.9
								c0.8,0.6,1.5,1.3,2.3,1.9c0.4,0.3,0.7,0.7,1.1,1.1l0.5,0.5c0.2,0.2,0.3,0.4,0.5,0.6c0.6,0.1,1.2,0.3,1.9,0.8
								c0.3,0.3,0.6,0.6,1,0.9c0.3,0.4,0.7,0.8,0.9,1.4l0.7,1.3c0.2,0.4,0.3,0.9,0.5,1.3c0.4,0.9,0.6,1.8,0.8,2.7
								c0.3,0.9,0.4,1.9,0.6,2.8c0.1,1,0.3,2,0.4,3c-0.1,0.6-0.7,0.4-0.8,1.5c0.5-3-0.3-5.5-1.4-7.4c0.8,2.4,1.2,5.1,1.1,7.9
								c-0.2,2.5-1.1,4.8-2.2,6.8c-0.6,1-1.2,1.9-2,2.8c-0.7,0.9-1.5,1.7-2.4,2.6c-0.3,0.4-0.6,0.8-0.9,1.2c-1.6,2-3.1,4-5,5.6
								l0.7-0.4l0.6-0.4c0.4-0.3,0.9-0.6,1.3-0.9c-1,1.4-2.8,2.6-4.3,3.1l0.9-0.6c0.3-0.2,0.6-0.5,0.8-0.7c-2.1,1.1-4.2,1.8-6.5,1.6
								c1.4,0.1,2.8-0.2,4.1-0.8c1.2-0.7,2.4-1.5,3.3-2.4c-1.1,0.9-2.2,1.5-3.4,2c-1.1,0.4-2.3,0.7-3.5,0.7c-2.3,0-4.7-0.8-6.9-2.6
								c0.1,0,0.3,0.1,0.4,0.1l-1.3-0.7c-0.1-0.1-0.2-0.1-0.2-0.1l-0.2-0.1c-0.1-0.1-0.3-0.1-0.4-0.2c-0.5-0.3-0.8-0.7-1.1-1.3
								c-0.2-0.6-0.4-1.3-0.3-2.1c0.1-0.8,0.4-1.5,0.9-2.2c0.5-0.7,1.1-1.3,1.9-1.7c0.8-0.4,1.8-0.6,2.8-0.5c2,0.1,4.3,1.1,5.6,2.9
								c0.6,0.8,0.9,1.7,1,2.4l0,0.3c0,0.1,0,0.1,0,0.2c0,0.1,0,0.3,0.1,0.4c0,0.2,0.1,0.5,0.2,0.7c0.1,0.1,0.1,0.2,0.2,0.3
								c0.1,0.1,0.2,0.2,0.3,0.2c0.2,0.1,0.4,0.2,0.6,0.3c0.2,0.1,0.3,0.1,0.5,0c0.1,0,0.3-0.2,0.4-0.3c0.6-0.7,0.9-1.7,0.9-2.7
								l0-0.8l-0.1-0.8c-0.1-0.5-0.4-1.1-0.6-1.6c-1-1.9-2.4-3-3.8-3.9c-1.5-0.9-3.1-1.5-4.8-1.7c-0.8-0.1-1.7-0.1-2.6-0.1
								c-0.4,0.1-0.9,0.1-1.3,0.2c-0.4,0.1-0.9,0.3-1.3,0.4c-3.4,1.4-5.7,4.5-6.3,7.9c-0.3,1.7-0.1,3.6,0.7,5.3
								c0.4,0.8,0.9,1.6,1.5,2.3c0.3,0.4,0.6,0.6,1,0.9c0.3,0.3,0.7,0.6,1,0.7c2.3,1.6,4.9,2.9,7.9,3.5c2.9,0.6,6.2,0.3,8.9-0.8
								c2.8-1.1,5.2-2.8,7.2-4.7c2-1.9,3.8-4,5.4-6.1c-1.8,1.6-3.7,3.2-5.8,4.6c-0.8,0.7-1.7,1.2-2.6,1.6c0.9-0.5,1.8-1,2.6-1.6
								c0.5-0.5,1.1-0.9,1.7-1.5c0.5-0.5,1-1.1,1.6-1.6c1-1.2,2-2.3,3-3.6c0.2-0.2,0.7-0.7,0.9-1.3c0.3-0.6,0.4-1.3,0.3-1.7
								c0.2-0.2,0.3-0.5,0.4-0.7c0.1-0.2,0.2-0.5,0.4-0.7c0.2-0.5,0.5-1,0.7-1.6c0.2-0.5,0.4-1.1,0.5-1.7c0.2-0.6,0.4-1.1,0.4-1.7
								c0.2-1.2,0.5-2.3,0.5-3.5c0.1-0.6,0.2-1.1,0.2-1.7c0-0.6,0.1-1.1,0.1-1.7c0-0.3,0.2-0.7,0.4-1.2c-0.3-2.8-1-5.5-2-8.2
								c-1.5-3.6-3.7-6.9-6.4-9.7c-0.7-0.6-1.3-1.4-2.1-1.9c-0.8-0.6-1.5-1.2-2.3-1.7c-1.6-1.1-3.3-2-5-2.7
								c-3.5-1.4-7.2-2.1-10.9-2.3c-3.7-0.2-7.4,0.3-10.9,1.3c3.5-0.6,6.9-0.6,10-0.1c2,0.5,5.2,0.6,8.7,1.5
								c3.5,0.8,7.3,2.5,10.1,4.9c1.5,1.2,1.8,2.4,2.9,3.9c-2.7-1.9-5.4-4.1-8.5-5.9c-3.1-1.8-6.8-3-10.4-3.1
								c-4.7-0.3-10.5,0.1-15.9,2.4c-2.7,1.1-5.3,2.7-7.3,4.8c-2.1,2-3.6,4.5-4.3,7c-0.6,2-1.1,4-1.6,5.9c-0.4,1.9-0.7,3.8-0.8,5.6
								c-0.6-1.2-0.7-3.8-0.6-5c0.2-2.8,1.1-5.6,2.4-8c1.3-2.5,3.2-4.6,5.2-6.4c4.2-3.6,9.3-5.9,14.7-6.9
								c-5.7,0.5-11.2,2.9-15.6,6.7c-4.4,3.8-7.5,9.4-8.2,15.7c0.1-3.7,1.3-7.3,3.1-10.3c1.8-3,4.2-5.5,6.6-7.9
								c-0.5,0.2-1.1,0.4-1.6,0.7c-3.8,2.9-7,7-8.7,11.9c-0.1,0.8-0.1,1.6-0.1,2.4l0,1.2l0.1,1.1c0.1,1.3,0.4,2.5,0.6,3.8
								c0.1,0.6,0.3,1.2,0.4,1.9l0,0l0,0c0.6-0.2-1.4,0.4,1.4-0.4l0,0l0,0l0.1,0c0.1,0,0.1,0.1,0.2,0.1c0-0.1,0.2-0.1,0.2-0.1
								c0.1,0-0.1,0-0.1-0.2c-0.1-0.2-0.3-0.4-0.4-0.8c-0.1-0.2-0.1-0.4-0.1-0.6c0-0.1,0-0.1,0-0.1l0,0c0,0,0,0,0,0
								c-0.1,0.1-0.6,0.1-1,0c-0.4-0.1-0.9-0.2-1.3-0.3c-0.4-0.2-0.9-0.4-1.2-0.6c-0.4-0.2-0.6-0.5-0.7-0.6l-7.6-11.6l3.4,13.6
								c0.1,0.5,0.2,0.8,0.4,1.2c0.1,0.4,0.3,0.7,0.4,1.1c0.3,0.7,0.7,1.4,1.1,2.1c0.4,0.7,0.9,1.3,1.5,1.9c0.3,0.3,0.6,0.6,0.9,0.9
								c0.1,0.1,0.1,0.1,0.2,0.1l0.1,0.1l0.2,0.2c0.7,0.5,1.4,0.8,2.1,0.8c-0.7,0.5-1.3,1.1-1.7,1.7c-0.1,0.1-0.1,0.3-0.2,0.4l0,0
								l-0.1,0.1l-0.1,0.3l-0.2,0.6c-0.2,0.8-0.4,1.7-0.5,2.6c-0.1,1.7,0.2,3.5,0.8,5l5.9-1.1l0,0.1l0,0l0,0l0,0l0,0l0,0l0,0l-0.8,0
								l0,0l0.2,0c0.2,0,0.5,0,0.6,0c0,0,0,0,0,0c0,0,0-0.1,0-0.1c0.1-0.2,0-0.5,0.1-0.9c0-0.4,0.2-1,0.7-1.5
								c-0.6,0.3-1,0.6-1.3,1.1c-0.2,0.2-0.3,0.5-0.4,0.7c0,0.1-0.1,0.3-0.1,0.4c0,0.1-0.1,0.3-0.1,0.3l-3.6,0.7
								c-0.4-1.4-0.7-3-0.6-4.5c0.1-0.8,0.2-1.5,0.4-2.3l0.2-0.5c0.1-0.2,0.1-0.4,0.2-0.5c0.1-0.2,0.2-0.4,0.3-0.6l0-0.1l-0.1,0.1
								c-0.1,0.1-0.2,0.3-0.3,0.4c-0.1,0.1-0.2,0.2-0.3,0.4c-0.2,0.4-0.5,0.9-0.6,1.4c-0.4,1-0.6,2-0.8,3c0-0.6-0.1-1.1,0-1.7
								c0-0.3,0.1-0.5,0.1-0.8l0.2-0.8c0.1-0.5,0.3-1,0.5-1.4c0.1-0.1,0.1-0.1,0.1-0.2l0.1-0.1c0.1-0.1,0.1-0.2,0.2-0.3
								c0.6-0.7,1.5-1.5,2.4-2.2c-0.4-0.1-0.8-0.1-1.3-0.2c0.5,0.1,1.1,0.1,1.6,0.1c-0.6,0.6-1.4,1.4-1.9,2.3
								c0.7-0.9,1.7-1.8,2.7-2.6c-0.8-0.1-1.7-0.3-2.5-0.8c1.1,0.3,2.2,0.5,3.2,0.6c-0.5,0.4-1.1,0.9-1.6,1.4c-0.5,0.5-1,1-1.3,1.6
								c-0.2,0.2-0.3,0.4-0.4,0.6c-0.1,0.1-0.1,0.3-0.2,0.4l-0.2,0.5c-0.2,0.7-0.4,1.4-0.4,2.1c-0.1,1.4,0.2,2.9,1,4.2
								c-0.4-1.2-0.6-2.5-0.5-3.7c-0.1,1.3,0.1,2.6,0.5,3.8c0,0,0,0,0-0.1l0.1,0.2l1.8,5.7l0-6.1c0-0.2,0.1-0.6,0.2-1
								c0.1-0.3,0.2-0.7,0.4-1c0.4-0.6,0.8-1.2,1.5-1.6c1.2-0.9,2.9-1.4,4.4-1.6c-1.7,0.1-3.4,0.3-5,1.1c-1.5,0.8-2.7,2.3-2.9,4.1
								l0.9-0.2c-0.3-1.2-0.4-2.3-0.3-3.4l0.1-0.8l0.2-0.8l0.3-0.8l0.5-1l0.1-0.2c0.3-1,0.7-1.8,1.2-2.5c-0.5,0.7-0.9,1.5-1.2,2.5
								l-0.1,0.2l-0.5,1l-0.3,0.8l-0.2,0.8l-0.1,0.8c0,1.1,0.2,2.2,0.6,3.3l-1.7,0.3c0.1-2.5,1.9-4.5,4-5.3c2.1-0.8,4.2-0.8,6.2-0.6
								l1.4,0.1l-1,0.9c-1.6,1.4-2.9,3.5-2.6,5.8c0.2,2.2,1.7,4.3,3.5,5.8l0.2,0.1l-0.1-0.2c-0.5-1.1-0.8-2.5-0.5-3.6
								c0.1-0.6,0.4-1.1,0.8-1.6c0.2-0.2,0.4-0.4,0.7-0.6c0.3-0.2,0.5-0.3,0.8-0.5c0.4-0.2,0.7-0.4,1.1-0.6
								c-0.5-0.2-0.9-0.2-1.4-0.3c-1.2,0.6-2.5,1.8-2.8,3.3c-0.2,0.7-0.2,1.5-0.1,2.2c0.1,0.7,0.3,1.4,0.7,2.1l1.2-1.1
								c-1.7-1.4-3-3.3-3.2-5.2c-0.1-0.9,0.2-1.9,0.6-2.8c0.2-0.4,0.5-0.8,0.8-1.2c0.3-0.4,0.7-0.8,1-1l2.8-2.2l-3.6-0.4
								c-2.1-0.2-4.4-0.3-6.7,0.6c-1.1,0.4-2.3,1.1-3.2,2.2c-0.4,0.5-0.8,1.1-1.1,1.8c-0.1,0.3-0.3,0.7-0.3,1c0,0.2-0.1,0.4-0.1,0.5
								c0,0.1,0,0.2,0,0.3c0,0.1,0,0.2,0,0.4l4.3-0.8L242.7,135.2z"/>
						</g>
					</g>
				</g>
			</g>
		</g>
	</g>
	<g>
		<g>
			<g>
				<path fill-rule="evenodd" clip-rule="evenodd" fill="#5EB05E" d="M398.6,99.5c-3.2,3.4-6.6,6.4-10.3,8.8
					c-3.7,2.4-7.7,4.3-11.7,5.5c-2,0.6-4,1-6,1.2c-2,0.2-3.9,0.2-5.7,0c-1.8-0.2-3.5-0.7-4.8-1.4c-1.3-0.7-2.3-1.6-2.8-2.8
					c-0.1-0.3-0.2-0.6-0.3-0.9c-0.1-0.3-0.1-0.7-0.1-1c-0.1-0.7,0-1.3,0.1-1.8c0.2-1.1,0.9-2.1,1.7-2.8c1.8-1.4,4.2-1.7,5.5-1.1
					c0.7,0.3,1.1,0.7,1.3,1.3c0.2,0.6,0.3,1.2,0.3,1.7c0,1-0.1,1.7,0.1,1.8c0.2,0.1,0.7-0.3,1.2-1.5c0.2-0.6,0.5-1.4,0.3-2.4
					c-0.1-1-0.8-2.3-2-3c-1.1-0.8-2.6-1.1-4.1-1.1c-1.5,0-3.2,0.5-4.7,1.4c-1.5,1-3,2.6-3.6,4.6c-0.3,1-0.5,2.1-0.4,3.1
					c0,0.5,0,1.1,0.1,1.6c0.1,0.5,0.2,1.1,0.4,1.7c0.7,2.2,2.5,4.2,4.6,5.4c2,1.2,4.3,1.8,6.5,2.2c2.3,0.3,4.5,0.4,6.9,0.2
					c2.4-0.2,4.7-0.7,7-1.3c9.2-2.7,17.8-8.7,24-16.3c2.3-2.8,4.4-5.5,6.2-7.9c0.9-1.2,1.8-2.4,2.7-3.6c1.5-1.9,3-3.7,4.3-5.3
					c-2.6-0.6-5.1-1.2-7.6-1.8c-1.6-0.3-3.1-0.7-4.6-1c-3-0.6-5.9-1.2-8.8-1.7c-5.7-1-11.2-1.8-17-2.2c-5.7-0.4-11.7-0.5-18.3,0.2
					c-6.6,0.7-13.7,2.2-21.5,5.1c7.9-2.7,15.1-3.9,21.6-4.4c6.5-0.4,12.4-0.1,18.1,0.6c5.6,0.7,11,1.8,16.6,3.1
					c2.8,0.7,5.6,1.4,8.6,2.2c1.5,0.4,3,0.8,4.5,1.3c0.7,0.2,1.4,0.4,1.9,0.6c-0.3,0.3-0.6,0.6-0.9,0.9c-0.9,1.1-1.9,2.2-2.9,3.3
					C403.1,94.4,400.9,97,398.6,99.5z"/>
			</g>
		</g>
	</g>
	<path fill="#389CD6" d="M303.8,114.5c0-0.2,0-0.4,0-0.6c-0.1-0.8-0.1-1.7,0-2.5c0.1-1.3,0.3-2.6,0.7-3.9c0.3-1.1,0.7-2.1,1.2-3.1
		c0.4-0.7,0.7-1.4,1.2-2c0.3-0.4,0.6-0.8,0.9-1.2c0.7-0.9,1.5-1.7,2.4-2.4c0.5-0.4,1-0.8,1.5-1.1c1.3-0.9,2.7-1.6,4.2-2.1
		c0.7-0.3,1.5-0.5,2.2-0.6c0.4-0.1,0.9-0.2,1.3-0.2c0.8-0.1,1.6-0.1,2.4-0.1c1.1,0,2.2,0.1,3.3,0.3c1.3,0.2,2.5,0.6,3.7,1.1
		c0.8,0.3,1.6,0.7,2.3,1.2c0.7,0.4,1.3,0.9,1.9,1.3c1.1,0.9,2,1.8,2.9,2.9c1.2,1.5,2.1,3.2,2.7,5.1c0.2,0.7,0.4,1.5,0.6,2.2
		c0.3,1.5,0.4,3,0.3,4.5c-0.1,1.2-0.3,2.4-0.6,3.6c-0.4,1.3-0.9,2.6-1.6,3.8c-0.3,0.5-0.7,1.1-1,1.6c-0.7,1-1.5,1.9-2.5,2.8
		c-0.7,0.6-1.4,1.2-2.2,1.7c-0.9,0.6-1.9,1.2-3,1.6c-0.8,0.4-1.7,0.7-2.6,0.9c-0.8,0.2-1.5,0.3-2.3,0.4c-1.3,0.2-2.6,0.2-4,0
		c-1.1-0.1-2.3-0.3-3.4-0.7c-1.3-0.4-2.5-0.9-3.7-1.6c-0.8-0.4-1.5-0.9-2.2-1.5c-1-0.8-2-1.7-2.8-2.8c-1-1.2-1.8-2.5-2.4-3.9
		c-0.4-0.9-0.7-1.9-1-2.9c-0.1-0.3-0.1-0.7-0.2-1c0,0,0-0.1,0-0.1C303.9,115.1,303.8,114.8,303.8,114.5z M323.8,127.2
		c0.2,0,0.4-0.1,0.7-0.1c0.6-0.2,1.2-0.3,1.8-0.5c1.4-0.4,2.7-1.1,3.9-1.9c0.8-0.5,1.5-1.2,2.2-1.8c0.5-0.5,1-1,1.4-1.6
		c0.4-0.5,0.7-1,1-1.5c0.5-0.8,0.9-1.6,1.2-2.5c0.4-1.3,0.7-2.6,0.8-3.9c0.1-1,0-2-0.1-2.9c-0.1-0.5-0.2-1-0.3-1.4
		c-0.2-0.8-0.4-1.6-0.7-2.3c-0.5-1.3-1.2-2.5-2.1-3.6c-0.8-1.1-1.8-2-2.9-2.8c-0.5-0.3-0.9-0.6-1.4-0.9c-0.8-0.5-1.7-0.9-2.6-1.2
		c-1.3-0.5-2.6-0.8-4-0.8c-0.7,0-1.5,0-2.2,0c-0.5,0-1.1,0.1-1.6,0.2c-0.5,0.1-1.1,0.2-1.6,0.4c-1.1,0.3-2.1,0.7-3.1,1.2
		c-1,0.5-1.9,1.2-2.8,1.9c-1,0.9-1.9,1.9-2.6,3c-0.4,0.7-0.8,1.3-1.2,2.1c-0.5,1.1-0.9,2.2-1.1,3.4c-0.3,1.5-0.3,2.9-0.2,4.4
		c0.1,0.7,0.2,1.4,0.4,2.2c0.2,1,0.6,1.9,1,2.8c0.7,1.4,1.5,2.6,2.6,3.8c0.9,0.9,1.8,1.7,2.9,2.4c0.6,0.4,1.3,0.7,2,1.1
		c1.2,0.6,2.5,0.9,3.9,1.1C320.7,127.5,322.2,127.4,323.8,127.2z"/>
	<path fill="#389CD6" d="M331.5,110.9c0.1,0.6,0,1.2-0.4,1.7c-0.3,0.4-0.7,0.7-1.2,0.8c-0.5,0.1-1,0.1-1.4,0
		c-1.1-0.2-2.2-0.3-3.4-0.5c-0.8-0.1-1.6-0.2-2.5-0.3c-0.1,0-0.1,0-0.2,0.1c-0.1,0.1,0,0.1,0,0.2c0.5,0.3,1,0.6,1.5,1
		c0.5,0.3,1,0.6,1.5,0.9c0.3,0.2,0.7,0.4,1,0.7c0.3,0.2,0.7,0.4,1.1,0.6c0.4,0.3,0.9,0.6,1.1,1.1c0.3,0.7,0.3,1.4-0.2,2
		c-0.6,0.9-1.8,1.2-2.8,1c-0.6-0.2-1-0.6-1.3-1.1c-0.3-0.6-0.5-1.1-0.8-1.7c-0.5-1-0.9-2.1-1.4-3.1c-0.1-0.3-0.3-0.6-0.4-1
		c0-0.1,0-0.2-0.2-0.1c-0.1,0-0.1,0.1-0.1,0.2c-0.1,1.1-0.2,2.2-0.4,3.4c-0.1,0.9-0.2,1.8-0.3,2.8c0,0.4-0.2,0.7-0.4,1
		c-0.3,0.4-0.6,0.6-1.1,0.8c-0.5,0.1-0.9,0.2-1.4,0.1c-1-0.2-1.7-1-1.8-2c0-0.6,0.2-1,0.5-1.4c0.4-0.5,0.8-1,1.3-1.5
		c0.4-0.4,0.7-0.8,1.1-1.3c0.2-0.3,0.5-0.6,0.7-0.8c0.3-0.3,0.6-0.7,0.9-1c0-0.1,0.1-0.1,0.1-0.2c0,0,0-0.1,0-0.1
		c-0.1,0-0.1-0.1-0.2,0c-0.2,0.1-0.3,0.1-0.5,0.2c-1.5,0.7-3.1,1.4-4.6,2.1c-0.4,0.2-0.9,0.4-1.4,0.4c-0.6,0.1-1.2-0.1-1.8-0.4
		c-0.9-0.6-1.1-1.8-0.6-2.7c0.4-0.7,1-1.1,1.7-1.2c0.4,0,0.8,0,1.1,0.1c1.1,0.1,2.2,0.3,3.3,0.4c0.8,0.1,1.6,0.2,2.4,0.3
		c0,0,0.1,0,0.1,0c0.1,0,0.1-0.1,0.1-0.1c0,0,0-0.1-0.1-0.1c-0.4-0.3-0.8-0.6-1.3-0.8c-0.2-0.2-0.5-0.3-0.7-0.5
		c-0.4-0.3-0.9-0.6-1.3-0.9c-0.3-0.2-0.6-0.4-0.9-0.6c-0.3-0.2-0.7-0.5-1-0.7c-0.8-0.5-1.1-1.4-0.8-2.4c0.3-0.9,1-1.5,1.9-1.6
		c0.8-0.1,1.5,0.2,2,0.8c0.4,0.5,0.6,1,0.9,1.6c0.6,1.5,1.2,3.1,1.9,4.6c0,0.1,0,0.1,0.1,0.1c0,0,0.1-0.1,0.1-0.1
		c0.1-0.8,0.2-1.6,0.2-2.5c0.1-1.2,0.2-2.4,0.4-3.5c0.1-0.4,0.2-0.9,0.5-1.2c0.3-0.4,0.7-0.7,1.1-0.8c0.6-0.2,1.2-0.1,1.8,0.2
		c0.7,0.4,1.2,1,1.3,1.8c0,0.4-0.1,0.8-0.3,1.1c-0.4,0.5-0.8,1.1-1.3,1.6c-0.3,0.4-0.7,0.8-1,1.2c-0.4,0.5-0.8,0.9-1.2,1.4
		c-0.3,0.3-0.5,0.6-0.8,1c0,0-0.1,0.1,0,0.2c0,0.1,0.1,0.1,0.2,0c1-0.4,1.9-0.8,2.9-1.2c1-0.4,2-0.9,3.1-1.3
		c0.8-0.3,1.9-0.2,2.6,0.5C331.2,110.1,331.4,110.5,331.5,110.9z"/>
	<g>
		<g>
			<g>
				<g>
					<g opacity="0.8">
						<g opacity="0.8">
							<path fill="#D7CFCA" d="M361.9,72c0.7-0.7,1.6-1.4,2.7-1.9c1.1-0.5,2.5-0.7,3.7-0.3l1.5,0.5l-1,1.1c-0.9,1-2.1,1.2-3,1.3
								c-0.2,0-0.5,0-0.7,0c-0.2,0-0.6,0-0.8,0c-0.6,0-1.2-0.1-1.8-0.1c-0.1-0.3-0.3-0.5-0.4-0.8c-0.1-0.3-0.3-0.5-0.4-0.8l-0.2-0.4
								l-0.1-0.2l-0.1-0.1l0,0.2l0.1,0.2l0.1,0.5c0.2,0.6,0.3,1.3,0.6,2c0.7,0.2,1.4,0.4,2.1,0.5c0.9,0.1,1.3,0.2,1.9,0.2
								c0.6,0,1.2-0.1,1.9-0.3c0.7-0.2,1.4-0.7,1.9-1.3l2.2-2.5l-3.3-1.1c-0.9-0.3-2-0.3-2.8-0.1c-0.9,0.2-1.7,0.5-2.3,0.9
								c-1.3,0.8-2.2,1.7-3,2.6l-3.7,4.1l5.3-0.2c0.2,0,0.4,0,0.6,0c2.8-0.3,5.6-0.9,8.7-0.8c0.3,0,0.4-0.4,0.4-0.6
								c-0.3-0.2-0.6-0.5-0.8-0.8c-2.5,0.2-5,0.5-7.6,0.5c-0.4,0-0.9,0.1-1.3,0.3l-1.7,0.6l1-2.3C361.6,72.6,361.7,72.2,361.9,72z"
								/>
							<polygon fill="#C5BAB2" points="371.1,73.8 371,73.8 370.6,73.8 							"/>
							<path fill="#D1C9C2" d="M364.9,74.4c-0.8,0.1-1.7,0.1-2.5,0.1c-0.1,0-0.2,0.1-0.3,0.1l-1.7,0.6l1-2.2c0.2-0.4,0.3-0.8,0.5-1
								c0.7-0.7,1.6-1.4,2.7-1.9c1.1-0.5,2.5-0.7,3.7-0.3l1.5,0.5l-1,1.1c-0.9,1-2.1,1.2-3,1.3c-0.2,0-0.5,0-0.7,0
								c-0.2,0-0.6,0-0.8,0c-0.6,0-1.2-0.1-1.8-0.1c-0.1-0.3-0.3-0.5-0.4-0.8c-0.3-0.5-0.6-1.1-0.8-1.5c0,0.1,0,0.3,0.1,0.4l0.1,0.5
								c0.2,0.6,0.3,1.3,0.5,1.9l1.5,0.4c0.5,0.1,1.1,0.2,1.6,0.3c0.7,0.1,1.6,0.1,2.6-0.2c0.1-0.1,0.3-0.1,0.4-0.2
								c0.6-0.4,1.2-0.8,1.7-1.3l2.1-2.2l-3.1-1.1c-0.7-0.2-1.5-0.4-2.2-0.3c-1.6,0.3-2.6,1-3.5,1.6c-0.9,0.6-1.6,1.3-2.3,2.1
								l-3.5,3.8l5-0.1c0.4,0,0.9,0,1.3-0.1c0.9-0.1,1.8-0.5,2.8-0.5c0.3,0,0.7,0,1,0c1.3-0.2,2.7-0.3,4.2-0.2
								c0.3,0,0.4-0.4,0.4-0.6c-0.2-0.1-0.3-0.3-0.4-0.4c-1.2-0.1-2.3-0.1-3.5-0.1c-1,0.1-2.1,0.2-3.1,0.2
								C364.8,74.3,364.8,74.3,364.9,74.4z"/>
							<path fill="#C5BAB2" d="M364.8,73.8c-0.1,0-0.3,0.3-0.1,0.5c1,0,2.1-0.1,3.1-0.2C366.9,74,365.9,74,364.8,73.8z"/>
							<path fill="#E4DFDC" d="M365,72.5c-1-0.1-2,0-2.9,0l0.8,1.9c0.6-0.7,1.2-1.4,1.9-1.7c0.7-0.3,1.5-0.4,1.9-0.1
								c0.1,0,0.3,0,0.4,0c0.1,0,0.2,0,0.3,0l-0.9-3.1c-0.1,0.1-0.3,0.3-0.9,0.4c-0.8,0.1-0.8,0-1,0c0-0.1-0.1-0.2-0.1-0.2l-0.1-0.2
								l-0.1-0.5c-0.2-0.6-0.3-1.3-0.4-1.9c-0.2-1.3-0.2-2.6,0-3.9l-3.4-0.4c-0.2,2-0.5,4-0.8,6c-0.1,0.8-0.2,1.7-0.2,2.5
								c0,0.4,0,0.8,0,1.2c0,0.1,0,0.2,0,0.2l0,0.1l0.1,0.2c0.2,0.4-0.1,0.4-0.4,0.6c0,0,0,0,0,0l-0.2,0l-0.3,0.1l-0.6,0.2
								c-0.4,0.1-0.9,0.3-1.3,0.4c-2.1,0.5-3.8,0.6-5.9,1c-2.6,0.5-4.7,1.7-6.7,3.1c-2,1.4-3.9,3-6,4.4c-1.2,0.8-0.6,2.2-0.3,2
								c3.6-2.3,7.3-4.3,11.1-5.9c1.9-0.8,3.8-1.4,5.8-2c1-0.3,2-0.5,3-0.7c0.5-0.1,1-0.2,1.5-0.3c0.1,0,0.3-0.1,0.5-0.1l0.6-0.1
								l1.1-0.1c0.2,0,0.4,0,0.5-0.1l0-0.6l0.1-1.1c0-0.6,0.1-1.2,0.1-1.9c0.1-1,0.2-2.1,0.3-3.1c0.2-2,0.4-4,0.7-6l-2.1-0.2
								c-0.4,2.4-0.4,4.9-0.1,7.4l0.1,0.1l0.1,0.2l0.2,0.4c0.1,0.3,0.3,0.5,0.4,0.8c0.1,0.3,0.3,0.5,0.4,0.8c0.6,0,1.2,0.1,1.8,0.1
								c0.3,0,0.6,0,0.8,0c0.2,0,0.5,0,0.7,0c0.9-0.1,2.2-0.4,3-1.3l1-1.1l-1.5-0.5c-1.2-0.4-2.6-0.2-3.7,0.3
								c-1.1,0.5-2,1.2-2.7,1.9c-0.2,0.2-0.4,0.6-0.5,1l-1,2.3l1.7-0.6c0.4-0.2,0.9-0.3,1.3-0.3c2.6,0,5.1-0.3,7.6-0.5
								c-0.5-0.6-0.9-1.1-1.4-1.5C368,72.5,366.5,72.6,365,72.5z"/>
							<path fill="#C1B5AD" d="M365,72.5c1.5,0.2,3,0,4.5-0.2c-0.3-0.2-0.5-0.4-0.9-0.5c-2.1-0.5-4.3-0.5-6.6-0.4l1.6,3.8
								c1-1.2,2.2-2.3,3-2.5c-0.4-0.3-1.2-0.3-1.9,0.1c-0.7,0.3-1.3,0.9-1.9,1.7l-0.8-1.9C363,72.5,364,72.4,365,72.5z"/>
							<path fill="#D1C9C2" d="M365,72.5c1.4,0.2,2.9,0,4.3-0.2c-0.5-0.1-1-0.1-1.5-0.2c-1.9-0.1-3.8,0-5.7-0.2l1.2,2.9
								c0.5-0.4,0.9-0.8,1.4-1.1c-0.4,0.4-0.8,0.8-1.3,1.2l-1.4-3.2c2.1,0,4.2,0,6.2,0c-2-0.4-4.1-0.4-6.2-0.3l1.6,3.8
								c1-1.2,2.2-2.3,3-2.5c-0.4-0.3-1.2-0.3-1.9,0.1c-0.7,0.3-1.3,0.9-1.9,1.7l-0.8-1.9C363,72.5,364,72.4,365,72.5z"/>
							<path fill="#BDB0A7" d="M363.6,73.4c-0.3,0.2-0.6,0.5-0.9,0.8l-0.6-1.4c2.7,0.2,5.3,0.2,8,0c-0.1-0.1-0.3-0.3-0.4-0.4
								c-0.1,0-0.3,0-0.4-0.1c-1.5,0.2-2.9,0.4-4.3,0.2c-1-0.1-2,0-2.9,0l0.8,1.9c0.6-0.7,1.2-1.4,1.9-1.7c0.7-0.3,1.5-0.4,1.9-0.1
								c0.1,0,0.2,0,0.3,0c0.1,0,0.2,0,0.4,0l-0.9-3.1c-0.1,0.1-0.3,0.3-0.9,0.4c-0.8,0.1-0.8,0-1,0c-0.1,0.1-0.6-1.8-0.7-3.1
								c-0.3-1.2-0.4-2.4-0.3-3.7l-2.7-0.3c-0.1,1.8-0.4,3.7-0.8,5.5c0.2-1.5,0.3-3,0.3-4.5c-0.2,1.7-0.4,3.3-0.7,5
								c-0.1,0.7-0.2,1.4-0.2,2.1c0,0.4,0,0.7,0,1.1l0,0.5c0,0.1,0,0.2,0,0.2l0,0.1c0.3,0.1,0.6,0.5,0.7,1c0,0.1,0,0.1-0.1,0.1
								l-0.1,0l-0.2,0.1l-0.5,0.1l-0.1,0l-0.1,0l-0.2,0.1c-0.1,0-0.3,0.1-0.5,0.1c-0.3,0.1-0.6,0.2-0.9,0.3c-0.2,0-0.2-0.3-0.5-0.2
								c0.5-0.1,0.9-0.2,1.3-0.3c0.2-0.1,0.4-0.1,0.6-0.2c0.1,0,0.2-0.1,0.3-0.1c0.1,0,0,0,0.1-0.1l0-0.1c0,0-0.3,0.1-0.5,0.2
								l-0.6,0.2c-0.4,0.1-0.9,0.3-1.3,0.4c-1.6,0.4-3,0.5-4.6,0.8l-0.5,0.2c-0.8,0.3-1.5,0.7-2.2,1.2c0.3-0.1,0.6-0.2,1-0.3
								c-0.5,0.3-1.1,0.6-1.6,0.7c0.2-0.1,0.4-0.3,0.6-0.4c-0.8,0.3-1.5,0.5-2.3,0.8c1-0.4,1.9-0.9,2.7-1.4
								c-1.8,0.7-3.4,1.5-5.2,2.1l0.1-0.1c-2.3,1.5-4.3,3.3-6.7,4.9c-1.2,0.8-0.6,2.2-0.3,2c5.1-3.3,10.2-5.8,15.7-7.5
								c-0.7,0-1.4,0-2.1,0c-0.3,0.1-0.6,0.1-0.9,0.1c0.3,0,0.6,0,0.9-0.1c0.8-0.1,1.6-0.4,2.5-0.5c0.2,0.1,0.7-0.1,0.8-0.4
								c1.2-0.1,2.5-0.6,3.6-0.5c0.1,0,0.2,0.1,0.3,0.1l0.5-0.1l0.3-0.1l0.4-0.1c0.5-0.1,1.1-0.1,1.6-0.2l0.3,0c0.1,0,0.2,0,0.2-0.1
								l0-0.6l0.1-1.1c0-0.6,0.1-1.2,0.1-1.8c0.1-1,0.2-2,0.3-3c0.2-2,0.4-4,0.7-6c-0.3,0.9-0.6,1.8-0.9,2.6
								c-0.5,1.1-0.4,3.6-0.4,5.6c0,0.5-0.3,0.8-0.4,1.3c-0.6-1.9,0.2-4.1,0.2-6.2c0.1-1.1,0.3-2.3,0.5-3.6l-0.1,0
								c-0.4,2-0.4,4.3,0.3,6c0.4,0.9,0.5,1.7,0.6,2.7c0.2,0.1,0.4,0.2,0.6,0.3c-0.2,0-0.6,0-0.9,0c-0.1-0.3-0.2-0.6-0.3-0.8
								c-0.1-0.4-0.2-0.8-0.3-1.2c-0.1-0.3-0.1-0.7-0.2-1c-0.1-0.7-0.2-1.3-0.2-2c-0.1-1.4-0.1-2.7,0.1-4.1l0.7,0.1l-0.1,1.2
								c0.1-0.4,0.2-0.8,0.2-1.2l-1-0.1c-0.3,1.4-0.3,2.8-0.2,4.3c0,0.7,0.1,1.4,0.2,2.1c0.1,0.4,0.1,0.7,0.2,1.1
								c0.1,0.5,0.2,1,0.3,1.5c-0.2-0.6-0.4-1.4-0.5-1.9c-0.1-0.5-0.2-1-0.2-1.4c-0.1-1-0.2-1.9-0.4-2.8c-0.1,0.2-0.1,0.3-0.2,0.5
								c0,1.3,0.1,2.7,0.3,4c0.2,0.4,0.5,1.1,0.8,1.5c0.1,0.3,0.3,0.5,0.4,0.8c0.6,0,1.2,0.1,1.8,0.1c0.3,0,0.6,0,0.8,0
								c0.2,0,0.5,0,0.7,0c0.9-0.1,2.2-0.4,3-1.3l1-1.1l-1.5-0.5c-1.2-0.4-2.6-0.2-3.7,0.3c-1.1,0.5-2,1.2-2.7,1.9
								c-0.2,0.2-0.4,0.6-0.5,1l-1,2.2l1.7-0.6c0.1,0,0.2-0.1,0.3-0.1l-0.3,0l-2-0.1l1.4-1.3c0.9-0.8,1.8-1.6,2.9-2.3
								c-0.5,0.2-1,0.4-1.5,0.6c1-0.9,2.2-1.2,3.6-1.5c-0.8,0.2-1.4,0.5-2,0.9c0.8-0.3,1.7-0.6,2.6-0.5c-0.9,0.2-1.6,0.4-2.4,0.7
								c-0.7,0.3-1.4,0.8-1.9,1.5c0.2-0.2,0.5-0.5,0.8-0.6c-0.3,0.2-0.6,0.4-0.8,0.7l0,0c-0.3,0.3-0.6,0.6-0.9,1l-0.5,0.6l0.7-0.1
								c0.6-0.1,1.2-0.2,1.7-0.3c-0.6,0-1.2,0-1.7-0.1l0,0.1c0.9-0.7,1.8-1.4,2.7-2c0.2-0.2,0.5-0.3,0.7-0.4
								c-0.2,0.1-0.5,0.3-0.7,0.4c-0.9,0.6-1.7,1.4-2.5,2.1l-0.2-0.6c2.8,0.1,5.7,0.4,8.5,0.5l0.4,0l-0.3-0.4
								c-2.9-0.1-5.8-0.3-8.6-0.6l0.6,1.4C363,73.9,363.3,73.7,363.6,73.4z"/>
						</g>
					</g>
				</g>
			</g>
		</g>
	</g>
</g>
</svg>
