<?xml version="1.0" encoding="utf-8"?>
<!-- Generator: Adobe Illustrator 18.1.1, SVG Export Plug-In . SVG Version: 6.00 Build 0)  -->
<!DOCTYPE svg PUBLIC "-//W3C//DTD SVG 1.1//EN" "http://www.w3.org/Graphics/SVG/1.1/DTD/svg11.dtd">
<svg version="1.1" id="Layer_1" xmlns="http://www.w3.org/2000/svg" xmlns:xlink="http://www.w3.org/1999/xlink" x="0px" y="0px"
	 viewBox="0 0 351.3 351.3" enable-background="new 0 0 351.3 351.3" xml:space="preserve">
<g>
	<path fill="#FDD8BA" d="M205.6,282.5v3.4c0,3.9-3.2,7.2-7.2,7.2h-37.1c-3.9,0-7.2-3.2-7.2-7.2v-3.4c0-3.9,3.2-7.2,7.2-7.2h37.1
		C202.3,275.4,205.6,278.6,205.6,282.5z"/>
	<path fill="#FDD8BA" d="M149.4,52.4v-0.8c0-1.4,1.1-2.5,2.5-2.5h55.8c1.4,0,2.5,1.1,2.5,2.5v0.8c0,1.4-1.1,2.5-2.5,2.5h-55.8
		C150.6,54.9,149.4,53.8,149.4,52.4z"/>
	<path fill="#FDD8BA" d="M234.2,75.6V257c0,4.3-3.6,7.9-7.9,7.9h-92.8c-4.3,0-7.9-3.6-7.9-7.9V75.6c0-4.3,3.6-7.9,7.9-7.9h92.8
		C230.6,67.8,234.2,71.3,234.2,75.6z"/>
	<path fill="#FDD8BA" d="M175.6,0C78.6,0,0,78.6,0,175.6c0,97,78.6,175.6,175.6,175.6c97,0,175.6-78.6,175.6-175.6
		C351.3,78.6,272.7,0,175.6,0z M250.5,299c0,4.8-3.9,8.6-8.6,8.6H117.8c-4.8,0-8.6-3.9-8.6-8.6V43c0-4.8,3.9-8.6,8.6-8.6h124.1
		c4.8,0,8.6,3.9,8.6,8.6V299z"/>
	<path fill="#FDD8BA" d="M205.6,282.5v3.4c0,3.9-3.2,7.2-7.2,7.2h-37.1c-3.9,0-7.2-3.2-7.2-7.2v-3.4c0-3.9,3.2-7.2,7.2-7.2h37.1
		C202.3,275.4,205.6,278.6,205.6,282.5z"/>
	<path fill="#FDD8BA" d="M149.4,52.4v-0.8c0-1.4,1.1-2.5,2.5-2.5h55.8c1.4,0,2.5,1.1,2.5,2.5v0.8c0,1.4-1.1,2.5-2.5,2.5h-55.8
		C150.6,54.9,149.4,53.8,149.4,52.4z"/>
	<path fill="#FDD8BA" d="M234.2,75.6V257c0,4.3-3.6,7.9-7.9,7.9h-92.8c-4.3,0-7.9-3.6-7.9-7.9V75.6c0-4.3,3.6-7.9,7.9-7.9h92.8
		C230.6,67.8,234.2,71.3,234.2,75.6z"/>
	<path fill="#FDD8BA" d="M234.2,75.6V257c0,4.3-3.6,7.9-7.9,7.9h-92.8c-4.3,0-7.9-3.6-7.9-7.9V75.6c0-4.3,3.6-7.9,7.9-7.9h92.8
		C230.6,67.8,234.2,71.3,234.2,75.6z"/>
	<path fill="#FDD8BA" d="M210.3,51.6v0.8c0,1.4-1.1,2.5-2.5,2.5h-55.8c-1.4,0-2.5-1.1-2.5-2.5v-0.8c0-1.4,1.1-2.5,2.5-2.5h55.8
		C209.2,49.1,210.3,50.2,210.3,51.6z"/>
	<path fill="#FDD8BA" d="M205.6,282.5v3.4c0,3.9-3.2,7.2-7.2,7.2h-37.1c-3.9,0-7.2-3.2-7.2-7.2v-3.4c0-3.9,3.2-7.2,7.2-7.2h37.1
		C202.3,275.4,205.6,278.6,205.6,282.5z"/>
</g>
</svg>
