<?xml version="1.0" encoding="utf-8"?>
<!-- Generator: Adobe Illustrator 18.1.1, SVG Export Plug-In . SVG Version: 6.00 Build 0)  -->
<!DOCTYPE svg PUBLIC "-//W3C//DTD SVG 1.1//EN" "http://www.w3.org/Graphics/SVG/1.1/DTD/svg11.dtd">
<svg version="1.1" xmlns="http://www.w3.org/2000/svg" xmlns:xlink="http://www.w3.org/1999/xlink" x="0px" y="0px"
	 viewBox="0 0 432.6 432.6" enable-background="new 0 0 432.6 432.6" xml:space="preserve">
<g id="Layer_1">
	<g>
		<path fill="#FED9BA" d="M246.2,323.2v3.4c0,3.9-3.2,7.2-7.2,7.2H202c-3.9,0-7.2-3.2-7.2-7.2v-3.4c0-3.9,3.2-7.2,7.2-7.2h37.1
			C243,316,246.2,319.3,246.2,323.2z"/>
		<path fill="#FED9BA" d="M190.1,93.1v-0.8c0-1.4,1.1-2.5,2.5-2.5h55.8c1.4,0,2.5,1.1,2.5,2.5v0.8c0,1.4-1.1,2.5-2.5,2.5h-55.8
			C191.2,95.6,190.1,94.4,190.1,93.1z"/>
		<path fill="#FED9BA" d="M274.8,116.3v181.4c0,4.3-3.6,7.9-7.9,7.9h-92.8c-4.3,0-7.9-3.6-7.9-7.9V116.3c0-4.3,3.6-7.9,7.9-7.9h92.8
			C271.3,108.4,274.8,112,274.8,116.3z"/>
		<path fill="#FED9BA" d="M216.3,40.7c-97,0-175.6,78.6-175.6,175.6c0,97,78.6,175.6,175.6,175.6c97,0,175.6-78.6,175.6-175.6
			C391.9,119.3,313.3,40.7,216.3,40.7z M291.2,339.7c0,4.8-3.9,8.6-8.6,8.6H158.5c-4.8,0-8.6-3.9-8.6-8.6v-256
			c0-4.8,3.9-8.6,8.6-8.6h124.1c4.8,0,8.6,3.9,8.6,8.6V339.7z"/>
		<path fill="#FED9BA" d="M246.2,323.2v3.4c0,3.9-3.2,7.2-7.2,7.2H202c-3.9,0-7.2-3.2-7.2-7.2v-3.4c0-3.9,3.2-7.2,7.2-7.2h37.1
			C243,316,246.2,319.3,246.2,323.2z"/>
		<path fill="#FED9BA" d="M190.1,93.1v-0.8c0-1.4,1.1-2.5,2.5-2.5h55.8c1.4,0,2.5,1.1,2.5,2.5v0.8c0,1.4-1.1,2.5-2.5,2.5h-55.8
			C191.2,95.6,190.1,94.4,190.1,93.1z"/>
		<path fill="#FED9BA" d="M274.8,116.3v181.4c0,4.3-3.6,7.9-7.9,7.9h-92.8c-4.3,0-7.9-3.6-7.9-7.9V116.3c0-4.3,3.6-7.9,7.9-7.9h92.8
			C271.3,108.4,274.8,112,274.8,116.3z"/>
		<path fill="#FED9BA" d="M274.8,116.3v181.4c0,4.3-3.6,7.9-7.9,7.9h-92.8c-4.3,0-7.9-3.6-7.9-7.9V116.3c0-4.3,3.6-7.9,7.9-7.9h92.8
			C271.3,108.4,274.8,112,274.8,116.3z"/>
		<path fill="#FED9BA" d="M250.9,92.2v0.8c0,1.4-1.1,2.5-2.5,2.5h-55.8c-1.4,0-2.5-1.1-2.5-2.5v-0.8c0-1.4,1.1-2.5,2.5-2.5h55.8
			C249.8,89.7,250.9,90.8,250.9,92.2z"/>
		<path fill="#FED9BA" d="M246.2,323.2v3.4c0,3.9-3.2,7.2-7.2,7.2H202c-3.9,0-7.2-3.2-7.2-7.2v-3.4c0-3.9,3.2-7.2,7.2-7.2h37.1
			C243,316,246.2,319.3,246.2,323.2z"/>
	</g>
</g>
<g id="Isolation_Mode">
	<g>
		<path fill="#FED9BA" d="M216.3,11.7c113,0,204.7,91.6,204.7,204.7c0,113-91.6,204.6-204.7,204.6c-113,0-204.7-91.6-204.7-204.6
			C11.7,103.3,103.3,11.7,216.3,11.7 M216.3,0c-29.2,0-57.5,5.7-84.2,17c-25.8,10.9-48.9,26.5-68.8,46.3
			c-19.9,19.9-35.5,43-46.3,68.8c-11.3,26.7-17,55-17,84.2c0,29.2,5.7,57.5,17,84.2c10.9,25.8,26.5,48.9,46.3,68.7
			c19.9,19.9,43,35.5,68.8,46.3c26.7,11.3,55,17,84.2,17c29.2,0,57.5-5.7,84.2-17c25.8-10.9,48.9-26.5,68.8-46.3
			c19.9-19.9,35.5-43,46.4-68.7c11.3-26.7,17-55,17-84.2c0-29.2-5.7-57.5-17-84.2c-10.9-25.8-26.5-48.9-46.4-68.8
			c-19.9-19.9-43-35.5-68.8-46.3C273.8,5.7,245.5,0,216.3,0L216.3,0z"/>
	</g>
</g>
</svg>
