<?xml version="1.0" encoding="utf-8"?>
<!-- Generator: Adobe Illustrator 18.1.1, SVG Export Plug-In . SVG Version: 6.00 Build 0)  -->
<!DOCTYPE svg PUBLIC "-//W3C//DTD SVG 1.1//EN" "http://www.w3.org/Graphics/SVG/1.1/DTD/svg11.dtd">
<svg version="1.1" id="Layer_1" xmlns="http://www.w3.org/2000/svg" xmlns:xlink="http://www.w3.org/1999/xlink" x="0px" y="0px"
	 viewBox="0 0 960 560" enable-background="new 0 0 960 560" xml:space="preserve">
<path fill="#E17A7B" d="M769.8,470.3c0,0-44.4-287.5-381.8-442.1C53.2-125.2,234.4,393.4,280.7,441.1s286.3,116,385.4,118.9
	S769.8,470.3,769.8,470.3z"/>
<circle fill="#FFDABA" cx="584.3" cy="421.1" r="20"/>
<path fill="#FFDABA" d="M356.2,277.6c-50.9-38.1-98.2-83.7-121.6-139.9c0,0-41.2-69,44.6-32.8s175.3,159.9,175.3,159.9
	s99.1,125.7,100.6,135.3c-1-7.7-96.2-54.5-106.8-61.3C419.1,321,387,300.5,356.2,277.6z"/>
<path fill="#FFDABA" d="M457.5,244.1c-24.4-32.1-45.1-68.3-49-106.1c0,0-12.5-48.7,33.8-11.1s78.4,128.1,78.4,128.1
	s37.6,93.3,36.9,99.4c0.7-4.8-49.2-50.4-54.7-56.4C488.3,281.7,472.4,263.6,457.5,244.1z"/>
<path fill="#FFDABA" d="M564.5,320c-17.1-36.4-29.7-76.2-25.8-113.8c0,0-2.2-50.2,35.2-3.9c37.4,46.3,49.9,141.6,49.9,141.6
	s17.4,99.1,15.2,104.7c1.9-4.6-37.6-59.6-41.7-66.6C586.7,363.4,574.9,342.2,564.5,320z"/>
<path fill="#FFDABA" d="M371.4,377c-39.1-9.4-78.1-24.4-105.2-50.9c0,0-40.5-29.7,19.1-29.9s141.8,49.2,141.8,49.2
	s88.3,48.2,91.4,53.5c-2.4-4.3-70.2-7.7-78.1-8.9C419.1,386.6,395.2,382.7,371.4,377z"/>
<path fill="#FFDABA" d="M485.4,475.1c-40.3-2.4-81-10.1-112.4-31.8c0,0-45.1-22.2,13.5-32.8s148.3,23.6,148.3,23.6
	s95.5,32.1,99.4,36.7c-3.1-3.9-70.4,4.6-78.4,4.8C534.1,476.1,510,476.6,485.4,475.1z"/>
</svg>
