<?xml version="1.0" encoding="utf-8"?>
<!-- Generator: Adobe Illustrator 18.1.1, SVG Export Plug-In . SVG Version: 6.00 Build 0)  -->
<!DOCTYPE svg PUBLIC "-//W3C//DTD SVG 1.1//EN" "http://www.w3.org/Graphics/SVG/1.1/DTD/svg11.dtd">
<svg version="1.1" id="Layer_1" xmlns="http://www.w3.org/2000/svg" xmlns:xlink="http://www.w3.org/1999/xlink" x="0px" y="0px"
	 viewBox="190.3 0 579.5 560" enable-background="new 190.3 0 579.5 560" xml:space="preserve">
<path fill="#753855" d="M769.7,470.2c0,0-44.3-287.4-381.7-441.9C53.4-125,234.4,393.4,280.7,441C327,488.9,567,557,665.9,559.8
	C765.2,562.7,769.7,470.2,769.7,470.2z"/>
<circle fill="#E17A7B" cx="584.5" cy="421.1" r="20"/>
<path fill="#E17A7B" d="M356.4,277.6c-50.8-38.2-98.1-83.6-121.5-139.8c0,0-41.2-69,44.7-32.8s175.3,159.8,175.3,159.8
	S554,390.4,555.3,400.1c-1-7.7-96.1-54.5-106.8-61.3C419.2,320.9,387.2,300.4,356.4,277.6z"/>
<path fill="#E17A7B" d="M457.7,243.9c-24.3-32-45.2-68.3-49-106.1c0,0-12.5-48.7,33.8-11.2c46.3,37.7,78.3,128,78.3,128
	s37.7,93.3,36.8,99.3c0.7-4.8-49.2-50.3-54.7-56.5C488.5,281.6,472.5,263.6,457.7,243.9z"/>
<path fill="#E17A7B" d="M564.6,319.9c-17.2-36.5-29.7-76.1-25.8-113.8c0,0-2.2-50.2,35.2-3.8c37.3,46.3,50,141.5,50,141.5
	s17.3,99.1,15.2,104.6c2-4.5-37.7-59.5-41.7-66.5C586.8,363.4,575,342.1,564.6,319.9z"/>
<path fill="#E17A7B" d="M371.5,376.9c-39-9.3-78.1-24.3-105.1-50.8c0,0-40.5-29.7,19-29.8c59.5-0.2,141.8,49.2,141.8,49.2
	s88.3,48.2,91.3,53.5c-2.3-4.3-70.1-7.7-78.1-9C419.2,386.6,395.3,382.6,371.5,376.9z"/>
<path fill="#E17A7B" d="M485.5,475c-40.3-2.3-81-10.2-112.3-31.8c0,0-45.2-22.2,13.5-32.8C445.3,399.7,535,434,535,434
	s95.5,32,99.3,36.7c-3.2-3.8-70.5,4.5-78.3,4.8C534.3,475.9,510.1,476.4,485.5,475z"/>
<ellipse transform="matrix(0.9486 -0.3165 0.3165 0.9486 107.3754 693.1882)" fill="#E17A7B" cx="2187.6" cy="16.1" rx="19.8" ry="18.7"/>
<g>
	<path fill="#E17A7B" d="M2288.8,221.8c0,0,0.8,1.5,2.2,4.8c1.3,3.3,3.3,7.8,5.3,14c1.8,6.2,4,13.8,5.5,22.8
		c1.3,9,2.7,19.3,2.3,30.7c-0.2,11.3-1.2,23.7-4,36.3c-0.5,3.3-1.5,6.3-2.3,9.7c-0.5,1.5-0.8,3.3-1.3,4.8c-0.5,1.8-1.2,3.3-1.5,4.8
		c-1.2,3.3-2.2,6.5-3.5,9.8c-1.3,3.3-2.8,6.5-4.2,9.8c-5.8,12.8-13.3,26-22.5,37.8l-3.3,4.7l-1.8,2.2l-1.8,2.2
		c-2.3,2.8-4.8,5.7-7.5,8.5c-2.3,2.8-5.3,5.5-7.8,8.3l-8.2,8.2c-2.8,2.7-5.7,5-8.5,7.5c-2.8,2.5-5.7,5-8.8,7.2c-3,2.2-6.2,4.3-9,6.5
		l-4.7,3.3l-2.2,1.5l-2.3,1.5c-6.2,4-12.3,8.2-18.7,11.7c-6.3,3.5-12.5,6.8-18.8,10c-12.7,5.8-24.7,11.8-36.8,16.2
		c-3,1.2-5.8,2.2-8.8,3.3c-2.8,1.2-5.7,2.2-8.5,3c-5.7,1.8-11.2,3.5-16.3,5.3c-2.7,0.8-5.3,1.5-7.7,2.3c-2.7,0.7-5,1.3-7.5,2
		c-4.8,1.3-9.3,2.3-13.8,3.5c-2.2,0.5-4.3,1.2-6.3,1.5c-1.2,0.2-2,0.5-3,0.7c-1.2,0.2-2,0.5-2.8,0.5c-3.7,0.7-7.2,1.3-10.5,2
		c-6.3,1.2-11.3,2-14.7,2.3c-3.5,0.5-5.3,0.8-5.3,0.8s1.8-0.7,4.8-2c3.3-1.3,7.8-3.3,13.8-5.5c5.8-2.3,13.2-5,21.2-8.8
		c4.2-1.8,8.3-3.5,12.8-5.5c2.2-0.8,4.7-2,7-2.8c2.3-1.2,4.8-2.2,7.2-3.3c5-2.2,10-4.7,15.3-7c2.7-1.2,5.3-2.3,8.2-3.7
		c2.7-1.3,5.5-2.7,8.2-4.2c11.2-5.3,22.3-11.8,34.2-18.2c5.7-3.5,11.3-7,17.3-10.5c2.8-1.8,5.7-4,8.5-5.7c2.8-2,5.7-4,8.5-5.8
		l2.2-1.5l2-1.5l4.2-3.3c2.8-2.2,5.5-4.2,8.3-6.3c2.8-2.2,5.3-4.7,8.2-6.8l7.8-6.8c10-9.7,19.8-19.7,28.2-30.5l3-4l1.5-2l1.5-2.2
		c2-2.8,3.7-5.5,5.7-8.3c0.5-0.7,0.8-1.3,1.3-2l1.3-2.2c0.8-1.5,1.8-2.8,2.3-4.3c1.8-2.8,3.5-5.7,4.8-8.5c1.5-2.8,2.8-5.7,4.3-8.5
		c1.3-2.8,2.3-5.8,3.7-8.8c0.7-1.5,1.3-2.8,1.8-4.3c0.5-1.5,1.2-2.8,1.5-4.3c0.5-1.5,1.2-2.8,1.5-4.3l0.8-2.2l0.7-2.2
		c0.8-2.8,1.8-5.7,2.3-8.5c0.7-2.8,1.3-5.7,2-8.3c0.7-2.8,1.2-5.5,1.5-8.3c0.5-2.7,1.2-5.3,1.3-7.8c0.2-2.7,0.7-5.3,0.8-7.7
		c0.2-2.7,0.5-5,0.5-7.5c0.2-2.3,0.2-4.8,0.2-7c0-2.3,0.2-4.7,0.2-6.8c0-8.8-0.5-16.3-1.2-22.5
		C2290.8,228.8,2288.8,221.8,2288.8,221.8z"/>
</g>
<g>
	<path fill="#E17A7B" d="M2254.3,230.6c0,0,0.7,1.3,2,4c1.2,2.7,2.8,6.5,4.3,11.8c1.5,5.3,3.3,11.7,4.3,19s2.2,16.2,2,25.7
		c-0.2,9.3-0.8,19.7-3.3,30.5c-0.5,2.7-1.3,5.3-2,8.2c-0.7,2.7-1.3,5.5-2.3,8.2c-0.8,2.7-1.8,5.5-2.8,8.3c-1.2,2.7-2.3,5.5-3.5,8.2
		c-5,11-11.2,21.7-18.8,31.7l-2.8,3.7l-1.3,2l-1.5,1.8c-2,2.3-4.2,4.8-6.2,7.2c-2,2.3-4.3,4.7-6.5,6.8l-6.8,6.8
		c-4.8,4.2-9.7,8.3-14.5,12.3c-2.7,2-5,3.7-7.5,5.5l-3.7,2.8c-1.3,0.8-2.3,1.8-4,2.7c-5.3,3.3-10.3,6.8-15.5,9.7
		c-5.3,2.8-10.5,5.7-15.8,8.5c-10.5,5-20.8,9.8-30.7,13.5c-2.3,0.8-5,2-7.5,2.8c-2.5,0.8-4.8,1.8-7.2,2.7c-4.8,1.5-9.3,3-13.8,4.3
		c-2.2,0.7-4.3,1.3-6.5,2c-2.2,0.7-4.2,1.2-6.3,1.5c-4.2,1.2-7.8,2-11.7,2.8c-1.8,0.5-3.5,0.8-5.3,1.3c-1.8,0.5-3.3,0.8-5,1.2
		c-3.3,0.7-6.2,1.2-8.8,1.5c-5.3,1.2-9.3,1.5-12.3,2.2c-2.8,0.5-4.3,0.7-4.3,0.7s1.3-0.7,4.2-1.8c2.7-1.2,6.5-2.8,11.7-4.7
		c5-2,11-4.2,17.7-7.2c3.5-1.5,7-3,11-4.7c2-0.8,4-1.5,5.8-2.3c2-0.8,4-1.8,6.2-2.8c4.2-2,8.3-3.7,12.8-5.8c2.2-0.8,4.3-2,6.8-3.3
		c2.2-1.2,4.7-2.2,6.8-3.5c9.3-4.3,18.7-9.8,28.5-15.2c4.8-3,9.7-5.8,14.5-8.8c2.3-1.5,4.8-3.3,7.2-4.8c2.3-1.5,4.8-3.3,7.2-4.8
		c4.8-3.3,9.2-7,14-10.5c4.7-3.7,9-7.7,13.3-11.3c8.3-8.2,16.7-16.3,23.7-25.3c3.7-4.3,6.8-9.2,9.8-13.8c0.8-1.2,1.5-2.3,2.2-3.5
		c0.7-1.2,1.3-2.3,2.2-3.5c1.3-2.3,2.8-4.7,4-7.2c1.3-2.3,2.3-4.8,3.7-7.2c1.2-2.3,2.2-4.8,3-7.2c1.2-2.3,2-4.8,2.8-7.2
		c0.5-1.3,0.8-2.3,1.3-3.5c0.5-1.2,0.8-2.3,1.2-3.5c0.7-2.3,1.3-4.8,2-7.2c0.7-2.3,1.2-4.8,1.5-7c0.7-2.3,0.8-4.7,1.3-6.8
		c0.5-2.2,0.8-4.3,1.2-6.8c0.2-2.2,0.5-4.3,0.8-6.5c0.2-2.2,0.2-4.2,0.5-6.2c0.2-2,0.2-4,0.2-5.8s0.2-3.7,0-5.7
		c0-7.2-0.5-13.5-1.2-18.8C2255.8,236.8,2254.3,230.6,2254.3,230.6z"/>
</g>
<path fill="#E17A7B" d="M1951.8,662.8c-5.3,12.3-12.3,24-22.3,31.5c0,0-12,11.7-8.8-7.8c3.3-19.5,23.8-43.5,23.8-43.5
	s20.5-26.3,22.5-27c-1.5,0.7-6.3,22.5-7.2,25C1957.4,647.8,1955.1,655.5,1951.8,662.8z"/>
</svg>
