<?xml version="1.0" encoding="utf-8"?>
<!-- Generator: Adobe Illustrator 18.1.1, SVG Export Plug-In . SVG Version: 6.00 Build 0)  -->
<!DOCTYPE svg PUBLIC "-//W3C//DTD SVG 1.1//EN" "http://www.w3.org/Graphics/SVG/1.1/DTD/svg11.dtd">
<svg version="1.1" id="Layer_1" xmlns="http://www.w3.org/2000/svg" xmlns:xlink="http://www.w3.org/1999/xlink" x="0px" y="0px"
	 viewBox="167.2 16.9 999.9 966" enable-background="new 167.2 16.9 999.9 966" xml:space="preserve">
<path fill="#753855" d="M346.3,982.8C517,978,931.1,860.5,1011,777.8c79.9-82.1,392.2-976.7-185.2-712.2
	C243.6,332.3,167.2,828.2,167.2,828.2S175,987.8,346.3,982.8z"/>
<circle fill="#E17A7B" cx="486.8" cy="743.5" r="34.5"/>
<path fill="#E17A7B" d="M721.5,601.5C703,613.2,538.9,694,537.2,707.2c2.2-16.7,173.3-233.5,173.3-233.5S864.7,260.5,1012.9,198
	s77.1,56.6,77.1,56.6c-40.4,97-122,175.3-209.7,241.2C827.3,535.2,772,570.6,721.5,601.5z"/>
<path fill="#E17A7B" d="M627.6,530c-9.5,10.7-95.6,89.2-94.4,97.5c-1.6-10.4,63.5-171.4,63.5-171.4s55.2-155.8,135.1-220.9
	c79.9-64.7,58.3,19.3,58.3,19.3c-6.6,65.2-42.6,127.9-84.6,183.1C680.1,471.7,652.4,502.8,627.6,530z"/>
<path fill="#E17A7B" d="M464.4,675.8c-6.9,12.1-75.4,107-72,114.8c-3.6-9.5,26.2-180.5,26.2-180.5s21.9-164.3,86.3-244.2
	c64.5-80.1,60.7,6.6,60.7,6.6c6.7,65.1-14.8,133.4-44.5,196.4C503.2,607.2,482.8,643.9,464.4,675.8z"/>
<path fill="#E17A7B" d="M735.4,689.8c-13.8,2.2-130.8,8.1-134.8,15.5c5.2-9.1,157.5-92.3,157.5-92.3s142-85.2,244.7-84.9
	c102.7,0.2,32.8,51.4,32.8,51.4c-46.6,45.7-114.1,71.6-181.4,87.7C813.3,677,772,684,735.4,689.8z"/>
<path fill="#E17A7B" d="M536,837.4c-13.5-0.5-129.6-14.8-135.1-8.3c6.6-8.1,171.4-63.3,171.4-63.3S727,706.6,828.1,725
	c101.3,18.3,23.3,56.6,23.3,56.6c-54,37.3-124.2,50.9-193.8,54.9C615.2,838.9,573.4,838.1,536,837.4z"/>
<ellipse transform="matrix(-0.3165 -0.9486 0.9486 -0.3165 4745.7344 3508.6697)" fill="#E17A7B" cx="3636.9" cy="44.6" rx="32.3" ry="34.2"/>
<g>
	<path fill="#E17A7B" d="M3811.5,399.6c0,0,1.4,2.6,3.8,8.3c2.2,5.7,5.7,13.5,9.1,24.2c3.1,10.7,6.9,23.8,9.5,39.3
		c2.2,15.5,4.7,33.3,4,53c-0.3,19.5-2.1,40.9-6.9,62.6c-0.9,5.7-2.6,10.9-4,16.7c-0.9,2.6-1.4,5.7-2.2,8.3c-0.9,3.1-2.1,5.7-2.6,8.3
		c-2.1,5.7-3.8,11.2-6,16.9c-2.2,5.7-4.8,11.2-7.2,16.9c-10,22.1-23,44.9-38.8,65.2l-5.7,8.1l-3.1,3.8l-3.1,3.8
		c-4,4.8-8.3,9.8-12.9,14.7c-4,4.8-9.1,9.5-13.5,14.3l-14.2,14.2c-4.8,4.7-9.8,8.6-14.7,12.9c-4.8,4.3-9.8,8.6-15.2,12.4
		c-5.2,3.8-10.7,7.4-15.5,11.2l-8.1,5.7l-3.8,2.6l-4,2.6c-10.7,6.9-21.2,14.2-32.3,20.2c-10.9,6-21.6,11.7-32.4,17.3
		c-21.9,10-42.6,20.4-63.5,28c-5.2,2.1-10,3.8-15.2,5.7c-4.8,2.1-9.8,3.8-14.7,5.2c-9.8,3.1-19.3,6-28.1,9.1
		c-4.7,1.4-9.1,2.6-13.3,4c-4.7,1.2-8.6,2.2-12.9,3.5c-8.3,2.2-16,4-23.8,6c-3.8,0.9-7.4,2.1-10.9,2.6c-2.1,0.3-3.5,0.9-5.2,1.2
		c-2.1,0.3-3.5,0.9-4.8,0.9c-6.4,1.2-12.4,2.2-18.1,3.5c-10.9,2.1-19.5,3.5-25.4,4c-6,0.9-9.1,1.4-9.1,1.4s3.1-1.2,8.3-3.5
		c5.7-2.2,13.5-5.7,23.8-9.5c10-4,22.8-8.6,36.6-15.2c7.2-3.1,14.3-6,22.1-9.5c3.8-1.4,8.1-3.5,12.1-4.8c4-2.1,8.3-3.8,12.4-5.7
		c8.6-3.8,17.3-8.1,26.4-12.1c4.7-2.1,9.1-4,14.1-6.4c4.7-2.2,9.5-4.7,14.2-7.2c19.3-9.1,38.5-20.4,59-31.4
		c9.8-6,19.5-12.1,29.9-18.1c4.8-3.1,9.8-6.9,14.7-9.8c4.8-3.5,9.8-6.9,14.7-10l3.8-2.6l3.5-2.6l7.2-5.7c4.8-3.8,9.5-7.2,14.3-10.9
		c4.8-3.8,9.1-8.1,14.1-11.7l13.5-11.7c17.3-16.7,34.2-34,48.7-52.6l5.2-6.9l2.6-3.5l2.6-3.8c3.5-4.8,6.4-9.5,9.8-14.3
		c0.9-1.2,1.4-2.2,2.2-3.5l2.2-3.8c1.4-2.6,3.1-4.8,4-7.4c3.1-4.8,6-9.8,8.3-14.7c2.6-4.8,4.8-9.8,7.4-14.7c2.2-4.8,4-10,6.4-15.2
		c1.2-2.6,2.2-4.8,3.1-7.4s2.1-4.8,2.6-7.4c0.9-2.6,2.1-4.8,2.6-7.4l1.4-3.8l1.2-3.8c1.4-4.8,3.1-9.8,4-14.7
		c1.2-4.8,2.2-9.8,3.5-14.3c1.2-4.8,2.1-9.5,2.6-14.3c0.9-4.7,2.1-9.1,2.2-13.5c0.3-4.7,1.2-9.1,1.4-13.3c0.3-4.7,0.9-8.6,0.9-12.9
		c0.3-4,0.3-8.3,0.3-12.1c0-4,0.3-8.1,0.3-11.7c0-15.2-0.9-28.1-2.1-38.8C3815,411.6,3811.5,399.6,3811.5,399.6z"/>
</g>
<g>
	<path fill="#E17A7B" d="M3752,414.8c0,0,1.2,2.2,3.5,6.9c2.1,4.7,4.8,11.2,7.4,20.4c2.6,9.1,5.7,20.2,7.4,32.8s3.8,28,3.5,44.3
		c-0.3,16-1.4,34-5.7,52.6c-0.9,4.7-2.2,9.1-3.5,14.2c-1.2,4.7-2.2,9.5-4,14.2c-1.4,4.7-3.1,9.5-4.8,14.3c-2.1,4.7-4,9.5-6,14.2
		c-8.6,19-19.3,37.4-32.4,54.7l-4.8,6.4l-2.2,3.5l-2.6,3.1c-3.5,4-7.2,8.3-10.7,12.4c-3.5,4-7.4,8.1-11.2,11.7l-11.7,11.7
		c-8.3,7.2-16.7,14.3-25,21.2c-4.7,3.5-8.6,6.4-12.9,9.5l-6.4,4.8c-2.2,1.4-4,3.1-6.9,4.7c-9.1,5.7-17.8,11.7-26.7,16.7
		c-9.1,4.8-18.1,9.8-27.3,14.7c-18.1,8.6-35.9,16.9-53,23.3c-4,1.4-8.6,3.5-12.9,4.8c-4.3,1.4-8.3,3.1-12.4,4.7
		c-8.3,2.6-16,5.2-23.8,7.4c-3.8,1.2-7.4,2.2-11.2,3.5c-3.8,1.2-7.2,2.1-10.9,2.6c-7.2,2.1-13.5,3.5-20.2,4.8
		c-3.1,0.9-6,1.4-9.1,2.2c-3.1,0.9-5.7,1.4-8.6,2.1c-5.7,1.2-10.7,2.1-15.2,2.6c-9.1,2.1-16,2.6-21.2,3.8c-4.8,0.9-7.4,1.2-7.4,1.2
		s2.2-1.2,7.2-3.1c4.7-2.1,11.2-4.8,20.2-8.1c8.6-3.5,19-7.2,30.5-12.4c6-2.6,12.1-5.2,19-8.1c3.5-1.4,6.9-2.6,10-4
		c3.5-1.4,6.9-3.1,10.7-4.8c7.2-3.5,14.3-6.4,22.1-10c3.8-1.4,7.4-3.5,11.7-5.7c3.8-2.1,8.1-3.8,11.7-6c16-7.4,32.3-16.9,49.2-26.2
		c8.3-5.2,16.7-10,25-15.2c4-2.6,8.3-5.7,12.4-8.3c4-2.6,8.3-5.7,12.4-8.3c8.3-5.7,15.9-12.1,24.2-18.1c8.1-6.4,15.5-13.3,23-19.5
		c14.3-14.2,28.8-28.1,40.9-43.7c6.4-7.4,11.7-15.9,16.9-23.8c1.4-2.1,2.6-4,3.8-6c1.2-2.1,2.2-4,3.8-6c2.2-4,4.8-8.1,6.9-12.4
		c2.2-4,4-8.3,6.4-12.4c2.1-4,3.8-8.3,5.2-12.4c2.1-4,3.5-8.3,4.8-12.4c0.9-2.2,1.4-4,2.2-6c0.9-2.1,1.4-4,2.1-6
		c1.2-4,2.2-8.3,3.5-12.4c1.2-4,2.1-8.3,2.6-12.1c1.2-4,1.4-8.1,2.2-11.7c0.9-3.8,1.4-7.4,2.1-11.7c0.3-3.8,0.9-7.4,1.4-11.2
		c0.3-3.8,0.3-7.2,0.9-10.7c0.3-3.5,0.3-6.9,0.3-10s0.3-6.4,0-9.8c0-12.4-0.9-23.3-2.1-32.4C3754.6,425.5,3752,414.8,3752,414.8z"/>
</g>
<path fill="#E17A7B" d="M3230,1160.6c-9.1,21.2-21.2,41.4-38.5,54.4c0,0-20.7,20.2-15.2-13.5c5.7-33.6,41.1-75.1,41.1-75.1
	s35.4-45.4,38.8-46.6c-2.6,1.2-10.9,38.8-12.4,43.1C3239.7,1134.7,3235.7,1148,3230,1160.6z"/>
</svg>
