<?xml version="1.0" encoding="utf-8"?>
<!-- Generator: Adobe Illustrator 18.1.1, SVG Export Plug-In . SVG Version: 6.00 Build 0)  -->
<!DOCTYPE svg PUBLIC "-//W3C//DTD SVG 1.1//EN" "http://www.w3.org/Graphics/SVG/1.1/DTD/svg11.dtd">
<svg version="1.1" id="Layer_1" xmlns="http://www.w3.org/2000/svg" xmlns:xlink="http://www.w3.org/1999/xlink" x="0px" y="0px"
	 viewBox="306.1 112 347.8 336.1" enable-background="new 306.1 112 347.8 336.1" xml:space="preserve">
<path fill="#753855" d="M653.8,394.2c0,0-26.6-172.5-229.1-265.2c-200.8-92-92.2,219.1-64.4,247.7c27.8,28.7,171.8,69.6,231.2,71.3
	C651.1,449.7,653.8,394.2,653.8,394.2z"/>
<circle fill="#E17A7B" cx="542.6" cy="364.7" r="12"/>
<path fill="#E17A7B" d="M405.7,278.6c-30.5-22.9-58.9-50.2-72.9-83.9c0,0-24.7-41.4,26.8-19.7s105.2,95.9,105.2,95.9
	s59.5,75.4,60.3,81.2c-0.6-4.6-57.7-32.7-64.1-36.8C443.4,304.6,424.2,292.3,405.7,278.6z"/>
<path fill="#E17A7B" d="M466.5,258.4c-14.6-19.2-27.1-41-29.4-63.7c0,0-7.5-29.2,20.3-6.7c27.8,22.6,47,76.8,47,76.8
	s22.6,56,22.1,59.6c0.4-2.9-29.5-30.2-32.8-33.9C485,281,475.4,270.2,466.5,258.4z"/>
<path fill="#E17A7B" d="M530.7,304c-10.3-21.9-17.8-45.7-15.5-68.3c0,0-1.3-30.1,21.1-2.3s30,84.9,30,84.9s10.4,59.5,9.1,62.8
	c1.2-2.7-22.6-35.7-25-39.9C544,330.1,536.9,317.3,530.7,304z"/>
<path fill="#E17A7B" d="M414.8,338.2c-23.4-5.6-46.9-14.6-63.1-30.5c0,0-24.3-17.8,11.4-17.9c35.7-0.1,85.1,29.5,85.1,29.5
	s53,28.9,54.8,32.1c-1.4-2.6-42.1-4.6-46.9-5.4C443.4,344,429.1,341.6,414.8,338.2z"/>
<path fill="#E17A7B" d="M483.2,397.1c-24.2-1.4-48.6-6.1-67.4-19.1c0,0-27.1-13.3,8.1-19.7s89,14.2,89,14.2s57.3,19.2,59.6,22
	c-1.9-2.3-42.3,2.7-47,2.9C512.5,397.6,498,397.9,483.2,397.1z"/>
<ellipse transform="matrix(0.3165 0.9486 -0.9486 0.3165 954.6117 -1215.9983)" fill="#E17A7B" cx="1321.1" cy="54.4" rx="11.2" ry="11.9"/>
<g>
	<path fill="#E17A7B" d="M1381.9,177.9c0,0,0.5,0.9,1.3,2.9c0.8,2,2,4.7,3.2,8.4c1.1,3.7,2.4,8.3,3.3,13.7
		c0.8,5.4,1.6,11.6,1.4,18.4c-0.1,6.8-0.7,14.2-2.4,21.8c-0.3,2-0.9,3.8-1.4,5.8c-0.3,0.9-0.5,2-0.8,2.9c-0.3,1.1-0.7,2-0.9,2.9
		c-0.7,2-1.3,3.9-2.1,5.9c-0.8,2-1.7,3.9-2.5,5.9c-3.5,7.7-8,15.6-13.5,22.7l-2,2.8l-1.1,1.3l-1.1,1.3c-1.4,1.7-2.9,3.4-4.5,5.1
		c-1.4,1.7-3.2,3.3-4.7,5l-4.9,4.9c-1.7,1.6-3.4,3-5.1,4.5s-3.4,3-5.3,4.3c-1.8,1.3-3.7,2.6-5.4,3.9l-2.8,2l-1.3,0.9l-1.4,0.9
		c-3.7,2.4-7.4,4.9-11.2,7s-7.5,4.1-11.3,6c-7.6,3.5-14.8,7.1-22.1,9.7c-1.8,0.7-3.5,1.3-5.3,2c-1.7,0.7-3.4,1.3-5.1,1.8
		c-3.4,1.1-6.7,2.1-9.8,3.2c-1.6,0.5-3.2,0.9-4.6,1.4c-1.6,0.4-3,0.8-4.5,1.2c-2.9,0.8-5.6,1.4-8.3,2.1c-1.3,0.3-2.6,0.7-3.8,0.9
		c-0.7,0.1-1.2,0.3-1.8,0.4c-0.7,0.1-1.2,0.3-1.7,0.3c-2.2,0.4-4.3,0.8-6.3,1.2c-3.8,0.7-6.8,1.2-8.8,1.4c-2.1,0.3-3.2,0.5-3.2,0.5
		s1.1-0.4,2.9-1.2c2-0.8,4.7-2,8.3-3.3c3.5-1.4,7.9-3,12.7-5.3c2.5-1.1,5-2.1,7.7-3.3c1.3-0.5,2.8-1.2,4.2-1.7
		c1.4-0.7,2.9-1.3,4.3-2c3-1.3,6-2.8,9.2-4.2c1.6-0.7,3.2-1.4,4.9-2.2c1.6-0.8,3.3-1.6,4.9-2.5c6.7-3.2,13.4-7.1,20.5-10.9
		c3.4-2.1,6.8-4.2,10.4-6.3c1.7-1.1,3.4-2.4,5.1-3.4c1.7-1.2,3.4-2.4,5.1-3.5l1.3-0.9l1.2-0.9l2.5-2c1.7-1.3,3.3-2.5,5-3.8
		s3.2-2.8,4.9-4.1l4.7-4.1c6-5.8,11.9-11.8,16.9-18.3l1.8-2.4l0.9-1.2l0.9-1.3c1.2-1.7,2.2-3.3,3.4-5c0.3-0.4,0.5-0.8,0.8-1.2
		l0.8-1.3c0.5-0.9,1.1-1.7,1.4-2.6c1.1-1.7,2.1-3.4,2.9-5.1c0.9-1.7,1.7-3.4,2.6-5.1c0.8-1.7,1.4-3.5,2.2-5.3
		c0.4-0.9,0.8-1.7,1.1-2.6c0.3-0.9,0.7-1.7,0.9-2.6c0.3-0.9,0.7-1.7,0.9-2.6l0.5-1.3l0.4-1.3c0.5-1.7,1.1-3.4,1.4-5.1
		c0.4-1.7,0.8-3.4,1.2-5c0.4-1.7,0.7-3.3,0.9-5c0.3-1.6,0.7-3.2,0.8-4.7c0.1-1.6,0.4-3.2,0.5-4.6c0.1-1.6,0.3-3,0.3-4.5
		c0.1-1.4,0.1-2.9,0.1-4.2c0-1.4,0.1-2.8,0.1-4.1c0-5.3-0.3-9.8-0.7-13.5C1383.1,182.1,1381.9,177.9,1381.9,177.9z"/>
</g>
<g>
	<path fill="#E17A7B" d="M1361.2,183.2c0,0,0.4,0.8,1.2,2.4c0.7,1.6,1.7,3.9,2.6,7.1c0.9,3.2,2,7,2.6,11.4s1.3,9.7,1.2,15.4
		c-0.1,5.6-0.5,11.8-2,18.3c-0.3,1.6-0.8,3.2-1.2,4.9c-0.4,1.6-0.8,3.3-1.4,4.9c-0.5,1.6-1.1,3.3-1.7,5c-0.7,1.6-1.4,3.3-2.1,4.9
		c-3,6.6-6.7,13-11.3,19l-1.7,2.2l-0.8,1.2l-0.9,1.1c-1.2,1.4-2.5,2.9-3.7,4.3c-1.2,1.4-2.6,2.8-3.9,4.1l-4.1,4.1
		c-2.9,2.5-5.8,5-8.7,7.4c-1.6,1.2-3,2.2-4.5,3.3l-2.2,1.7c-0.8,0.5-1.4,1.1-2.4,1.6c-3.2,2-6.2,4.1-9.3,5.8
		c-3.2,1.7-6.3,3.4-9.5,5.1c-6.3,3-12.5,5.9-18.4,8.1c-1.4,0.5-3,1.2-4.5,1.7s-2.9,1.1-4.3,1.6c-2.9,0.9-5.6,1.8-8.3,2.6
		c-1.3,0.4-2.6,0.8-3.9,1.2c-1.3,0.4-2.5,0.7-3.8,0.9c-2.5,0.7-4.7,1.2-7,1.7c-1.1,0.3-2.1,0.5-3.2,0.8s-2,0.5-3,0.7
		c-2,0.4-3.7,0.7-5.3,0.9c-3.2,0.7-5.6,0.9-7.4,1.3c-1.7,0.3-2.6,0.4-2.6,0.4s0.8-0.4,2.5-1.1c1.6-0.7,3.9-1.7,7-2.8
		c3-1.2,6.6-2.5,10.6-4.3c2.1-0.9,4.2-1.8,6.6-2.8c1.2-0.5,2.4-0.9,3.5-1.4c1.2-0.5,2.4-1.1,3.7-1.7c2.5-1.2,5-2.2,7.7-3.5
		c1.3-0.5,2.6-1.2,4.1-2c1.3-0.7,2.8-1.3,4.1-2.1c5.6-2.6,11.2-5.9,17.1-9.1c2.9-1.8,5.8-3.5,8.7-5.3c1.4-0.9,2.9-2,4.3-2.9
		s2.9-2,4.3-2.9c2.9-2,5.5-4.2,8.4-6.3c2.8-2.2,5.4-4.6,8-6.8c5-4.9,10-9.8,14.2-15.2c2.2-2.6,4.1-5.5,5.9-8.3
		c0.5-0.7,0.9-1.4,1.3-2.1c0.4-0.7,0.8-1.4,1.3-2.1c0.8-1.4,1.7-2.8,2.4-4.3c0.8-1.4,1.4-2.9,2.2-4.3c0.7-1.4,1.3-2.9,1.8-4.3
		c0.7-1.4,1.2-2.9,1.7-4.3c0.3-0.8,0.5-1.4,0.8-2.1c0.3-0.7,0.5-1.4,0.7-2.1c0.4-1.4,0.8-2.9,1.2-4.3c0.4-1.4,0.7-2.9,0.9-4.2
		c0.4-1.4,0.5-2.8,0.8-4.1c0.3-1.3,0.5-2.6,0.7-4.1c0.1-1.3,0.3-2.6,0.5-3.9c0.1-1.3,0.1-2.5,0.3-3.7c0.1-1.2,0.1-2.4,0.1-3.5
		s0.1-2.2,0-3.4c0-4.3-0.3-8.1-0.7-11.3C1362.1,186.9,1361.2,183.2,1361.2,183.2z"/>
</g>
<path fill="#E17A7B" d="M1179.6,442.6c-3.2,7.4-7.4,14.4-13.4,18.9c0,0-7.2,7-5.3-4.7c2-11.7,14.3-26.1,14.3-26.1
	s12.3-15.8,13.5-16.2c-0.9,0.4-3.8,13.5-4.3,15C1183,433.6,1181.6,438.2,1179.6,442.6z"/>
</svg>
