<?xml version="1.0" encoding="utf-8"?>
<!-- Generator: Adobe Illustrator 18.1.1, SVG Export Plug-In . SVG Version: 6.00 Build 0)  -->
<!DOCTYPE svg PUBLIC "-//W3C//DTD SVG 1.1//EN" "http://www.w3.org/Graphics/SVG/1.1/DTD/svg11.dtd">
<svg version="1.1" id="Layer_1" xmlns="http://www.w3.org/2000/svg" xmlns:xlink="http://www.w3.org/1999/xlink" x="0px" y="0px"
	 viewBox="0 0 288 288" enable-background="new 0 0 288 288" xml:space="preserve">
<g>
	<g>
		<path fill="#FFDABA" d="M193,143.9c51.6-11.6,43.9-40.2-6.5-24.5c38.9-35.9,17.9-56.8-17.9-17.9c15.7-50.4-12.9-58.1-24.5-6.5
			c-11.6-51.6-40.2-43.9-24.5,6.6c-35.9-38.9-56.8-17.9-17.9,17.9c-50.5-15.7-58.2,12.9-6.5,24.5c-51.6,11.6-43.9,40.2,6.5,24.5
			c-38.9,35.9-17.9,56.8,17.9,17.9c-15.7,50.4,12.9,58.1,24.5,6.5c11.6,51.6,40.2,43.9,24.5-6.6c35.9,38.9,56.8,17.9,17.9-17.9
			C236.9,184.2,244.5,155.5,193,143.9z"/>
	</g>
</g>
<g>
	<g>
		<path fill="#FFDABA" d="M178.6,109.4c28.3-44.7,2.6-59.5-21.9-12.7c2.1-52.8-27.5-52.8-25.3,0c-24.5-46.7-50.2-32-21.9,12.7
			c-44.7-28.2-59.5-2.6-12.7,22c-52.8-2.1-52.8,27.5,0,25.3c-46.8,24.6-32,50.2,12.7,21.9c-28.3,44.7-2.6,59.5,21.9,12.7
			c-2.1,52.8,27.5,52.8,25.3,0c24.5,46.7,50.2,32,21.9-12.7c44.7,28.3,59.5,2.6,12.6-22c52.8,2.1,52.8-27.5,0-25.3
			C238.1,106.8,223.2,81.1,178.6,109.4z"/>
	</g>
</g>
</svg>
