<?xml version="1.0" encoding="utf-8"?>
<!-- Generator: Adobe Illustrator 18.1.1, SVG Export Plug-In . SVG Version: 6.00 Build 0)  -->
<!DOCTYPE svg PUBLIC "-//W3C//DTD SVG 1.1//EN" "http://www.w3.org/Graphics/SVG/1.1/DTD/svg11.dtd">
<svg version="1.1" id="Layer_1" xmlns="http://www.w3.org/2000/svg" xmlns:xlink="http://www.w3.org/1999/xlink" x="0px" y="0px"
	 viewBox="0 0 288 288" enable-background="new 0 0 288 288" xml:space="preserve">
<g>
	<g>
		<path fill="#E17A7B" d="M191.6,96.3c38.9-61.5,3.6-81.9-30.1-17.5c2.9-72.7-37.8-72.7-34.8,0c-33.8-64.3-69-44-30.2,17.5
			C34.9,57.5,14.5,92.8,79,126.7c-72.7-2.9-72.7,37.8,0,34.8c-64.4,33.9-44.1,69.2,17.5,30.1c-38.9,61.5-3.6,81.9,30.1,17.5
			c-2.9,72.7,37.8,72.7,34.8,0c33.8,64.3,69,44,30.2-17.5c61.5,38.9,81.9,3.6,17.4-30.3c72.7,2.9,72.7-37.8,0-34.8
			C273.5,92.8,253,57.4,191.6,96.3z"/>
	</g>
</g>
</svg>
