<?xml version="1.0" encoding="utf-8"?>
<!-- Generator: Adobe Illustrator 18.1.1, SVG Export Plug-In . SVG Version: 6.00 Build 0)  -->
<!DOCTYPE svg PUBLIC "-//W3C//DTD SVG 1.1//EN" "http://www.w3.org/Graphics/SVG/1.1/DTD/svg11.dtd">
<svg version="1.1" id="Layer_1" xmlns="http://www.w3.org/2000/svg" xmlns:xlink="http://www.w3.org/1999/xlink" x="0px" y="0px"
	 viewBox="0 0 288 288" enable-background="new 0 0 288 288" xml:space="preserve">
<g>
	<g>
		<path fill="#B3E0A4" d="M223.9,143.9c84.1-18.9,71.6-65.6-10.6-39.9c63.4-58.5,29.2-92.6-29.2-29.2c25.6-82.2-21-94.7-40-10.6
			c-19-84.1-65.6-71.6-40,10.8c-58.5-63.4-92.6-29.2-29.2,29.2c-82.4-25.6-94.9,21-10.6,39.9c-84.1,18.9-71.6,65.6,10.6,39.9
			c-63.4,58.5-29.2,92.6,29.2,29.2c-25.6,82.2,21,94.7,40,10.6c18.9,84.1,65.6,71.6,39.9-10.8c58.5,63.4,92.6,29.2,29.2-29.2
			C295.5,209.6,308,162.8,223.9,143.9z"/>
		<path fill="none" stroke="#E1536B" stroke-width="4.2889" stroke-miterlimit="10" d="M203.2,128c17.9,5.2,35.1,10.5,51.8,15.8
			c-16.7,5.3-34,10.6-51.8,15.8c12.9,13.4,25.2,26.7,37.1,39.6c-17.1-3.7-34.8-7.7-52.9-12.2c4.4,18.1,8.5,35.7,12.2,52.9
			c-13-11.7-26.3-24.2-39.6-37.1c-5.2,17.8-10.5,35.1-15.9,51.8c-5.3-16.6-10.6-34-15.8-51.8c-13.4,12.9-26.7,25.2-39.6,37.1
			c3.7-17.3,7.8-34.8,12.2-52.9c-17.9,4.5-35.6,8.5-52.7,12.2c11.7-13,24-26.2,36.9-39.6c-17.9-5.2-35.1-10.5-51.8-15.8
			c16.7-5.3,34-10.6,51.8-15.8C72.2,114.6,59.8,101.3,48,88.4c17.1,3.7,34.8,7.7,52.9,12.2c-4.4-18.1-8.5-35.7-12.2-52.9
			c13,11.7,26.3,24.2,39.6,37.1c5.2-17.8,10.5-35.1,15.9-51.8c5.3,16.6,10.6,34,15.8,51.8c13.4-12.9,26.6-25.1,39.6-36.9
			c-3.7,17.1-7.7,34.7-12.2,52.7c18.1-4.4,35.7-8.5,52.9-12.2C228.4,101.4,216.1,114.7,203.2,128z"/>
	</g>
</g>
</svg>
